<?xml version="1.0" encoding="UTF-8"?>
<svg id="svg7384" width="22" height="22" version="1.1" viewBox="0 0 22 22" xmlns="http://www.w3.org/2000/svg" xmlns:cc="http://creativecommons.org/ns#" xmlns:dc="http://purl.org/dc/elements/1.1/" xmlns:osb="http://www.openswatchbook.org/uri/2009/osb" xmlns:rdf="http://www.w3.org/1999/02/22-rdf-syntax-ns#" xmlns:xlink="http://www.w3.org/1999/xlink">
 <metadata id="metadata90">
  <rdf:RDF>
   <cc:Work rdf:about="">
    <dc:format>image/svg+xml</dc:format>
    <dc:type rdf:resource="http://purl.org/dc/dcmitype/StillImage"/>
    <dc:title/>
    <dc:contributor>
     <cc:Agent>
      <dc:title>Barbara Muraus, Jakub Steiner, Klaus Staedtler</dc:title>
     </cc:Agent>
    </dc:contributor>
    <dc:description>Images originally created as the "Art Libre" icon set. Extended and adopted for GIMP</dc:description>
   </cc:Work>
  </rdf:RDF>
 </metadata>
 <defs id="defs7386">
  <linearGradient id="linearGradient19282-4" gradientTransform="matrix(.34683 0 0 .30621 -154.35 -275.32)" osb:paint="solid">
   <stop id="stop19284-0" style="stop-color:#222" offset="0"/>
  </linearGradient>
  <linearGradient id="linearGradient7501" x1="-21" x2="-9" y1="1047.4" y2="1047.4" gradientTransform="matrix(1.6667 0 0 1 -1444.4 -901.57)" gradientUnits="userSpaceOnUse" xlink:href="#linearGradient19282-4"/>
  <linearGradient id="linearGradient7503" x1="-21" x2="-9" y1="1041.4" y2="1041.4" gradientTransform="translate(-875.05 -901.57)" gradientUnits="userSpaceOnUse" xlink:href="#linearGradient19282-4"/>
  <linearGradient id="linearGradient7505" x1="-21" x2="-9" y1="1035.4" y2="1035.4" gradientTransform="matrix(1.6667 0 0 1 -1444.4 -907.57)" gradientUnits="userSpaceOnUse" xlink:href="#linearGradient19282-4"/>
  <linearGradient id="linearGradient7503-1" x1="-21" x2="-9" y1="1041.4" y2="1041.4" gradientTransform="translate(-875.05 -907.57)" gradientUnits="userSpaceOnUse" xlink:href="#linearGradient19282-4"/>
  <linearGradient id="linearGradient4295" x1="1" x2="8" y1="11" y2="11" gradientUnits="userSpaceOnUse" xlink:href="#linearGradient19282-4"/>
 </defs>
 <g id="g4322">
  <rect id="rect5996-2-1-0-7-8-0-9" transform="scale(-1,1)" x="-21" y="19" width="20" height="2" style="color:#c2c2c2;fill:url(#linearGradient7501);stroke-width:1.1736"/>
  <rect id="rect5996-2-1-0-7-5-7-64" transform="scale(-1,1)" x="-21" y="13" width="12" height="2" style="color:#c2c2c2;fill:url(#linearGradient7503);stroke-width:.90909"/>
  <rect id="rect5996-2-1-0-4-1-0" transform="scale(-1,1)" x="-21" y="1" width="20" height="2" style="color:#c2c2c2;fill:url(#linearGradient7505);stroke-width:1.1736"/>
  <rect id="rect5996-2-1-0-7-5-7-64-4" transform="scale(-1,1)" x="-21" y="7" width="12" height="2" style="color:#c2c2c2;fill:url(#linearGradient7503-1);stroke-width:.90909"/>
  <path id="path4538-7-9-6" d="m1 7.0004v1.3332c0 0.34249 0.18176 0.70448 0.4375 0.95834l2.3625 1.7081-2.3625 1.7084c-0.25574 0.25374-0.4375 0.61586-0.4375 0.95834v1.3333h0.57851l0.82149-2.5e-4c0.43323 0 0.77325-0.12 1.05-0.37499 1.9833-1.4306 2.5667-2.1942 4.55-3.6249l-4.55-3.6249c-0.27675-0.25449-0.61677-0.37499-1.05-0.37499l-0.82149 2.5e-4z" style="color:#c2c2c2;fill:url(#linearGradient4295);text-decoration-line:none;text-indent:0;text-transform:none"/>
 </g>
</svg>
