<?xml version="1.0" encoding="UTF-8"?>
<!-- Created with Inkscape (http://www.inkscape.org/) -->
<svg id="svg8" width="16" height="16" version="1.1" viewBox="0 0 4.2333 4.2333" xmlns="http://www.w3.org/2000/svg" xmlns:cc="http://creativecommons.org/ns#" xmlns:dc="http://purl.org/dc/elements/1.1/" xmlns:rdf="http://www.w3.org/1999/02/22-rdf-syntax-ns#">
 <metadata id="metadata5">
  <rdf:RDF>
   <cc:Work rdf:about="">
    <dc:format>image/svg+xml</dc:format>
    <dc:type rdf:resource="http://purl.org/dc/dcmitype/StillImage"/>
    <dc:title/>
   </cc:Work>
  </rdf:RDF>
 </metadata>
 <g id="layer4">
  <g id="g1396">
   <path id="path817-3-9" d="m2.1172 0.91089c-0.73673 0-1.4505 0.46772-1.9526 1.3286-0.054174 0.093105-0.026777 0.19847 0.041816 0.26519a0.27104 0.27104 0 0 1 0.042345-0.16726c0.47411-0.81277 1.157-1.2666 1.8685-1.2666 0.71145 0 1.3944 0.45388 1.8685 1.2666a0.27104 0.27104 0 0 1 0.041816 0.17467c0.072055-0.066313 0.098002-0.17735 0.042345-0.2726-0.50216-0.86085-1.2159-1.3286-1.9526-1.3286zm-0.23078 0.72622c-0.098326 0.019683-0.19703 0.050797-0.29483 0.096864a0.29811 0.29811 0 0 0-0.070928 0.19055 0.29811 0.29811 0 0 0 0.29377 0.30065 0.29811 0.29811 0 0 0 0.30224-0.29324l-0.298-0.0047638h0.298a0.29811 0.29811 0 0 0-0.23025-0.29006zm1.0978 0.31971c0.00615 0.042 0.012701 0.083857 0.012704 0.12756-2.75e-5 0.48614-0.39411 0.88022-0.88025 0.88025-0.48614-2.71e-5 -0.88022-0.39411-0.88025-0.88025 2.4e-6 -0.043528 0.0066-0.0852 0.012703-0.12704-0.18854 0.15846-0.36921 0.3722-0.53249 0.65211a0.27104 0.27104 0 0 1-0.18103 0.13921c0.92242 0.76132 2.2393 0.76112 3.1616-5.293e-4a0.27104 0.27104 0 0 1-0.17944-0.13868c-0.16354-0.28037-0.34468-0.49411-0.53355-0.65264z" style="color-rendering:auto;color:#ffffff;dominant-baseline:auto;fill:#222;font-feature-settings:normal;font-variant-alternates:normal;font-variant-caps:normal;font-variant-ligatures:normal;font-variant-numeric:normal;font-variant-position:normal;image-rendering:auto;isolation:auto;mix-blend-mode:normal;shape-padding:0;shape-rendering:auto;solid-color:#ffffff;text-decoration-color:#ffffff;text-decoration-line:none;text-decoration-style:solid;text-indent:0;text-orientation:mixed;text-transform:none;white-space:normal"/>
   <g id="g4996">
    <path id="path817-3-9-1" d="m0.35394 2.3506c0.94916-1.6272 2.5763-1.6272 3.5255 0" style="fill:none;stroke-linecap:round;stroke-width:.44012;stroke:#222"/>
    <path id="path817-3-9-9" d="m3.8794 2.3506c-0.94916 1.0848-2.5763 1.0848-3.5255 0" style="fill:none;stroke-linecap:round;stroke-width:.32521;stroke:#222"/>
   </g>
  </g>
 </g>
</svg>
