<?xml version="1.0" encoding="UTF-8"?>
<svg id="svg30571" width="16" height="16" version="1.1" viewBox="0 0 16 16" xmlns="http://www.w3.org/2000/svg" xmlns:cc="http://creativecommons.org/ns#" xmlns:dc="http://purl.org/dc/elements/1.1/" xmlns:osb="http://www.openswatchbook.org/uri/2009/osb" xmlns:rdf="http://www.w3.org/1999/02/22-rdf-syntax-ns#">
 <metadata id="metadata30576">
  <rdf:RDF>
   <cc:Work rdf:about="">
    <dc:format>image/svg+xml</dc:format>
    <dc:type rdf:resource="http://purl.org/dc/dcmitype/StillImage"/>
    <dc:creator>
     <cc:Agent>
      <dc:title>Klaus Staedtler</dc:title>
     </cc:Agent>
    </dc:creator>
    <dc:title/>
   </cc:Work>
  </rdf:RDF>
 </metadata>
 <g id="layer1" transform="translate(0 -1036.4)">
  <path id="rect4014" d="m2 1038.4h12v12h-12z" style="fill:#222;opacity:.3"/>
  <path id="rect4014-3" transform="translate(0 1036.4)" d="m0 0v0.5 0.54297h1v-0.042969-1h-1zm2 0v1h1.1602v-1h-1.1602zm2.1602 0v1h1.1602v-1h-1.1602zm2.1582 0v1h1.1602v-1h-1.1602zm2.1602 0v1h1.1602v-1h-1.1602zm2.1582 0v1h1.1621v-1h-1.1621zm2.1602 0v1h1.1602v-1h-1.1602zm2.1602 0v1h0.042969v0.042969h1v-1.043h-1.043zm-14.957 2.043v1.1602h1v-1.1602h-1zm15 0v1.1602h1v-1.1602h-1zm-15 2.1602v1.1602h1v-1.1602h-1zm15 0v1.1602h1v-1.1602h-1zm-15 2.1582v1.1602h1v-1.1602h-1zm15 0v1.1602h1v-1.1602h-1zm-15 2.1602v1.1602h1v-1.1602h-1zm15 0v1.1602h1v-1.1602h-1zm-15 2.1582v1.1602h1v-1.1602h-1zm15 0v1.1602h1v-1.1602h-1zm-15 2.1602v1.1602h1v-1.1602h-1zm15 0v1.1602h1v-1.1602h-1zm-15 2.1602v1h1.0176v-1h-0.017578-1zm2.0156 0v1h1.1602v-1h-1.1602zm2.1602 0v1h1.1602v-1h-1.1602zm2.1582 0v1h1.1602v-1h-1.1602zm2.1602 0v1h1.1602v-1h-1.1602zm2.1602 0v1h1.1602v-1h-1.1602zm2.1582 0v1h1.1602v-1h-1.1602zm2.1602 0v1h1.0273v-1h-1-0.027344z" style="color-rendering:auto;color:#ffffff;fill:#222;image-rendering:auto;isolation:auto;mix-blend-mode:normal;shape-rendering:auto;solid-color:#ffffff;text-decoration-color:#ffffff;text-decoration-line:none;text-decoration-style:solid;text-indent:0;text-transform:none;white-space:normal"/>
 </g>
</svg>
