<?xml version="1.0" encoding="UTF-8"?>
<svg id="svg7384" width="24" height="24" version="1.1" viewBox="0 0 24 24" xmlns="http://www.w3.org/2000/svg" xmlns:cc="http://creativecommons.org/ns#" xmlns:dc="http://purl.org/dc/elements/1.1/" xmlns:osb="http://www.openswatchbook.org/uri/2009/osb" xmlns:rdf="http://www.w3.org/1999/02/22-rdf-syntax-ns#" xmlns:xlink="http://www.w3.org/1999/xlink">
 <metadata id="metadata90">
  <rdf:RDF>
   <cc:Work rdf:about="">
    <dc:format>image/svg+xml</dc:format>
    <dc:type rdf:resource="http://purl.org/dc/dcmitype/StillImage"/>
    <dc:title/>
    <dc:contributor>
     <cc:Agent>
      <dc:title>Barbara Muraus, Jakub Steiner, Klaus Staedtler</dc:title>
     </cc:Agent>
    </dc:contributor>
    <dc:description>Images originally created as the "Art Libre" icon set. Extended and adopted for GIMP</dc:description>
   </cc:Work>
  </rdf:RDF>
 </metadata>
 <defs id="defs7386">
  <linearGradient id="linearGradient8041" x1="442.02" x2="458.02" y1="197.56" y2="197.56" gradientTransform="matrix(1.5 0 0 1.5 686.72 250.55)" gradientUnits="userSpaceOnUse">
   <stop id="stop19284-0" style="stop-color:#222" offset="0"/>
  </linearGradient>
 </defs>
 <path id="gimp-prefs-tool-options" d="m12-6.4468e-4c-0.43835 0-1.3241 0.4749-1.4063 0.7998l-1.2627 2.2002-9.3311 6.371e-4v15h3.211l-1.6934 4.6869c-0.11085 0.32996 0.0834 1.1471 0.50976 1.2861 0.46761 0.1525 1.1425-0.37497 1.1836-0.75l0.8994-2.223h15.794l0.84962 2.5131c0.19179 0.40026 0.67121 0.55104 1.0137 0.40137 0.35618-0.17519 0.59996-0.94959 0.42188-1.2246l-1.3975-4.6898h3.1729l0.0351-15h-9.1758l-1.5146-2.3503c-0.28006-0.36567-0.87821-0.64974-1.3096-0.64974zm0 1.5006 0.67091 1.5h-1.2598zm4.5 2.9994 1.7549 1.7549h2.4902v2.4902l1.7549 1.7549-1.7549 1.7549v2.4902h-2.4902l-1.7549 1.7549-1.7549-1.7549h-2.4902v-2.4902l-1.7549-1.7549 1.7549-1.7549v-2.4902h2.4902zm-4.6231 0.57422c0.11295 0.05745 0.1449 0.22787 0.02925 0.47754-1.438 2.3118-1.8122 4.2342-5.1328 7.8135-0.33558-0.70227-0.98172-1.1905-1.7344-1.2188 2.8049-3.8623 3.3173-3.8847 6.3164-6.8613 0.21327-0.21167 0.40857-0.26832 0.52149-0.21095zm4.6231 2.2442v6.3633c1.756 0 3.1816-1.4256 3.1816-3.1816 0-1.756-1.4257-3.1816-3.1816-3.1816zm-11.76 5.4727c0.77685-0.0183 1.3815 0.61733 1.5322 1.166 0.2535 0.92312-0.22118 1.6778-0.85254 2.0859-1.2111 0.783-4.1339 0.60194-4.3272-0.1464 2.0408 7.35e-4 1.8333-2.2227 2.8242-2.8418 0.28706-0.17936 0.56429-0.25756 0.82325-0.26368zm0.7793 5.2096h13.38l0.43067 2h-14.59z" style="fill:url(#linearGradient8041);stroke-width:.13086"/>
</svg>
