<?xml version="1.0" encoding="UTF-8"?>
<svg id="svg7384" width="16" height="16" version="1.1" viewBox="0 0 16 16" xmlns="http://www.w3.org/2000/svg" xmlns:cc="http://creativecommons.org/ns#" xmlns:dc="http://purl.org/dc/elements/1.1/" xmlns:osb="http://www.openswatchbook.org/uri/2009/osb" xmlns:rdf="http://www.w3.org/1999/02/22-rdf-syntax-ns#" xmlns:xlink="http://www.w3.org/1999/xlink">
 <metadata id="metadata90">
  <rdf:RDF>
   <cc:Work rdf:about="">
    <dc:format>image/svg+xml</dc:format>
    <dc:type rdf:resource="http://purl.org/dc/dcmitype/StillImage"/>
    <dc:title/>
    <dc:contributor>
     <cc:Agent>
      <dc:title>Barbara Muraus, Jakub Steiner, Klaus Staedtler</dc:title>
     </cc:Agent>
    </dc:contributor>
    <dc:description>Images originally created as the "Art Libre" icon set. Extended and adopted for GIMP</dc:description>
   </cc:Work>
  </rdf:RDF>
 </metadata>
 <defs id="defs7386">
  <linearGradient id="linearGradient19282-4" gradientTransform="matrix(.34683 0 0 .30621 -73.436 222.04)" osb:paint="solid">
   <stop id="stop19284-0" style="stop-color:#222" offset="0"/>
  </linearGradient>
  <linearGradient id="linearGradient7793" x1="88.063" x2="96.947" y1="545.13" y2="545.13" gradientTransform="translate(444.13 217.87)" gradientUnits="userSpaceOnUse" xlink:href="#linearGradient19282-4"/>
  <linearGradient id="linearGradient7795" x1="80.916" x2="96.863" y1="546.52" y2="546.52" gradientTransform="translate(444.13 217.87)" gradientUnits="userSpaceOnUse" xlink:href="#linearGradient19282-4"/>
 </defs>
 <g id="stock" transform="translate(15.995 -50.834)">
  <g id="gimp-input-device" transform="matrix(.99479 0 0 1 -96.49 -488.17)">
   <path id="path8540" d="m88.863 539.04-0.96644 0.0274 0.0437 0.49793c0.0454 0.46362-0.19538 0.96548-0.57274 1.2137-0.34056 0.24792-0.87291 0.19748-1.5374 0.21784-0.33622 3e-3 -0.6781 0.0836-0.99476 0.28008-0.31666 0.19651-0.62686 0.54463-0.69332 0.99585-0.15271 0.88869 0.43776 1.6267 1.1153 1.7739 0.77872 0.17531 1.5863 0.0753 2.5321 0 0.24674-0.0196 0.57931 0.0204 0.78375 0.12448 0.32193 0.25967 0.27437 0.40124 0.2713 0.87137l-5.8441-0.0394-0.625 0.0625-1.4588 8.9396h1.2962 13.384 1.266l-1.4249-9.0021-1.8125 2 0.375 5-10.552 0.0104 0.55172-5.0104 3.9699 0.0311c0.01-0.0105 0.0199-0.021 0.0301-0.0311l1-1 0.80865-0.92946v-0.0311-0.4668c-3e-3 -0.60893-0.39138-1.092-0.81389-1.3071-0.42251-0.21504-0.8972-0.24959-1.2962-0.21784-0.96067 0.0765-1.678 0.12442-2.2307 0h-0.0301c-0.19243-0.0418-0.40266-0.20884-0.33158-0.6224 0.0182-0.12377 0.075-0.19567 0.211-0.28009 0.13602-0.0845 0.33999-0.15423 0.51246-0.1556h0.0301c0.54401-0.0166 1.3283 0.11715 2.0197-0.40456 0.78977-0.596 1.1129-1.3894 1.0249-2.1162z" style="color:#ffffff;enable-background:new;fill:url(#linearGradient7795);text-decoration-line:none;text-indent:0;text-transform:none"/>
   <path id="path35143" d="m96.556 539.16c-0.09668-4e-3 -0.19414 0.0318-0.29389 0.125-4.1933 3.6808-7.9645 7.875-7.9645 9.875 0.15443 0.88996-0.20922 0.55704-0.23511 1.4375 0.04458 0.32567 0.29473 0.55542 0.5584 0.5 0.20874-0.044 0.88054-0.21668 0.94045-0.65625 1.3351 0.038 1.8142-1.6883 2.8508-3.0625l4.4672-7.4375c0.18228-0.37494-0.0332-0.76875-0.32328-0.78125z" style="fill:url(#linearGradient7793)"/>
  </g>
 </g>
</svg>
