<?xml version="1.0" encoding="UTF-8"?>
<svg id="svg7384" width="16" height="16" version="1.1" viewBox="0 0 16 16" xmlns="http://www.w3.org/2000/svg" xmlns:cc="http://creativecommons.org/ns#" xmlns:dc="http://purl.org/dc/elements/1.1/" xmlns:osb="http://www.openswatchbook.org/uri/2009/osb" xmlns:rdf="http://www.w3.org/1999/02/22-rdf-syntax-ns#" xmlns:xlink="http://www.w3.org/1999/xlink">
 <metadata id="metadata90">
  <rdf:RDF>
   <cc:Work rdf:about="">
    <dc:format>image/svg+xml</dc:format>
    <dc:type rdf:resource="http://purl.org/dc/dcmitype/StillImage"/>
    <dc:title/>
    <dc:contributor>
     <cc:Agent>
      <dc:title>Barbara Muraus, Jakub Steiner, Klaus Staedtler</dc:title>
     </cc:Agent>
    </dc:contributor>
    <dc:description>Images originally created as the "Art Libre" icon set. Extended and adopted for GIMP</dc:description>
   </cc:Work>
  </rdf:RDF>
 </metadata>
 <defs id="defs7386">
  <linearGradient id="linearGradient8286" x1="15" x2="31" y1="-32" y2="-32" gradientTransform="translate(774.94 420.29)" gradientUnits="userSpaceOnUse">
   <stop id="stop19284-0" style="stop-color:#222" offset="0"/>
  </linearGradient>
 </defs>
 <g id="preferences" transform="translate(-176.62 -222.29)">
  <g id="gimp-prefs-folders" transform="translate(161.62 262.29)">
   <path id="rect3845" transform="translate(15,-40)" d="m0.53125 0c-0.28913 0-0.53125 0.24212-0.53125 0.53125v14.938c0 0.2985 0.23264 0.53125 0.53125 0.53125h14.938c0.2986 0 0.53125-0.23265 0.53125-0.53125v-9.9375c0-0.2891-0.24212-0.53125-0.53125-0.53125h-12.469v8.5c0 0.277-0.223 0.5-0.5 0.5s-0.5-0.223-0.5-0.5v-9c0-0.277 0.223-0.5 0.5-0.5h2.9688 8.5312v-1.4062c0-0.3272-0.26666-0.59375-0.59375-0.59375h-7.4062v-1.4688c0-0.28915-0.24212-0.53125-0.53125-0.53125h-4.9375zm9.4453 6c0.17974 0 0.45167 0.14138 0.56836 0.32422l0.63281 1.1758h3.8223v7.5h-10v-7.5h3.8867l0.52734-1.0996c0.03425-0.16246 0.37986-0.40039 0.5625-0.40039zm0.023438 0.75-0.3125 0.75h0.625l-0.3125-0.75zm-4.375 1.5v6h8.75v-6h-8.75z" style="fill:url(#linearGradient8286)"/>
  </g>
 </g>
</svg>
