<?xml version="1.0" encoding="UTF-8"?>
<!-- Created with Inkscape (http://www.inkscape.org/) -->
<svg id="svg30571" width="24" height="24" version="1.1" viewBox="0 0 24 24" xmlns="http://www.w3.org/2000/svg" xmlns:cc="http://creativecommons.org/ns#" xmlns:dc="http://purl.org/dc/elements/1.1/" xmlns:rdf="http://www.w3.org/1999/02/22-rdf-syntax-ns#">
 <metadata id="metadata30576">
  <rdf:RDF>
   <cc:Work rdf:about="">
    <dc:format>image/svg+xml</dc:format>
    <dc:type rdf:resource="http://purl.org/dc/dcmitype/StillImage"/>
    <dc:title/>
    <dc:creator>
     <cc:Agent>
      <dc:title>Klaus Staedtler</dc:title>
     </cc:Agent>
    </dc:creator>
   </cc:Work>
  </rdf:RDF>
 </metadata>
 <g id="layer1" transform="translate(0 -1028.4)">
  <g id="g4309">
   <path id="path3520" d="m2.5714 1034.4c-0.78571 0-1.5714 0.75-1.5714 1.5v6c0 0.75 0.78571 1.5 1.5714 1.5h1.4286v-4h16v4h1.4286c0.78572 0 1.5714-0.75 1.5714-1.5v-6c0-0.75-0.78571-1.5-1.5714-1.5z" style="fill:#222"/>
   <path id="path4804" d="m5 1029.4v4h14v-4z" style="fill:#222"/>
   <path id="rect17148" d="m5 1040.4v11h14v-11zm3.5 3v-2h8.5v3.7143h-1.5v-1.7143h-1.5v5h-7v-5zm6.625 5h1.75v2h-1.75z" style="fill:#222"/>
   <path id="rect17153" d="m7.5 1041.9v3h1.5v1.5h1.5v1.5h3v-1.5h-1.5v-1.5h-1.5v-1.5h1.5v1.5h1.5v-3zm1.5 4.5h-1.5v1.5h1.5z" style="fill:#222;opacity:.3"/>
   <rect id="rect17173" x="10.5" y="1043.4" width="2" height="1.5" style="fill:#222"/>
   <rect id="rect17175" x="12" y="1044.9" width="2" height="1.5" style="fill:#222"/>
   <rect id="rect17177" x="9" y="1046.4" width="2" height="1.5" style="fill:#222"/>
   <rect id="rect17179" x="7.5" y="1044.9" width="2" height="1.5" style="fill:#222"/>
   <rect id="rect17181" x="15" y="1047.9" width="2" height="1.5" style="fill:#222;opacity:.3"/>
   <rect id="rect17186" x="13.5" y="1041.9" width="3" height="1.5" style="fill:#222;opacity:.3"/>
   <rect id="rect17191" x="15" y="1043.4" width="1.5" height="1.5" style="fill:#222;opacity:.3"/>
  </g>
 </g>
</svg>
