<?xml version="1.0" encoding="UTF-8"?>
<svg id="svg7384" width="24" height="24" version="1.1" viewBox="0 0 24 24" xmlns="http://www.w3.org/2000/svg" xmlns:cc="http://creativecommons.org/ns#" xmlns:dc="http://purl.org/dc/elements/1.1/" xmlns:osb="http://www.openswatchbook.org/uri/2009/osb" xmlns:rdf="http://www.w3.org/1999/02/22-rdf-syntax-ns#" xmlns:xlink="http://www.w3.org/1999/xlink">
 <metadata id="metadata90">
  <rdf:RDF>
   <cc:Work rdf:about="">
    <dc:format>image/svg+xml</dc:format>
    <dc:type rdf:resource="http://purl.org/dc/dcmitype/StillImage"/>
    <dc:title/>
    <dc:contributor>
     <cc:Agent>
      <dc:title>Barbara Muraus, Jakub Steiner, Klaus Staedtler</dc:title>
     </cc:Agent>
    </dc:contributor>
    <dc:description>Images originally created as the "Art Libre" icon set. Extended and adopted for GIMP</dc:description>
   </cc:Work>
  </rdf:RDF>
 </metadata>
 <defs id="defs7386">
  <linearGradient id="linearGradient19282-4" gradientTransform="matrix(.34683 0 0 .30621 -154.35 -275.32)" osb:paint="solid">
   <stop id="stop19284-0" style="stop-color:#222" offset="0"/>
  </linearGradient>
  <linearGradient id="linearGradient7528" x1="874.23" x2="894.23" y1="111.88" y2="111.88" gradientTransform="matrix(1.1 0 0 1.25 3.8162 -3.251)" gradientUnits="userSpaceOnUse" xlink:href="#linearGradient19282-4"/>
  <linearGradient id="linearGradient7534" x1="13" x2="21" y1="1037.4" y2="1037.4" gradientTransform="matrix(1.1284 0 0 1.0987 988.65 -1029)" gradientUnits="userSpaceOnUse" xlink:href="#linearGradient19282-4"/>
  <linearGradient id="linearGradient7540" x1="1" x2="9" y1="1037.9" y2="1037.9" gradientTransform="matrix(1.127 0 0 1.1094 987.98 -1039.1)" gradientUnits="userSpaceOnUse" xlink:href="#linearGradient19282-4"/>
 </defs>
 <g id="g4268">
  <path id="path18497-9-8-1" d="m5.5805 13c-0.28257 0-0.50369 0.12288-0.68534 0.35645l-3.8951 4.6435c1.2917 1.3322 2.5933 3.2949 3.8951 4.6411 0.18165 0.24712 0.40278 0.35889 0.68534 0.35889h0.91953v-1.25c0-0.31588-0.11204-0.65992-0.28359-0.89355l-1.39-1.8565h14.345l-1.39 1.8565c-0.17156 0.23362-0.28145 0.57768-0.28145 0.89355v1.25h0.91739c0.28257 0 0.5037-0.11175 0.68534-0.35889 1.3018-1.3462 2.6055-3.3089 3.8973-4.6411l-3.8973-4.6435c-0.18164-0.23362-0.40278-0.35645-0.68534-0.35645h-0.53496l-0.38243 0.02688v1.25c0 0.316 0.11998 0.66019 0.28145 0.89356l1.3686 1.8296h-14.302l1.3686-1.8296c0.16147-0.23338 0.28359-0.57756 0.28359-0.89356v-1.25l-0.38457-0.02688z" style="color:#ffffff;fill:url(#linearGradient7528);stroke-width:.90267;text-decoration-line:none;text-indent:0;text-transform:none"/>
  <path id="path18616-0-4-7-3" d="m2.9982 3.0007h4.0007c1.0551 0 2.0004 0.99033 2.0004 2.0024v5.9962h-5.0119c-2.6159 0-2.6818-4.0047 0-4.0047h5.0119" style="color:#ffffff;fill:none;stroke-width:2.0014;stroke:url(#linearGradient7540)"/>
  <path id="path18618-3-4-3-9" d="m15.001 1v9.999h5.2574c2.2878 0 2.3537-5.005 0-5.005h-5.2574" style="color:#ffffff;fill:none;stroke-width:2.0019;stroke:url(#linearGradient7534)"/>
 </g>
</svg>
