<?xml version="1.0" encoding="UTF-8"?>
<svg id="svg30571" width="24" height="24" version="1.1" viewBox="0 0 24 24" xmlns="http://www.w3.org/2000/svg" xmlns:cc="http://creativecommons.org/ns#" xmlns:dc="http://purl.org/dc/elements/1.1/" xmlns:osb="http://www.openswatchbook.org/uri/2009/osb" xmlns:rdf="http://www.w3.org/1999/02/22-rdf-syntax-ns#">
 <metadata id="metadata30576">
  <rdf:RDF>
   <cc:Work rdf:about="">
    <dc:format>image/svg+xml</dc:format>
    <dc:type rdf:resource="http://purl.org/dc/dcmitype/StillImage"/>
    <dc:creator>
     <cc:Agent>
      <dc:title>Klaus Staedtler</dc:title>
     </cc:Agent>
    </dc:creator>
    <dc:title/>
   </cc:Work>
  </rdf:RDF>
 </metadata>
 <g id="layer1" transform="translate(0 -1028.4)">
  <g id="g4248">
   <rect id="rect13518" y="1028.4" width="24" height="24" style="fill:none"/>
   <path id="path13520" d="m16.5 1042.4-6 3h-1.5l-3.75-1.875-1.2656 1.875-3.9844 6h18l6-9z" style="fill:#222"/>
   <path id="path3826" d="m3 1029.4v7.5087c0 2.6653 3.122 4.8927 6.9756 6.4913 3.9512-1.5986 7.0244-3.4032 7.0244-6.3944v-7.6056zm1.561 3.1004h4.6829v1.5501 1.5502l-3.122-1.5502zm6.2439 0h4.6829l-1.561 1.5501-3.122 1.5502zm-4.6829 4.6505h7.8049c-3.8632 6.9593-7.8049 0-7.8049 0z" style="color:#ffffff;fill-rule:evenodd;fill:#222"/>
  </g>
 </g>
</svg>
