<?xml version="1.0" encoding="UTF-8"?>
<svg id="svg7384" width="24" height="24" version="1.1" viewBox="0 0 24 24" xmlns="http://www.w3.org/2000/svg" xmlns:cc="http://creativecommons.org/ns#" xmlns:dc="http://purl.org/dc/elements/1.1/" xmlns:osb="http://www.openswatchbook.org/uri/2009/osb" xmlns:rdf="http://www.w3.org/1999/02/22-rdf-syntax-ns#" xmlns:xlink="http://www.w3.org/1999/xlink">
 <metadata id="metadata90">
  <rdf:RDF>
   <cc:Work rdf:about="">
    <dc:format>image/svg+xml</dc:format>
    <dc:type rdf:resource="http://purl.org/dc/dcmitype/StillImage"/>
    <dc:title/>
    <dc:contributor>
     <cc:Agent>
      <dc:title>Barbara Muraus, Jakub Steiner, Klaus Staedtler</dc:title>
     </cc:Agent>
    </dc:contributor>
    <dc:description>Images originally created as the "Art Libre" icon set. Extended and adopted for GIMP</dc:description>
   </cc:Work>
  </rdf:RDF>
 </metadata>
 <defs id="defs7386">
  <linearGradient id="linearGradient8364" x1="135" x2="151" y1="-32" y2="-32" gradientTransform="translate(811.49 421.87)" gradientUnits="userSpaceOnUse">
   <stop id="stop19284-0" style="stop-color:#414141" offset="0"/>
  </linearGradient>
 </defs>
 <g id="preferences" transform="matrix(1.5 0 0 1.5 -297.25 -395.81)">
  <g id="gimp-prefs-folders-plug-ins" transform="translate(63.168 303.87)">
   <g id="g612" transform="translate(120)">
    <path id="path29116" transform="translate(-120)" d="m135.53-40c-0.28913 0-0.53125 0.24212-0.53125 0.53125v14.938c0 0.2985 0.23264 0.53125 0.53125 0.53125h14.938c0.2986 0 0.53125-0.23265 0.53125-0.53125v-9.6354c0-0.2891-0.24223-0.49206-0.53125-0.5h-12.135v8.1667c0 0.277-0.38966 0.5-0.66666 0.5s-0.66667-0.223-0.66667-0.5v-9c0-0.277 0.223-0.5 0.5-0.5h11.5v-1.4062c0-0.3272-0.26666-0.59375-0.59375-0.59375h-7.4062v-1.4688c0-0.28915-0.24212-0.53125-0.53125-0.53125zm9.1354 6c0.5 0 0.83333 0.16667 0.83333 0.5v1.5h2.1667v2l-1.1667-3e-6c-0.66609-0.02775-0.66667 2 0 2l1.1667 3e-6v2l-6-3e-6v-2l-1.1042 3e-6c-0.66667 2e-6 -0.66667-2 0-2l1.1042-3e-6v-2l2 3e-6v-1.5c0-0.33333 0.5-0.5 1-0.5z" style="fill:url(#linearGradient8364)"/>
   </g>
  </g>
 </g>
</svg>
