<?xml version="1.0" encoding="UTF-8"?>
<!-- Created with Inkscape (http://www.inkscape.org/) -->
<svg id="svg30571" width="24" height="24" version="1.1" viewBox="0 0 24 24" xmlns="http://www.w3.org/2000/svg" xmlns:cc="http://creativecommons.org/ns#" xmlns:dc="http://purl.org/dc/elements/1.1/" xmlns:osb="http://www.openswatchbook.org/uri/2009/osb" xmlns:rdf="http://www.w3.org/1999/02/22-rdf-syntax-ns#" xmlns:xlink="http://www.w3.org/1999/xlink">
 <defs id="defs30573">
  <linearGradient id="linearGradient7922" x1="142" x2="149" y1="445.99" y2="445.99" gradientTransform="matrix(1.5 0 0 1.4879 -212 375.28)" gradientUnits="userSpaceOnUse" xlink:href="#linearGradient19282-4"/>
  <linearGradient id="linearGradient19282-4" gradientTransform="matrix(.23668 0 0 .20305 -212.51 96.939)" osb:paint="solid">
   <stop id="stop19284-0" style="stop-color:#414141" offset="0"/>
  </linearGradient>
  <linearGradient id="linearGradient7924" x1="147" x2="151" y1="446" y2="446" gradientTransform="matrix(1.5 0 0 1.5 -211.5 369.86)" gradientUnits="userSpaceOnUse" xlink:href="#linearGradient19282-4"/>
  <linearGradient id="linearGradient7926" x1="148" x2="154" y1="446" y2="446" gradientTransform="matrix(1.8333 0 0 1.625 -262.33 314.11)" gradientUnits="userSpaceOnUse" xlink:href="#linearGradient19282-4"/>
  <linearGradient id="linearGradient7918" x1="-97" x2="-95" y1="226" y2="226" gradientTransform="matrix(1.5 0 0 1.5 149.5 694.86)" gradientUnits="userSpaceOnUse" xlink:href="#linearGradient19282-4"/>
  <linearGradient id="linearGradient7920" x1="144" x2="146" y1="449" y2="449" gradientTransform="matrix(1.5 0 0 1.5 -212 370.36)" gradientUnits="userSpaceOnUse" xlink:href="#linearGradient19282-4"/>
  <linearGradient id="linearGradient7928" x1="-99" x2="-85" y1="229" y2="229" gradientTransform="matrix(1.5714 0 0 1.5833 156.57 676.28)" gradientUnits="userSpaceOnUse" xlink:href="#linearGradient19282-4"/>
  <linearGradient id="linearGradient7930" x1="145" x2="153" y1="453.5" y2="453.5" gradientTransform="matrix(1.5 0 0 2 -211.5 143.36)" gradientUnits="userSpaceOnUse" xlink:href="#linearGradient19282-4"/>
 </defs>
 <metadata id="metadata30576">
  <rdf:RDF>
   <cc:Work rdf:about="">
    <dc:format>image/svg+xml</dc:format>
    <dc:type rdf:resource="http://purl.org/dc/dcmitype/StillImage"/>
    <dc:title/>
    <dc:creator>
     <cc:Agent>
      <dc:title>Klaus Staedtler</dc:title>
     </cc:Agent>
    </dc:creator>
   </cc:Work>
  </rdf:RDF>
 </metadata>
 <g id="layer1" transform="translate(0 -1028.4)">
  <g id="g4321">
   <path id="path11885" d="m11.5 1040.4v-2.9758c-5.9845-0.011-4.5157-0.049-10.5 0v2.9758c5.9824-0.1534 4.5143-0.021 10.5 0z" style="fill:url(#linearGradient7922)"/>
   <path id="path11889" d="m15 1038.9-6-4.5v9z" style="fill:url(#linearGradient7924)"/>
   <path id="rect11909" d="m9 1032.4 9.1667 6.5-9.1667 6.5h11v-13z" style="fill:url(#linearGradient7926);opacity:.3"/>
   <rect id="rect11917" x="4" y="1032.4" width="3" height="3" rx=".70312" ry="0" style="fill:url(#linearGradient7918);opacity:.3"/>
   <rect id="rect11919" x="4" y="1042.4" width="3" height="3" rx=".75" ry="0" style="fill:url(#linearGradient7920);opacity:.3"/>
   <path id="rect11926" d="m2.8661 1029.4c-1.0414 0-1.8661 0.8309-1.8661 1.8803v15.24c0 1.0493 0.82469 1.8802 1.8661 1.8802h18.268c1.0414 0 1.8661-0.8309 1.8661-1.8802v-15.24c0-1.0494-0.82469-1.8803-1.8661-1.8803zm1.5714 1h15.125c1.0414 0 2.4375 1.4143 2.4375 2.4636v12.073c0 1.0492-1.3961 2.4635-2.4375 2.4635h-15.125c-1.0414 0-2.4375-1.4143-2.4375-2.4635v-12.073c0-1.0493 1.3961-2.4636 2.4375-2.4636z" style="fill:url(#linearGradient7928)"/>
   <rect id="rect11931" x="6" y="1049.4" width="12" height="2" rx="1.5" ry="1" style="fill:url(#linearGradient7930)"/>
  </g>
 </g>
</svg>
