<?xml version="1.0" encoding="UTF-8"?>
<!-- Created with Inkscape (http://www.inkscape.org/) -->
<svg id="svg2928" width="16" height="16" version="1.1" viewBox="0 0 16 16" xmlns="http://www.w3.org/2000/svg" xmlns:cc="http://creativecommons.org/ns#" xmlns:dc="http://purl.org/dc/elements/1.1/" xmlns:rdf="http://www.w3.org/1999/02/22-rdf-syntax-ns#" xmlns:xlink="http://www.w3.org/1999/xlink">
 <defs id="defs2930">
  <linearGradient id="linearGradient8200" x1="2" x2="8.9176" gradientTransform="matrix(.38179 0 0 .33704 .54501 5.5883)" gradientUnits="userSpaceOnUse">
   <stop id="stop3934" stop-color="#709bd2" offset="0"/>
   <stop id="stop3936" stop-color="#3465a4" offset="1"/>
  </linearGradient>
  <linearGradient id="linearGradient8202" x1="83.844" x2="119" gradientTransform="matrix(.27984 -.16617 .16156 .28781 -24.674 24.794)" gradientUnits="userSpaceOnUse">
   <stop id="stop5137" stop-color="#818181" offset="0"/>
   <stop id="stop5139" stop-color="#fff" offset=".5"/>
   <stop id="stop4398" stop-color="#bebebe" offset="1"/>
  </linearGradient>
 </defs>
 <metadata id="metadata2933">
  <rdf:RDF>
   <cc:Work rdf:about="">
    <dc:format>image/svg+xml</dc:format>
    <dc:type rdf:resource="http://purl.org/dc/dcmitype/StillImage"/>
    <dc:title>Fill Tool</dc:title>
    <dc:date>2005-08-19</dc:date>
    <dc:creator>
     <cc:Agent>
      <dc:title>Andreas Nilsson</dc:title>
     </cc:Agent>
    </dc:creator>
    <cc:license rdf:resource="http://creativecommons.org/licenses/GPL/2.0/"/>
    <dc:subject>
     <rdf:Bag>
      <rdf:li>fill</rdf:li>
      <rdf:li>bucket</rdf:li>
     </rdf:Bag>
    </dc:subject>
   </cc:Work>
   <cc:License rdf:about="http://creativecommons.org/licenses/GPL/2.0/">
    <cc:permits rdf:resource="http://web.resource.org/cc/Reproduction"/>
    <cc:permits rdf:resource="http://web.resource.org/cc/Distribution"/>
    <cc:requires rdf:resource="http://web.resource.org/cc/Notice"/>
    <cc:permits rdf:resource="http://web.resource.org/cc/DerivativeWorks"/>
    <cc:requires rdf:resource="http://web.resource.org/cc/ShareAlike"/>
    <cc:requires rdf:resource="http://web.resource.org/cc/SourceCode"/>
   </cc:License>
  </rdf:RDF>
 </metadata>
 <g id="layer1" transform="translate(0,-6)">
  <g id="g17431">
   <path id="path2900-9" d="m7.81 11.652-5.5852-0.11214c-0.71125 0-1.7249 0.77573-1.7249 1.8754v4.0982c0 1.5393 1.9822 1.5357 1.9822 0.02925l0.038949-4.0216 5.289-1.8691z" style="fill-rule:evenodd;fill:url(#linearGradient8200);stroke-width:.99893;stroke:#204a87"/>
   <path id="path2902-8" d="m2.7056 13.417 4.4228 7.4828c0.33972 0.54979 0.88589 0.76113 1.4124 0.48046l6.4188-3.8115c0.48825-0.34189 0.71467-0.98401 0.40287-1.5464l-4.4279-7.3437z" style="fill-rule:evenodd;fill:url(#linearGradient8202);stroke-width:.99836;stroke:#555753"/>
   <ellipse id="path2904-4" transform="matrix(.86559 -.50075 .49925 .86646 0 0)" cx=".79755" cy="16.619" rx="1.4672" ry="1.4666" style="fill-rule:evenodd;fill:#d5d5d5;stroke-linecap:round;stroke-width:1.0679;stroke:#555753"/>
   <path id="path2906-7" d="m3.9781 13.766 3.5698 6.0817c0.45504 0.80421 0.48234 0.78995 1.0567 0.38685l5.3338-3.2217c0.63753-0.37924 0.77115-0.23541 0.37458-0.94311l-3.6943-6.1546z" style="fill:none;stroke-width:.93491;stroke:#fff"/>
   <path id="path2908-3" d="m8.9872 12.559v-4.2912c0-2.3789 5.0006-2.3056 5.0006 0.099046v4.7557" style="fill:none;stroke-linecap:round;stroke-width:.99893;stroke:#555753"/>
  </g>
 </g>
</svg>
