<?xml version="1.0" encoding="UTF-8"?>
<!-- Created with Inkscape (http://www.inkscape.org/) -->
<svg id="svg11300" width="16" height="16" version="1.0" viewBox="0 0 16 16" xmlns="http://www.w3.org/2000/svg" xmlns:cc="http://creativecommons.org/ns#" xmlns:dc="http://purl.org/dc/elements/1.1/" xmlns:rdf="http://www.w3.org/1999/02/22-rdf-syntax-ns#" xmlns:xlink="http://www.w3.org/1999/xlink">
 <defs id="defs3">
  <linearGradient id="linearGradient4126">
   <stop id="stop4128" offset="0"/>
   <stop id="stop4130" style="stop-opacity:0" offset="1"/>
  </linearGradient>
  <linearGradient id="linearGradient9763" x1="1.9001" x2="6.0999" y1="8.9439" y2="8.9439" gradientTransform="matrix(.94118 0 0 .94118 .11029 .65038)" gradientUnits="userSpaceOnUse">
   <stop id="stop9757" style="stop-color:#d3d7cf" offset="0"/>
   <stop id="stop9759" style="stop-color:#d3d7cf;stop-opacity:0" offset="1"/>
  </linearGradient>
  <linearGradient id="linearGradient4100" x1="34.102" x2="-1.9225" y1="6.0234" y2="5.9554" gradientUnits="userSpaceOnUse">
   <stop id="stop11401" offset="0"/>
   <stop id="stop11403" style="stop-opacity:0" offset="1"/>
  </linearGradient>
  <linearGradient id="linearGradient9763-6" x1="12.069" x2=".76322" y1="6.8309" y2="8.8496" gradientTransform="matrix(.94118 0 0 .94118 .11029 .65038)" gradientUnits="userSpaceOnUse" xlink:href="#linearGradient4126"/>
  <linearGradient id="linearGradient4166" x1="12.87" x2="3.7161" y1="12.926" y2="12.949" gradientUnits="userSpaceOnUse" xlink:href="#linearGradient4126"/>
 </defs>
 <metadata id="metadata4">
  <rdf:RDF>
   <cc:Work rdf:about="">
    <dc:format>image/svg+xml</dc:format>
    <dc:type rdf:resource="http://purl.org/dc/dcmitype/StillImage"/>
    <dc:creator>
     <cc:Agent>
      <dc:title>Jakub Steiner</dc:title>
     </cc:Agent>
    </dc:creator>
    <dc:source>http://jimmac.musichall.cz</dc:source>
    <cc:license rdf:resource="http://creativecommons.org/licenses/by-sa/2.0/"/>
    <dc:title/>
   </cc:Work>
   <cc:License rdf:about="http://creativecommons.org/licenses/by-sa/2.0/">
    <cc:permits rdf:resource="http://web.resource.org/cc/Reproduction"/>
    <cc:permits rdf:resource="http://web.resource.org/cc/Distribution"/>
    <cc:requires rdf:resource="http://web.resource.org/cc/Notice"/>
    <cc:requires rdf:resource="http://web.resource.org/cc/Attribution"/>
    <cc:permits rdf:resource="http://web.resource.org/cc/DerivativeWorks"/>
    <cc:requires rdf:resource="http://web.resource.org/cc/ShareAlike"/>
   </cc:License>
  </rdf:RDF>
 </metadata>
 <g id="layer1">
  <g id="g4031">
   <g id="g9796">
    <rect id="rect4684" y="5.2353e-5" width="16" height="15.9" rx="0" style="fill:none"/>
    <path id="path4672-4" d="m9.1586 0.62385c-0.48465-0.0039273-1.0047 0.029091-1.5138 0.092046-4.0727 0.50407-7.2039 3.0568-7.0129 5.7068 0.191 2.6501 3.6199 4.37 7.6926 3.8659 4.0727-0.50407 7.2348-3.0567 7.0438-5.7068-0.16712-2.3188-2.8171-3.9264-6.2097-3.958zm-0.18536 1.4727c1.3637 0.011094 2.5666 0.30638 3.4601 0.79773 0.89349 0.49135 1.4775 1.1788 1.5447 1.9943 0.15355 1.8641-2.3794 3.6648-5.6536 4.0193-3.2742 0.35456-6.0561-0.86659-6.2097-2.7307-0.15355-1.8641 2.3794-3.6648 5.6536-4.0193 0.40927-0.04428 0.81523-0.064506 1.2049-0.061364z" style="fill:#d3d7cf;stroke-width:.24707;stroke:#fff"/>
    <path id="path4664-1" d="m3.892 10.12s4.2081 2.8799 0 5.7599h1.9399c3.4919-2.4433-0.014927-5.7599-0.014927-5.7599z" style="fill:#d3d7cf;stroke-width:.24013;stroke:#fff"/>
    <path id="path4660-1" d="m3.875 7.1976c-1.0396 0-1.8824 0.8375-1.8824 1.8706 0 1.0331 0.84276 1.8706 1.8824 1.8706s1.8824-0.8375 1.8824-1.8706c0-1.0331-0.84276-1.8706-1.8824-1.8706zm0 0.93531c0.51979 0 0.94118 0.41876 0.94118 0.93531 0 0.51655-0.42138 0.93531-0.94118 0.93531s-0.94118-0.41876-0.94118-0.93531c0-0.51655 0.42138-0.93531 0.94118-0.93531z" style="fill:url(#linearGradient9763);stroke-width:.23529;stroke:#fff"/>
   </g>
   <path id="path4672-4-8" d="m9.1586 0.62385c-0.48465-0.0039273-1.0047 0.029091-1.5138 0.092046-4.0727 0.50407-7.2039 3.0568-7.0129 5.7068 0.191 2.6501 3.6199 4.37 7.6926 3.8659 4.0727-0.50407 7.2348-3.0567 7.0438-5.7068-0.16712-2.3188-2.8171-3.9264-6.2097-3.958zm-0.18536 1.4727c1.3637 0.011094 2.5666 0.30638 3.4601 0.79773 0.89349 0.49135 1.4775 1.1788 1.5447 1.9943 0.15355 1.8641-2.3794 3.6648-5.6536 4.0193-3.2742 0.35456-6.0561-0.86659-6.2097-2.7307-0.15355-1.8641 2.3794-3.6648 5.6536-4.0193 0.40927-0.04428 0.81523-0.064506 1.2049-0.061364z" style="fill:url(#linearGradient4100)"/>
   <path id="path4660-1-1" d="m3.875 7.1976c-1.0396 0-1.8824 0.8375-1.8824 1.8706 0 1.0331 0.84276 1.8706 1.8824 1.8706s1.8824-0.8375 1.8824-1.8706c0-1.0331-0.84276-1.8706-1.8824-1.8706zm0 0.93531c0.51979 0 0.94118 0.41876 0.94118 0.93531 0 0.51655-0.42138 0.93531-0.94118 0.93531s-0.94118-0.41876-0.94118-0.93531c0-0.51655 0.42138-0.93531 0.94118-0.93531z" style="fill:url(#linearGradient9763-6)"/>
   <path id="path4664-1-6" d="m3.892 10.12s4.2081 2.8799 0 5.7599h1.9399c3.4919-2.4433-0.014927-5.7599-0.014927-5.7599z" style="fill:url(#linearGradient4166)"/>
  </g>
 </g>
</svg>
