<?xml version="1.0" encoding="UTF-8"?>
<!-- Created with Inkscape (http://www.inkscape.org/) -->
<svg id="svg6361" width="16" height="16" version="1.1" viewBox="0 0 16 16" xmlns="http://www.w3.org/2000/svg" xmlns:cc="http://creativecommons.org/ns#" xmlns:dc="http://purl.org/dc/elements/1.1/" xmlns:rdf="http://www.w3.org/1999/02/22-rdf-syntax-ns#">
 <metadata id="metadata4">
  <rdf:RDF>
   <cc:Work rdf:about="">
    <dc:format>image/svg+xml</dc:format>
    <dc:type rdf:resource="http://purl.org/dc/dcmitype/StillImage"/>
    <dc:title/>
    <dc:date/>
    <dc:creator>
     <cc:Agent>
      <dc:title/>
     </cc:Agent>
    </dc:creator>
    <dc:subject>
     <rdf:Bag>
      <rdf:li>help</rdf:li>
      <rdf:li>browser</rdf:li>
      <rdf:li>documentation</rdf:li>
      <rdf:li>docs</rdf:li>
      <rdf:li>man</rdf:li>
      <rdf:li>info</rdf:li>
     </rdf:Bag>
    </dc:subject>
    <cc:license rdf:resource="http://creativecommons.org/publicdomain/zero/1.0/"/>
    <dc:contributor>
     <cc:Agent>
      <dc:title/>
     </cc:Agent>
    </dc:contributor>
    <dc:source>http://tigert.com</dc:source>
   </cc:Work>
   <cc:License rdf:about="http://creativecommons.org/publicdomain/zero/1.0/">
    <cc:permits rdf:resource="http://creativecommons.org/ns#Reproduction"/>
    <cc:permits rdf:resource="http://creativecommons.org/ns#Distribution"/>
    <cc:permits rdf:resource="http://creativecommons.org/ns#DerivativeWorks"/>
   </cc:License>
  </rdf:RDF>
 </metadata>
 <g id="layer1" transform="translate(0,-32)">
  <g id="g4239">
   <g id="g4238">
    <circle id="path2093" cx="8" cy="40" r="7.8212" style="fill:#3465a4;stroke-width:.35752;stroke:#204a87"/>
    <ellipse id="path2209" cx="7.9995" cy="40.001" rx="7.1267" ry="7.1258" style="fill:none;opacity:.96023;stroke-width:.98729;stroke:#fff"/>
   </g>
   <path id="path5121" d="m6.5041 41.936-0.033375-0.44269c-0.03375-0.86875 0.234-1.7541 0.98606-2.6569 0.53494-0.64693 0.96919-1.2088 0.96919-1.7879 0-0.57891-0.38419-0.98759-1.2034-1.0048-0.56794 0-1.2199 0.18743-1.6712 0.49389l-0.55144-1.839c0.6015-0.35785 1.5876-0.69832 2.7909-0.69832 2.1894 0 3.2091 1.2432 3.2091 2.6395 0 1.3111-0.80231 2.1458-1.4376 2.8778-0.60169 0.68113-0.86906 1.3454-0.85238 2.1118v0.30646h-2.2059z" style="fill:#fff;filter:url(#filter5125);stroke-width:.18822"/>
   <ellipse id="circle5123" cx="7.6722" cy="44.488" rx="1.5" ry="1.5115" style="fill:#fff;filter:url(#filter5125);stroke-width:.18822"/>
  </g>
 </g>
</svg>
