<?xml version="1.0" encoding="UTF-8"?>
<!-- Created with Inkscape (http://www.inkscape.org/) -->
<svg id="svg11300" width="16" height="16" version="1.0" viewBox="0 0 16 16" xmlns="http://www.w3.org/2000/svg" xmlns:cc="http://creativecommons.org/ns#" xmlns:dc="http://purl.org/dc/elements/1.1/" xmlns:rdf="http://www.w3.org/1999/02/22-rdf-syntax-ns#">
 <metadata id="metadata4">
  <rdf:RDF>
   <cc:Work rdf:about="">
    <dc:format>image/svg+xml</dc:format>
    <dc:type rdf:resource="http://purl.org/dc/dcmitype/StillImage"/>
    <dc:creator>
     <cc:Agent>
      <dc:title/>
     </cc:Agent>
    </dc:creator>
    <dc:source>http://jimmac.musichall.cz</dc:source>
    <cc:license rdf:resource="http://creativecommons.org/licenses/by-sa/2.0/"/>
    <dc:title/>
   </cc:Work>
   <cc:License rdf:about="http://creativecommons.org/licenses/by-sa/2.0/">
    <cc:permits rdf:resource="http://web.resource.org/cc/Reproduction"/>
    <cc:permits rdf:resource="http://web.resource.org/cc/Distribution"/>
    <cc:requires rdf:resource="http://web.resource.org/cc/Notice"/>
    <cc:requires rdf:resource="http://web.resource.org/cc/Attribution"/>
    <cc:permits rdf:resource="http://web.resource.org/cc/DerivativeWorks"/>
    <cc:requires rdf:resource="http://web.resource.org/cc/ShareAlike"/>
   </cc:License>
  </rdf:RDF>
 </metadata>
 <g id="layer1">
  <g id="g4294">
   <path id="path4015" d="m7.2138 15.262c-0.46896-0.059874-1.2582-0.23425-1.6414-0.36262-1.109-0.3716-1.8788-0.85889-2.7887-1.7653-1.2267-1.2221-1.8255-2.431-2.0896-4.2188-0.25694-1.7396 0.28307-3.8031 1.3719-5.2424 0.82491-1.0905 1.8438-1.9014 2.991-2.3806 2.0583-0.85977 4.3314-0.75968 6.3239 0.27845 1.2098 0.63029 2.416 1.864 3.03 3.0991 0.32726 0.65827 0.46834 1.07 0.6389 1.8645 0.11539 0.5375 0.13212 0.72353 0.13192 1.4666-2.34e-4 0.95575-0.08274 1.4657-0.38265 2.3659-0.36525 1.0963-0.85656 1.8741-1.7484 2.7682-1.2222 1.2253-2.4182 1.8218-4.1838 2.0868-0.44243 0.06639-1.2876 0.08701-1.6532 0.04034zm1.483-2.8569c1.7068-0.30961 3.107-1.6022 3.5593-3.2859 0.1462-0.54416 0.15859-1.6483 0.024029-2.1397-0.21366-0.78023-0.58084-1.4493-1.0998-2.0041-0.43558-0.46563-0.82839-0.75342-1.3834-1.0135-2.5491-1.1947-5.5522 0.24999-6.2395 3.0016-0.11631 0.46563-0.11694 1.6249-0.0011203 2.0506 0.41618 1.5293 1.4233 2.6631 2.8244 3.1796 0.73686 0.27165 1.5664 0.34736 2.316 0.21138z" style="fill:#fce94f;stroke-width:.038901"/>
   <path id="path4017" d="m7.2138 15.262c-1.2804-0.16347-2.3876-0.55904-3.3437-1.1946-0.65393-0.43466-1.6255-1.4184-2.067-2.0928-1.0016-1.53-1.3955-3.561-1.0363-5.3428 0.31107-1.5431 1.008-2.8087 2.1523-3.9081 1.0526-1.0115 2.1005-1.5485 3.6628-1.877 0.69839-0.14688 1.9167-0.15932 2.5527-0.02606 0.51364 0.10762 1.4571 0.42069 1.9394 0.64359 0.94152 0.43507 2.0743 1.404 2.7527 2.3545 0.50774 0.71146 1.1471 2.1546 1.0137 2.2881-0.06186 0.061869-2.3883 0.68761-2.4856 0.66858-0.04113-0.0080425-0.11202-0.12404-0.15754-0.25777-0.49328-1.4492-1.8079-2.6015-3.306-2.8978-0.40906-0.080902-0.63569-0.096751-1.1424-0.079894-0.57074 0.018988-0.68496 0.038753-1.1767 0.20363-1.6464 0.55203-2.7694 1.8329-3.0587 3.4885-0.092782 0.53103-0.068859 1.3563 0.052448 1.8093 0.70707 2.6404 3.3862 4.0739 5.8912 3.1522 0.6457-0.2376 1.1785-0.58609 1.7857-1.1681 0.34061-0.32644 0.81094-1.1137 0.95718-1.6022 0.03864-0.12907 0.09094-0.20728 0.13927-0.2083 0.04257-8.909e-4 0.63213 0.146 1.3101 0.32642l1.2327 0.32804-0.02311 0.17203c-0.03808 0.28355-0.41155 1.1804-0.67212 1.6141-0.34737 0.57812-0.72076 1.0498-1.2818 1.6191-1.0537 1.0693-2.3481 1.6935-4.0379 1.9471-0.44243 0.06639-1.2876 0.08701-1.6532 0.04034z" style="fill:#8ae234;stroke-width:.038901"/>
   <path id="path4019" d="m7.2138 15.265c-1.9816-0.29536-3.1529-0.8588-4.43-2.1311-0.4696-0.46781-0.72784-0.77312-0.98075-1.1594-0.79583-1.2157-1.228-2.7952-1.1605-4.2413 0.089702-1.9207 0.85044-3.6271 2.2025-4.9406 1.0516-1.0215 2.1255-1.591 3.6242-1.9219 0.51685-0.11409 0.71165-0.13252 1.4253-0.13487 0.94753-0.003112 1.309 0.056029 2.2342 0.36557 1.2391 0.41455 1.9853 0.87136 2.8468 1.7428 0.65298 0.66049 1.0465 1.1915 1.3891 1.8745 0.29304 0.58414 0.54468 1.3187 0.47546 1.3879-0.06186 0.061869-2.3883 0.68761-2.4856 0.66858-0.04113-0.0080425-0.11202-0.12404-0.15754-0.25777-0.49328-1.4492-1.8079-2.6015-3.306-2.8978-0.60243-0.11915-1.5799-0.10748-2.0591 0.024586-1.6315 0.44957-2.8717 1.7067-3.2745 3.3192-0.11631 0.46563-0.11694 1.6249-0.0011203 2.0506 0.41621 1.5295 1.4242 2.6641 2.8244 3.1794 0.76609 0.2819 1.5235 0.3469 2.3682 0.20326 0.78276-0.1331 1.4839-0.46578 2.1321-1.0117l0.21512-0.18117 0.95964 0.95887c0.5278 0.52738 0.94954 0.98516 0.93721 1.0173-0.03215 0.0838-0.48037 0.46294-0.9245 0.78202-0.73412 0.52741-1.9232 1.0276-2.8856 1.2139-0.39702 0.07683-1.6665 0.13435-1.9692 0.08923z" style="fill:#edd400;stroke-width:.038901"/>
   <path id="path4021" d="m7.2138 15.265c-1.9816-0.29536-3.1529-0.8588-4.43-2.1311-0.4696-0.46781-0.72784-0.77312-0.98075-1.1594-0.79583-1.2157-1.228-2.7952-1.1605-4.2413 0.089702-1.9207 0.85044-3.6271 2.2025-4.9406 1.0516-1.0215 2.1255-1.591 3.6242-1.9219 0.51685-0.11409 0.71165-0.13252 1.4253-0.13487 1.1392-0.0037386 1.3728 0.046551 2.7901 0.60073 0.53288 0.20836 1.0776 0.51059 1.5241 0.84556 0.28995 0.21755 0.6856 0.5716 0.74356 0.66539 0.0378 0.061163-1.7543 1.8949-1.8519 1.8949-0.02903 0-0.10583-0.056762-0.17066-0.12614-0.32778-0.35075-1.3611-0.91078-1.7735-0.96116-0.10564-0.012907-0.34309-0.049913-0.52767-0.082235-0.42243-0.073972-1.4086-0.034601-1.7967 0.07173-1.6284 0.44612-2.8717 1.7062-3.2745 3.3188-0.11631 0.46563-0.11694 1.6249-0.0011203 2.0506 0.41621 1.5295 1.4242 2.6641 2.8244 3.1794 0.76609 0.2819 1.5235 0.3469 2.3682 0.20326 0.78276-0.1331 1.4839-0.46578 2.1321-1.0117l0.21512-0.18117 0.95964 0.95887c0.5278 0.52738 0.94954 0.98516 0.93721 1.0173-0.03215 0.0838-0.48037 0.46294-0.9245 0.78202-0.73412 0.52741-1.9232 1.0276-2.8856 1.2139-0.39702 0.07683-1.6665 0.13435-1.9692 0.08923z" style="fill:#fcaf3e;stroke-width:.038901"/>
   <path id="path4023" d="m7.2138 15.265c-1.9816-0.29536-3.1529-0.8588-4.43-2.1311-1.2267-1.2221-1.8255-2.431-2.0896-4.2188-0.19959-1.3513 0.089651-2.9643 0.76865-4.2864 0.68671-1.3371 2.0045-2.5959 3.3684-3.2176 1.0418-0.47486 2.6179-0.76976 3.5616-0.66642 0.48775 0.053408 1.3041 0.2162 1.3588 0.27098 0.034901 0.034905-0.60426 2.4584-0.66953 2.5386-0.02978 0.036612-0.14641 0.033601-0.39615-0.010227-0.77082-0.13527-1.4973-0.06696-2.2259 0.20932-0.67982 0.25777-1.1753 0.566-1.6331 1.0159-0.63223 0.62132-1.0624 1.3648-1.2696 2.1941-0.11631 0.46563-0.11694 1.6249-0.0011203 2.0506 0.41621 1.5295 1.4242 2.6641 2.8244 3.1794 0.76609 0.2819 1.5235 0.3469 2.3682 0.20326 0.78276-0.1331 1.4839-0.46578 2.1321-1.0117l0.21512-0.18117 0.95964 0.95887c0.5278 0.52738 0.94954 0.98516 0.93721 1.0173-0.03215 0.0838-0.48037 0.46294-0.9245 0.78202-0.73412 0.52741-1.9232 1.0276-2.8856 1.2139-0.39702 0.07683-1.6665 0.13435-1.9692 0.08923z" style="fill:#729fcf;stroke-width:.038901"/>
   <path id="path4025" d="m9.4539 13.726c-0.1853-0.70192-0.34409-1.2981-0.35285-1.3249-0.00876-0.02675 0.15379-0.10851 0.36123-0.18169 0.44824-0.15814 0.86848-0.39931 1.3127-0.75336l0.32505-0.25906 0.95774 0.95698c0.52676 0.52634 0.94765 0.98327 0.93532 1.0154-0.0755 0.19677-1.1503 0.97784-1.783 1.2958-0.41126 0.20664-1.2516 0.52825-1.3779 0.52734-0.022798-1.55e-4 -0.19306-0.5746-0.37837-1.2765zm-4.0023 1.0849c-0.95462-0.33672-1.6683-0.78062-2.5652-1.5956-1.1409-1.0367-1.797-2.2304-2.1244-3.8654-0.14543-0.72619-0.15497-1.8743-0.021524-2.5898 0.28923-1.5507 1.0261-2.9408 2.0957-3.9534 1.1327-1.0723 2.0951-1.5822 3.5688-1.8906 0.87921-0.18401 1.437-0.23224 1.988-0.1719 0.48775 0.053408 1.3041 0.2162 1.3588 0.27098 0.034901 0.034905-0.60426 2.4584-0.66953 2.5386-0.02978 0.036612-0.14641 0.033601-0.39615-0.010227-0.77082-0.13527-1.4973-0.06696-2.2259 0.20932-0.67982 0.25777-1.1753 0.566-1.6331 1.0159-0.63223 0.62132-1.0624 1.3648-1.2696 2.1941-0.11631 0.46563-0.11694 1.6249-0.0011203 2.0506 0.19669 0.72279 0.66424 1.61 1.0273 1.9494 0.069366 0.06484 0.12612 0.14596 0.12612 0.18026 0 0.06856 0.53002 0.50868 0.87521 0.72676 0.12034 0.07603 0.41573 0.21848 0.65641 0.31656 0.43255 0.17627 0.43754 0.18022 0.43201 0.34238-0.00308 0.09023-0.14312 0.67284-0.31121 1.2947-0.35154 1.3005-0.27081 1.213-0.91059 0.98734z" style="fill:#f57900;stroke-width:.038901"/>
   <path id="path4027" d="m9.4539 13.726c-0.1853-0.70192-0.34409-1.2981-0.35285-1.3249-0.00876-0.02675 0.15379-0.10851 0.36123-0.18169 0.44824-0.15814 0.86848-0.39931 1.3127-0.75336l0.32505-0.25906 0.95774 0.95698c0.52676 0.52634 0.94765 0.98327 0.93532 1.0154-0.0755 0.19677-1.1503 0.97784-1.783 1.2958-0.41126 0.20664-1.2516 0.52825-1.3779 0.52734-0.022798-1.55e-4 -0.19306-0.5746-0.37837-1.2765zm-4.0023 1.0849c-0.95462-0.33672-1.6683-0.78062-2.5652-1.5956-1.1409-1.0367-1.797-2.2304-2.1244-3.8654-0.14543-0.72619-0.15497-1.8743-0.021524-2.5898 0.20166-1.0812 0.6817-2.225 1.2628-3.009 0.32244-0.43498 0.74962-0.90571 0.82192-0.90571 0.025449 0 0.19185-0.13349 0.36977-0.29664 0.38947-0.35713 0.95777-0.7396 1.5049-1.0128 0.52028-0.2598 1.2702-0.51316 1.333-0.45036 0.049554 0.049561 0.66918 2.312 0.66996 2.4463 2.723e-4 0.052556-0.1002 0.11455-0.30343 0.18716-0.75178 0.2686-1.2788 0.63788-1.7838 1.2499-0.64403 0.78058-0.95488 1.4186-1.1023 2.2624-0.092782 0.53103-0.068859 1.3563 0.052448 1.8093 0.1854 0.69234 0.659 1.5867 1.0179 1.9222 0.069366 0.06484 0.12612 0.14596 0.12612 0.18026 0 0.06856 0.53002 0.50868 0.87521 0.72676 0.12034 0.07603 0.41572 0.21848 0.65641 0.31656 0.43255 0.17627 0.43754 0.18022 0.43201 0.34238-0.00308 0.09023-0.14312 0.67284-0.31121 1.2947-0.35154 1.3005-0.27081 1.213-0.91059 0.98734z" style="fill:#3465a4;stroke-width:.038901"/>
   <path id="path4029" d="m9.4539 13.726c-0.1853-0.70192-0.34409-1.2981-0.35285-1.3249-0.00876-0.02675 0.15379-0.10851 0.36123-0.18169 0.44824-0.15814 0.86848-0.39931 1.3127-0.75336l0.32505-0.25906 0.95774 0.95698c0.52676 0.52634 0.94765 0.98327 0.93532 1.0154-0.0755 0.19677-1.1503 0.97784-1.783 1.2958-0.41126 0.20664-1.2516 0.52825-1.3779 0.52734-0.022798-1.55e-4 -0.19306-0.5746-0.37837-1.2765zm-7.0218-0.93541c-1.1633-1.2438-1.8739-3.252-1.7895-5.0579 0.082048-1.7568 0.77269-3.445 1.895-4.632 0.13276-0.14042 0.26221-0.2553 0.28766-0.2553 0.025449 0 0.19185-0.13349 0.36977-0.29664 0.38947-0.35713 0.95777-0.7396 1.5049-1.0128 0.52028-0.2598 1.2702-0.51316 1.333-0.45036 0.049554 0.049561 0.66918 2.312 0.66996 2.4463 2.723e-4 0.052556-0.1002 0.11455-0.30343 0.18716-0.75178 0.2686-1.2788 0.63788-1.7838 1.2499-0.64403 0.78058-0.95488 1.4186-1.1023 2.2624-0.092782 0.53103-0.068859 1.3563 0.052448 1.8093 0.18585 0.69401 0.55992 1.4126 0.97394 1.8709 0.11937 0.13214 0.1686 0.22604 0.14971 0.28555-0.034232 0.10787-1.8361 1.909-1.9097 1.909-0.028761 0-0.18516-0.14206-0.34756-0.31568z" style="fill:#73d216;stroke-width:.038901"/>
   <path id="path4031" d="m2.432 12.791c-1.1633-1.2438-1.8739-3.252-1.7895-5.0579 0.082048-1.7568 0.77269-3.445 1.895-4.632 0.13276-0.14042 0.26221-0.2553 0.28766-0.2553 0.025449 0 0.19185-0.13349 0.36977-0.29664 0.38947-0.35713 0.95777-0.7396 1.5049-1.0128 0.52028-0.2598 1.2702-0.51316 1.333-0.45036 0.049554 0.049561 0.66918 2.312 0.66996 2.4463 2.723e-4 0.052556-0.1002 0.11455-0.30343 0.18716-0.75178 0.2686-1.2788 0.63788-1.7838 1.2499-0.64403 0.78058-0.95488 1.4186-1.1023 2.2624-0.092782 0.53103-0.068859 1.3563 0.052448 1.8093 0.18585 0.69401 0.55992 1.4126 0.97394 1.8709 0.11937 0.13214 0.1686 0.22604 0.14971 0.28555-0.034232 0.10787-1.8361 1.909-1.9097 1.909-0.028761 0-0.18516-0.14206-0.34756-0.31568z" style="fill:#ad7fa8;stroke-width:.038901"/>
   <path id="path4033" d="m2.4431 12.712c-0.61928-0.72419-1.0718-1.5159-1.354-2.369-0.085587-0.25869-0.11728-0.42237-0.087543-0.45212 0.049446-0.049453 2.3168-0.67355 2.4485-0.67397 0.052066-1.556e-4 0.12884 0.13136 0.23405 0.40095 0.18587 0.47629 0.50322 1.0015 0.81407 1.3473l0.22492 0.2502-0.89406 0.90081c-0.49173 0.49545-0.92942 0.92027-0.97264 0.94406-0.061886 0.034066-0.14967-0.039882-0.41329-0.34817zm-0.18885-6.2282c-0.69531-0.18673-1.2849-0.35939-1.3103-0.38367-0.098406-0.094305 0.39289-1.3274 0.7635-1.9163 0.33424-0.5311 1.0082-1.3377 1.1177-1.3377 0.025449 0 0.19185-0.13349 0.36977-0.29664 0.38947-0.35713 0.95777-0.7396 1.5049-1.0128 0.52028-0.2598 1.2702-0.51316 1.333-0.45036 0.049554 0.049561 0.66918 2.312 0.66996 2.4463 2.723e-4 0.052556-0.1002 0.11455-0.30343 0.18716-0.75072 0.26822-1.2791 0.63811-1.7808 1.2467-0.44795 0.54337-0.65241 0.87358-0.8605 1.3897-0.086593 0.21479-0.17593 0.40775-0.19852 0.42879-0.022591 0.021045-0.60996-0.11452-1.3053-0.30125z" style="fill:#ef2929;stroke-width:.038901"/>
   <path id="path4035" d="m2.4431 12.712c-0.61928-0.72419-1.0718-1.5159-1.354-2.369-0.085587-0.25869-0.11728-0.42237-0.087543-0.45212 0.049446-0.049453 2.3168-0.67355 2.4485-0.67397 0.052066-1.556e-4 0.12884 0.13136 0.23405 0.40095 0.18587 0.47629 0.50322 1.0015 0.81407 1.3473l0.22492 0.2502-0.89406 0.90081c-0.49173 0.49545-0.92942 0.92027-0.97264 0.94406-0.061886 0.034066-0.14967-0.039882-0.41329-0.34817zm-0.18885-6.2282c-0.69531-0.18673-1.2849-0.35939-1.3103-0.38367-0.098406-0.094305 0.39289-1.3274 0.7635-1.9163 0.2242-0.35624 0.55857-0.79108 0.83413-1.0847l0.24182-0.2577 1.9683 1.9668-0.25197 0.30399c-0.3299 0.39801-0.54834 0.76439-0.74172 1.2441-0.086593 0.21479-0.17593 0.40775-0.19852 0.42879-0.022591 0.021045-0.60996-0.11452-1.3053-0.30125z" style="fill:#c00;stroke-width:.038901"/>
   <path id="path4037" d="m2.4431 12.712c-0.61928-0.72419-1.0718-1.5159-1.354-2.369-0.085587-0.25869-0.11728-0.42237-0.087543-0.45212 0.049446-0.049453 2.3168-0.67355 2.4485-0.67397 0.052066-1.556e-4 0.12884 0.13136 0.23405 0.40095 0.18587 0.47629 0.50322 1.0015 0.81407 1.3473l0.22492 0.2502-0.89406 0.90081c-0.49173 0.49545-0.92942 0.92027-0.97264 0.94406-0.061886 0.034066-0.14967-0.039882-0.41329-0.34817z" style="fill:#75507b;stroke-width:.038901"/>
   <path id="path4039" d="m12.574 8.1352a4.6971 4.868 0 0 1-4.646 4.9169 4.6971 4.868 0 0 1-4.7476-4.8116 4.6971 4.868 0 0 1 4.6392-4.9238 4.6971 4.868 0 0 1 4.7542 4.8046" style="color-rendering:auto;color:#000000;fill:#fff;image-rendering:auto;isolation:auto;mix-blend-mode:normal;shape-rendering:auto;solid-color:#000000"/>
   <path id="path4041" d="m7.9024 0.0010713a7.9995 7.9995 0 0 0-7.9019 8.0913 7.9995 7.9995 0 0 0 8.0855 7.9077 7.9995 7.9995 0 0 0 7.9136-8.0795v-0.023436a7.9995 7.9995 0 0 0-8.0972-7.896zm0.011718 0.96869a7.031 7.031 0 0 1 7.1168 6.939v0.021483a7.031 7.031 0 0 1-6.9547 7.1011 7.031 7.031 0 0 1-7.107-6.9488 7.031 7.031 0 0 1 6.9449-7.1128z" style="color-rendering:auto;color:#000000;fill:#b4b4b4;image-rendering:auto;isolation:auto;mix-blend-mode:normal;shape-rendering:auto;solid-color:#000000"/>
   <path id="path4263" d="m4 6.25s1.2577-1.0669 2-1c0.82997 0.074838 1.1667 1.5 2 1.5s1.17-1.4252 2-1.5c0.74234-0.066937 2 1 2 1" style="fill:none;stroke-width:.5;stroke:#3465a4"/>
   <path id="path4263-7" d="m4 10.25s1.2577-1.0669 2-1c0.82997 0.074838 1.1667 1.5 2 1.5s1.17-1.4252 2-1.5c0.74234-0.066937 2 1 2 1" style="fill:none;stroke-width:.5;stroke:#3465a4"/>
   <path id="path4263-0" d="m4 8.25s1.2577-1.0669 2-1c0.82997 0.074838 1.1667 1.5 2 1.5s1.17-1.4252 2-1.5c0.74234-0.066937 2 1 2 1" style="fill:none;stroke-width:.5;stroke:#3465a4"/>
  </g>
 </g>
</svg>
