<?xml version="1.0" encoding="UTF-8"?>
<!-- Created with Inkscape (http://www.inkscape.org/) -->
<svg id="svg11300" width="16" height="16" version="1.0" viewBox="0 0 16 16" xmlns="http://www.w3.org/2000/svg" xmlns:cc="http://creativecommons.org/ns#" xmlns:dc="http://purl.org/dc/elements/1.1/" xmlns:rdf="http://www.w3.org/1999/02/22-rdf-syntax-ns#" xmlns:xlink="http://www.w3.org/1999/xlink">
 <defs id="defs3">
  <linearGradient id="linearGradient7319" x1="-37.5" x2="-37.5" y1="199.34" y2="204.35" gradientTransform="matrix(.45949 .4559 -.45949 .4559 121.58 -71.628)" gradientUnits="userSpaceOnUse">
   <stop id="stop4178" style="stop-color:#fff" offset="0"/>
   <stop id="stop4180" style="stop-color:#fff;stop-opacity:0" offset="1"/>
  </linearGradient>
 </defs>
 <metadata id="metadata4">
  <rdf:RDF>
   <cc:Work rdf:about="">
    <dc:format>image/svg+xml</dc:format>
    <dc:type rdf:resource="http://purl.org/dc/dcmitype/StillImage"/>
    <dc:creator>
     <cc:Agent>
      <dc:title>Jakub Steiner</dc:title>
     </cc:Agent>
    </dc:creator>
    <dc:source>http://jimmac.musichall.cz</dc:source>
    <cc:license rdf:resource="http://creativecommons.org/licenses/by-sa/2.0/"/>
    <dc:title/>
   </cc:Work>
   <cc:License rdf:about="http://creativecommons.org/licenses/by-sa/2.0/">
    <cc:permits rdf:resource="http://web.resource.org/cc/Reproduction"/>
    <cc:permits rdf:resource="http://web.resource.org/cc/Distribution"/>
    <cc:requires rdf:resource="http://web.resource.org/cc/Notice"/>
    <cc:requires rdf:resource="http://web.resource.org/cc/Attribution"/>
    <cc:permits rdf:resource="http://web.resource.org/cc/DerivativeWorks"/>
    <cc:requires rdf:resource="http://web.resource.org/cc/ShareAlike"/>
   </cc:License>
  </rdf:RDF>
 </metadata>
 <g id="layer1">
  <g id="g4046">
   <rect id="rect6196" x="2.3478e-7" y="3.5438e-5" width="16" height="16" style="fill-opacity:0;opacity:.24268"/>
   <g id="g4034" transform="matrix(1.0587 0 0 1.0695 -.0095005 -1.2908)">
    <path id="path7235" d="m9.8344 4.137-5.7139 5.6978v1.324h1.33l5.7139-5.7022z" style="fill-rule:evenodd;fill:#d3d7cf;stroke-width:.66667px;stroke:#888a85"/>
    <path id="path17734" d="m9.9012 4.5163 0.46071 0.47659-5.2437 5.1942-0.022958-0.92933z" style="fill:#fff"/>
    <path id="path7237" d="m13.354 2.0285c-0.65619-0.65319-1.7213-0.65325-2.3775-6.45e-5 -0.30076 0.29942-0.46529 0.68781-0.49036 1.0798l-1.1887 0.56202 2.3924 2.3815 0.5795-1.1685c0.39382-0.024952 0.78399-0.18878 1.0847-0.48813 0.65619-0.65319 0.65618-1.7134-6e-6 -2.3666z" style="fill:#183968;stroke-linecap:round;stroke-linejoin:round;stroke-width:.66667;stroke:#2e3436"/>
    <path id="path7247" d="m12.911 2.456c-0.45293-0.44938-1.0344-0.40251-1.4571 0.016892-0.19375 0.19226-0.23712 0.73172-0.24478 0.99187l-0.62426 0.33036 0.96205 0.95454 0.34734-0.60509c0.2622-0.00761 0.7772-0.022179 0.97094-0.21438 0.42273-0.41947 0.49873-1.0248 0.04581-1.4742z" style="fill:none;opacity:.58996;stroke-linecap:round;stroke-width:.66667;stroke:url(#linearGradient7319)"/>
    <path id="path7286" d="m7.6173 6.7693h0.94747l-4.1198 4.0729v-0.94313z" style="fill:#729fcf"/>
   </g>
   <path id="path7288" d="m8.6705 13.54c0 0.50436-3.0195 1.1268-3.757 1.1268-0.73755 0-3.5841 0.07009-3.5841-0.43427 0-0.50442 0.23627-1.8018 0.99031-2.1493 1.952-0.89937 6.3508 0.95233 6.3508 1.4568z" style="fill:#3465a4;stroke-linecap:round;stroke-linejoin:round;stroke-width:.65891;stroke:#204a87"/>
   <ellipse id="path7291" cx="3.25" cy="13.25" rx="1.25" ry="1" style="fill-opacity:.64807;fill:#fff"/>
  </g>
 </g>
</svg>
