<?xml version="1.0" encoding="UTF-8"?>
<!-- Created with Inkscape (http://www.inkscape.org/) -->
<svg id="svg11300" width="16" height="16" version="1.0" viewBox="0 0 16 16" xmlns="http://www.w3.org/2000/svg" xmlns:cc="http://creativecommons.org/ns#" xmlns:dc="http://purl.org/dc/elements/1.1/" xmlns:rdf="http://www.w3.org/1999/02/22-rdf-syntax-ns#">
 <metadata id="metadata4">
  <rdf:RDF>
   <cc:Work rdf:about="">
    <dc:format>image/svg+xml</dc:format>
    <dc:type rdf:resource="http://purl.org/dc/dcmitype/StillImage"/>
    <dc:creator>
     <cc:Agent>
      <dc:title>Jakub Steiner</dc:title>
     </cc:Agent>
    </dc:creator>
    <dc:source>http://jimmac.musichall.cz</dc:source>
    <cc:license rdf:resource="http://creativecommons.org/licenses/by-sa/2.0/"/>
    <dc:title/>
   </cc:Work>
   <cc:License rdf:about="http://creativecommons.org/licenses/by-sa/2.0/">
    <cc:permits rdf:resource="http://web.resource.org/cc/Reproduction"/>
    <cc:permits rdf:resource="http://web.resource.org/cc/Distribution"/>
    <cc:requires rdf:resource="http://web.resource.org/cc/Notice"/>
    <cc:requires rdf:resource="http://web.resource.org/cc/Attribution"/>
    <cc:permits rdf:resource="http://web.resource.org/cc/DerivativeWorks"/>
    <cc:requires rdf:resource="http://web.resource.org/cc/ShareAlike"/>
   </cc:License>
  </rdf:RDF>
 </metadata>
 <g id="layer1">
  <g id="g12141">
   <path id="path13884" d="m0.43657 12.165 1.3847-1.0819" style="fill:none;stroke-width:.7236;stroke:#fff"/>
   <path id="path13886-4-6" d="m8.597 1.0902h-0.0091c-0.26701 0.013319-0.43687 0.12713-0.71407 0.28223-0.2772 0.1551-0.61212 0.36654-0.98591 0.61653-0.74759 0.49999-1.6498 1.1518-2.5038 1.7884-0.85399 0.63664-1.6598 1.2573-2.2124 1.6909-0.2763 0.21677-0.48846 0.38592-0.61522 0.49034-0.06338 0.051944-0.08955 0.070324-0.13917 0.121-0.0062 0.00666-0.01291 0.013319-0.02601 0.029967-0.0065 0.00799-0.02709 0.039957-0.02732 0.040623-2.25e-4 3.996e-4 -0.0455 0.14025-0.04552 0.14051-2e-5 1.998e-4 0.23003 0.34722 0.23022 0.34729 1.88e-4 0 0.1856 0.00666 0.186 0.00666 3.96e-4 -1.332e-4 0.04002-0.013319 0.05072-0.017981 0.01071-0.00666 0.01884-0.00866 0.02471-0.011987 0.04696-0.02464 0.05137-0.031299 0.07544-0.047948l-0.3785-0.54368c0.0037 0 0.0066-0.00666 0.013-0.00666 0.0095-0.00666 0.04982-0.017315 0.04943-0.016649-3.96e-4 1.332e-4 0.18228 0.00666 0.18209 0.00666-1.88e-4 -6.66e-5 0.2302 0.34622 0.23022 0.34602 1.9e-5 -2.664e-4 -0.04444 0.13952-0.04423 0.13918 2.24e-4 -3.995e-4 -0.02031 0.029302-0.02601 0.036627-0.0114 0.014651-0.01533 0.019312-0.01821 0.021976-0.02305 0.023308 0.02818-0.025306 0.08715-0.07412 0.11793-0.097095 0.32956-0.26498 0.60351-0.47995 0.54791-0.42987 1.3494-1.0478 2.1981-1.6804 0.84874-0.63271 1.7446-1.2803 2.4752-1.7689 0.36528-0.24427 0.69097-0.44891 0.94169-0.58916 0.25072-0.14031 0.47633-0.20171 0.42272-0.19905h1.9991c0.19438-0.00999 0.69257 0.19645 1.064 0.55154 0.37138 0.35502 0.61732 0.81738 0.5788 1.2018l0.66204 0.066594c0.06867-0.68519-0.31326-1.3028-0.7804-1.7494s-1.0182-0.76384-1.5608-0.73487h0.01821z" style="color-rendering:auto;color:#000000;dominant-baseline:auto;fill-rule:evenodd;fill:#fff;font-feature-settings:normal;font-variant-alternates:normal;font-variant-caps:normal;font-variant-ligatures:normal;font-variant-numeric:normal;font-variant-position:normal;image-rendering:auto;isolation:auto;mix-blend-mode:normal;shape-padding:0;shape-rendering:auto;solid-color:#000000;stroke-width:.33297;stroke:#000;text-decoration-color:#000000;text-decoration-line:none;text-decoration-style:solid;text-indent:0;text-orientation:mixed;text-transform:none;white-space:normal"/>
   <rect id="rect14212" x="11.835" y="3.2347" width="1.3307" height="4.3307" ry=".67338" style="fill-rule:evenodd;fill:#d3d7cf;stroke-linecap:square;stroke-linejoin:round;stroke-width:.66934;stroke:#2e3436"/>
   <rect id="rect14215" x="10.9" y="6.6324" width="3.2" height="3.2" style="fill-rule:evenodd;fill:#edd400;stroke-linecap:square;stroke-linejoin:round;stroke-width:.8;stroke:#c4a000"/>
   <rect id="rect14220" x="11.667" y="7.4267" width="1.6667" height="1.6667" style="fill-rule:evenodd;fill:#edd400"/>
   <path id="rect14217" d="m9.3749 15.525v-5.1517c0-0.3484 1.086-1.3486 1.4641-1.3486h3.322c0.37814 0 1.4641 1.0002 1.4641 1.3486v5.1517" style="fill-rule:evenodd;fill:#3465a4;stroke-linecap:square;stroke-linejoin:round;stroke-width:.74984;stroke:#204a87"/>
   <path id="path14222" d="m10.358 15.542v-4.9772c0-0.26645 0.55267-0.80703 0.84757-0.80703h2.5891c0.2949 0 0.84757 0.54058 0.84757 0.80703v4.9772" style="fill:none;stroke-linecap:square;stroke-linejoin:round;stroke-width:.71573;stroke:#729fcf"/>
   <path id="path82013-7-7" d="m0.15652 0.15652v3.2674h1.1993v3.2451c-0.59827 0.20749-1.199 0.73379-1.1991 1.3309-1e-4 0.59737 0.6008 1.1244 1.1991 1.3319v3.2433h-1.1993v3.2683h2.9983l-1e-6 -3.2683h-1.1993v-3.2433c0.59827-0.2075 1.1995-0.73439 1.1996-1.3319 1.12e-4 -0.59774-0.60067-1.1251-1.1996-1.3329v-3.2432h1.1993v-3.2674z" style="fill:#fff;stroke-width:.31303;stroke:#000"/>
  </g>
 </g>
</svg>
