<?xml version="1.0" encoding="UTF-8"?>
<svg id="svg2" width="16" height="16" version="1.1" viewBox="0 0 16 16" xmlns="http://www.w3.org/2000/svg" xmlns:cc="http://creativecommons.org/ns#" xmlns:dc="http://purl.org/dc/elements/1.1/" xmlns:osb="http://www.openswatchbook.org/uri/2009/osb" xmlns:rdf="http://www.w3.org/1999/02/22-rdf-syntax-ns#" xmlns:xlink="http://www.w3.org/1999/xlink">
 <metadata id="metadata90">
  <rdf:RDF>
   <cc:Work>
    <dc:format>image/svg+xml</dc:format>
    <dc:type rdf:resource="http://purl.org/dc/dcmitype/StillImage"/>
    <dc:title>Gimp Color Icon Theme</dc:title>
    <dc:contributor>
     <cc:Agent>
      <dc:title>many unknown and unnamed, Andrew Chadwick, Alexandre Prokoudine, Aryeom Han, Benoit Touchette, Jakub Steiner, Jehan, Johannes Matschke, Kevin Payne, Klaus Staedtler, Marek Dvoroznak, Michael Natterer</dc:title>
     </cc:Agent>
    </dc:contributor>
    <dc:description>Enhanced, extended tango-art-libre for GIMP</dc:description>
   </cc:Work>
  </rdf:RDF>
 </metadata>
 <defs id="defs7386">
  <linearGradient id="linearGradient8340">
   <stop id="stop8342" stop-color="#fff" stop-opacity=".79608" offset="0"/>
   <stop id="stop8344" stop-color="#fff" stop-opacity=".21569" offset="1"/>
  </linearGradient>
  <linearGradient id="linearGradient4109" x1="22.965" x2="12.641" y1="35.311" y2="11.424" gradientTransform="matrix(.96593 -.25882 .25882 .96593 1714 -60.212)" gradientUnits="userSpaceOnUse">
   <stop id="stop2905" stop-color="#888a85" offset="0"/>
   <stop id="stop2907" stop-color="#d3d7cf" offset="1"/>
  </linearGradient>
  <linearGradient id="linearGradient3114" x1="17.413" x2="17.028" y1="7.8708" y2="52.505" gradientTransform="matrix(.96593 -.25882 .25882 .96593 1714 -60.212)" gradientUnits="userSpaceOnUse" xlink:href="#linearGradient8340"/>
  <radialGradient id="radialGradient3116" cx="31" cy="12" r="11.125" gradientTransform="matrix(.97747 -.26191 .26191 .97747 1704.3 -52.578)" gradientUnits="userSpaceOnUse">
   <stop id="stop8439" offset="0"/>
   <stop id="stop8441" style="stop-opacity:0" offset="1"/>
  </radialGradient>
  <linearGradient id="linearGradient4111" x1="21.788" x2="10.211" y1="21.877" y2="3.4233" gradientTransform="matrix(.90911 -.24359 .24359 .90911 1715.4 -59.551)" gradientUnits="userSpaceOnUse">
   <stop id="stop2897-4" stop-color="#d3d7cf" offset="0"/>
   <stop id="stop2899-5" stop-color="#888a85" offset="1"/>
  </linearGradient>
  <linearGradient id="linearGradient3120" x1="16.488" x2="32.567" y1="13.971" y2="30.758" gradientTransform="matrix(.96593 -.25882 .25882 .96593 1930.2 -62.365)" gradientUnits="userSpaceOnUse" xlink:href="#linearGradient8340"/>
  <linearGradient id="linearGradient3122" x1="28.357" x2="17.732" y1="22.795" y2="5.1875" gradientTransform="matrix(.96593 -.25882 .25882 .96593 4140.8 -141.33)" gradientUnits="userSpaceOnUse" xlink:href="#linearGradient8340"/>
  <linearGradient id="linearGradient322-1-38" x1="13.036" x2="12.854" y1="32.567" y2="46.689" gradientTransform="matrix(.51476 0 0 .31892 833.21 223.86)" gradientUnits="userSpaceOnUse" xlink:href="#linearGradient8340"/>
  <linearGradient id="linearGradient8811" x1="18.113" x2="15.515" y1="31.368" y2="6.1803" gradientTransform="matrix(.39071 0 0 .39071 833.56 224.38)" gradientUnits="userSpaceOnUse">
   <stop id="stop3098" stop-color="#424242" offset="0"/>
   <stop id="stop3100" stop-color="#777" offset="1"/>
  </linearGradient>
  <linearGradient id="linearGradient8813" x1="22.176" x2="22.065" y1="36.988" y2="32.05" gradientTransform="matrix(.39071 0 0 .39071 833.56 224.38)" gradientUnits="userSpaceOnUse">
   <stop id="stop9768" stop-color="#6194cb" offset="0"/>
   <stop id="stop9770" stop-color="#729fcf" offset="1"/>
  </linearGradient>
 </defs>
 <g id="preferences" transform="translate(-457.72 -35.934)">
  <g id="gimp-prefs-folders-interp" transform="translate(457.72 3.9339)">
   <path id="path216-5-2" d="m0.575 47.479c0.008516 0.16265 0.17969 0.32531 0.34235 0.32531h12.24c0.16265 0 0.31679-0.16266 0.30828-0.32531l-0.36588-10.638c-0.0085-0.16265-0.17969-0.32531-0.34234-0.32531h-5.1851c-0.18952 0-0.48232-0.1233-0.54764-0.43237l-0.23888-1.1304c-0.060744-0.28744-0.34469-0.40551-0.50735-0.40551h-5.7743c-0.16266 0-0.3168 0.16266-0.30828 0.32531z" style="fill:#fff;stroke-linecap:round;stroke-linejoin:round;stroke-width:.39071;stroke:url(#linearGradient8811)"/>
   <g id="g2904" transform="matrix(.48445 .12981 -.12981 .48445 -4.3589 28.291)">
    <path id="path2779-4" d="m31 0.5c-0.56194 2e-8 -1.1158 0.047001-1.6562 0.125l-0.21875 3.0938c-0.95964 0.21574-1.8495 0.58353-2.6562 1.0938l-2.3438-2.0312c-1.125 0.71875-1.625 1.2188-2.3438 2.3438l2.0312 2.3438c-0.51022 0.80674-0.878 1.6966-1.0938 2.6562l-3.0938 0.21875c-0.078 0.54045-0.125 1.0943-0.125 1.6562-1e-6 0.56194 0.047 1.1158 0.125 1.6562l3.0938 0.21875c0.21574 0.95964 0.58353 1.8495 1.0938 2.6562l-2.0312 2.3438c0.71875 1.125 1.2188 1.625 2.3438 2.3438l2.3438-2.0312c0.80674 0.51022 1.6966 0.878 2.6562 1.0938l0.21875 3.0938c0.54045 0.078 1.0943 0.125 1.6562 0.125 0.56194 0 1.1158-0.047 1.6562-0.125l0.21875-3.0938c0.95964-0.21574 1.8495-0.58353 2.6562-1.0938l2.3438 2.0312c1.125-0.71875 1.625-1.2188 2.3438-2.3438l-2.0312-2.3438c0.51022-0.80674 0.878-1.6966 1.0938-2.6562l3.0938-0.21875c0.078-0.54045 0.125-1.0943 0.125-1.6562 0-0.56194-0.047-1.1158-0.125-1.6562l-3.0938-0.21875c-0.21574-0.95964-0.58353-1.8495-1.0938-2.6562l2.0312-2.3438c-0.64949-1.1077-1.2188-1.625-2.3438-2.3438l-2.3438 2.0312c-0.80674-0.51022-1.6966-0.87801-2.6562-1.0938l-0.21875-3.0938c-0.54045-0.077999-1.0943-0.125-1.6562-0.125zm0 9c1.38 3e-7 2.5 1.12 2.5 2.5 1e-6 1.38-1.12 2.5-2.5 2.5-1.38 0-2.5-1.12-2.5-2.5 0-1.38 1.12-2.5 2.5-2.5z" style="fill:url(#linearGradient4109);stroke-linecap:square;stroke-width:1.0054;stroke:#2e3436"/>
    <path id="path2819-7" d="m31 1.4375c-0.26007 0-0.52213 0.041957-0.78125 0.0625l-0.21875 3.0625c-1.317 0.1747-2.5217 0.70204-3.5313 1.4688l-2.3125-1.9688c-0.39104 0.33764-0.75612 0.70271-1.0938 1.0938l1.9688 2.3125c-0.76671 1.0095-1.294 2.2142-1.4688 3.5312l-3.0625 0.21875c-0.02054 0.25912-0.0625 0.52118-0.0625 0.78125 0 0.26007 0.04196 0.52213 0.0625 0.78125l3.0625 0.21875c0.1747 1.317 0.70204 2.5217 1.4688 3.5313l-1.9688 2.3125c0.33764 0.39104 0.70271 0.75612 1.0938 1.0938l2.3125-1.9688c1.0095 0.76671 2.2142 1.294 3.5312 1.4688l0.21875 3.0625c0.25912 0.02054 0.52118 0.0625 0.78125 0.0625 0.26007 0 0.52213-0.04196 0.78125-0.0625l0.21875-3.0625c1.317-0.1747 2.5217-0.70204 3.5313-1.4688l2.3125 1.9688c0.39104-0.33764 0.75612-0.70271 1.0938-1.0938l-1.9688-2.3125c0.76671-1.0095 1.294-2.2142 1.4688-3.5313l3.0625-0.21875c0.02054-0.25912 0.0625-0.52118 0.0625-0.78125 1e-6 -0.26007-0.04196-0.52213-0.0625-0.78125l-3.0625-0.21875c-0.1747-1.317-0.70205-2.5217-1.4688-3.5313l1.9688-2.3125c-0.33763-0.39104-0.70271-0.75612-1.0938-1.0938l-2.3125 1.9688c-1.0095-0.76671-2.2142-1.294-3.5312-1.4688l-0.21875-3.0625c-0.25912-0.020543-0.52118-0.062499-0.78125-0.0625z" style="fill:none;stroke-linecap:square;stroke-width:1.1333;stroke:url(#linearGradient3114)"/>
    <path id="path2875" d="m31 0.875c-0.32102 2e-8 -0.58398 0.044382-0.8125 0.0625l-0.5 0.03125-0.03125 0.5-0.1875 2.6562c-1.0601 0.20906-2.0417 0.64053-2.9062 1.2188l-2.4062-2.0312-1.8438 1.8438 2.0312 2.4062c-0.57822 0.86457-1.0097 1.8462-1.2188 2.9062l-2.6562 0.1875-0.5 0.03125-0.03125 0.5c-0.018119 0.22853-0.0625 0.49148-0.0625 0.8125 0 0.32102 0.04438 0.58397 0.0625 0.8125l0.03125 0.5 0.5 0.03125 2.6562 0.1875c0.20906 1.0601 0.64053 2.0417 1.2188 2.9062l-1.7188 2.0312-0.3125 0.375 0.3125 0.375c0.35567 0.41193 0.74432 0.80058 1.1562 1.1562l0.375 0.3125 0.375-0.3125 2.0312-1.7188c0.86457 0.57822 1.8462 1.0097 2.9062 1.2188l0.1875 2.6562 0.03125 0.5 0.5 0.03125c0.22853 0.01812 0.49148 0.0625 0.8125 0.0625 0.32102 1e-6 0.58397-0.04438 0.8125-0.0625l0.5-0.03125 0.03125-0.5 0.1875-2.6562c1.0601-0.20906 2.0417-0.64053 2.9062-1.2188l2.0312 1.7188 0.375 0.3125 0.375-0.3125c0.41193-0.35567 0.80058-0.74432 1.1562-1.1562l0.3125-0.375-0.3125-0.375-1.7188-2.0312c0.57822-0.86457 1.0097-1.8462 1.2188-2.9062l2.6562-0.1875 0.5-0.03125 0.03125-0.5c0.018117-0.22852 0.0625-0.49148 0.0625-0.8125-1e-6 -0.32102-0.04438-0.58397-0.0625-0.8125l-0.03125-0.5-0.5-0.03125-2.6562-0.1875c-0.20906-1.0601-0.64053-2.0417-1.2188-2.9062l1.7188-2.0312 0.3125-0.375-0.3125-0.375c-0.35567-0.41193-0.74432-0.80058-1.1562-1.1562l-0.375-0.3125-0.375 0.3125-2.0312 1.7188c-0.86457-0.57822-1.8462-1.0097-2.9062-1.2188l-0.1875-2.6562-0.03125-0.5-0.5-0.03125c-0.22853-0.018118-0.49148-0.062499-0.8125-0.0625zm0 7.625c1.932-2.4e-6 3.5 1.568 3.5 3.5 2e-6 1.932-1.568 3.5-3.5 3.5-1.932 2e-6 -3.5-1.568-3.5-3.5-1e-6 -1.932 1.568-3.5 3.5-3.5z" style="fill:url(#radialGradient3116);opacity:.8"/>
    <path id="path2867" d="m31 4c-4.416 0-8 3.584-8 8 0 4.416 3.584 8 8 8 4.416 0 8-3.584 8-8-1e-6 -4.416-3.584-8-8-8zm0 5c1.656-1.8e-6 3 1.344 3 3s-1.344 3-3 3c-1.656 2e-6 -3-1.344-3-3-1e-6 -1.656 1.344-3 3-3z" style="fill:url(#linearGradient4111)"/>
    <circle id="path2849" transform="matrix(.88235 -1.0264e-6 1.0264e-6 .88235 10.265 -4.7647)" cx="23.5" cy="19" r="8.5" style="fill:none;stroke-linecap:square;stroke-width:1.1333;stroke:url(#linearGradient3120)"/>
    <circle id="path2835" transform="matrix(.41176 -4.79e-7 4.79e-7 .41176 21.324 4.1765)" cx="23.5" cy="19" r="8.5" style="fill:none;stroke-linecap:square;stroke-width:2.4286;stroke:url(#linearGradient3122)"/>
   </g>
   <path id="path233-5-7" d="m14.352 47.801c0.44693-0.01722 0.767-0.42834 0.7998-0.90684 0.30936-4.5122 0.64833-8.2956 0.64833-8.2956 0.02819-0.09669-0.0656-0.19339-0.1876-0.19339h-13.429s-0.72294 8.5436-0.72294 8.5436c-0.044758 0.3837-0.18207 0.70512-0.60554 0.8532l13.497-0.0011z" style="color:#000000;display:block;fill:url(#linearGradient8813);stroke-linejoin:round;stroke-width:.39071;stroke:#3465a4"/>
   <path id="path304-3-7" d="m2.567 38.796 12.812 0.02532-0.615 7.815c-0.03294 0.41865-0.17608 0.55802-0.73167 0.55802-0.73122 0-11.205-0.01266-12.266-0.01266 0.091269-0.12534 0.1304-0.38627 0.13093-0.39251z" style="fill:none;opacity:.46591;stroke-linecap:round;stroke-width:.39071px;stroke:url(#linearGradient322-1-38)"/>
   <rect id="rect3965-5-2" y="32" width="16" height="16" style="color-rendering:auto;color:#000000;image-rendering:auto;isolation:auto;mix-blend-mode:normal;opacity:0;shape-rendering:auto;solid-color:#000000;stroke-width:.493"/>
  </g>
 </g>
</svg>
