<?xml version="1.0" encoding="UTF-8"?>
<svg id="svg2" width="16" height="16" version="1.1" viewBox="0 0 16 16" xmlns="http://www.w3.org/2000/svg" xmlns:cc="http://creativecommons.org/ns#" xmlns:dc="http://purl.org/dc/elements/1.1/" xmlns:rdf="http://www.w3.org/1999/02/22-rdf-syntax-ns#" xmlns:xlink="http://www.w3.org/1999/xlink">
 <metadata id="metadata90">
  <rdf:RDF>
   <cc:Work>
    <dc:format>image/svg+xml</dc:format>
    <dc:type rdf:resource="http://purl.org/dc/dcmitype/StillImage"/>
    <dc:title/>
    <dc:contributor>
     <cc:Agent>
      <dc:title>many unknown and unnamed, Andrew Chadwick, Alexandre Prokoudine, Aryeom Han, Benoit Touchette, Jakub Steiner, Jehan, Johannes Matschke, Kevin Payne, Klaus Staedtler, Marek Dvoroznak, Michael Natterer</dc:title>
     </cc:Agent>
    </dc:contributor>
    <dc:description>Enhanced, extended tango-art-libre for GIMP</dc:description>
   </cc:Work>
  </rdf:RDF>
 </metadata>
 <defs id="defs7386">
  <linearGradient id="linearGradient7321" x1="83.032" x2="66.311" y1="40.924" y2="22.766" gradientTransform="matrix(.34101 0 0 .39513 572.97 416.15)" gradientUnits="userSpaceOnUse">
   <stop id="stop5150" stop-color="#d0d0d0" offset="0"/>
   <stop id="stop5152" stop-color="#ececec" offset="1"/>
  </linearGradient>
  <linearGradient id="linearGradient4295" x1="6" x2="12" y1="3" y2="5" gradientUnits="userSpaceOnUse">
   <stop id="stop4289" offset="0"/>
   <stop id="stop4291" style="stop-opacity:0" offset="1"/>
  </linearGradient>
 </defs>
 <g id="g4303">
  <g id="g19">
   <g id="g3998" transform="matrix(1.0048 0 0 1.0478 .011576 -3.8011)">
    <rect id="rect4273-3" transform="matrix(1 0 -.33325 .94284 0 0)" x="7.03" y="10.423" width="11.827" height="9.1189" style="color:#000000;fill-rule:evenodd;fill:url(#linearGradient7321);stroke-linecap:round;stroke-linejoin:round;stroke-miterlimit:10;stroke-width:1.0038;stroke:#9b9c98"/>
    <rect id="rect5156-3" transform="matrix(1 0 -.33197 .94329 0 0)" x="8.1767" y="11.497" width="9.6324" height="5.793" ry="0" style="color:#000000;fill-rule:evenodd;fill:#d3d7cf;stroke-miterlimit:10;stroke-width:1.0655;stroke:#fff"/>
   </g>
  </g>
  <path id="text1950-9" d="m10 0v2.7065h-0.26277c-0.15572-0.62438-0.32847-1.0718-0.51824-1.3422-0.18979-0.27531-0.45013-0.49409-0.78102-0.65634-0.18492-0.088486-0.3482-0.13273-0.81047-0.13274h-0.73722v7.7139c-6.9e-6 0.51131 0.026753 0.83088 0.08029 0.9587 0.058383 0.12783 0.16788 0.2409 0.32846 0.33923 0.16544 0.09341 0.38928 0.14012 0.67152 0.14012h0.32846v0.27286h-5.7356v-0.27286h0.32846c0.2871 1e-6 0.51824-0.05163 0.69342-0.15487 0.12652-0.06883 0.22627-0.18682 0.29927-0.35398 0.053526-0.11799 0.08029-0.42773 0.08029-0.9292v-7.7139h-0.77012c-0.66666 9.4e-6 -0.81281 0.14259-1.1145 0.42773-0.42335 0.39824-0.69099 0.96608-0.80291 1.7035h-0.27737v-2.7065h9" style="color:#000000;fill-rule:evenodd;fill:url(#linearGradient4295);text-decoration-line:none;text-indent:0;text-transform:none"/>
 </g>
</svg>
