<?xml version="1.0" encoding="UTF-8"?>
<svg id="svg2" width="16" height="16" enable-background="new 0 0 128 129.396" overflow="visible" version="1.0" viewBox="0 0 16 16" xml:space="preserve" xmlns="http://www.w3.org/2000/svg" xmlns:cc="http://creativecommons.org/ns#" xmlns:dc="http://purl.org/dc/elements/1.1/" xmlns:rdf="http://www.w3.org/1999/02/22-rdf-syntax-ns#"><metadata id="metadata367"><rdf:RDF><cc:Work rdf:about=""><dc:format>image/svg+xml</dc:format><dc:type rdf:resource="http://purl.org/dc/dcmitype/StillImage"/><cc:license rdf:resource="http://creativecommons.org/publicdomain/zero/1.0/"/><dc:title/><dc:creator><cc:Agent><dc:title/></cc:Agent></dc:creator><dc:source/><dc:subject><rdf:Bag/></dc:subject></cc:Work><cc:License rdf:about="http://creativecommons.org/publicdomain/zero/1.0/"><cc:permits rdf:resource="http://creativecommons.org/ns#Reproduction"/><cc:permits rdf:resource="http://creativecommons.org/ns#Distribution"/><cc:permits rdf:resource="http://creativecommons.org/ns#DerivativeWorks"/></cc:License></rdf:RDF></metadata><g id="g4339" transform="translate(-1.3056 2.2644)"><path id="rect1512" d="m8.5122 0.6808h1.988c0.28021 0 4.8055 5.735 4.8055 6.0548l-0.02448 6.1748c0 0.3198-0.12638 0.64894-0.4066 0.64894l-10.891 0.0046c-0.28021 0-0.5058-0.25745-0.5058-0.57725l0.018847-6.5337c0-0.3198 4.7358-5.7721 5.016-5.7721z" style="color:#000000;fill:#eeeeec;stroke-width:.34333;stroke:#757575"/><path id="path5" d="m17.306 13.736h-15.883v-16h15.883z" style="fill:none;stroke-width:.35171"/><path id="path342" d="m9.4157 1.6711 6.6325 6.0611 0.17335 0.13838 0.14146-0.0605-0.13066-0.26888-0.09729-0.07887-6.7193-5.4971-6.7945 5.5575-0.083262 0.05087-0.07594 0.2495 0.15188 0.04562 0.13476-0.10888z" style="fill:url(#XMLID_39_);stroke-width:.35171"/><path id="path362" d="m9.3745-1.6076-7.6679 6.3899-0.21892 2.5296 0.70082 0.72872s7.1512-6.0566 7.2272-6.1169l6.8797 6.1929 0.66525-0.82039-0.56621-2.5104-6.9787-6.4304z" style="fill:#ef2929;stroke-width:.35171;stroke:#a40000"/><path id="path1536" d="m1.8443 4.8672-0.10217 2.3381 7.646-6.4446-0.024644-2.0804z" style="color:#000000;fill-opacity:0;opacity:.40909"/><path id="path2337" d="m9.4283 0.67976 0.034853-2.0619 6.7733 6.2313 0.52277 2.2948z" style="color:#000000;fill-opacity:0;opacity:.13636"/><path id="rect2361" d="m10.346 7.3759h3.1678c0.27003 0 0.48743 0.219 0.48743 0.49102l-0.0028 3.205c0 0.27203-0.20897 0.4469-0.479 0.4469h-3.1735c-0.27004 0-0.48743-0.219-0.48743-0.49102v-3.1609c0-0.27203 0.21739-0.49102 0.48743-0.49102z" style="color:#000000;fill:none;opacity:.31818;stroke-width:.35171;stroke:#fff"/><rect id="rect3263" x="9.4877" y="7.9177" width="3.6358" height="3.6358" rx=".13861" ry=".13915" style="color:#000000;fill:#3465a4;stroke-linecap:square;stroke-width:.36424;stroke:#757575"/><path id="path188-3" d="m8.1157 7.9255v5.6202h-3.5518l-0.068411-5.6202z" style="clip-rule:evenodd;fill-rule:evenodd;fill:#d3d7cf;stroke-linecap:round;stroke-width:.37983;stroke:#757575"/></g></svg>
