<?xml version="1.0" encoding="UTF-8"?>
<!-- Created with Inkscape (http://www.inkscape.org/) -->
<svg id="svg1" width="16" height="16" version="1.0" viewBox="0 0 16 16" xmlns="http://www.w3.org/2000/svg" xmlns:cc="http://creativecommons.org/ns#" xmlns:dc="http://purl.org/dc/elements/1.1/" xmlns:rdf="http://www.w3.org/1999/02/22-rdf-syntax-ns#">
 <metadata id="metadata162">
  <rdf:RDF>
   <cc:Work rdf:about="">
    <dc:format>image/svg+xml</dc:format>
    <dc:type rdf:resource="http://purl.org/dc/dcmitype/StillImage"/>
    <dc:title>Folder</dc:title>
    <dc:creator>
     <cc:Agent>
      <dc:title/>
     </cc:Agent>
    </dc:creator>
    <dc:date>2005-02-01</dc:date>
    <cc:license rdf:resource="http://creativecommons.org/licenses/GPL/2.0/"/>
    <dc:identifier/>
    <dc:subject>
     <rdf:Bag>
      <rdf:li>folder</rdf:li>
      <rdf:li>directory</rdf:li>
      <rdf:li>storage</rdf:li>
     </rdf:Bag>
    </dc:subject>
   </cc:Work>
   <cc:License rdf:about="http://creativecommons.org/licenses/GPL/2.0/">
    <cc:permits rdf:resource="http://web.resource.org/cc/Reproduction"/>
    <cc:permits rdf:resource="http://web.resource.org/cc/Distribution"/>
    <cc:requires rdf:resource="http://web.resource.org/cc/Notice"/>
    <cc:permits rdf:resource="http://web.resource.org/cc/DerivativeWorks"/>
    <cc:requires rdf:resource="http://web.resource.org/cc/ShareAlike"/>
    <cc:requires rdf:resource="http://web.resource.org/cc/SourceCode"/>
   </cc:License>
  </rdf:RDF>
 </metadata>
 <g id="layer2" transform="translate(0,-6)">
  <g id="g4257">
   <rect id="rect1934" x=".49383" y="6.4938" width="15.012" height="15.012" rx="1.4297" ry="1.4297" style="color:#000000;fill-rule:evenodd;fill:#d3d7cf;stroke-linecap:square;stroke-linejoin:round;stroke:#888a85"/>
   <rect id="rect2823" x="1.4994" y="7.4994" width="13.001" height="13.001" rx=".70565" ry=".70565" style="color:#000000;fill:none;stroke-linecap:square;stroke-linejoin:round;stroke-width:.99889;stroke:#fff"/>
   <path id="text2841" d="m5.7542 10.983c-0.70719 3e-6 -1.1971 0.07228-1.4699 0.21684-0.27273 0.14456-0.40909 0.39116-0.40909 0.7398-1.5e-6 0.27778 0.10148 0.49887 0.30444 0.66326 0.20613 0.16157 0.4852 0.24235 0.83721 0.24235 0.4852 1e-6 0.87368-0.15306 1.1654-0.45918 0.29492-0.30896 0.44238-0.71854 0.44239-1.2287v-0.17432h-0.87051m1.7458-0.32313v2.7168h-0.87526v-0.72279c-0.19979 0.28912-0.44874 0.50312-0.74683 0.64201-0.2981 0.13605-0.66279 0.20408-1.0941 0.20408-0.54546 0-0.97992-0.13605-1.3034-0.40816-0.3203-0.27494-0.48044-0.64201-0.48044-1.1012-8e-7 -0.53571 0.19979-0.93962 0.59937-1.2117 0.40275-0.2721 1.0021-0.40816 1.7981-0.40816h1.2273v-0.07654c-5e-6 -0.35996-0.1332-0.63774-0.39958-0.83332-0.26322-0.19841-0.63425-0.29761-1.1131-0.29762-0.30444 4.2e-6 -0.60095 0.0326-0.88954 0.097789-0.28858 0.065196-0.56607 0.16299-0.83245 0.29337v-0.72279c0.32029-0.11054 0.63108-0.19274 0.93235-0.2466 0.30127-0.056685 0.59461-0.085029 0.88002-0.085034 0.77061 5e-6 1.3462 0.17858 1.7267 0.53571 0.38055 0.35715 0.57082 0.89853 0.57083 1.6241"/>
   <path id="text2849" d="m11.479 14.934c0.31891 1e-6 0.56156-0.11482 0.72795-0.34448 0.16916-0.22965 0.25374-0.5632 0.25374-1.0006-4e-6 -0.43743-0.08459-0.77098-0.25374-1.0006-0.16639-0.22965-0.40904-0.34448-0.72795-0.34448-0.31892 5e-6 -0.56434 0.1162-0.73627 0.34858-0.16917 0.22966-0.25375 0.56183-0.25374 0.99653-3e-6 0.4347 0.08457 0.76824 0.25374 1.0006 0.17193 0.22965 0.41736 0.34448 0.73627 0.34448m-0.99002-2.9732c0.20521-0.26792 0.43261-0.46477 0.68219-0.59054 0.24958-0.12849 0.5366-0.19274 0.86107-0.19274 0.57404 4e-6 1.0455 0.22556 1.4143 0.67666 0.36882 0.44837 0.55324 1.0266 0.55324 1.7347-6e-6 0.7081-0.18442 1.2877-0.55324 1.7388-0.36884 0.44837-0.84027 0.67255-1.4143 0.67255-0.32446 0-0.61148-0.062879-0.86107-0.18864-0.24959-0.1285-0.47698-0.32671-0.68219-0.59464v0.66435h-1.4892v-6.3811h1.4892v2.4606"/>
   <path id="text2853" d="m7.512 17.948c-0.23749 0.5055-0.56607 0.89057-0.98573 1.1552-0.41967 0.26464-0.91579 0.39697-1.4883 0.39697-0.75475 0-1.3111-0.22748-1.6689-0.68243-0.35786-0.45792-0.45545-1.0645-0.29279-1.8198 0.16591-0.75825 0.52702-1.3634 1.0833-1.8153 0.55955-0.45494 1.2167-0.68242 1.9715-0.68242 0.32857 4e-6 0.64739 0.03569 0.95645 0.10705 0.3123 0.06839 0.61648 0.17396 0.91253 0.31668l-0.26351 1.2132h-0.52214c0.022767-0.41629-0.060189-0.71959-0.24887-0.9099-0.18544-0.1903-0.49124-0.28545-0.91741-0.28546-0.48473 4e-6 -0.88976 0.17247-1.2151 0.5174-0.32207 0.34196-0.55793 0.8549-0.70758 1.5388-0.14965 0.68391-0.13989 1.1983 0.029279 1.5433 0.17242 0.34493 0.50262 0.5174 0.99061 0.5174 0.38713 1e-6 0.7157-0.09218 0.98573-0.27654 0.27327-0.18436 0.49286-0.46238 0.65878-0.83408h0.72222"/>
  </g>
 </g>
</svg>
