<?xml version="1.0" encoding="UTF-8"?>
<svg id="svg7384" width="16" height="16" version="1.1" viewBox="0 0 16 16" xmlns="http://www.w3.org/2000/svg" xmlns:cc="http://creativecommons.org/ns#" xmlns:dc="http://purl.org/dc/elements/1.1/" xmlns:osb="http://www.openswatchbook.org/uri/2009/osb" xmlns:rdf="http://www.w3.org/1999/02/22-rdf-syntax-ns#" xmlns:xlink="http://www.w3.org/1999/xlink">
 <metadata id="metadata90">
  <rdf:RDF>
   <cc:Work rdf:about="">
    <dc:format>image/svg+xml</dc:format>
    <dc:type rdf:resource="http://purl.org/dc/dcmitype/StillImage"/>
    <dc:title/>
    <dc:contributor>
     <cc:Agent>
      <dc:title>Barbara Muraus, Jakub Steiner, Klaus Staedtler</dc:title>
     </cc:Agent>
    </dc:contributor>
    <dc:description>Images originally created as the "Art Libre" icon set. Extended and adopted for GIMP</dc:description>
   </cc:Work>
  </rdf:RDF>
 </metadata>
 <defs id="defs7386">
  <linearGradient id="linearGradient8316" x1="55" x2="71" y1="-32" y2="-32" gradientTransform="translate(833.15 399.52)" gradientUnits="userSpaceOnUse">
   <stop id="stop19284-0" style="stop-color:#222" offset="0"/>
  </linearGradient>
 </defs>
 <g id="preferences" transform="translate(-219.83 -241.52)">
  <g id="gimp-prefs-folders-fonts" transform="translate(164.83 281.52)">
   <path id="path14416" d="m55.531-40c-0.28913 0-0.53125 0.24215-0.53125 0.53125v14.938c0 0.2985 0.23264 0.53125 0.53125 0.53125h14.938c0.2986 0 0.53125-0.23265 0.53125-0.53125v-9.9375c0-0.289-0.24212-0.53125-0.53125-0.53125h-12.469v8.5c0 0.277-0.223 0.5-0.5 0.5s-0.5-0.223-0.5-0.5v-9c0-0.277 0.223-0.5 0.5-0.5h2.9688 8.5312v-1.4062c0-0.3271-0.26666-0.59375-0.59375-0.59375h-7.4062v-1.4688c0-0.2891-0.24212-0.53125-0.53125-0.53125zm6.4688 6 3.9062 0.03125h0.0625c0.55183 0.04493 1.0997 0.27115 1.4688 0.625 0.36901 0.35383 0.5625 0.82511 0.5625 1.3438v5 2h-0.75-5.25c-3 0-3-6 0-6h2 2l-0.03125-0.25c-3.77e-4 -0.02141 8.77e-4 -0.04249 0-0.0625-0.01157-0.26362-0.13263-0.4174-0.21875-0.5-0.0926-0.08876-0.215-0.1693-0.4375-0.1875h-3.3125zm1 5c-0.554 0-1 0.446-1 1s0.446 1 1 1h3v-2z" style="fill:url(#linearGradient8316)"/>
  </g>
 </g>
</svg>
