<?xml version="1.0" encoding="UTF-8"?>
<svg id="svg7384" width="16" height="16" version="1.1" viewBox="0 0 16 16" xmlns="http://www.w3.org/2000/svg" xmlns:cc="http://creativecommons.org/ns#" xmlns:dc="http://purl.org/dc/elements/1.1/" xmlns:osb="http://www.openswatchbook.org/uri/2009/osb" xmlns:rdf="http://www.w3.org/1999/02/22-rdf-syntax-ns#" xmlns:xlink="http://www.w3.org/1999/xlink">
 <metadata id="metadata90">
  <rdf:RDF>
   <cc:Work rdf:about="">
    <dc:format>image/svg+xml</dc:format>
    <dc:type rdf:resource="http://purl.org/dc/dcmitype/StillImage"/>
    <dc:title/>
    <dc:contributor>
     <cc:Agent>
      <dc:title>Barbara Muraus, Jakub Steiner, Klaus Staedtler</dc:title>
     </cc:Agent>
    </dc:contributor>
    <dc:description>Images originally created as the "Art Libre" icon set. Extended and adopted for GIMP</dc:description>
   </cc:Work>
  </rdf:RDF>
 </metadata>
 <defs id="defs7386">
  <linearGradient id="linearGradient8234" x1="-5" x2="11" y1="8" y2="8" gradientTransform="translate(854.15 333.46)" gradientUnits="userSpaceOnUse">
   <stop id="stop19284-0" style="stop-color:#222" offset="0"/>
  </linearGradient>
 </defs>
 <g id="preferences" transform="translate(-240.83 -175.46)">
  <g id="gimp-prefs-help-system" transform="translate(245.83 175.46)">
   <path id="path22763" d="m-0.03125 0.59375c-1.9898 0.81301-3.5357 2.4157-4.3438 4.4062l2.9062 0.78125c0.48984-0.95319 1.2886-1.7349 2.25-2.2188zm6.0625 0-0.8125 2.9688c0.96139 0.48381 1.7602 1.2656 2.25 2.2188l2.9062-0.78125c-0.80802-1.9905-2.3539-3.5932-4.3438-4.4062zm-7.5 9.625-2.9062 0.78125c0.80802 1.9905 2.3539 3.5932 4.3438 4.4062l0.8125-2.9688c-0.96139-0.48381-1.7602-1.2656-2.25-2.2188zm8.9062 0c-0.48381 0.9614-1.2656 1.7602-2.2188 2.25l0.78125 2.9062c1.9905-0.80802 3.5932-2.3539 4.4062-4.3438z" style="fill:#222"/>
   <path id="path22768" d="m3 0c-4.4183 0-8 3.5817-8 8 0 4.4183 3.5817 8 8 8s8-3.5817 8-8c0-4.4183-3.5817-8-8-8zm0 3c2.7614 0 5 2.2386 5 5 0 2.7614-2.2386 5-5 5s-5-2.2386-5-5c0-2.7614 2.2386-5 5-5z" style="fill:url(#linearGradient8234);opacity:.3"/>
  </g>
 </g>
</svg>
