<?xml version="1.0" encoding="UTF-8"?>
<svg id="svg7384" width="16" height="16" version="1.1" viewBox="0 0 16 16" xmlns="http://www.w3.org/2000/svg" xmlns:cc="http://creativecommons.org/ns#" xmlns:dc="http://purl.org/dc/elements/1.1/" xmlns:osb="http://www.openswatchbook.org/uri/2009/osb" xmlns:rdf="http://www.w3.org/1999/02/22-rdf-syntax-ns#" xmlns:xlink="http://www.w3.org/1999/xlink">
 <metadata id="metadata90">
  <rdf:RDF>
   <cc:Work rdf:about="">
    <dc:format>image/svg+xml</dc:format>
    <dc:type rdf:resource="http://purl.org/dc/dcmitype/StillImage"/>
    <dc:title/>
    <dc:contributor>
     <cc:Agent>
      <dc:title>Barbara Muraus, Jakub Steiner, Klaus Staedtler</dc:title>
     </cc:Agent>
    </dc:contributor>
    <dc:description>Images originally created as the "Art Libre" icon set. Extended and adopted for GIMP</dc:description>
   </cc:Work>
  </rdf:RDF>
 </metadata>
 <defs id="defs7386">
  <linearGradient id="linearGradient8298" x1="35" x2="51" y1="-32" y2="-32" gradientTransform="translate(768.16 399.52)" gradientUnits="userSpaceOnUse">
   <stop id="stop19284-0" style="stop-color:#222" offset="0"/>
  </linearGradient>
 </defs>
 <g id="preferences" transform="translate(-154.84 -241.52)">
  <g id="gimp-prefs-folders-brushes" transform="translate(119.84 281.52)">
   <g id="g560" transform="translate(20)">
    <g id="folder" transform="translate(-193 -1036)">
     <path id="path7149" transform="translate(173 1036)" d="m35.531-40c-0.28913 0-0.53125 0.24212-0.53125 0.53125v14.938c0 0.2985 0.23264 0.53125 0.53125 0.53125h14.938c0.2986 0 0.53125-0.23265 0.53125-0.53125v-9.9375c0-0.2891-0.24212-0.53125-0.53125-0.53125h-12.469v8.5c0 0.277-0.223 0.5-0.5 0.5s-0.5-0.223-0.5-0.5v-9c0-0.277 0.223-0.5 0.5-0.5h2.9688 8.5312v-1.4062c0-0.3272-0.26674-0.60079-0.59375-0.59375h-7.4062v-1.4688c0-0.28915-0.24212-0.53125-0.53125-0.53125zm5.4688 6v0.5625c0 0.24484 0.21623 0.4375 0.46875 0.4375h0.0625c0.25252 0 0.46875-0.19266 0.46875-0.4375v-0.5625h1v0.5625c0 0.24484 0.21623 0.4375 0.46875 0.4375h0.0625c0.25252 0 0.46875-0.19266 0.46875-0.4375v-0.5625h1v0.5625c0 0.24484 0.21623 0.4375 0.46875 0.4375h0.0625c0.25252 0 0.46875-0.19266 0.46875-0.4375v-0.5625h1v0.5625c0 0.24484 0.21623 0.4375 0.46875 0.4375h0.0625c0.25252 0 0.46875-0.19266 0.46875-0.4375v-0.5625c0.554 0 1.0214 0.44642 1 1v3h-9v-3c0-0.554 0.446-1 1-1zm-1 5h9l-1 2h-2v2h-3v-2h-2z" style="fill:url(#linearGradient8298)"/>
    </g>
   </g>
  </g>
 </g>
</svg>
