<?xml version="1.0" encoding="UTF-8"?>
<svg id="svg7384" width="16" height="16" version="1.1" viewBox="0 0 16 16" xmlns="http://www.w3.org/2000/svg" xmlns:cc="http://creativecommons.org/ns#" xmlns:dc="http://purl.org/dc/elements/1.1/" xmlns:osb="http://www.openswatchbook.org/uri/2009/osb" xmlns:rdf="http://www.w3.org/1999/02/22-rdf-syntax-ns#" xmlns:xlink="http://www.w3.org/1999/xlink">
 <metadata id="metadata90">
  <rdf:RDF>
   <cc:Work rdf:about="">
    <dc:format>image/svg+xml</dc:format>
    <dc:type rdf:resource="http://purl.org/dc/dcmitype/StillImage"/>
    <dc:title/>
    <dc:contributor>
     <cc:Agent>
      <dc:title>Barbara Muraus, Jakub Steiner, Klaus Staedtler</dc:title>
     </cc:Agent>
    </dc:contributor>
    <dc:description>Images originally created as the "Art Libre" icon set. Extended and adopted for GIMP</dc:description>
   </cc:Work>
  </rdf:RDF>
 </metadata>
 <defs id="defs7386">
  <linearGradient id="linearGradient19282-4" gradientTransform="matrix(.34683 0 0 .30621 -113.35 544.04)" osb:paint="solid">
   <stop id="stop19284-0" style="stop-color:#222" offset="0"/>
  </linearGradient>
  <linearGradient id="linearGradient10680-2" x1="41" x2="42" y1="220.5" y2="220.5" gradientUnits="userSpaceOnUse" xlink:href="#linearGradient19282-4"/>
  <linearGradient id="linearGradient10668-7" x1="53" x2="54" y1="220.5" y2="220.5" gradientUnits="userSpaceOnUse" xlink:href="#linearGradient19282-4"/>
  <linearGradient id="linearGradient10666-5" x1="55" x2="56" y1="220.5" y2="220.5" gradientUnits="userSpaceOnUse" xlink:href="#linearGradient19282-4"/>
  <linearGradient id="linearGradient10634-9" x1="41" x2="42" y1="222.5" y2="222.5" gradientUnits="userSpaceOnUse" xlink:href="#linearGradient19282-4"/>
  <linearGradient id="linearGradient10670-2" x1="51" x2="52" y1="220.5" y2="220.5" gradientUnits="userSpaceOnUse" xlink:href="#linearGradient19282-4"/>
  <linearGradient id="linearGradient10678-2" x1="43" x2="44" y1="220.5" y2="220.5" gradientUnits="userSpaceOnUse" xlink:href="#linearGradient19282-4"/>
  <linearGradient id="linearGradient10676-8" x1="45" x2="46" y1="220.5" y2="220.5" gradientUnits="userSpaceOnUse" xlink:href="#linearGradient19282-4"/>
  <linearGradient id="linearGradient10674-9" x1="47" x2="48" y1="220.5" y2="220.5" gradientUnits="userSpaceOnUse" xlink:href="#linearGradient19282-4"/>
  <linearGradient id="linearGradient10672-7" x1="49" x2="50" y1="220.5" y2="220.5" gradientUnits="userSpaceOnUse" xlink:href="#linearGradient19282-4"/>
  <linearGradient id="linearGradient10636-3" x1="41" x2="42" y1="224.5" y2="224.5" gradientUnits="userSpaceOnUse" xlink:href="#linearGradient19282-4"/>
  <linearGradient id="linearGradient10638-6" x1="41" x2="42" y1="226.5" y2="226.5" gradientUnits="userSpaceOnUse" xlink:href="#linearGradient19282-4"/>
  <linearGradient id="linearGradient10644-1" x1="43" x2="44" y1="230.5" y2="230.5" gradientUnits="userSpaceOnUse" xlink:href="#linearGradient19282-4"/>
  <linearGradient id="linearGradient10646-2" x1="45" x2="46" y1="230.5" y2="230.5" gradientUnits="userSpaceOnUse" xlink:href="#linearGradient19282-4"/>
  <linearGradient id="linearGradient10648-9" x1="47" x2="48" y1="230.5" y2="230.5" gradientUnits="userSpaceOnUse" xlink:href="#linearGradient19282-4"/>
  <linearGradient id="linearGradient10650-3" x1="49" x2="50" y1="230.5" y2="230.5" gradientUnits="userSpaceOnUse" xlink:href="#linearGradient19282-4"/>
  <linearGradient id="linearGradient10652-1" x1="51" x2="52" y1="230.5" y2="230.5" gradientUnits="userSpaceOnUse" xlink:href="#linearGradient19282-4"/>
  <linearGradient id="linearGradient10654-9" x1="53" x2="54" y1="230.5" y2="230.5" gradientUnits="userSpaceOnUse" xlink:href="#linearGradient19282-4"/>
  <linearGradient id="linearGradient10656-4" x1="55" x2="56" y1="230.5" y2="230.5" gradientUnits="userSpaceOnUse" xlink:href="#linearGradient19282-4"/>
  <linearGradient id="linearGradient10658-7" x1="55" x2="56" y1="228.5" y2="228.5" gradientUnits="userSpaceOnUse" xlink:href="#linearGradient19282-4"/>
  <linearGradient id="linearGradient10660-8" x1="55" x2="56" y1="226.5" y2="226.5" gradientUnits="userSpaceOnUse" xlink:href="#linearGradient19282-4"/>
  <linearGradient id="linearGradient10662-4" x1="55" x2="56" y1="224.5" y2="224.5" gradientUnits="userSpaceOnUse" xlink:href="#linearGradient19282-4"/>
  <linearGradient id="linearGradient10664-5" x1="55" x2="56" y1="222.5" y2="222.5" gradientUnits="userSpaceOnUse" xlink:href="#linearGradient19282-4"/>
  <linearGradient id="linearGradient10580-0" x1="44" x2="53" y1="225.5" y2="225.5" gradientUnits="userSpaceOnUse" xlink:href="#linearGradient19282-4"/>
  <linearGradient id="linearGradient10640-3" x1="41" x2="42" y1="228.5" y2="228.5" gradientUnits="userSpaceOnUse" xlink:href="#linearGradient19282-4"/>
  <linearGradient id="linearGradient10642-6" x1="41" x2="42" y1="230.5" y2="230.5" gradientUnits="userSpaceOnUse" xlink:href="#linearGradient19282-4"/>
 </defs>
 <g id="gimp-tool-rect-select" transform="translate(-41 -217)">
  <rect id="rect74853" x="41" y="220" width="1" height="1" style="fill:url(#linearGradient10680-2)"/>
  <rect id="rect74855" x="53" y="220" width="1" height="1" style="fill:url(#linearGradient10668-7)"/>
  <rect id="rect74857" x="55" y="220" width="1" height="1" style="fill:url(#linearGradient10666-5)"/>
  <rect id="rect74859" x="41" y="222" width="1" height="1" style="fill:url(#linearGradient10634-9)"/>
  <rect id="rect74861" x="51" y="220" width="1" height="1" style="fill:url(#linearGradient10670-2)"/>
  <rect id="rect74863" x="43" y="220" width="1" height="1" style="fill:url(#linearGradient10678-2)"/>
  <rect id="rect74865" x="45" y="220" width="1" height="1" style="fill:url(#linearGradient10676-8)"/>
  <rect id="rect74867" x="47" y="220" width="1" height="1" style="fill:url(#linearGradient10674-9)"/>
  <rect id="rect74869" x="49" y="220" width="1" height="1" style="fill:url(#linearGradient10672-7)"/>
  <rect id="rect74871" x="41" y="224" width="1" height="1" style="fill:url(#linearGradient10636-3)"/>
  <rect id="rect74873" x="41" y="226" width="1" height="1" style="fill:url(#linearGradient10638-6)"/>
  <rect id="rect74875" x="43" y="230" width="1" height="1" style="fill:url(#linearGradient10644-1)"/>
  <rect id="rect74877" x="45" y="230" width="1" height="1" style="fill:url(#linearGradient10646-2)"/>
  <rect id="rect74879" x="47" y="230" width="1" height="1" style="fill:url(#linearGradient10648-9)"/>
  <rect id="rect74881" x="49" y="230" width="1" height="1" style="fill:url(#linearGradient10650-3)"/>
  <rect id="rect74883" x="51" y="230" width="1" height="1" style="fill:url(#linearGradient10652-1)"/>
  <rect id="rect74885" x="53" y="230" width="1" height="1" style="fill:url(#linearGradient10654-9)"/>
  <rect id="rect74887" x="55" y="230" width="1" height="1" style="fill:url(#linearGradient10656-4)"/>
  <rect id="rect74889" x="55" y="228" width="1" height="1" style="fill:url(#linearGradient10658-7)"/>
  <rect id="rect74891" x="55" y="226" width="1" height="1" style="fill:url(#linearGradient10660-8)"/>
  <rect id="rect74893" x="55" y="224" width="1" height="1" style="fill:url(#linearGradient10662-4)"/>
  <rect id="rect74895" x="55" y="222" width="1" height="1" style="fill:url(#linearGradient10664-5)"/>
  <rect id="rect74897" x="44" y="223" width="9" height="5" style="fill:url(#linearGradient10580-0)"/>
  <rect id="rect74899" x="41" y="228" width="1" height="1" style="fill:url(#linearGradient10640-3)"/>
  <rect id="rect74901" x="41" y="230" width="1" height="1" style="fill:url(#linearGradient10642-6)"/>
 </g>
</svg>
