<?xml version="1.0" encoding="UTF-8"?>
<svg id="svg7384" width="16" height="16" version="1.1" viewBox="0 0 16 16" xmlns="http://www.w3.org/2000/svg" xmlns:cc="http://creativecommons.org/ns#" xmlns:dc="http://purl.org/dc/elements/1.1/" xmlns:osb="http://www.openswatchbook.org/uri/2009/osb" xmlns:rdf="http://www.w3.org/1999/02/22-rdf-syntax-ns#" xmlns:xlink="http://www.w3.org/1999/xlink">
 <metadata id="metadata90">
  <rdf:RDF>
   <cc:Work rdf:about="">
    <dc:format>image/svg+xml</dc:format>
    <dc:type rdf:resource="http://purl.org/dc/dcmitype/StillImage"/>
    <dc:title/>
    <dc:contributor>
     <cc:Agent>
      <dc:title>Barbara Muraus, Jakub Steiner, Klaus Staedtler</dc:title>
     </cc:Agent>
    </dc:contributor>
    <dc:description>Images originally created as the "Art Libre" icon set. Extended and adopted for GIMP</dc:description>
   </cc:Work>
  </rdf:RDF>
 </metadata>
 <defs id="defs7386">
  <linearGradient id="linearGradient19282-4" gradientTransform="matrix(.34683 0 0 .30621 -73.352 484.04)" osb:paint="solid">
   <stop id="stop19284-0" style="stop-color:#222" offset="0"/>
  </linearGradient>
  <linearGradient id="linearGradient7114" x1="85" x2="88" y1="290" y2="290" gradientTransform="translate(322.73 183.95)" gradientUnits="userSpaceOnUse" xlink:href="#linearGradient19282-4"/>
  <linearGradient id="linearGradient7121" x1="324.17" x2="334.17" y1="189.95" y2="189.95" gradientTransform="translate(322.73 183.95)" gradientUnits="userSpaceOnUse" xlink:href="#linearGradient19282-4"/>
  <linearGradient id="linearGradient7127" x1="83" x2="94" y1="279" y2="279" gradientTransform="translate(322.73 183.95)" gradientUnits="userSpaceOnUse" xlink:href="#linearGradient19282-4"/>
 </defs>
 <g id="tools" transform="translate(-32.101 -248.47)">
  <g id="gimp-tool-colorize" transform="translate(-48.899 -28.528)">
   <rect id="rect5063" x="83" y="277" width="11" height="4" rx="1" ry="1" style="fill:url(#linearGradient7127)"/>
   <path id="rect5065" transform="translate(-238.17 93.051)" d="m331.17 185.95c-0.554 0-1 0.223-1 0.5s0.446 0.5 1 0.5h2v3h-8c-0.14106 0-0.27501 0.0149-0.39649 0.041-0.0344-0.0148-0.0669-0.041-0.10351-0.041-0.11229 0-0.20969 0.0869-0.29297 0.21094-0.12073 0.0826-0.20703 0.17844-0.20703 0.28906 0 0.0367 0.0262 0.0691 0.041 0.10351-0.0261 0.12147-0.041 0.25544-0.041 0.39649v2c0 0.554 0.223 1 0.5 1s0.5-0.446 0.5-1v-2h8c0.14106 0 0.27501-0.0149 0.39648-0.041 0.0344 0.0148 0.0669 0.041 0.10352 0.041 0.11133 0 0.2081-0.0868 0.29101-0.20899 0.12215-0.0829 0.20899-0.17968 0.20899-0.29101 0-0.0367-0.0262-0.0691-0.041-0.10352 0.0264-0.12198 0.041-0.25467 0.041-0.39648v-3c0-0.14105-0.0149-0.27502-0.041-0.39649 0.0148-0.0344 0.041-0.0669 0.041-0.10351 0-0.11062-0.0863-0.20643-0.20703-0.28906-0.0833-0.12407-0.18068-0.21094-0.29297-0.21094-0.0367 0-0.0692 0.0262-0.10352 0.041-0.12147-0.0261-0.25542-0.041-0.39648-0.041z" style="fill:url(#linearGradient7121)"/>
   <rect id="rect5073" x="85" y="287" width="3" height="6" rx="1" ry="1" style="fill:url(#linearGradient7114)"/>
  </g>
 </g>
</svg>
