<?xml version="1.0" encoding="UTF-8"?>
<!-- Created with Inkscape (http://www.inkscape.org/) -->
<svg id="svg7384" width="16" height="16" version="1.1" viewBox="0 0 16 16" xmlns="http://www.w3.org/2000/svg" xmlns:cc="http://creativecommons.org/ns#" xmlns:dc="http://purl.org/dc/elements/1.1/" xmlns:rdf="http://www.w3.org/1999/02/22-rdf-syntax-ns#">
 <metadata id="metadata90">
  <rdf:RDF>
   <cc:Work rdf:about="">
    <dc:format>image/svg+xml</dc:format>
    <dc:type rdf:resource="http://purl.org/dc/dcmitype/StillImage"/>
    <dc:title>Gnome Symbolic Icon Theme</dc:title>
   </cc:Work>
  </rdf:RDF>
 </metadata>
 <title id="title9167">Gnome Symbolic Icon Theme</title>
 <g id="g4292">
  <path id="path12113" d="m6.5039 8.5c-0.052361 4.06e-4 -0.10461 0.00498-0.15625 0.013672-0.22194 0.024582-0.4291 0.12369-0.58789 0.28125l-2.75 2.7598v-1.5527c0.013635-0.56174-0.44897-1.0059-1.0098-1.002h-1v6h6v-1c0.010366-0.56179-0.45098-1.0208-1.0117-1.0137h-1.5586l2.7539-2.7637c0.66095-0.61691 0.22287-1.7272-0.67969-1.7227z" style="color:#ffffff;enable-background:new;fill:#222;stroke-width:.99428;text-indent:0;text-transform:none"/>
  <path id="path12113-6" d="m9.4975 7.5c0.052347-4.06e-4 0.10458-5e-3 0.15621-0.01367 0.22188-0.02458 0.42899-0.12369 0.58774-0.28125l2.7493-2.7598v1.5527c-0.01363 0.56174 0.44886 1.0059 1.0095 1.002h0.99974v-6h-5.9984v1c-0.010362 0.56179 0.45086 1.0208 1.0115 1.0137h1.5582l-2.7532 2.7637c-0.66078 0.6169-0.22281 1.7272 0.67951 1.7227z" style="color:#ffffff;enable-background:new;fill:#222;stroke-width:.99415;text-indent:0;text-transform:none"/>
 </g>
</svg>
