<?xml version="1.0" encoding="UTF-8"?>
<!-- Created with Inkscape (http://www.inkscape.org/) -->
<svg id="svg30571" width="16" height="16" version="1.1" viewBox="0 0 16 16" xmlns="http://www.w3.org/2000/svg" xmlns:cc="http://creativecommons.org/ns#" xmlns:dc="http://purl.org/dc/elements/1.1/" xmlns:rdf="http://www.w3.org/1999/02/22-rdf-syntax-ns#">
 <metadata id="metadata30576">
  <rdf:RDF>
   <cc:Work rdf:about="">
    <dc:format>image/svg+xml</dc:format>
    <dc:type rdf:resource="http://purl.org/dc/dcmitype/StillImage"/>
    <dc:title/>
    <dc:creator>
     <cc:Agent>
      <dc:title>Klaus Staedtler</dc:title>
     </cc:Agent>
    </dc:creator>
   </cc:Work>
  </rdf:RDF>
 </metadata>
 <g id="layer1" transform="translate(0 -1036.4)">
  <g id="g4253">
   <g id="g4249">
    <rect id="rect4192" transform="matrix(0,-1,-1,0,0,0)" x="-1048.4" y="-16" width="8" height="16" rx="1" ry="1" style="fill:#888a85"/>
    <rect id="rect4194" transform="scale(1,-1)" x="3" y="-1040.4" width="10" height="4" rx="0" ry="0" style="fill:#888a85"/>
    <rect id="rect4196" transform="scale(1,-1)" x="3" y="-1052.4" width="10" height="7" rx="0" ry="0" style="fill:#888a85"/>
    <rect id="rect4196-6" transform="scale(1,-1)" x="4" y="-1051.4" width="8" height="6" rx="0" ry="0" style="fill:#fff"/>
    <rect id="rect4194-6" transform="scale(1,-1)" x="4" y="-1040.4" width="8" height="3" rx="0" ry="0" style="fill:#fff"/>
    <rect id="rect4192-0" transform="matrix(0,-1,-1,0,0,0)" x="-1047.4" y="-15" width="6" height="14" rx=".75" ry=".875"/>
    <rect id="rect4356" x="13" y="1042.4" width="1" height="1" style="fill:#f57900;opacity:.91;paint-order:markers fill stroke"/>
    <rect id="rect4356-4" x="5" y="1048.4" width="1" height="1" style="opacity:.91;paint-order:markers fill stroke"/>
    <rect id="rect4356-4-6" x="6" y="1049.4" width="1" height="1" style="opacity:.91;paint-order:markers fill stroke"/>
    <rect id="rect4356-4-5" x="7" y="1048.4" width="1" height="1" style="opacity:.91;paint-order:markers fill stroke"/>
   </g>
   <rect id="rect4356-8" x="11" y="1042.4" width="1" height="1" style="fill:#73d216;opacity:.91;paint-order:markers fill stroke"/>
  </g>
 </g>
</svg>
