<?xml version="1.0" encoding="UTF-8"?>
<svg id="svg30571" width="16" height="16" version="1.1" viewBox="0 0 16 16" xmlns="http://www.w3.org/2000/svg" xmlns:cc="http://creativecommons.org/ns#" xmlns:dc="http://purl.org/dc/elements/1.1/" xmlns:rdf="http://www.w3.org/1999/02/22-rdf-syntax-ns#">
 <metadata id="metadata30576">
  <rdf:RDF>
   <cc:Work rdf:about="">
    <dc:format>image/svg+xml</dc:format>
    <dc:type rdf:resource="http://purl.org/dc/dcmitype/StillImage"/>
    <dc:creator>
     <cc:Agent>
      <dc:title>Klaus Staedtler</dc:title>
     </cc:Agent>
    </dc:creator>
    <dc:title/>
   </cc:Work>
  </rdf:RDF>
 </metadata>
 <g id="layer1" transform="translate(0 -1036.4)">
  <g id="g4261">
   <rect id="rect28186-4" y="1036.4" width="16" height="16" rx="0" style="fill:none"/>
   <rect id="rect6884" y="1036.4" width="16" height="16" style="fill:none;opacity:.3"/>
   <rect id="rect7360" x="5" y="1047.4" width="10" height="2" style="color:#bebebe"/>
   <path id="path3148" d="m3.8477 1040.4a1.3477 1.3477 0 0 1-1.3466 1.3477 1.3477 1.3477 0 0 1-1.3488-1.3456 1.3477 1.3477 0 0 1 1.3445-1.3498 1.3477 1.3477 0 0 1 1.3509 1.3434" style="fill:#f57900;stroke-width:.30461;stroke:#ce5c00"/>
   <path id="path3148-6" d="m3.8477 1044.4a1.3477 1.3477 0 0 1-1.3466 1.3477 1.3477 1.3477 0 0 1-1.3488-1.3456 1.3477 1.3477 0 0 1 1.3445-1.3498 1.3477 1.3477 0 0 1 1.3509 1.3434" style="fill:#f57900;stroke-width:.30461;stroke:#ce5c00"/>
   <path id="path3148-7" d="m3.8477 1048.4a1.3477 1.3477 0 0 1-1.3466 1.3477 1.3477 1.3477 0 0 1-1.3488-1.3456 1.3477 1.3477 0 0 1 1.3445-1.3498 1.3477 1.3477 0 0 1 1.3509 1.3434" style="fill:#f57900;stroke-width:.30461;stroke:#ce5c00"/>
  </g>
  <rect id="rect7360-3" x="5" y="1043.4" width="10" height="2" style="color:#bebebe"/>
  <rect id="rect7360-6" x="5" y="1039.4" width="10" height="2" style="color:#bebebe"/>
 </g>
</svg>
