<?xml version="1.0" encoding="UTF-8"?>
<!-- Created with Inkscape (http://www.inkscape.org/) -->
<svg id="svg11300" width="24" height="24" version="1.0" viewBox="0 0 24 24" xmlns="http://www.w3.org/2000/svg" xmlns:cc="http://creativecommons.org/ns#" xmlns:dc="http://purl.org/dc/elements/1.1/" xmlns:rdf="http://www.w3.org/1999/02/22-rdf-syntax-ns#">
 <metadata id="metadata4">
  <rdf:RDF>
   <cc:Work rdf:about="">
    <dc:format>image/svg+xml</dc:format>
    <dc:type rdf:resource="http://purl.org/dc/dcmitype/StillImage"/>
    <dc:creator>
     <cc:Agent>
      <dc:title>Jakub Steiner</dc:title>
     </cc:Agent>
    </dc:creator>
    <dc:source>http://jimmac.musichall.cz</dc:source>
    <cc:license rdf:resource="http://creativecommons.org/licenses/by-sa/2.0/"/>
    <dc:title/>
   </cc:Work>
   <cc:License rdf:about="http://creativecommons.org/licenses/by-sa/2.0/">
    <cc:permits rdf:resource="http://web.resource.org/cc/Reproduction"/>
    <cc:permits rdf:resource="http://web.resource.org/cc/Distribution"/>
    <cc:requires rdf:resource="http://web.resource.org/cc/Notice"/>
    <cc:requires rdf:resource="http://web.resource.org/cc/Attribution"/>
    <cc:permits rdf:resource="http://web.resource.org/cc/DerivativeWorks"/>
    <cc:requires rdf:resource="http://web.resource.org/cc/ShareAlike"/>
   </cc:License>
  </rdf:RDF>
 </metadata>
 <g id="layer1" transform="translate(0,8)">
  <g id="g943" transform="translate(45,-5)">
   <rect id="rect4013-8-5-6-4" x="-45" y="-3" width="24" height="24" rx=".41507" ry="2.1219" style="color-rendering:auto;color:#000000;image-rendering:auto;isolation:auto;mix-blend-mode:normal;opacity:0;shape-rendering:auto;solid-color:#000000;stroke-width:.75"/>
   <path id="path158-9" d="m-30.307 20.511h1.1478l-3.216-8.3526h-1.2841l-3.1819 8.3526h1.1023l0.94322-2.5456h3.5456zm-4.2388-3.3638 0.50002-1.3296c0.34092-0.93186 0.68185-1.841 1-2.8069h0.04546c0.34092 0.95458 0.67048 1.8637 1.0114 2.8069l0.50002 1.3296z"/>
   <path id="path1105-9-5" d="m-43.479-1.458v14.693h-1.5208l2.6138 5.3068 2.618-5.3068h-1.542v-14.693z" style="color-rendering:auto;color:#000000;dominant-baseline:auto;font-feature-settings:normal;font-variant-alternates:normal;font-variant-caps:normal;font-variant-ligatures:normal;font-variant-numeric:normal;font-variant-position:normal;image-rendering:auto;isolation:auto;mix-blend-mode:normal;shape-padding:0;shape-rendering:auto;solid-color:#000000;text-decoration-color:#000000;text-decoration-line:none;text-decoration-style:solid;text-indent:0;text-orientation:mixed;text-transform:none;white-space:normal"/>
   <path id="path1105-9-5-3" d="m-43.479 0.71094h14.693v1.5208l5.3068-2.6138-5.3068-2.618v1.542h-14.693z" style="color-rendering:auto;color:#000000;dominant-baseline:auto;font-feature-settings:normal;font-variant-alternates:normal;font-variant-caps:normal;font-variant-ligatures:normal;font-variant-numeric:normal;font-variant-position:normal;image-rendering:auto;isolation:auto;mix-blend-mode:normal;opacity:.6;shape-padding:0;shape-rendering:auto;solid-color:#000000;text-decoration-color:#000000;text-decoration-line:none;text-decoration-style:solid;text-indent:0;text-orientation:mixed;text-transform:none;white-space:normal"/>
   <g id="text875" transform="matrix(.25409 0 0 .25409 -42.193 5.697)" aria-label="文">
    <path id="path877" d="m25.1-0.94019 2.96-0.84q3.16 8.92 8.04 13.56 5.2-5.08 8.56-15.28h-25.96v-2.8h15.88v-5.92h3.2v5.92h15.88v2.8h-5.64q-3.72 11.52-9.6 17.28 5.28 4 15.16 7l-0.88 2.72q-10.72-3.2-16.56-7.72-5.72 4.48-16.48 7.72l-0.88-2.72q9.84-3 15.04-7-5.32-5.16-8.72-14.72z"/>
   </g>
  </g>
 </g>
</svg>
