<?xml version="1.0" encoding="UTF-8"?>
<svg id="svg30571" width="16" height="16" version="1.1" viewBox="0 0 16 16" xmlns="http://www.w3.org/2000/svg" xmlns:cc="http://creativecommons.org/ns#" xmlns:dc="http://purl.org/dc/elements/1.1/" xmlns:rdf="http://www.w3.org/1999/02/22-rdf-syntax-ns#">
 <metadata id="metadata30576">
  <rdf:RDF>
   <cc:Work rdf:about="">
    <dc:format>image/svg+xml</dc:format>
    <dc:type rdf:resource="http://purl.org/dc/dcmitype/StillImage"/>
    <dc:creator>
     <cc:Agent>
      <dc:title>Klaus Staedtler</dc:title>
     </cc:Agent>
    </dc:creator>
    <dc:title/>
   </cc:Work>
  </rdf:RDF>
 </metadata>
 <g id="layer1" transform="translate(0 -1036.4)">
  <g id="g3951">
   <g id="g3950">
    <rect id="rect28186-4" y="1036.4" width="16" height="16" rx="0" style="fill:none"/>
    <rect id="rect6884" y="1036.4" width="16" height="16" style="fill:none;opacity:.3"/>
    <path id="rect6886" d="m0 1036.4v16h16v-16zm1.1429 1.1429h13.714v13.714h-13.714z" style="opacity:0"/>
    <path id="rect3938" d="m1 1044.4v7h7v-7zm0.92188 0.7832h0.79492l1.5176 2.2481 1.5039-2.2481h0.79492l-1.9336 2.8633v2.6035h-0.74414v-2.6035z" style="fill:#ff0"/>
    <rect id="rect3938-6" x="1" y="1037.4" width="7" height="7" style="fill:#0ff;opacity:.75"/>
    <rect id="rect3938-6-3" x="8" y="1037.4" width="7" height="7" style="fill:#f0f;opacity:.508"/>
    <rect id="rect3938-6-3-5" x="8" y="1044.4" width="7" height="7"/>
    <text id="text3999" x="1.5" y="1043.4247" style="fill:#000000;font-family:sans-serif;font-size:7.5px;letter-spacing:0px;line-height:125%;stroke-width:1px;word-spacing:0px" xml:space="preserve"><tspan id="tspan4001" x="1.5" y="1043.4247">C</tspan></text>
    <text id="text4003" x="8.1875" y="1043.7997" style="fill:#000000;font-family:sans-serif;font-size:7.5px;letter-spacing:0px;line-height:125%;stroke-width:1px;word-spacing:0px" xml:space="preserve"><tspan id="tspan4005" x="8.1875" y="1043.7997">M</tspan></text>
    <text id="text4007" x="8.1875" y="1050.4872" style="fill:#ffffff;font-family:sans-serif;font-size:7.5px;letter-spacing:0px;line-height:125%;stroke-width:1px;word-spacing:0px" xml:space="preserve"><tspan id="tspan4009" x="8.1875" y="1050.4872">K</tspan></text>
    <text id="text3962" transform="scale(1.0019 .99806)" x="1.8122203" y="1052.7969" style="fill:#000000;font-family:sans-serif;font-size:7.8569px;letter-spacing:0px;line-height:125%;stroke-width:1px;word-spacing:0px" xml:space="preserve"><tspan id="tspan3964" x="1.8122203" y="1052.7969">Y</tspan></text>
   </g>
  </g>
 </g>
</svg>
