<?xml version="1.0" encoding="UTF-8"?>
<!-- Created with Inkscape (http://www.inkscape.org/) -->
<svg id="svg7854" width="16" height="16" version="1.0" viewBox="0 0 16 16" xmlns="http://www.w3.org/2000/svg" xmlns:cc="http://creativecommons.org/ns#" xmlns:dc="http://purl.org/dc/elements/1.1/" xmlns:rdf="http://www.w3.org/1999/02/22-rdf-syntax-ns#" xmlns:xlink="http://www.w3.org/1999/xlink">
 <defs id="defs7856">
  <linearGradient id="linearGradient5146" x1="12" x2="12" y1="1.2684" y2="21.252" gradientTransform="matrix(.65519 0 0 .64535 .16024 .81047)" gradientUnits="userSpaceOnUse">
   <stop id="stop5142" style="stop-color:#eeeeec" offset="0"/>
   <stop id="stop5144" style="stop-color:#d4d4cf" offset="1"/>
  </linearGradient>
  <linearGradient id="linearGradient5259" x1="6.0289" x2="18.913" y1="8.3465" y2="8.3465" gradientTransform="matrix(.77524 0 0 .7664 -1.5775 1.6258)" gradientUnits="userSpaceOnUse">
   <stop id="stop5255" style="stop-color:#729fcf" offset="0"/>
   <stop id="stop5261" style="stop-color:#73d216" offset=".20362"/>
   <stop id="stop5263" style="stop-color:#c17d11" offset=".52222"/>
   <stop id="stop5265" style="stop-color:#75507b" offset=".889"/>
   <stop id="stop5257" style="stop-color:#a40000" offset="1"/>
  </linearGradient>
 </defs>
 <metadata id="metadata7859">
  <rdf:RDF>
   <cc:Work rdf:about="">
    <dc:format>image/svg+xml</dc:format>
    <dc:type rdf:resource="http://purl.org/dc/dcmitype/StillImage"/>
    <dc:creator>
     <cc:Agent>
      <dc:title>Jakub Steiner</dc:title>
     </cc:Agent>
    </dc:creator>
    <dc:source>http://jimmac.musichall.cz</dc:source>
    <cc:license rdf:resource="http://creativecommons.org/licenses/GPL/2.0/"/>
   </cc:Work>
   <cc:License rdf:about="http://creativecommons.org/licenses/GPL/2.0/">
    <cc:permits rdf:resource="http://web.resource.org/cc/Reproduction"/>
    <cc:permits rdf:resource="http://web.resource.org/cc/Distribution"/>
    <cc:requires rdf:resource="http://web.resource.org/cc/Notice"/>
    <cc:permits rdf:resource="http://web.resource.org/cc/DerivativeWorks"/>
    <cc:requires rdf:resource="http://web.resource.org/cc/ShareAlike"/>
    <cc:requires rdf:resource="http://web.resource.org/cc/SourceCode"/>
   </cc:License>
  </rdf:RDF>
 </metadata>
 <g id="layer1">
  <g id="g4245" transform="matrix(.99632 0 0 .99632 .0070269 .006962)">
   <rect id="rect4559" x=".48487" y=".48487" width="15.075" height="15.075" rx="1.4056" ry="1.5408" style="color:#000000;fill-rule:evenodd;fill:url(#linearGradient5146);stroke-width:.98378;stroke:#888a85"/>
   <rect id="rect5148" x="1.518" y="1.5269" width="13.009" height="12.991" rx=".64013" ry=".62965" style="color:#000000;fill:none;stroke-width:.90239;stroke:#fff"/>
   <path id="path5245" d="m8.0222 4.0078c-3.327 0-6.0222 2.6797-6.0222 5.9687 0 0.72544 0.1305 1.418 0.37059 2.0608h3.4126c-0.50894-0.53992-0.8184-1.2652-0.8184-2.0608 8e-7 -1.6683 1.3698-3.0225 3.0574-3.0225 1.6876 2e-7 3.0574 1.3542 3.0574 3.0225-1e-6 0.79798-0.32219 1.5204-0.83384 2.0608h3.4126c0.24009-0.64278 0.38604-1.3354 0.38604-2.0608-2e-6 -3.289-2.6952-5.9687-6.0222-5.9687z" style="color:#000000;fill-rule:evenodd;fill:url(#linearGradient5259)"/>
  </g>
 </g>
</svg>
