<?xml version="1.0" encoding="UTF-8"?>
<!-- Created with Inkscape (http://www.inkscape.org/) -->
<svg id="svg11300" width="16" height="16" version="1.0" viewBox="0 0 16 16" xmlns="http://www.w3.org/2000/svg" xmlns:cc="http://creativecommons.org/ns#" xmlns:dc="http://purl.org/dc/elements/1.1/" xmlns:rdf="http://www.w3.org/1999/02/22-rdf-syntax-ns#" xmlns:xlink="http://www.w3.org/1999/xlink">
 <defs id="defs3">
  <linearGradient id="linearGradient4254">
   <stop id="stop4250" style="stop-color:#d3d7cf" offset="0"/>
   <stop id="stop4252" style="stop-color:#fff" offset="1"/>
  </linearGradient>
  <linearGradient id="linearGradient4045" x1="-2.2928" x2="4.2893" y1="1.0126" y2="1.0126" gradientTransform="matrix(1.2431 -.0062065 .0068789 1.1216 10.069 3.3396)" gradientUnits="userSpaceOnUse">
   <stop id="stop11496" style="stop-color:#ef2929" offset="0"/>
   <stop id="stop11498" style="stop-color:#ef2929;stop-opacity:0" offset="1"/>
  </linearGradient>
  <linearGradient id="linearGradient4304" x1="8.5902" x2="15.262" y1="11.755" y2="11.755" gradientTransform="matrix(1.1325 0 0 1.1303 -2.0108 -.16136)" gradientUnits="userSpaceOnUse">
   <stop id="stop11401" offset="0"/>
   <stop id="stop11403" style="stop-opacity:0" offset="1"/>
  </linearGradient>
  <linearGradient id="linearGradient4256" x1="7.47" x2="4.6245" y1="8.395" y2="10.765" gradientTransform="matrix(1.1322 0 0 1.1629 -2.0381 -.0028837)" gradientUnits="userSpaceOnUse" xlink:href="#linearGradient4254"/>
  <linearGradient id="linearGradient3995" x1="13.866" x2="10.768" y1="1.3014" y2="4.1516" gradientTransform="matrix(1.0412 0 0 1.0344 -.6731 -.40996)" gradientUnits="userSpaceOnUse" xlink:href="#linearGradient4254"/>
 </defs>
 <metadata id="metadata4">
  <rdf:RDF>
   <cc:Work rdf:about="">
    <dc:format>image/svg+xml</dc:format>
    <dc:type rdf:resource="http://purl.org/dc/dcmitype/StillImage"/>
    <dc:creator>
     <cc:Agent>
      <dc:title/>
     </cc:Agent>
    </dc:creator>
    <dc:source/>
    <cc:license rdf:resource="http://creativecommons.org/licenses/by-sa/2.0/"/>
    <dc:title/>
   </cc:Work>
   <cc:License rdf:about="http://creativecommons.org/licenses/by-sa/2.0/">
    <cc:permits rdf:resource="http://web.resource.org/cc/Reproduction"/>
    <cc:permits rdf:resource="http://web.resource.org/cc/Distribution"/>
    <cc:requires rdf:resource="http://web.resource.org/cc/Notice"/>
    <cc:requires rdf:resource="http://web.resource.org/cc/Attribution"/>
    <cc:permits rdf:resource="http://web.resource.org/cc/DerivativeWorks"/>
    <cc:requires rdf:resource="http://web.resource.org/cc/ShareAlike"/>
   </cc:License>
  </rdf:RDF>
 </metadata>
 <g id="layer1">
  <g id="g4070">
   <path id="rect4287" d="m9.1807 10.271s-1.4374 2.8913-0.64148 3.68c0.74754 0.7408 1.9006-0.91434 2.9258-1.1036 1.2-0.22156 2.9482-1.0051 3.6611-0.01643 0.65185 0.90396-1.0772 3.1636-1.0772 3.1636 0.06205 0.06322 0.04645-0.4214-0.13644-0.24259-0.1829 0.17881-0.3801 0.27185-0.44215 0.20862 0 0 1.7414-1.9807 1.1589-2.8102-0.56553-0.80523-1.9854-0.05981-2.9531 0.12516-1.2601 0.24087-2.6385 2.0747-3.6338 1.2667-0.94746-0.76915 0.47809-3.6256 0.47809-3.6256-0.062053-0.06323 0.035236-0.25809 0.21814-0.4369 0.1829-0.17881 0.3801-0.27185 0.44215-0.20862z" style="color-rendering:auto;color:#000000;fill:url(#linearGradient4304);image-rendering:auto;isolation:auto;mix-blend-mode:normal;shape-rendering:auto;solid-color:#000000"/>
   <path id="rect3979" d="m14.477 0.21386c-0.52372 0.018189-0.728 0.17322-1.3358 0.71238-3.7875 3.3956-7.2885 6.6939-10.766 10.269l-0.021595 0.05909-1.0712 2.809 3.1854-0.88467c0.77398-0.77891 1.5833-1.5731 2.4079-2.3733 0.24938 0.15884 0.54943 0.24437 0.85735 0.2444 0.80797 1.6e-4 1.4628-0.57613 1.462-1.2866-8.118e-4 -0.30885-0.12807-0.60713-0.35849-0.84023 2.112-2.0139 4.2405-3.9511 6.2954-5.9058 0.41105-0.47703 0.65366-0.87105 0.65438-1.391-3.99e-4 -0.80248-0.54191-1.412-1.309-1.4126zm-13.195 13.85c-0.064153-0.08574-0.16886-0.13696-0.28075-0.13735-0.19114-6.86e-4 -0.34627 0.1444-0.34553 0.32317 4.6295e-4 0.17798 0.15524 0.32183 0.34553 0.32115 0.18945-4.32e-4 0.34291-0.14396 0.34337-0.32115 1.466e-4 -0.0665-0.021731-0.13142-0.062628-0.18582z" style="color-rendering:auto;color:#000000;fill:url(#linearGradient4256);image-rendering:auto;isolation:auto;mix-blend-mode:normal;shape-rendering:auto;solid-color:#000000;stroke-linecap:round;stroke-linejoin:round;stroke-width:.42773;stroke:#183436"/>
   <path id="rect3979-1" d="m14.543 0.66045c-0.35082 0.037576-0.54358 0.19478-0.70099 0.36026l-6.6788 6.2795 1.2759 1.1341 6.533-6.0107c0.24642-0.20187 0.51319-0.5594 0.46066-0.88899-0.065442-0.41059-0.47631-0.91848-0.88972-0.8742z" style="color-rendering:auto;color:#000000;fill:#f00;image-rendering:auto;isolation:auto;mix-blend-mode:normal;shape-rendering:auto;solid-color:#000000;stroke-linecap:round;stroke-linejoin:round;stroke-width:.81149;stroke:url(#linearGradient4045)"/>
   <path id="path3987" d="m7.1716 6.9409 6.6697-6.1354" style="fill:none;stroke-linecap:round;stroke-width:.25945;stroke:url(#linearGradient3995)"/>
   <path id="path4003-3" d="m6.9084 8.6691-1.9045-3.2999 3.8636-0.10416z" style="color-rendering:auto;color:#000000;fill:#3465a4;image-rendering:auto;isolation:auto;mix-blend-mode:normal;shape-rendering:auto;solid-color:#000000"/>
   <path id="path4003-3-3" d="m6.996 8.6678-1.8846-3.3395 1.9437-0.02486c0.00504 0.015929-0.00612 0.17473-0.059108 3.3644z" style="color-rendering:auto;color:#000000;fill:#729fcf;image-rendering:auto;isolation:auto;mix-blend-mode:normal;shape-rendering:auto;solid-color:#000000"/>
   <path id="rect4041-4" d="m5.4441 2.355c-0.35585 0-0.64281 0.30901-0.64281 0.69246v1.8561c0 0.069349 0.012522 0.13461 0.029975 0.1977 0.48538 1.3667 1.482 2.5178 2.1978 3.7726l1.6431-3.1207c0.1484-0.12656 0.24551-0.62891 0.24551-0.84959v-1.8561c0-0.38345-0.28696-0.69246-0.6428-0.69246z" style="color-rendering:auto;color:#000000;fill:none;image-rendering:auto;isolation:auto;mix-blend-mode:normal;shape-rendering:auto;solid-color:#000000;stroke-linecap:round;stroke-linejoin:round;stroke-width:.40409;stroke:#183436"/>
   <ellipse id="path4056-4" cx="1.0118" cy="14.254" rx=".16339" ry=".16308" style="color-rendering:auto;color:#000000;fill:#3465a4;image-rendering:auto;isolation:auto;mix-blend-mode:normal;shape-rendering:auto;solid-color:#000000"/>
   <circle id="path4076" transform="scale(1,-1)" cx=".5" cy="-15.5" r=".42862" style="fill:#729fcf;stroke-linecap:round;stroke-width:.14276;stroke:#fff"/>
  </g>
 </g>
</svg>
