<?xml version="1.0" encoding="UTF-8"?>
<!-- Created with Inkscape (http://www.inkscape.org/) -->
<svg id="svg1" width="16" height="16" version="1.0" viewBox="0 0 16 16" xmlns="http://www.w3.org/2000/svg" xmlns:cc="http://creativecommons.org/ns#" xmlns:dc="http://purl.org/dc/elements/1.1/" xmlns:rdf="http://www.w3.org/1999/02/22-rdf-syntax-ns#" xmlns:xlink="http://www.w3.org/1999/xlink">
 <metadata id="metadata162">
  <rdf:RDF>
   <cc:Work rdf:about="">
    <dc:format>image/svg+xml</dc:format>
    <dc:type rdf:resource="http://purl.org/dc/dcmitype/StillImage"/>
    <dc:title>Folder</dc:title>
    <dc:creator>
     <cc:Agent>
      <dc:title>Jakub Steiner</dc:title>
     </cc:Agent>
    </dc:creator>
    <dc:date>2005-02-01</dc:date>
    <cc:license rdf:resource="http://creativecommons.org/licenses/GPL/2.0/"/>
    <dc:identifier>http://jimmac.musichall.cz/</dc:identifier>
    <dc:subject>
     <rdf:Bag>
      <rdf:li>folder</rdf:li>
      <rdf:li>directory</rdf:li>
      <rdf:li>storage</rdf:li>
     </rdf:Bag>
    </dc:subject>
   </cc:Work>
   <cc:License rdf:about="http://creativecommons.org/licenses/GPL/2.0/">
    <cc:permits rdf:resource="http://web.resource.org/cc/Reproduction"/>
    <cc:permits rdf:resource="http://web.resource.org/cc/Distribution"/>
    <cc:requires rdf:resource="http://web.resource.org/cc/Notice"/>
    <cc:permits rdf:resource="http://web.resource.org/cc/DerivativeWorks"/>
    <cc:requires rdf:resource="http://web.resource.org/cc/ShareAlike"/>
    <cc:requires rdf:resource="http://web.resource.org/cc/SourceCode"/>
   </cc:License>
  </rdf:RDF>
 </metadata>
 <defs id="defs3">
  <linearGradient id="linearGradient2864">
   <stop id="stop2866" style="stop-color:#8ae234" offset="0"/>
   <stop id="stop2868" style="stop-color:#4e9a06" offset="1"/>
  </linearGradient>
  <linearGradient id="linearGradient1925" x1="30.936" x2="30.936" y1="44.294" y2="-11.761" gradientTransform="matrix(.58011 0 0 .52902 -11.376 -7.6838)" gradientUnits="userSpaceOnUse" xlink:href="#linearGradient2864"/>
  <linearGradient id="linearGradient2830" x1=".44194" x2="18.12" y1="-1.7219" y2="22.408" gradientUnits="userSpaceOnUse">
   <stop id="stop2826" style="stop-color:#eeeeec" offset="0"/>
   <stop id="stop2828" style="stop-color:#eeeeec;stop-opacity:0" offset="1"/>
  </linearGradient>
 </defs>
 <g id="layer2">
  <g id="g3950" transform="matrix(1.0007 0 0 1.0009 -.011671 -.015821)">
   <path id="path2848" d="m9.0878 0.51598c-0.58011 0-2.0304 0.30048-2.0304 1.3225 0 0.53773 0.45536 0.60941 0.44254 1.6615h-4v4c-1 0-1.4015-1-2-1-1 0-1 1.5-0.98399 2.0092 0.03114 0.99041-0.13678 2.9865 0.98399 2.9908 0.5 0 1-1 2-1v5l3.9741-0.0099c0-1.3225-0.97414-0.93155-0.97414-1.9901 0-0.79352 1.1298-1 2-1 1.4145 0 2-0.05855 2 1 0 0.65054-1 0.94197-1 2h6v-5.052c-1 0.051998-1.3374 1.052-2 1.052-0.5 0-1-0.5-1-2s0.5-2 1-2c1 0 1 1 2 1v-5h-5c-0.0207-1.2976 1.7225-1.0562 1.7144-1.8511 0-1.1329-1.5897-1.1329-3.1266-1.1329z" style="color:#000000;fill:url(#linearGradient1925);stroke-dashoffset:1.5;stroke-linecap:square;stroke:#4e9a06"/>
   <path id="path1933" d="m9.0938 1.457c-0.1354 0-0.58183 0.067991-0.8457 0.18945-0.13194 0.060731-0.2178 0.12912-0.24414 0.16016-0.026344 0.031037-0.015625 8.884e-4 -0.015625 0.037109 0 0.010174-0.025957-0.074396 0.12109 0.21094 0.14705 0.28533 0.32443 0.79857 0.31641 1.457a0.9268 0.9268 0 0 1-0.92578 0.91406h-3.0742v3.0742a0.9268 0.9268 0 0 1-0.92578 0.92578c-0.8089 0-1.4049-0.43038-1.7441-0.71289-0.26597-0.2215-0.25773-0.21351-0.20117-0.22461-0.012556 0.028621-0.012876 0.018636-0.025391 0.064453-0.069061 0.25283-0.079669 0.68251-0.072266 0.91797 0.017981 0.57188-0.00855 1.2783 0.066406 1.7559 0.016009 0.102 0.029663 0.10929 0.050781 0.17774 0.058096-0.04773 0.085634-0.06929 0.16016-0.12891 0.35957-0.28765 0.95672-0.70117 1.7656-0.70117a0.9268 0.9268 0 0 1 0.92578 0.92578v4.0742h1.4531c-0.18763-0.28447-0.30469-0.67551-0.30469-1.0742 0-0.41829 0.17858-0.83798 0.43164-1.1152 0.25306-0.27726 0.54785-0.43658 0.83398-0.54688 0.57226-0.22059 1.1518-0.26367 1.6602-0.26367 0.69446 0 1.2125-0.07307 1.8477 0.1582 0.31757 0.11564 0.67083 0.38274 0.85547 0.72656 0.18464 0.34382 0.22266 0.69095 0.22266 1.041 0 0.40006-0.16576 0.74369-0.32031 0.9668-0.03393 0.04898-0.05708 0.06539-0.08984 0.10742h3.5586v-2.541c-0.25783 0.20457-0.57779 0.39258-1.0742 0.39258-0.5589 0-1.164-0.35608-1.4824-0.88672-0.31839-0.53064-0.44336-1.1861-0.44336-2.0391 0-0.85297 0.12498-1.5084 0.44336-2.0391s0.92352-0.88672 1.4824-0.88672c0.42889 0 0.78477 0.14532 1.0742 0.32031v-2.4688h-4.0742a0.9268 0.9268 0 0 1-0.92578-0.91016c-0.0084867-0.53185 0.20727-1.0503 0.50977-1.373 0.29296-0.3126 0.60805-0.46184 0.85547-0.57617-0.4178-0.086425-1.1077-0.10938-1.8457-0.10938z" style="color:#000000;fill:url(#linearGradient1925);stroke-dashoffset:1.5;stroke-linecap:square;stroke-linejoin:round;stroke:url(#linearGradient2830)"/>
  </g>
 </g>
</svg>
