<?xml version="1.0" encoding="UTF-8"?>
<!-- Created with Inkscape (http://www.inkscape.org/) -->
<svg id="svg7384" width="16" height="16" version="1.1" viewBox="0 0 16 16" xmlns="http://www.w3.org/2000/svg" xmlns:cc="http://creativecommons.org/ns#" xmlns:dc="http://purl.org/dc/elements/1.1/" xmlns:rdf="http://www.w3.org/1999/02/22-rdf-syntax-ns#">
 <metadata id="metadata90">
  <rdf:RDF>
   <cc:Work rdf:about="">
    <dc:format>image/svg+xml</dc:format>
    <dc:type rdf:resource="http://purl.org/dc/dcmitype/StillImage"/>
    <dc:title/>
   </cc:Work>
  </rdf:RDF>
 </metadata>
 <rect id="rect4257" x="6.6613e-16" y="1e-6" width="16" height="16" style="fill:none;paint-order:stroke fill markers"/>
 <path id="path2978" d="m5.1346 7.5837c-0.60794 0.032368-1.2108 0.19116-1.7468 0.48283 0.098721 0.47373 0.19744 0.94747 0.29616 1.4212-0.25656 0.12631-0.41413 0.48278-0.64952 0.55368-0.44096-0.089995-0.88192-0.17999-1.3229-0.26999-0.29852 0.53304-0.45486 1.1387-0.47896 1.7476 0.4601 0.1564 0.9202 0.31279 1.3803 0.46919-0.018869 0.28337 0.20668 0.5977 0.14893 0.83575-0.30313 0.3417-0.60627 0.68339-0.9094 1.0251 0.31244 0.52044 0.76995 0.93987 1.268 1.2789 0.35672-0.32204 0.71344-0.64407 1.0702-0.96611 0.24325 0.16502 0.64188 0.12026 0.82602 0.29679 0.14269 0.43618 0.28537 0.87236 0.42806 1.3085 0.60794-0.03235 1.2108-0.19117 1.7468-0.48282-0.098721-0.47373-0.19744-0.94747-0.29616-1.4212 0.25656-0.12631 0.41413-0.48277 0.64952-0.55368 0.44103 0.09 0.88207 0.17999 1.3231 0.26999 0.29816-0.5332 0.45489-1.1387 0.47873-1.7476-0.4601-0.1564-0.9202-0.31279-1.3803-0.46919 0.018869-0.28337-0.20668-0.5977-0.14893-0.83575 0.30313-0.3417 0.60627-0.68339 0.9094-1.0251-0.31236-0.52055-0.76991-0.93987-1.268-1.2789-0.35672 0.32204-0.71344 0.64407-1.0702 0.96611-0.24325-0.16502-0.64188-0.12026-0.82602-0.29679-0.14269-0.43618-0.28537-0.87236-0.42806-1.3085zm0.056348 3.1825c0.65258-0.09681 1.2009 0.63873 0.94387 1.2392-0.20695 0.62326-1.1266 0.78948-1.5304 0.2666-0.43936-0.47469-0.17822-1.339 0.45456-1.4808l0.065408-0.01499z" style="fill:#729fcf;stroke-linecap:round;stroke-width:.45271;stroke:#2e3436"/>
 <g id="g2904" transform="matrix(.43542 .11767 -.11667 .43915 -1.4907 -3.4786)" style="fill:#729fcf">
  <path id="path2875" d="m31 0.875c-0.38951 0.20323-1.4664-0.254-1.3358 0.46617-0.06341 0.92805-0.1304 1.8559-0.19517 2.7838-1.0915 0.053558-2.1606 0.9988-3.0496 1.0984l-2.2944-2.4422-2.344 2.3438 2.563 2.4375c-0.73075 0.80878-0.8519 2.2229-1.4051 2.9196-0.98998 0.06822-1.9795 0.14272-2.9699 0.2059-0.09051 0.87547-0.09639 1.7486 0 2.624 1.0524 0.06735 2.104 0.14654 3.156 0.219 0.05339 1.0915 0.99947 2.1607 1.0985 3.0494-0.6368 0.75482-1.2787 1.5053-1.9115 2.2636 0.54476 0.68033 1.1636 1.2993 1.844 1.844 0.80578-0.67284 1.6037-1.3551 2.406-2.032 0.80902 0.73061 2.2233 0.8518 2.9201 1.4051 0.06822 0.98998 0.14272 1.9795 0.2059 2.9699 0.87547 0.09051 1.7486 0.09639 2.624 0 0.06735-1.0524 0.14654-2.104 0.219-3.156 1.0915-0.05339 2.1607-0.99947 3.0494-1.0985 0.75482 0.6368 1.5053 1.2787 2.2636 1.9115 0.68033-0.54476 1.2993-1.1636 1.844-1.844-0.67284-0.80578-1.3551-1.6037-2.032-2.406 0.73061-0.80902 0.8518-2.2233 1.4051-2.9201 0.98998-0.06822 1.9795-0.14272 2.9699-0.2059 0.09051-0.87547 0.09639-1.7486 0-2.624-1.0524-0.06735-2.104-0.14654-3.156-0.219-0.053239-1.0914-0.9994-2.1604-1.0985-3.0489 0.63681-0.75492 1.2787-1.5056 1.9115-2.2639-0.54485-0.68013-1.1631-1.2997-1.844-1.8437-0.80617 0.67213-1.6036 1.3546-2.406 2.0313-0.80889-0.73084-2.2234-0.8515-2.9201-1.4049-0.068219-0.99007-0.14273-1.9797-0.2059-2.9701-0.4387-0.014848-0.87339-0.083055-1.312-0.09375zm0 7.625c2.1357-0.072709 3.93 2.1271 3.4289 4.2051-0.36026 2.0978-2.8572 3.4142-4.7908 2.5197-1.9211-0.74332-2.7559-3.3112-1.6311-5.0392 0.61667-1.0322 1.7892-1.6973 2.9931-1.6856z" style="fill:#729fcf"/>
  <path id="path2779" d="m31 0.5c-0.562 0-1.116 0.047-1.656 0.125l-0.219 3.0938c-0.96 0.2157-1.85 0.5835-2.656 1.0937l-2.344-2.0313c-1.125 0.7188-1.625 1.2188-2.344 2.3438l2.031 2.3438c-0.51 0.8067-0.878 1.6966-1.093 2.6562l-3.094 0.219c-0.078 0.54-0.125 1.094-0.125 1.656s0.047 1.116 0.125 1.656l3.094 0.219c0.215 0.96 0.583 1.85 1.093 2.656l-2.031 2.344c0.719 1.125 1.219 1.625 2.344 2.344l2.344-2.031c0.806 0.51 1.696 0.878 2.656 1.093l0.219 3.094c0.54 0.078 1.094 0.125 1.656 0.125s1.116-0.047 1.656-0.125l0.219-3.094c0.96-0.215 1.85-0.583 2.656-1.093l2.344 2.031c1.125-0.719 1.625-1.219 2.344-2.344l-2.031-2.344c0.51-0.806 0.878-1.696 1.093-2.656l3.094-0.219c0.078-0.54 0.125-1.094 0.125-1.656s-0.047-1.116-0.125-1.656l-3.094-0.219c-0.215-0.9596-0.583-1.8495-1.093-2.6562l2.031-2.3438c-0.65-1.1077-1.219-1.625-2.344-2.3438l-2.344 2.0313c-0.806-0.5102-1.696-0.878-2.656-1.0937l-0.219-3.0938c-0.54-0.078-1.094-0.125-1.656-0.125zm0 9c1.38 0 2.5 1.12 2.5 2.5s-1.12 2.5-2.5 2.5-2.5-1.12-2.5-2.5 1.12-2.5 2.5-2.5z" style="fill:#729fcf;stroke-linecap:square;stroke-width:1.0054;stroke:#2e3436"/>
 </g>
</svg>
