<?xml version="1.0" encoding="UTF-8"?>
<!-- Created with Inkscape (http://www.inkscape.org/) -->
<svg id="svg7384" width="16" height="16" version="1.1" viewBox="0 0 16 16" xmlns="http://www.w3.org/2000/svg" xmlns:cc="http://creativecommons.org/ns#" xmlns:dc="http://purl.org/dc/elements/1.1/" xmlns:rdf="http://www.w3.org/1999/02/22-rdf-syntax-ns#">
 <metadata id="metadata90">
  <rdf:RDF>
   <cc:Work rdf:about="">
    <dc:format>image/svg+xml</dc:format>
    <dc:type rdf:resource="http://purl.org/dc/dcmitype/StillImage"/>
    <dc:title>Gnome Symbolic Icon Theme</dc:title>
   </cc:Work>
  </rdf:RDF>
 </metadata>
 <g id="g4317">
  <g id="use4898-6" transform="matrix(-.076824 0 0 .076824 18.702 -1.0767)" clip-path="url(#clipPath7655)" style="enable-background:new">
   <rect id="rect6616" transform="scale(-1,1)" x="-236.94" y="20.524" width="195.25" height="195.25" rx="41.75" ry="41.69" style="color:#000000;enable-background:new;fill:#eeeeec;stroke-linecap:round;stroke-width:13.017;stroke:#555753"/>
  </g>
  <path id="rect3099-9-3" d="m4 3.5c-0.26834 0-0.5 0.23166-0.5 0.5v2.5h2v-1h1v-2zm5.5 0v2h1v1h2v-2.5c0-0.26834-0.23166-0.5-0.5-0.5zm-6 6v2.5c0 0.26834 0.23166 0.5 0.5 0.5h2.5v-2h-1v-1zm7 0v1h-1v2h2.5c0.26834 0 0.5-0.23166 0.5-0.5v-2.5z" style="color:#000000;enable-background:new;stroke-linecap:round;stroke:#555753"/>
 </g>
</svg>
