<?xml version="1.0" encoding="UTF-8"?>
<!-- Created with Inkscape (http://www.inkscape.org/) -->
<svg id="svg30571" width="24" height="24" version="1.1" viewBox="0 0 24 24" xmlns="http://www.w3.org/2000/svg" xmlns:cc="http://creativecommons.org/ns#" xmlns:dc="http://purl.org/dc/elements/1.1/" xmlns:osb="http://www.openswatchbook.org/uri/2009/osb" xmlns:rdf="http://www.w3.org/1999/02/22-rdf-syntax-ns#">
 <metadata id="metadata30576">
  <rdf:RDF>
   <cc:Work rdf:about="">
    <dc:format>image/svg+xml</dc:format>
    <dc:type rdf:resource="http://purl.org/dc/dcmitype/StillImage"/>
    <dc:title/>
    <dc:creator>
     <cc:Agent>
      <dc:title>Klaus Staedtler</dc:title>
     </cc:Agent>
    </dc:creator>
   </cc:Work>
  </rdf:RDF>
 </metadata>
 <g id="layer1" transform="translate(0 -1028.4)">
  <g id="g4337">
   <rect id="rect4192" transform="matrix(0,-1,-1,0,0,0)" x="-1046.4" y="-24" width="12" height="24" rx="1.5" ry="1.5" style="fill:#888a85"/>
   <rect id="rect4194" transform="scale(1,-1)" x="4" y="-1034.4" width="16" height="6" rx="0" ry="0" style="fill:#888a85"/>
   <rect id="rect4196" transform="scale(1,-1)" x="4" y="-1052.4" width="16" height="10" rx="0" ry="0" style="fill:#888a85"/>
   <rect id="rect4196-6" transform="scale(1,-1)" x="5" y="-1051.4" width="14" height="7" rx="0" ry="0" style="fill:#fff"/>
   <rect id="rect4194-6" transform="scale(1,-1)" x="5" y="-1034.4" width="14" height="5" rx="0" ry="0" style="fill:#fff"/>
   <rect id="rect4192-0" transform="matrix(0,-1,-1,0,0,0)" x="-1045.4" y="-23" width="10" height="22" rx="1.25" ry="1.375"/>
   <rect id="rect4356" x="20" y="1037.4" width="1" height="1" style="fill:#f57900;opacity:.91;paint-order:markers fill stroke"/>
   <rect id="rect4356-4" x="7" y="1046.4" width="1" height="1" style="opacity:.91;paint-order:markers fill stroke"/>
   <rect id="rect4356-4-9" x="8" y="1047.4" width="1" height="1" style="opacity:.91;paint-order:markers fill stroke"/>
   <rect id="rect4356-4-4" x="7" y="1048.4" width="1" height="1" style="opacity:.91;paint-order:markers fill stroke"/>
   <rect id="rect4356-4-6" x="8" y="1049.4" width="1" height="1" style="opacity:.91;paint-order:markers fill stroke"/>
   <rect id="rect4356-4-5" x="9" y="1046.4" width="1" height="1" style="opacity:.91;paint-order:markers fill stroke"/>
   <rect id="rect4356-4-4-2" x="9" y="1048.4" width="1" height="1" style="opacity:.91;paint-order:markers fill stroke"/>
   <rect id="rect4356-4-6-1" x="10" y="1049.4" width="1" height="1" style="opacity:.91;paint-order:markers fill stroke"/>
   <rect id="rect4356-4-6-1-2" x="10" y="1047.4" width="1" height="1" style="opacity:.91;paint-order:markers fill stroke"/>
   <rect id="rect4356-0" x="17" y="1037.4" width="1" height="1" style="fill:#73d216;opacity:.91;paint-order:markers fill stroke"/>
   <rect id="rect4356-0-7" x="16" y="1038.4" width="1" height="1" style="fill:#73d216;opacity:.91;paint-order:markers fill stroke"/>
   <rect id="rect4356-0-0" x="19" y="1038.4" width="1" height="1" style="fill:#f57900;opacity:.91;paint-order:markers fill stroke"/>
   <rect id="rect4356-0-7-2" x="17" y="1038.4" width="1" height="1" style="fill:#8ae234;opacity:.91;paint-order:markers fill stroke"/>
   <rect id="rect4356-0-0-6" x="20" y="1038.4" width="1" height="1" style="fill:#fcaf3e;opacity:.91;paint-order:markers fill stroke"/>
  </g>
 </g>
</svg>
