<?xml version="1.0" encoding="UTF-8"?>
<!-- Created with Inkscape (http://www.inkscape.org/) -->
<svg id="svg11300" width="24" height="24" version="1.0" viewBox="0 0 24 24" xmlns="http://www.w3.org/2000/svg" xmlns:cc="http://creativecommons.org/ns#" xmlns:dc="http://purl.org/dc/elements/1.1/" xmlns:rdf="http://www.w3.org/1999/02/22-rdf-syntax-ns#" xmlns:xlink="http://www.w3.org/1999/xlink">
 <defs id="defs3">
  <linearGradient id="linearGradient4288">
   <stop id="stop4290" style="stop-color:#f7ad42" offset="0"/>
   <stop id="stop4292" style="stop-color:#f7ad42;stop-opacity:0" offset="1"/>
  </linearGradient>
  <linearGradient id="linearGradient4176">
   <stop id="stop4178" style="stop-color:#fff" offset="0"/>
   <stop id="stop4180" style="stop-color:#fff;stop-opacity:0" offset="1"/>
  </linearGradient>
  <linearGradient id="b" x1="40.551" x2="15.76" y1="41.357" y2="13.171" gradientTransform="matrix(.61625 0 0 .61533 -2.7697 -10.73)" gradientUnits="userSpaceOnUse" xlink:href="#linearGradient4176"/>
  <linearGradient id="h" x1="-9.1276" x2="55.948" y1="-7.5569" y2="55.878" gradientTransform="matrix(.61828 0 0 .61828 -2.8387 -10.839)" gradientUnits="userSpaceOnUse" xlink:href="#linearGradient4176"/>
  <linearGradient id="linearGradient4296" x1="14.813" x2="9.9249" y1="14.466" y2="9.9434" gradientTransform="matrix(1.4975 0 0 1.4953 -.14423 -8.1419)" gradientUnits="userSpaceOnUse" xlink:href="#linearGradient4288"/>
  <radialGradient id="radialGradient4306" cx="12.807" cy="12.716" r="3.3109" gradientTransform="matrix(1.4975 0 0 1.5279 -.14423 -8.5569)" gradientUnits="userSpaceOnUse">
   <stop id="stop4027" stop-color="#ccc" offset="0"/>
   <stop id="stop4029" stop-color="#c5c5c5" offset="1"/>
  </radialGradient>
  <radialGradient id="radialGradient4497" cx="22.904" cy="23.1" r="19.828" gradientTransform="matrix(.61625 0 0 .61533 -2.7697 -10.73)" gradientUnits="userSpaceOnUse">
   <stop id="stop16" stop-color="#c5c5c5" offset="0"/>
   <stop id="stop18" stop-color="#c8c8c8" offset=".237"/>
   <stop id="stop20" stop-color="#d1d1d1" offset=".408"/>
   <stop id="stop22" stop-color="#e1e1e1" offset=".559"/>
   <stop id="stop24" stop-color="#f7f7f7" offset=".696"/>
   <stop id="stop26" stop-color="#fff" offset=".736"/>
   <stop id="stop28" stop-color="#fcfcfc" offset=".819"/>
   <stop id="stop30" stop-color="#f2f2f2" offset=".881"/>
   <stop id="stop32" stop-color="#e2e2e2" offset=".936"/>
   <stop id="stop34" stop-color="#ccc" offset=".988"/>
   <stop id="stop36" stop-color="#c5c5c5" offset="1"/>
  </radialGradient>
  <linearGradient id="linearGradient4296-2" x1="14.813" x2="9.9249" y1="14.466" y2="9.9434" gradientTransform="matrix(-1.4975 0 0 1.4953 24.136 -8.0731)" gradientUnits="userSpaceOnUse" xlink:href="#linearGradient4288"/>
  <radialGradient id="radialGradient4306-4" cx="12.807" cy="12.716" r="3.3109" gradientTransform="matrix(-1.4975 0 0 1.5279 24.136 -8.4881)" gradientUnits="userSpaceOnUse">
   <stop id="stop4027-7" stop-color="#ccc" offset="0"/>
   <stop id="stop4029-4" stop-color="#c5c5c5" offset="1"/>
  </radialGradient>
  <linearGradient id="linearGradient4296-2-8" x1="14.813" x2="9.9249" y1="14.466" y2="9.9434" gradientTransform="matrix(-1.4975 0 0 -1.4953 24.136 16.073)" gradientUnits="userSpaceOnUse" xlink:href="#linearGradient4288"/>
  <radialGradient id="radialGradient4306-4-1" cx="12.807" cy="12.716" r="3.3109" gradientTransform="matrix(-1.4975 0 0 -1.5279 24.136 16.488)" gradientUnits="userSpaceOnUse">
   <stop id="stop4027-7-6" stop-color="#ccc" offset="0"/>
   <stop id="stop4029-4-9" stop-color="#c5c5c5" offset="1"/>
  </radialGradient>
  <linearGradient id="linearGradient4296-2-8-2" x1="14.813" x2="9.9249" y1="14.466" y2="9.9434" gradientTransform="matrix(1.4975 0 0 -1.4953 -.25638 16.073)" gradientUnits="userSpaceOnUse" xlink:href="#linearGradient4288"/>
  <radialGradient id="radialGradient4306-4-1-9" cx="12.807" cy="12.716" r="3.3109" gradientTransform="matrix(1.4975 0 0 -1.5279 -.25638 16.488)" gradientUnits="userSpaceOnUse">
   <stop id="stop4027-7-6-0" stop-color="#ccc" offset="0"/>
   <stop id="stop4029-4-9-0" stop-color="#c5c5c5" offset="1"/>
  </radialGradient>
 </defs>
 <metadata id="metadata4">
  <rdf:RDF>
   <cc:Work rdf:about="">
    <dc:format>image/svg+xml</dc:format>
    <dc:type rdf:resource="http://purl.org/dc/dcmitype/StillImage"/>
    <dc:creator>
     <cc:Agent>
      <dc:title>Jakub Steiner</dc:title>
     </cc:Agent>
    </dc:creator>
    <dc:source>http://jimmac.musichall.cz</dc:source>
    <cc:license rdf:resource="http://creativecommons.org/licenses/by-sa/2.0/"/>
    <dc:title/>
   </cc:Work>
   <cc:License rdf:about="http://creativecommons.org/licenses/by-sa/2.0/">
    <cc:permits rdf:resource="http://web.resource.org/cc/Reproduction"/>
    <cc:permits rdf:resource="http://web.resource.org/cc/Distribution"/>
    <cc:requires rdf:resource="http://web.resource.org/cc/Notice"/>
    <cc:requires rdf:resource="http://web.resource.org/cc/Attribution"/>
    <cc:permits rdf:resource="http://web.resource.org/cc/DerivativeWorks"/>
    <cc:requires rdf:resource="http://web.resource.org/cc/ShareAlike"/>
   </cc:License>
  </rdf:RDF>
 </metadata>
 <g id="layer1" transform="translate(0,8)">
  <g id="g4198">
   <path id="path4270-8-6-4" d="m18.922 1.9682c-2.6552 1.051e-4 -4.8078-2.1977-4.8083-4.9092 4.72e-4 -2.7115 2.1531-4.9093 4.8083-4.9092 1.3276-5.11e-5 1.4512 1.8458 2.3214 2.7341 0.87012 0.88838 2.4867 0.81933 2.4869 2.1751-4.73e-4 2.7115-2.1531 4.9093-4.8083 4.9092zm0.02632-0.98126c2.1884 0.001013 3.963-1.7945 3.963-4.0097-9.6e-5 -2.2153-1.7747-4.0108-3.963-4.0097-2.1872 6.206e-4 -3.96 1.7956-3.9601 4.0097 9.6e-5 2.2141 1.7729 4.0091 3.9601 4.0097z" style="color-rendering:auto;color:#000000;fill:url(#linearGradient4296-2-8-2);image-rendering:auto;isolation:auto;mix-blend-mode:normal;shape-rendering:auto;solid-color:#000000;stroke-linecap:round;stroke-linejoin:round;stroke-width:.29927;stroke:url(#radialGradient4306-4-1-9)"/>
   <path id="path4270-8-6" d="m4.9579 1.9682c2.6552 1.051e-4 4.8078-2.1977 4.8083-4.9092-4.725e-4 -2.7115-2.1531-4.9093-4.8083-4.9092-1.3276-5.11e-5 -1.4512 1.8458-2.3214 2.7341-0.87012 0.88838-2.4867 0.81933-2.4869 2.1751 4.7249e-4 2.7115 2.1531 4.9093 4.8083 4.9092zm-0.026325-0.98126c-2.1884 0.0010128-3.9629-1.7945-3.963-4.0097 9.6e-5 -2.2153 1.7747-4.0108 3.963-4.0097 2.1872 6.206e-4 3.96 1.7956 3.9601 4.0097-9.6e-5 2.2141-1.7729 4.0091-3.9601 4.0097z" style="color-rendering:auto;color:#000000;fill:url(#linearGradient4296-2-8);image-rendering:auto;isolation:auto;mix-blend-mode:normal;shape-rendering:auto;solid-color:#000000;stroke-linecap:round;stroke-linejoin:round;stroke-width:.29927;stroke:url(#radialGradient4306-4-1)"/>
   <path id="path4270-8" d="m4.9579 6.0319c2.6552-1.059e-4 4.8078 2.1977 4.8083 4.9092-4.725e-4 2.7115-2.1531 4.9093-4.8083 4.9092-1.3276 5.1e-5 -1.4512-1.8458-2.3214-2.7341-0.87012-0.88838-2.4867-0.81933-2.4869-2.1751 4.7249e-4 -2.7115 2.1531-4.9093 4.8083-4.9092zm-0.026325 0.98126c-2.1884-0.0010125-3.9629 1.7945-3.963 4.0097 9.6e-5 2.2153 1.7747 4.0108 3.963 4.0097 2.1872-6.21e-4 3.96-1.7956 3.9601-4.0097-9.6e-5 -2.2141-1.7729-4.0091-3.9601-4.0097z" style="color-rendering:auto;color:#000000;fill:url(#linearGradient4296-2);image-rendering:auto;isolation:auto;mix-blend-mode:normal;shape-rendering:auto;solid-color:#000000;stroke-linecap:round;stroke-linejoin:round;stroke-width:.29927;stroke:url(#radialGradient4306-4)"/>
   <path id="path4270" d="m19.034 5.9631c-2.6552-1.059e-4 -4.8078 2.1977-4.8083 4.9092 4.72e-4 2.7115 2.1531 4.9093 4.8083 4.9092 1.3276 5.1e-5 1.4512-1.8458 2.3214-2.7341 0.87012-0.88838 2.4867-0.81933 2.4869-2.1751-4.72e-4 -2.7115-2.1531-4.9093-4.8083-4.9092zm0.02632 0.98126c2.1884-0.00101 3.963 1.7945 3.963 4.0097-9.8e-5 2.2153-1.7747 4.0108-3.963 4.0097-2.1872-6.19e-4 -3.96-1.7956-3.9601-4.0097 9.6e-5 -2.2141 1.7729-4.0091 3.9601-4.0097z" style="color-rendering:auto;color:#000000;fill:url(#linearGradient4296);image-rendering:auto;isolation:auto;mix-blend-mode:normal;shape-rendering:auto;solid-color:#000000;stroke-linecap:round;stroke-linejoin:round;stroke-width:.29927;stroke:url(#radialGradient4306)"/>
   <ellipse id="circle92" cx="12.02" cy="4.0377" rx="8.1468" ry="8.1347" style="fill:none;stroke-width:6.7737;stroke:url(#radialGradient4497)"/>
   <path id="path94" d="m6.3856-6.4151 3.3822 5.9418c-1.1274 0.63226-1.6283 1.0979-2.1883 2.1293l-6.0795-2.8876c0.75139-1.8961 3.1317-4.4245 4.8856-5.1828m15.8 4.7964-5.8297 3.3798c-0.63966-1.0871-1.1751-1.5483-2.1085-2.128l2.853-6.1338c1.8606 0.75136 4.3414 3.1296 5.0852 4.8819m-4.632 16.003-3.4042-5.9716c1.0238-0.58031 1.5505-1.1315 2.1757-2.1939l6.175 2.9218c-0.76081 1.9196-3.2975 4.479-4.9459 5.2437m-15.927-4.8148 5.8674-3.4134c0.62647 1.1378 1.0879 1.5445 2.1293 2.2085l-2.8612 6.135c-1.8788-0.75832-4.384-3.2867-5.1354-4.9301" style="fill:#c00"/>
   <ellipse id="circle96" cx="12.02" cy="4.0377" rx="5.1148" ry="5.1073" style="fill:none;stroke-width:.61579;stroke:url(#b)"/>
   <circle id="circle98" cx="12" cy="4" r="11.191" style="fill:none;stroke-width:.61828;stroke:url(#h)"/>
   <g id="g100" transform="matrix(.61625 0 0 .61533 -2.7697 -10.73)" style="fill:none;stroke-width:.88;stroke:#606060">
    <ellipse id="circle102" cx="23.967" cy="23.939" rx="7.6637" ry="7.6757" style="stroke-width:.89991"/>
    <ellipse id="circle104" cx="23.967" cy="23.938" rx="19.032" ry="19.061" style="stroke-width:.8818"/>
   </g>
  </g>
 </g>
</svg>
