<?xml version="1.0" encoding="UTF-8"?>
<!-- Created with Inkscape (http://www.inkscape.org/) -->
<svg id="svg11300" width="24" height="24" version="1.0" viewBox="0 0 24 24" xmlns="http://www.w3.org/2000/svg" xmlns:cc="http://creativecommons.org/ns#" xmlns:dc="http://purl.org/dc/elements/1.1/" xmlns:rdf="http://www.w3.org/1999/02/22-rdf-syntax-ns#">
 <metadata id="metadata4">
  <rdf:RDF>
   <cc:Work rdf:about="">
    <dc:format>image/svg+xml</dc:format>
    <dc:type rdf:resource="http://purl.org/dc/dcmitype/StillImage"/>
    <dc:creator>
     <cc:Agent>
      <dc:title>Jakub Steiner</dc:title>
     </cc:Agent>
    </dc:creator>
    <dc:source>http://jimmac.musichall.cz</dc:source>
    <cc:license rdf:resource="http://creativecommons.org/licenses/GPL/2.0/"/>
    <dc:title/>
    <dc:subject>
     <rdf:Bag>
      <rdf:li>image</rdf:li>
      <rdf:li>windows</rdf:li>
      <rdf:li>preferences</rdf:li>
     </rdf:Bag>
    </dc:subject>
   </cc:Work>
   <cc:License rdf:about="http://creativecommons.org/licenses/GPL/2.0/">
    <cc:permits rdf:resource="http://web.resource.org/cc/Reproduction"/>
    <cc:permits rdf:resource="http://web.resource.org/cc/Distribution"/>
    <cc:requires rdf:resource="http://web.resource.org/cc/Notice"/>
    <cc:permits rdf:resource="http://web.resource.org/cc/DerivativeWorks"/>
    <cc:requires rdf:resource="http://web.resource.org/cc/ShareAlike"/>
    <cc:requires rdf:resource="http://web.resource.org/cc/SourceCode"/>
   </cc:License>
  </rdf:RDF>
 </metadata>
 <g id="layer1" transform="translate(0,2)">
  <g id="g4256">
   <g id="g4264">
    <g id="g4173">
     <rect id="rect7400" x=".6156" y="-1.3844" width="22.769" height="22.769" rx=".93344" ry=".96819" style="color:#000000;fill-rule:evenodd;fill:#eeeeec;stroke-width:1.2312;stroke:#888a85"/>
     <rect id="rect7402" x="2" width="20" height="2" rx=".18523" ry=".22227" style="color:#000000;fill-rule:evenodd;fill:#204a87"/>
    </g>
   </g>
   <g id="g4935" transform="matrix(.020285 .021883 -.021815 .020348 14.146 -4.6257)">
    <path id="60" d="m161.78 597.91h126.63c-6.67-94.44-14.13-188.88-20.3-283.33 1.37-21.21 11.74-41.74 31.21-51.71 25.77-19.34 64.62-8.66 81.81 17.1 19.75 21.62 5.39 51.61 5.67 77.23-6.58 75.66-7.87 151.63-11.68 227.45 43.52 4.42 87.05 8.84 130.57 13.25 9.06-93 19.19-185.96 27.58-278.99 0.7-44.61-14.13-89.79-46.5-121.48-20.35-21.68-49.02-34.89-77.33-42.73-57.48-14.28-120.38-14.84-176.19 6.45-41.59 15.85-76.4 49.8-89.01 92.98-12.61 35.53-13.36 74.22-7.77 111.28 8.44 77.5 16.85 155.02 25.31 232.51z" style="fill-rule:evenodd;fill:#d0411a;stroke-width:18.76;stroke:#888a85"/>
    <path id="path4933" d="m152.02 507.66 10.38 91.25h125.94l-6.92-91.25zm228.12 0-6.84 91.25 131.39 0.61 10.21-91.86-128.14-0.24" style="fill-rule:evenodd;fill:#959ba3;stroke-width:18.76;stroke:#888a85"/>
    <path id="path4709" d="m380.14 507.66-6.84 91.25 131.39 0.61 10.21-91.86-128.14-0.24z" style="fill-rule:evenodd;fill:#959ba3;stroke-width:18.76;stroke:#888a85"/>
   </g>
  </g>
 </g>
</svg>
