<?xml version="1.0" encoding="UTF-8"?>
<!-- Generator: Adobe Illustrator 12.0.0, SVG Export Plug-In . SVG Version: 6.00 Build 51448)  -->
<svg id="" width="24" height="24" enable-background="new 0 0 139 139" overflow="visible" version="1.0" viewBox="0 0 26.062 26.062" xml:space="preserve" xmlns="http://www.w3.org/2000/svg" xmlns:cc="http://creativecommons.org/ns#" xmlns:dc="http://purl.org/dc/elements/1.1/" xmlns:rdf="http://www.w3.org/1999/02/22-rdf-syntax-ns#"><metadata id="metadata3164"><rdf:RDF><cc:Work rdf:about=""><dc:format>image/svg+xml</dc:format><dc:type rdf:resource="http://purl.org/dc/dcmitype/StillImage"/><dc:title/></cc:Work></rdf:RDF></metadata><g id="g4240" transform="matrix(1.0846 0 0 1.086 .016204 8.687)"><rect id="rect6639-9" x="7.7557e-6" y="-7.9993" width="23.999" height="23.999" style="fill:none;stroke-width:.29999"/><path id="path10109" d="m23.285 13.002-9.9332-19.573c-0.28552-0.5437-0.80214-0.84577-1.3775-0.84577-0.57536 0-1.0946 0.36248-1.3845 0.90618l-9.8593 19.573c-0.23208 0.48329-0.23473 1.1478 0.051011 1.6311 0.28576 0.4833 0.74508 0.72494 1.3205 0.72494h19.793c0.57536 0 1.0944-0.30205 1.3265-0.78535 0.28961-0.4833 0.29202-1.0874 0.06407-1.6311z" style="fill:#f57900;stroke-width:1.1347;stroke:#f57900"/><path id="path1325" d="m21.814 12.232-8.9401-17.65c-0.38073-0.7626-0.31992-1.0073-0.89855-1.0073-0.49768 0-0.56068 0.35634-0.92033 1.0762l-8.8409 17.636c-0.51337 0.99309-0.81511 1.3564-0.568 1.7935 0.24709 0.4371 0.61371 0.30886 1.786 0.33737h17.376c1.0914 0.01428 1.3372 0.03076 1.538-0.40626 0.25057-0.43711-0.05336-0.88832-0.53232-1.7792z" style="fill:#f57900;opacity:.99;stroke-width:1.1486;stroke:#fff"/><g id="g10114" transform="matrix(.65469 0 0 .56034 -3.6413 -9.4526)" style="fill:#121312;stroke-width:1.7695;stroke:#000"><path id="path10116" d="m23.891 40.069c-1.7288 0-3.0587-1.7025-3.0587-3.5691 0-2.0102 1.1969-3.5691 3.0587-3.5691s2.9257 1.5589 3.0587 3.5691c0 1.8666-1.1969 3.5691-3.0587 3.5691zm-0.97396-10.673-1.6858-14.311h5.3195l-1.6858 16.67z" style="fill:#121312;stroke:none"/></g></g></svg>
