<?xml version="1.0" encoding="UTF-8"?>
<!-- Created with Inkscape (http://www.inkscape.org/) -->
<svg id="svg97" width="24" height="24" version="1.1" viewBox="0 0 24 24" xmlns="http://www.w3.org/2000/svg" xmlns:cc="http://creativecommons.org/ns#" xmlns:dc="http://purl.org/dc/elements/1.1/" xmlns:rdf="http://www.w3.org/1999/02/22-rdf-syntax-ns#" xmlns:xlink="http://www.w3.org/1999/xlink">
 <defs id="defs3">
  <linearGradient id="linearGradient3096">
   <stop id="stop3098" style="stop-color:#424242" offset="0"/>
   <stop id="stop3100" style="stop-color:#777" offset="1"/>
  </linearGradient>
  <linearGradient id="linearGradient3104-5" x1="18.113" x2="15.515" y1="31.368" y2="6.1803" gradientTransform="matrix(.60072 0 0 .60099 -1.8322 -.055418)" gradientUnits="userSpaceOnUse" xlink:href="#linearGradient3096"/>
  <linearGradient id="linearGradient9772" x1="22.176" x2="22.065" y1="36.988" y2="32.05" gradientTransform="matrix(.58554 0 0 .59905 -1.7677 .033281)" gradientUnits="userSpaceOnUse">
   <stop id="stop9768" style="stop-color:#6194cb" offset="0"/>
   <stop id="stop9770" style="stop-color:#729fcf" offset="1"/>
  </linearGradient>
  <linearGradient id="linearGradient322-1" x1="13.036" x2="12.854" y1="32.567" y2="46.689" gradientTransform="matrix(.77145 0 0 .50195 -2.3487 -.97475)" gradientUnits="userSpaceOnUse">
   <stop id="stop8342" stop-color="#fff" stop-opacity=".79608" offset="0"/>
   <stop id="stop8344" stop-color="#fff" stop-opacity=".21569" offset="1"/>
  </linearGradient>
  <linearGradient id="linearGradient3991" x1="1.2042" x2="14.824" y1="8.0156" y2="8.0156" gradientTransform="matrix(.029283 -1.3122 1.31 .029332 1115.5 338.85)" gradientUnits="userSpaceOnUse" xlink:href="#linearGradient3096"/>
 </defs>
 <metadata id="metadata4">
  <rdf:RDF>
   <cc:Work rdf:about="">
    <dc:format>image/svg+xml</dc:format>
    <dc:type rdf:resource="http://purl.org/dc/dcmitype/StillImage"/>
    <dc:title/>
    <dc:date/>
    <dc:creator>
     <cc:Agent>
      <dc:title>Jakub Steiner</dc:title>
     </cc:Agent>
    </dc:creator>
    <cc:license rdf:resource="http://creativecommons.org/publicdomain/zero/1.0/"/>
    <dc:source>http://jimmac.musichall.cz</dc:source>
    <dc:subject>
     <rdf:Bag>
      <rdf:li>folder</rdf:li>
      <rdf:li>directory</rdf:li>
     </rdf:Bag>
    </dc:subject>
   </cc:Work>
   <cc:License rdf:about="http://creativecommons.org/publicdomain/zero/1.0/">
    <cc:permits rdf:resource="http://creativecommons.org/ns#Reproduction"/>
    <cc:permits rdf:resource="http://creativecommons.org/ns#Distribution"/>
    <cc:permits rdf:resource="http://creativecommons.org/ns#DerivativeWorks"/>
   </cc:License>
  </rdf:RDF>
 </metadata>
 <g id="g4261">
  <path id="path216-5" d="m0.8841 23.195c0.013093 0.25019 0.27627 0.50039 0.52636 0.50039h18.819c0.25008 0 0.48707-0.25019 0.47398-0.50039l-0.56254-16.363c-0.013098-0.25019-0.27627-0.50039-0.52635-0.50039h-7.9721c-0.29138 0-0.74158-0.18966-0.842-0.66507l-0.36728-1.7387c-0.093395-0.44213-0.52996-0.62376-0.78005-0.62376h-8.878c-0.25009 0-0.48708 0.25019-0.47398 0.50039z" style="fill:#fff;stroke-linecap:round;stroke-linejoin:round;stroke-width:.60085;stroke:url(#linearGradient3104-5)"/>
  <rect id="rect3965-5" x=".0038541" width="23.996" height="23.996" style="color-rendering:auto;color:#000000;image-rendering:auto;isolation:auto;mix-blend-mode:normal;opacity:0;shape-rendering:auto;solid-color:#000000;stroke-width:.73938"/>
  <path id="path1933" d="m5.3282 8.4322c-0.00397 0.17767 0.07203 0.76546 0.22342 1.1153 0.075694 0.17491 0.16277 0.28958 0.20265 0.32506 0.039887 0.035479 7.063e-4 0.020529 0.048156 0.021591 0.013327 2.988e-4 -0.098219 0.031879 0.27987-0.15271 0.37809-0.18459 1.0556-0.40229 1.918-0.37245a1.2144 1.2164 0 0 1 1.1703 1.2416l-0.090024 4.034 4.0272 0.09018a1.2144 1.2164 0 0 1 1.1857 1.242c-0.02369 1.0614-0.60494 1.8309-0.98496 2.2677-0.29796 0.34251-0.28725 0.33192-0.30013 0.25739 0.03712 0.01732 0.02403 0.01744 0.08369 0.03521 0.32918 0.09804 0.89176 0.12456 1.2004 0.12175 0.74969-0.0068 1.6743 0.04871 2.3021-0.03563 0.13409-0.01802 0.14404-0.03572 0.23432-0.06142-0.06083-0.07764-0.08826-0.1144-0.16418-0.21394-0.3663-0.48026-0.89052-1.276-0.86683-2.3374a1.2144 1.2164 0 0 1 1.2399-1.1876l5.3372 0.11951 0.04256-1.9068c-0.37815 0.23787-0.89384 0.37999-1.4161 0.3683-0.54796-0.01227-1.0925-0.25891-1.4483-0.59911-0.3558-0.3402-0.55588-0.73169-0.69198-1.1104-0.27222-0.75739-0.31168-1.5191-0.2968-2.1862 0.02034-0.91126-0.06021-1.5932 0.26135-2.4198 0.16078-0.41332 0.52104-0.86903 0.97684-1.1012 0.45581-0.2322 0.91166-0.2719 1.3702-0.26163 0.52407 0.011735 0.96938 0.23932 1.2571 0.44867 0.06317 0.045959 0.08399 0.076818 0.13809 0.12104l0.10421-4.6695-3.3287-0.074534c0.26044 0.34432 0.49736 0.76969 0.48282 1.4211-0.01637 0.73339-0.50055 1.517-1.205 1.9192-0.70446 0.40221-1.5668 0.54698-2.6842 0.52196-1.1174-0.025019-1.9724-0.20824-2.6582-0.64158-0.68581-0.43334-1.1346-1.2378-1.1182-1.9712 0.012562-0.56278 0.21335-1.0255 0.45106-1.4002l-3.2341-0.072415-0.11931 5.3461a1.2144 1.2164 0 0 1-1.2194 1.1881c-0.69697-0.0044641-1.3698-0.30278-1.7838-0.70918-0.40093-0.39359-0.5872-0.81143-0.72973-1.1394-0.12545 0.54569-0.17572 1.4502-0.19733 2.4187z" style="color:#000000;fill:#73d216;stroke-dashoffset:1.5;stroke-linecap:square;stroke-linejoin:round;stroke-width:.65571;stroke:url(#linearGradient3991)"/>
  <path id="path233-5" d="m21.527 23.702c0.66979-0.02639 1.1495-0.65674 1.1986-1.3904 0.46362-6.9183 0.97161-12.719 0.97161-12.719 0.04224-0.14826-0.09832-0.29651-0.28114-0.29651h-20.126l-1.0834 13.099c-0.067076 0.58831-0.27286 1.0811-0.90748 1.3082l20.227-0.0016z" style="color:#000000;display:block;fill:url(#linearGradient9772);stroke-linejoin:round;stroke-width:.59226;stroke:#3465a4"/>
  <path id="path304-3" d="m3.7994 9.9601 19.201 0.039857-0.92168 12.3c-0.04937 0.65891-0.26389 0.87826-1.0965 0.87826-1.0959 0-16.792-0.01993-18.383-0.01993 0.13678-0.19728 0.19543-0.60794 0.19621-0.61778z" style="fill:none;opacity:.46591;stroke-linecap:round;stroke-width:.60006px;stroke:url(#linearGradient322-1)"/>
 </g>
</svg>
