<?xml version="1.0" encoding="UTF-8"?>
<!-- Created with Inkscape (http://www.inkscape.org/) -->
<svg id="svg97" width="24" height="24" version="1.1" viewBox="0 0 24 24" xmlns="http://www.w3.org/2000/svg" xmlns:cc="http://creativecommons.org/ns#" xmlns:dc="http://purl.org/dc/elements/1.1/" xmlns:rdf="http://www.w3.org/1999/02/22-rdf-syntax-ns#" xmlns:xlink="http://www.w3.org/1999/xlink">
 <defs id="defs3">
  <linearGradient id="linearGradient3104-5" x1="18.113" x2="15.515" y1="31.368" y2="6.1803" gradientTransform="matrix(.60072 0 0 .60099 -1.8322 23.945)" gradientUnits="userSpaceOnUse">
   <stop id="stop3098" style="stop-color:#424242" offset="0"/>
   <stop id="stop3100" style="stop-color:#777" offset="1"/>
  </linearGradient>
  <linearGradient id="linearGradient9772" x1="22.176" x2="22.065" y1="36.988" y2="32.05" gradientTransform="matrix(.58583 0 0 .59874 -1.3064 24.343)" gradientUnits="userSpaceOnUse">
   <stop id="stop9768" style="stop-color:#6194cb" offset="0"/>
   <stop id="stop9770" style="stop-color:#729fcf" offset="1"/>
  </linearGradient>
  <linearGradient id="linearGradient322-1" x1="13.036" x2="12.854" y1="32.567" y2="46.689" gradientTransform="matrix(.77184 0 0 .50169 -1.8879 23.336)" gradientUnits="userSpaceOnUse">
   <stop id="stop8342" stop-color="#fff" stop-opacity=".79608" offset="0"/>
   <stop id="stop8344" stop-color="#fff" stop-opacity=".21569" offset="1"/>
  </linearGradient>
  <linearGradient id="linearGradient1971" x1="33.5" x2="32.615" y1="38.101" y2="30.146" gradientTransform="matrix(.52866 0 0 .82235 1245.5 280.97)" gradientUnits="userSpaceOnUse">
   <stop id="stop2844" style="stop-color:#babdb6" offset="0"/>
   <stop id="stop2846" style="stop-color:#eeeeec" offset="1"/>
  </linearGradient>
  <linearGradient id="linearGradient1973" x1="29.375" x2="32" y1="17.625" y2="36.688" gradientTransform="matrix(.52866 0 0 .82235 1245.5 280.97)" gradientUnits="userSpaceOnUse">
   <stop id="stop2890" stop-color="#888a85" offset="0"/>
   <stop id="stop2892" stop-color="#555753" offset="1"/>
  </linearGradient>
 </defs>
 <metadata id="metadata4">
  <rdf:RDF>
   <cc:Work rdf:about="">
    <dc:format>image/svg+xml</dc:format>
    <dc:type rdf:resource="http://purl.org/dc/dcmitype/StillImage"/>
    <dc:title/>
    <dc:date/>
    <dc:creator>
     <cc:Agent>
      <dc:title>Jakub Steiner</dc:title>
     </cc:Agent>
    </dc:creator>
    <cc:license rdf:resource="http://creativecommons.org/publicdomain/zero/1.0/"/>
    <dc:source>http://jimmac.musichall.cz</dc:source>
    <dc:subject>
     <rdf:Bag>
      <rdf:li>folder</rdf:li>
      <rdf:li>directory</rdf:li>
     </rdf:Bag>
    </dc:subject>
   </cc:Work>
   <cc:License rdf:about="http://creativecommons.org/publicdomain/zero/1.0/">
    <cc:permits rdf:resource="http://creativecommons.org/ns#Reproduction"/>
    <cc:permits rdf:resource="http://creativecommons.org/ns#Distribution"/>
    <cc:permits rdf:resource="http://creativecommons.org/ns#DerivativeWorks"/>
   </cc:License>
  </rdf:RDF>
 </metadata>
 <g id="g4325">
  <path id="path216-5" transform="translate(0,-24)" d="m0.8841 47.195c0.013093 0.25019 0.27627 0.50039 0.52636 0.50039h18.819c0.25008 0 0.48707-0.25019 0.47398-0.50039l-0.56254-16.363c-0.0131-0.25019-0.27627-0.50039-0.52635-0.50039h-7.9721c-0.29138 0-0.74158-0.18966-0.842-0.66507l-0.36728-1.7387c-0.0934-0.44213-0.52996-0.62376-0.78005-0.62376h-8.878c-0.25009 0-0.48708 0.25019-0.47398 0.50039z" style="fill:#fff;stroke-linecap:round;stroke-linejoin:round;stroke-width:.60085;stroke:url(#linearGradient3104-5)"/>
  <rect id="rect3965-5" transform="translate(0,-24)" x=".0038544" y="24" width="23.996" height="23.996" style="color-rendering:auto;color:#000000;image-rendering:auto;isolation:auto;mix-blend-mode:normal;opacity:0;shape-rendering:auto;solid-color:#000000;stroke-width:.73938"/>
  <g id="g9733" transform="matrix(1.1248 0 0 1.125 -286.38 -46.361)">
   <path id="path1934" d="m266.79 41.809c-1.4671 0-2.729 1.4292-3.2215 3.4436-0.23837-0.0891-0.48756-0.15419-0.74342-0.15419-1.7509 0-3.1719 2.2105-3.1719 4.9341s1.421 4.9341 3.1719 4.9341c0.40854 0 0.79767-0.14065 1.1564-0.35978 0.57816 1.2114 1.5004 2.0045 2.5442 2.0045 0.81236 0 1.5532-0.47705 2.1146-1.2592 0.30989 0.27719 0.67441 0.43687 1.0573 0.43687 0.57508 0 1.089-0.37077 1.4703-0.95084 0.20803 0.082 0.41996 0.12849 0.6443 0.12849 1.4591 0 2.6433-1.8421 2.6433-4.1118 0-1.3407-0.41838-2.5386-1.0573-3.2894 0-2.2697-1.1842-4.1118-2.6433-4.1118-0.44522 0-0.85432 0.18544-1.2225 0.48827-0.62731-1.2942-1.6209-2.133-2.7424-2.133z" style="color:#000000;fill-rule:evenodd;fill:url(#linearGradient1971);stroke-linecap:round;stroke-linejoin:round;stroke-width:1.1977;stroke:url(#linearGradient1973)"/>
   <path id="path2854" transform="matrix(.49613 0 0 .80988 250.43 25.318)" d="m33 21.584c-2.3228 0-4.3065 1.4543-5.0801 3.4883a1.0838 1.0838 0 0 1-1.2676 0.66797c-0.40061-0.09628-0.78649-0.15625-1.1523-0.15625-2.7256 0-4.916 2.1904-4.916 4.916s2.1904 4.916 4.916 4.916c0.61291 0 1.2137-0.13464 1.791-0.36133a1.0838 1.0838 0 0 1 1.2676 0.36133c0.89978 1.212 2.32 2 3.9414 2 1.2639 0 2.4053-0.47283 3.2773-1.2539a1.0838 1.0838 0 0 1 1.2637-0.13281c0.42373 0.24366 0.92839 0.38672 1.459 0.38672 0.78838 0 1.4851-0.32117 2.0234-0.84766a1.0838 1.0838 0 0 1 1.0234-0.27539c0.31838 0.08062 0.62514 0.12305 0.95312 0.12305 2.1736 0 3.916-1.7424 3.916-3.916 0-1.2796-0.62064-2.4189-1.5684-3.1348a1.0838 1.0838 0 0 1-0.43164-0.86523c0-2.1737-1.7424-3.916-3.916-3.916-0.64873 0-1.2418 0.1701-1.8066 0.46875a1.0838 1.0838 0 0 1-1.3711-0.30664c-0.99097-1.3143-2.5482-2.1621-4.3223-2.1621z" style="color:#000000;fill:none;stroke-linecap:round;stroke-linejoin:round;stroke-width:1.8401;stroke:#fff"/>
   <g id="g9939" transform="matrix(.99805 0 0 .99805 259.07 39.23)">
    <path id="text2858" d="m6 8 3 6e-6v1h-2v1h1v1h-1v1.0439l2-0.043868v1l-3-1.3e-5v-5m3.9745 0 1.0256 6e-6 1 2.5214v-2.5214l1.0279 7e-6v5h-1.0279l-1-2.5214v2.5214l-1.0256-1.3e-5v-5"/>
    <path id="text2868" d="m4.7431 8.2453v0.63589c-0.21884-0.11835-0.42531-0.20658-0.61941-0.26469-0.1941-0.058098-0.38154-0.087148-0.56232-0.087153-0.31399 5e-6 -0.55661 0.068866-0.72788 0.20658-0.16936 0.13773-0.25404 0.33355-0.25404 0.58748-1.2e-6 0.21304 0.056136 0.37444 0.16841 0.48418 0.11418 0.1076 0.32921 0.19475 0.6451 0.26146l0.34824 0.0807c0.43006 0.09253 0.74691 0.25608 0.95052 0.49064 0.20552 0.23241 0.30827 0.54444 0.30828 0.93608-3.6e-6 0.46697-0.13892 0.82096-0.41675 1.062-0.27593 0.24102-0.68126 0.36152-1.216 0.36152-0.20171-1e-6 -0.41675-0.025823-0.6451-0.077469-0.22645-0.051647-0.46147-0.12804-0.70504-0.22918v-0.6714c0.23406 0.14848 0.46337 0.26038 0.68792 0.3357 0.22455 0.07532 0.44529 0.11298 0.66223 0.11298 0.32921 1e-6 0.58325-0.07316 0.76213-0.2195 0.17887-0.14633 0.26831-0.35507 0.26832-0.62621-3e-6 -0.23671-0.064703-0.42178-0.1941-0.5552-0.1275-0.13342-0.33778-0.23348-0.63083-0.30019l-0.35109-0.077469c-0.43007-0.096834-0.7412-0.24854-0.9334-0.45513-0.1922-0.20658-0.2883-0.49386-0.2883-0.86185-6e-7 -0.42608 0.13225-0.76178 0.39676-1.0071 0.26641-0.24531 0.63273-0.36797 1.099-0.36798 0.19981 5e-6 0.40342 0.020448 0.61085 0.061329 0.20742 0.040892 0.4196 0.10222 0.63654 0.18399"/>
    <path id="path2876" d="m3.5 7.4723v6.0277" style="fill:none;stroke-linecap:square;stroke-width:1px;stroke:#000"/>
   </g>
  </g>
  <g id="g4420" transform="matrix(.9995 0 0 1.0005 -.46187 -24.323)">
   <path id="path233-5" d="m22 48c0.67013-0.02638 1.15-0.6564 1.1992-1.3897 0.46385-6.9147 0.9721-12.712 0.9721-12.712 0.04227-0.14818-0.09837-0.29636-0.28128-0.29636h-20.136l-1.084 13.093c-0.06711 0.588-0.273 1.0806-0.90794 1.3075l20.238-0.0016z" style="color:#000000;display:block;fill:url(#linearGradient9772);stroke-linejoin:round;stroke-width:.59226;stroke:#3465a4"/>
   <path id="path304-3" d="m4.2633 34.265 19.21 0.039836-0.92214 12.294c-0.0494 0.65857-0.26403 0.87781-1.0971 0.87781-1.0964 0-16.801-0.01992-18.392-0.01992 0.13685-0.19718 0.19553-0.60763 0.19631-0.61746z" style="fill:none;opacity:.46591;stroke-linecap:round;stroke-width:.60006px;stroke:url(#linearGradient322-1)"/>
  </g>
 </g>
</svg>
