<?xml version="1.0" encoding="UTF-8"?>
<svg id="svg30571" width="24" height="24" version="1.1" viewBox="0 0 24 24" xmlns="http://www.w3.org/2000/svg" xmlns:cc="http://creativecommons.org/ns#" xmlns:dc="http://purl.org/dc/elements/1.1/" xmlns:rdf="http://www.w3.org/1999/02/22-rdf-syntax-ns#">
 <metadata id="metadata30576">
  <rdf:RDF>
   <cc:Work rdf:about="">
    <dc:format>image/svg+xml</dc:format>
    <dc:type rdf:resource="http://purl.org/dc/dcmitype/StillImage"/>
    <dc:creator>
     <cc:Agent>
      <dc:title>Klaus Staedtler</dc:title>
     </cc:Agent>
    </dc:creator>
    <dc:title/>
   </cc:Work>
  </rdf:RDF>
 </metadata>
 <g id="layer1" transform="translate(0 -1028.4)">
  <g id="g3972" transform="matrix(.57119 0 0 .58692 -1.71 1026.6)">
   <path id="rect2259" d="m4.9016 3.9324h38.201c0.57885 0 1.0449 0.46576 1.0449 1.0443v37.076c0 0.57854-0.46601 1.0443-1.0449 1.0443h-36.236l-3.0094-3.0078v-35.113c0-0.57854 0.466-1.0443 1.0449-1.0443z" style="fill:#3465a4;stroke-linecap:round;stroke-linejoin:round;stroke-width:1.7271;stroke:#25375f"/>
   <rect id="rect2328" x="9.9968" y="9.8835" width="28.012" height="17.038" style="fill:#fff"/>
   <rect id="rect2330" x="9.9968" y="4.772" width="28.012" height="5.1115" rx=".11784" ry=".16128" style="fill:#d31c00"/>
   <rect id="rect2332" x="6.4953" y="6.4759" width="1.7507" height="1.7038" rx=".11048" ry=".10752" style="opacity:.73864"/>
   <path id="rect2273" d="m4.6189 4.5277h38.768c0.06992 0 0.12621 0.056289 0.12621 0.12621v37.648c0 0.06992-0.05629 0.12621-0.12621 0.12621h-36.459l-2.4356-2.3914v-35.383c0-0.069919 0.056289-0.12621 0.12621-0.12621z" style="fill:none;opacity:.59659;stroke-linecap:round;stroke:url(#linearGradient2283)"/>
   <path id="rect2340" d="m14.186 29.47h19.634c0.88276 0 1.5934 0.68833 1.5934 1.5433v12.101h-22.821v-12.101c0-0.85501 0.71067-1.5433 1.5934-1.5433z" style="fill:#d3d7cf;stroke-width:1.6896;stroke:#525252"/>
   <rect id="rect2359" x="16.572" y="31.629" width="4.3564" height="9.3272" rx=".65065" ry=".69608" style="fill:#4967a2;stroke-width:.89586;stroke:#525252"/>
  </g>
 </g>
</svg>
