<?xml version="1.0" encoding="UTF-8"?>
<svg id="svg30571" width="24" height="24" version="1.1" viewBox="0 0 24 24" xmlns="http://www.w3.org/2000/svg" xmlns:cc="http://creativecommons.org/ns#" xmlns:dc="http://purl.org/dc/elements/1.1/" xmlns:rdf="http://www.w3.org/1999/02/22-rdf-syntax-ns#">
 <metadata id="metadata30576">
  <rdf:RDF>
   <cc:Work rdf:about="">
    <dc:format>image/svg+xml</dc:format>
    <dc:type rdf:resource="http://purl.org/dc/dcmitype/StillImage"/>
    <dc:creator>
     <cc:Agent>
      <dc:title>Klaus Staedtler</dc:title>
     </cc:Agent>
    </dc:creator>
    <dc:title/>
   </cc:Work>
  </rdf:RDF>
 </metadata>
 <g id="layer1" transform="translate(0 -1028.4)">
  <g id="g4260">
   <text id="text3137" transform="scale(.99891 1.0011)" x="5.634397" y="1043.2609" style="fill:#000000;font-family:sans-serif;font-size:72.676px;letter-spacing:0px;line-height:125%;stroke-width:1.8169px;word-spacing:0px" xml:space="preserve"><tspan id="tspan3139" x="5.634397" y="1043.2609" style="fill:#dddddd;font-size:23.819px;stroke-width:1.8169px">γ</tspan></text>
   <path id="rect28283-2" d="m1.5 1028.4c-0.98168 0-1.5-0.097-1.5 1.4998v20.998c0 1.5968 0.51832 1.4999 1.5 1.4999h21c0.95021 0 1.451 0.024 1.5-1.4999v-20.998c-0.04899-1.5234-0.54979-1.4998-1.5-1.4998h-10.5zm3 0.9988h15c2.3959 0 3.5 1.1433 3.5 3.8007v14.399c0 2.7017-0.92734 3.8007-3.5 3.8007h-15c-2.4196 0-3.5-1.1538-3.5-4.2506v-13.499c0-3.1878 1.0599-4.2507 3.5-4.2507z" style="fill:#ddd"/>
  </g>
 </g>
</svg>
