<?xml version="1.0" encoding="UTF-8"?>
<svg id="svg7384" width="24" height="24" version="1.1" viewBox="0 0 24 24" xmlns="http://www.w3.org/2000/svg" xmlns:cc="http://creativecommons.org/ns#" xmlns:dc="http://purl.org/dc/elements/1.1/" xmlns:osb="http://www.openswatchbook.org/uri/2009/osb" xmlns:rdf="http://www.w3.org/1999/02/22-rdf-syntax-ns#" xmlns:xlink="http://www.w3.org/1999/xlink">
 <metadata id="metadata90">
  <rdf:RDF>
   <cc:Work rdf:about="">
    <dc:format>image/svg+xml</dc:format>
    <dc:type rdf:resource="http://purl.org/dc/dcmitype/StillImage"/>
    <dc:title/>
    <dc:contributor>
     <cc:Agent>
      <dc:title>Barbara Muraus, Jakub Steiner, Klaus Staedtler</dc:title>
     </cc:Agent>
    </dc:contributor>
    <dc:description>Images originally created as the "Art Libre" icon set. Extended and adopted for GIMP</dc:description>
   </cc:Work>
  </rdf:RDF>
 </metadata>
 <defs id="defs7386">
  <linearGradient id="linearGradient19282-4" gradientTransform="matrix(.34683 0 0 .30621 -113.35 202.04)" osb:paint="solid">
   <stop id="stop19284-0" style="stop-color:#ddd" offset="0"/>
  </linearGradient>
  <linearGradient id="linearGradient7726" x1="41.977" x2="45" y1="565.5" y2="565.5" gradientTransform="matrix(1.6536 0 0 1.6692 596.18 -537.38)" gradientUnits="userSpaceOnUse" xlink:href="#linearGradient19282-4"/>
  <linearGradient id="linearGradient7728" x1="42" x2="45" y1="561.5" y2="561.5" gradientTransform="matrix(1.3333 0 0 1.3333 481.87 -427.51)" gradientUnits="userSpaceOnUse" xlink:href="#linearGradient19282-4"/>
  <linearGradient id="linearGradient7732" x1="46" x2="55" y1="568.5" y2="568.5" gradientTransform="matrix(1.5556 0 0 1.5556 560.62 -500.32)" gradientUnits="userSpaceOnUse" xlink:href="#linearGradient19282-4"/>
  <linearGradient id="linearGradient7726-7" x1="41.977" x2="45" y1="565.5" y2="565.5" gradientTransform="matrix(1.6536 0 0 1.6692 602.18 -543.38)" gradientUnits="userSpaceOnUse" xlink:href="#linearGradient19282-4"/>
 </defs>
 <g id="g69">
  <path id="path3997" d="m2.7055 5.5243c0.84159 0.7152 2.104 0.61195 2.8189-0.22884 0.71531-0.84197 0.6116-2.1048-0.22989-2.8197-0.84185-0.71529-2.1041-0.61204-2.819 0.22873-0.71525 0.84171-0.61179 2.1046 0.22993 2.8198z" style="fill:url(#linearGradient7728)"/>
  <path id="path4045" d="m18.217 9.9518 2.783-2.9518v14h-14l3.2044-3.0824s-6.2933-4.3649-1.2409-9.1179c5.0524-4.753 8.952 1.4118 8.952 1.4118z" style="fill:url(#linearGradient7732)"/>
  <path id="path3771" d="m1.9074 11.427c1.064 0.87938 2.6398 0.72914 3.5194-0.33495 0.88018-1.0641 0.72949-2.6404-0.33422-3.5197-1.0641-0.8795-2.64-0.72911-3.5195 0.33507-0.87996 1.0639-0.72966 2.6402 0.33432 3.5196z" style="fill:url(#linearGradient7726)"/>
  <path id="path3771-4" d="m7.9074 5.4273c1.064 0.87938 2.6398 0.72914 3.5194-0.33495 0.88018-1.0641 0.72949-2.6404-0.33422-3.5197-1.0641-0.8795-2.64-0.72911-3.5195 0.33507-0.87996 1.0639-0.72966 2.6402 0.33432 3.5196z" style="fill:url(#linearGradient7726-7)"/>
 </g>
</svg>
