<?xml version="1.0" encoding="UTF-8"?>
<!-- Created with Inkscape (http://www.inkscape.org/) -->
<svg id="svg30571" width="24" height="24" version="1.1" viewBox="0 0 24 24" xmlns="http://www.w3.org/2000/svg" xmlns:cc="http://creativecommons.org/ns#" xmlns:dc="http://purl.org/dc/elements/1.1/" xmlns:osb="http://www.openswatchbook.org/uri/2009/osb" xmlns:rdf="http://www.w3.org/1999/02/22-rdf-syntax-ns#" xmlns:xlink="http://www.w3.org/1999/xlink">
 <defs id="defs30573">
  <linearGradient id="linearGradient19282-4" gradientTransform="matrix(.34683 0 0 .30621 -482.62 330.96)" osb:paint="solid">
   <stop id="stop19284-0" style="stop-color:#ddd" offset="0"/>
  </linearGradient>
  <linearGradient id="linearGradient9912" x1="-79" x2="-65" y1="68" y2="68" gradientTransform="matrix(1.5714 0 0 1.5714 125.14 933.51)" gradientUnits="userSpaceOnUse" xlink:href="#linearGradient19282-4"/>
  <linearGradient id="linearGradient9920" x1="164" x2="174" y1="284" y2="284" gradientTransform="matrix(1.6 0 0 1.75 -258.4 541.36)" gradientUnits="userSpaceOnUse" xlink:href="#linearGradient19282-4"/>
  <linearGradient id="linearGradient9918" x1="164" x2="174" y1="289.5" y2="289.5" gradientTransform="matrix(1.6 0 0 2 -258.4 468.36)" gradientUnits="userSpaceOnUse" xlink:href="#linearGradient19282-4"/>
 </defs>
 <metadata id="metadata30576">
  <rdf:RDF>
   <cc:Work rdf:about="">
    <dc:format>image/svg+xml</dc:format>
    <dc:type rdf:resource="http://purl.org/dc/dcmitype/StillImage"/>
    <dc:title/>
    <dc:creator>
     <cc:Agent>
      <dc:title>Klaus Staedtler</dc:title>
     </cc:Agent>
    </dc:creator>
   </cc:Work>
  </rdf:RDF>
 </metadata>
 <g id="layer1" transform="translate(0 -1028.4)">
  <g id="g11052">
   <rect id="rect4433" y="1028.4" width="24" height="24" style="fill:none"/>
   <path id="rect5204" d="m1 1029.4v22h22v-22zm1 1h20v20h-20z" style="fill:url(#linearGradient9912)"/>
   <path id="path5209" d="m4 1034.9 1.6-1.75v8.75l1.6-3.5 1.6 3.5v-7h1.6v1.75l1.6 1.75v1.75l1.6 1.75 1.6-1.75v-3.5l1.6 1.75v-7l1.6 1.75v3.5l1.6 1.75v7h-16z" style="fill:url(#linearGradient9920)"/>
   <rect id="rect5216" x="4" y="1046.4" width="16" height="2" style="fill:url(#linearGradient9918)"/>
  </g>
 </g>
</svg>
