<?xml version="1.0" encoding="UTF-8"?>
<svg id="svg7384" width="24" height="24" version="1.1" viewBox="0 0 24 24" xmlns="http://www.w3.org/2000/svg" xmlns:cc="http://creativecommons.org/ns#" xmlns:dc="http://purl.org/dc/elements/1.1/" xmlns:osb="http://www.openswatchbook.org/uri/2009/osb" xmlns:rdf="http://www.w3.org/1999/02/22-rdf-syntax-ns#" xmlns:xlink="http://www.w3.org/1999/xlink">
 <metadata id="metadata90">
  <rdf:RDF>
   <cc:Work rdf:about="">
    <dc:format>image/svg+xml</dc:format>
    <dc:type rdf:resource="http://purl.org/dc/dcmitype/StillImage"/>
    <dc:title/>
    <dc:contributor>
     <cc:Agent>
      <dc:title>Barbara Muraus, Jakub Steiner, Klaus Staedtler</dc:title>
     </cc:Agent>
    </dc:contributor>
    <dc:description>Images originally created as the "Art Libre" icon set. Extended and adopted for GIMP</dc:description>
   </cc:Work>
  </rdf:RDF>
 </metadata>
 <defs id="defs7386">
  <linearGradient id="linearGradient19282-4" gradientTransform="matrix(.34683 0 0 .30621 26.648 242.04)" osb:paint="solid">
   <stop id="stop19284-0" style="stop-color:#ddd" offset="0"/>
  </linearGradient>
  <linearGradient id="linearGradient7150" x1="188" x2="190" y1="-533" y2="-533" gradientTransform="matrix(1.5 0 0 1.5 366.57 618.5)" gradientUnits="userSpaceOnUse" xlink:href="#linearGradient19282-4"/>
  <linearGradient id="linearGradient7152" x1="526" x2="528" y1="-183" y2="-183" gradientTransform="matrix(1.5 0 0 1.5 -618.5 -366.57)" gradientUnits="userSpaceOnUse" xlink:href="#linearGradient19282-4"/>
  <linearGradient id="linearGradient7154" x1="188" x2="190" y1="521" y2="521" gradientTransform="matrix(1.5 0 0 1.5 366.57 -618.5)" gradientUnits="userSpaceOnUse" xlink:href="#linearGradient19282-4"/>
  <linearGradient id="linearGradient7156" x1="-57" x2="-47" y1="310" y2="310" gradientTransform="matrix(1.6 0 0 1.6 775.81 -313.33)" gradientUnits="userSpaceOnUse" xlink:href="#linearGradient19282-4"/>
  <linearGradient id="linearGradient7158" x1="526" x2="528" y1="195" y2="195" gradientTransform="matrix(1.5 0 0 1.5 -618.5 366.57)" gradientUnits="userSpaceOnUse" xlink:href="#linearGradient19282-4"/>
  <linearGradient id="linearGradient7164" x1="192" x2="196" y1="534.5" y2="534.5" gradientTransform="matrix(1.75 0 0 1.5 424.42 -618.5)" gradientUnits="userSpaceOnUse" xlink:href="#linearGradient19282-4"/>
  <linearGradient id="linearGradient7166" x1="192" x2="195" y1="532.5" y2="532.5" gradientTransform="matrix(1.6667 0 0 1.6 404.97 -661.33)" gradientUnits="userSpaceOnUse" xlink:href="#linearGradient19282-4"/>
 </defs>
 <g id="g4180">
  <rect id="rect28130" x="10.5" y="6.2e-6" width="3" height="6" rx="1.5" ry="1.5" style="fill:url(#linearGradient7154)"/>
  <rect id="rect28132" transform="scale(1,-1)" x="10.5" y="-24" width="3" height="6" rx="1.5" ry="1.5" style="fill:url(#linearGradient7150)"/>
  <rect id="rect28134" transform="rotate(90)" x="10.5" y="-6" width="3" height="6" rx="1.5" ry="1.5" style="fill:url(#linearGradient7152)"/>
  <rect id="rect28136" transform="matrix(0,1,1,0,0,0)" x="10.5" y="18" width="3" height="6" rx="1.5" ry="1.5" style="fill:url(#linearGradient7158)"/>
  <path id="path28141" d="m12 4c-4.4183 0-8 3.5817-8 8 0 4.4183 3.5817 8 8 8 0.55228 0 0.97922-0.04352 1.5-0.14992v-3.1001c-0.50636 0.18163-0.93115 0.25-1.5 0.25-2.651 0-5-2.349-5-4.9999s2.349-5.0001 5-5.0001c2.651 0 5 2.3491 5 5.0001 0 0.56885-0.06837 0.99357-0.25 1.4999h3.1c0.10656-0.52078 0.15-0.94763 0.15-1.4999 0-4.4183-3.5817-8-8-8z" style="fill:url(#linearGradient7156)"/>
  <path id="path28149" d="m16 18v-2h5v8h-3v-6.4 0.4z" style="fill:url(#linearGradient7166)"/>
  <rect id="rect28151" x="16" y="22.5" width="7" height="1.5" rx="1.75" ry="1.5" style="fill:url(#linearGradient7164)"/>
 </g>
</svg>
