<?xml version="1.0" encoding="UTF-8"?>
<svg id="svg7384" width="16" height="16" version="1.1" viewBox="0 0 16 16" xmlns="http://www.w3.org/2000/svg" xmlns:cc="http://creativecommons.org/ns#" xmlns:dc="http://purl.org/dc/elements/1.1/" xmlns:osb="http://www.openswatchbook.org/uri/2009/osb" xmlns:rdf="http://www.w3.org/1999/02/22-rdf-syntax-ns#" xmlns:xlink="http://www.w3.org/1999/xlink">
 <metadata id="metadata90">
  <rdf:RDF>
   <cc:Work rdf:about="">
    <dc:format>image/svg+xml</dc:format>
    <dc:type rdf:resource="http://purl.org/dc/dcmitype/StillImage"/>
    <dc:title/>
    <dc:contributor>
     <cc:Agent>
      <dc:title>Barbara Muraus, Jakub Steiner, Klaus Staedtler</dc:title>
     </cc:Agent>
    </dc:contributor>
    <dc:description>Images originally created as the "Art Libre" icon set. Extended and adopted for GIMP</dc:description>
   </cc:Work>
  </rdf:RDF>
 </metadata>
 <defs id="defs7386">
  <linearGradient id="linearGradient19282-4" gradientTransform="matrix(.34683 0 0 .30621 -113.35 142.04)" osb:paint="solid">
   <stop id="stop19284-0" style="stop-color:#bebebe" offset="0"/>
  </linearGradient>
  <linearGradient id="linearGradient10150" x1="-200" x2="-187" y1="411.5" y2="411.5" gradientTransform="matrix(1.2206 0 0 1.1429 862.3 -213.68)" gradientUnits="userSpaceOnUse" xlink:href="#linearGradient19282-4"/>
  <linearGradient id="linearGradient10152" x1="44" x2="51" y1="629" y2="629" gradientTransform="matrix(1.4286 0 0 -1.1252 666.65 468.07)" gradientUnits="userSpaceOnUse" xlink:href="#linearGradient19282-4"/>
 </defs>
 <path id="path6973" d="m4 9v-9.0019h9.002l3 3.0006v6.0013z" style="fill:url(#linearGradient10152)"/>
 <g id="g4255" transform="matrix(.75 0 0 .75 0 4)">
  <path id="path6977" d="m0.74984 4.0933e-5c-0.70547 0.010639-0.74507 0.66666-0.74507 0.66666-0.004768 1.1418-0.004768-1.4634-0.004768 0.66666v14.059c0 0.33577 0.28983 0.60714 0.64845 0.60714h14.7c0.35861 0 0.64845-0.27137 0.64845-0.60714-7.66e-4 -2.4643 0.0034-7.3928 0.0034-7.3928h-1.3334v6.25c-0.0033 0.33576-0.30921 0.41667-0.66783 0.41667h-12.001c-0.35861 0-0.66114-0.08091-0.66446-0.41667v-12.25c0.039212-0.30043 0.21925-0.76571 0.53572-0.66666h2.1301v-1.3333z" style="fill:url(#linearGradient10150)"/>
 </g>
</svg>
