<?xml version="1.0" encoding="UTF-8"?>
<!-- Created with Inkscape (http://www.inkscape.org/) -->
<svg id="svg8" width="16" height="16" version="1.1" viewBox="0 0 4.2333 4.2333" xmlns="http://www.w3.org/2000/svg" xmlns:cc="http://creativecommons.org/ns#" xmlns:dc="http://purl.org/dc/elements/1.1/" xmlns:osb="http://www.openswatchbook.org/uri/2009/osb" xmlns:rdf="http://www.w3.org/1999/02/22-rdf-syntax-ns#">
 <style id="style12890"/>
 <metadata id="metadata5">
  <rdf:RDF>
   <cc:Work rdf:about="">
    <dc:format>image/svg+xml</dc:format>
    <dc:type rdf:resource="http://purl.org/dc/dcmitype/StillImage"/>
    <dc:title/>
   </cc:Work>
  </rdf:RDF>
 </metadata>
 <g id="gimp-color-temperature">
  <path id="circle13731" transform="scale(.26458)" d="m4.5 4c-0.277 0-0.5 0.223-0.5 0.5v5.8281c-0.80883 0.22492-1.3687 0.96126-1.3691 1.8008-4.935e-4 1.0328 0.83632 1.8705 1.8691 1.8711 1.0336 4.94e-4 1.8716-0.83751 1.8711-1.8711-0.0015907-0.83935-0.56219-1.5748-1.3711-1.7988v-5.8301c0-0.277-0.223-0.5-0.5-0.5z" style="color:#000000;fill-rule:evenodd;fill:#bebebe"/>
  <rect id="rect13692" transform="rotate(135)" x="-1.2258" y="-4.2837" width=".26458" height=".52917" rx=".13229" ry=".13229" style="color:#000000;fill-rule:evenodd;fill:#bebebe"/>
  <rect id="rect13690" transform="rotate(90)" x="1.1866" y="-4.1876" width=".26458" height=".52917" rx=".13229" ry=".13229" style="color:#000000;fill-rule:evenodd;fill:#bebebe"/>
  <rect id="rect13694" transform="rotate(45)" x="2.8199" y="-2.4159" width=".26458" height=".52917" rx=".13229" ry=".13229" style="color:#000000;fill-rule:evenodd;fill:#bebebe"/>
  <rect id="rect13686" x="2.6458" width=".26458" height=".52917" rx=".13229" ry=".13229" style="color:#000000;fill-rule:evenodd;fill:#bebebe"/>
  <rect id="rect13688" x="2.6458" y="2.1167" width=".26458" height=".52917" rx=".13229" ry=".13229" style="color:#000000;fill-rule:evenodd;fill:#bebebe"/>
  <path id="path13718" transform="scale(.26458)" d="m9.0155 3.6408c0.38075-0.42301 0.92314-0.66454 1.4923-0.66454 1.1089 1e-7 2.0078 0.8989 2.0078 2.0078v0c0 1.1089-0.8989 2.0078-2.0078 2.0078-0.56912 0-1.127-0.24154-1.5078-0.66454" style="color:#000000;fill:none;stroke-linecap:round;stroke-linejoin:round;stroke:#bebebe"/>
  <path id="path13729" transform="scale(.26458)" d="m4.4805 0c-1.4169 0-2.4805 1.329-2.4805 2.8633v6.0449c-0.90582 0.73462-1.498 1.8434-1.498 3.0957-2e-8 2.2034 1.7986 4 4.002 4 2.2553 0 4-1.807 4-4 0-1.2631-0.58856-2.3793-1.5039-3.1133v-6.0273c0-1.5343-1.0655-2.8633-2.4824-2.8633zm0 1.0039h0.037109c0.77578 0 1.4824 0.77439 1.4824 1.8594v3.7383h0.00195l-0.00195 3.0195c0.84024 0.5318 1.5 1.3101 1.5 2.3828 0 1.6629-1.3332 2.9961-2.9961 2.9961-1.6629 0-3.0059-1.3332-3.0059-2.9961-1e-7 -1.0735 0.65786-1.8512 1.502-2.3828l-0.0039062-2.9941h0.0039062v-3.7637c0-1.085 0.70469-1.8594 1.4805-1.8594z" style="color-rendering:auto;color:#000000;dominant-baseline:auto;fill-rule:evenodd;fill:#bebebe;font-feature-settings:normal;font-variant-alternates:normal;font-variant-caps:normal;font-variant-east-asian:normal;font-variant-ligatures:normal;font-variant-numeric:normal;font-variant-position:normal;font-variation-settings:normal;image-rendering:auto;inline-size:0;isolation:auto;mix-blend-mode:normal;shape-margin:0;shape-padding:0;shape-rendering:auto;solid-color:#000000;text-decoration-color:#000000;text-decoration-line:none;text-decoration-style:solid;text-indent:0;text-orientation:mixed;text-transform:none;white-space:normal"/>
 </g>
</svg>
