<?xml version="1.0" encoding="UTF-8"?>
<!-- Created with Inkscape (http://www.inkscape.org/) -->
<svg id="svg11300" width="16" height="16" version="1.0" viewBox="0 0 16 16" xmlns="http://www.w3.org/2000/svg" xmlns:cc="http://creativecommons.org/ns#" xmlns:dc="http://purl.org/dc/elements/1.1/" xmlns:rdf="http://www.w3.org/1999/02/22-rdf-syntax-ns#">
 <metadata id="metadata4">
  <rdf:RDF>
   <cc:Work rdf:about="">
    <dc:format>image/svg+xml</dc:format>
    <dc:type rdf:resource="http://purl.org/dc/dcmitype/StillImage"/>
    <dc:creator>
     <cc:Agent>
      <dc:title/>
     </cc:Agent>
    </dc:creator>
    <dc:source/>
    <cc:license rdf:resource="http://creativecommons.org/licenses/by-sa/2.0/"/>
    <dc:title/>
   </cc:Work>
   <cc:License rdf:about="http://creativecommons.org/licenses/by-sa/2.0/">
    <cc:permits rdf:resource="http://web.resource.org/cc/Reproduction"/>
    <cc:permits rdf:resource="http://web.resource.org/cc/Distribution"/>
    <cc:requires rdf:resource="http://web.resource.org/cc/Notice"/>
    <cc:requires rdf:resource="http://web.resource.org/cc/Attribution"/>
    <cc:permits rdf:resource="http://web.resource.org/cc/DerivativeWorks"/>
    <cc:requires rdf:resource="http://web.resource.org/cc/ShareAlike"/>
   </cc:License>
  </rdf:RDF>
 </metadata>
 <g id="layer1">
  <g id="g3439">
   <g id="g4294">
    <path id="path4263" d="m4 6.25s1.2577-1.0669 2-1c0.82997 0.074838 1.1667 1.5 2 1.5s1.17-1.4252 2-1.5c0.74234-0.066937 2 1 2 1" style="fill:none;stroke-width:.5;stroke:#bebebe"/>
    <path id="path4263-7" d="m4 10.25s1.2577-1.0669 2-1c0.82997 0.074838 1.1667 1.5 2 1.5s1.17-1.4252 2-1.5c0.74234-0.066937 2 1 2 1" style="fill:none;stroke-width:.5;stroke:#bebebe"/>
    <path id="path4263-0" d="m4 8.25s1.2577-1.0669 2-1c0.82997 0.074838 1.1667 1.5 2 1.5s1.17-1.4252 2-1.5c0.74234-0.066937 2 1 2 1" style="fill:none;stroke-width:.5;stroke:#bebebe"/>
   </g>
   <path id="path4299" d="m8 0a8 8 0 0 0-8 8 8 8 0 0 0 8 8 8 8 0 0 0 8-8 8 8 0 0 0-8-8zm0 1a7 7 0 0 1 7 7 7 7 0 0 1-7 7 7 7 0 0 1-7-7 7 7 0 0 1 7-7z" style="fill:#bebebe"/>
   <path id="path4299-3" d="m8 1a7 7 0 0 0-7 7 7 7 0 0 0 7 7 7 7 0 0 0 7-7 7 7 0 0 0-7-7zm0 1a6 6 0 0 1 6 6 6 6 0 0 1-6 6 6 6 0 0 1-6-6 6 6 0 0 1 0.029297-0.59961 6 6 0 0 1 5.9707-5.4004z" style="fill:#bebebe;opacity:.66"/>
   <path id="path4299-3-6" d="m8 2a6 6 0 0 0-6 6 6 6 0 0 0 6 6 6 6 0 0 0 6-6 6 6 0 0 0-6-6zm0 0.85714a5.1429 5.1429 0 0 1 5.1429 5.1429 5.1429 5.1429 0 0 1-5.1429 5.1429 5.1429 5.1429 0 0 1-5.1429-5.1429 5.1429 5.1429 0 0 1 0.025112-0.51395 5.1429 5.1429 0 0 1 5.1177-4.6289z" style="fill:#bebebe;opacity:.33"/>
  </g>
 </g>
</svg>
