<?xml version="1.0" encoding="UTF-8"?>
<svg id="svg7384" width="16" height="16" version="1.1" viewBox="0 0 16 16" xmlns="http://www.w3.org/2000/svg" xmlns:cc="http://creativecommons.org/ns#" xmlns:dc="http://purl.org/dc/elements/1.1/" xmlns:osb="http://www.openswatchbook.org/uri/2009/osb" xmlns:rdf="http://www.w3.org/1999/02/22-rdf-syntax-ns#" xmlns:xlink="http://www.w3.org/1999/xlink">
 <metadata id="metadata90">
  <rdf:RDF>
   <cc:Work rdf:about="">
    <dc:format>image/svg+xml</dc:format>
    <dc:type rdf:resource="http://purl.org/dc/dcmitype/StillImage"/>
    <dc:title/>
    <dc:contributor>
     <cc:Agent>
      <dc:title>Barbara Muraus, Jakub Steiner, Klaus Staedtler</dc:title>
     </cc:Agent>
    </dc:contributor>
    <dc:description>Images originally created as the "Art Libre" icon set. Extended and adopted for GIMP</dc:description>
   </cc:Work>
  </rdf:RDF>
 </metadata>
 <defs id="defs7386">
  <linearGradient id="linearGradient8352" x2="22" y1="11" y2="11" gradientTransform="translate(1175.4 580.08)" gradientUnits="userSpaceOnUse">
   <stop id="stop19284-0" style="stop-color:#bebebe" offset="0"/>
  </linearGradient>
 </defs>
 <g id="preferences" transform="translate(-241.5 -263.87)">
  <g id="gimp-prefs-folders-themes" transform="translate(226.5 303.87)">
   <path id="path15574-5" transform="matrix(.72727 0 0 .72727 15 -40)" d="m0.73047 0c-0.39755 0-0.73047 0.33292-0.73047 0.73047v20.539c0 0.41044 0.31988 0.73047 0.73047 0.73047h20.539c0.41058 0 0.73047-0.31989 0.73047-0.73047v-13.664c0-0.39751-0.33292-0.73047-0.73047-0.73047h-17.145v11.688c0 0.38088-0.30662 0.6875-0.6875 0.6875s-0.6875-0.30662-0.6875-0.6875v-12.375c0-0.38088 0.30662-0.6875 0.6875-0.6875h4.082 11.73v-1.9336c0-0.4499-0.36666-0.81641-0.81641-0.81641h-10.184v-2.0195c0-0.39758-0.33291-0.73047-0.73047-0.73047zm8.4375 8.4023h3.6641c0.4353 0 0.7938 0.21035 0.79297 0.46484l-0.02148 3.7949 2.5098-2.4551c0.04418-0.04331 0.0999-0.07057 0.16406-0.08203 0.1925-0.03442 0.46215 0.07306 0.68359 0.30078l2.4883 2.5703c0.29522 0.30369 0.39604 0.67482 0.21875 0.84766l-2.5137 2.4336h3.8535c0.25449 0 0.46484 0.33034 0.46484 0.76562v3.6641c0 0.4353-0.21035 0.7938-0.46484 0.79297l-4.9219-0.027345-2.2422 0.027344h-3.0898c-0.52104 0-0.97298-0.45644-1.248-1.1387-0.66506-0.27518-1.1035-0.72209-1.1035-1.2402v-10.254c0-0.25449 0.33034-0.46484 0.76562-0.46484zm0.082031 0.84766v1.75h3.5v-1.75zm7.1914 1.8047-1.2305 1.2031 2.3789 2.4336 1.2031-1.1758zm-7.1914 0.82031v1.75h3.5v-1.75zm5.3594 0.98438-1.0117 0.95703 0.0059 0.44336 2.1543 2.2363 1.2305-1.2031-2.3789-2.4336zm-5.3594 1.6406v1.75h3.5v-1.75zm4.3613 0.34766 0.01367 1.1836v1.9141l0.32812 0.32813 1.2031-1.1758-1.5312-1.5859zm2.666 2.2773-0.02734 0.02734v3.4727h1.75v-3.5h-1.7207-2e-3zm2.5977 0v3.5h1.75v-3.5zm-2.6523 0.05469-1.5312 1.5586-1.0664 1.0391v0.84766h1.75v-2.5703zm-5.2227 0.82031c-0.48325 0-0.875 0.39175-0.875 0.875s0.39175 0.875 0.875 0.875 0.875-0.39175 0.875-0.875-0.39175-0.875-0.875-0.875zm-0.65039 2.6016c0.205 0.13891 0.41127 0.25028 0.61524 0.33398-0.20357-0.08395-0.41093-0.19607-0.61524-0.33398zm0.63867 0.3418c0.19922 0.07973 0.39357 0.13531 0.57812 0.1582-0.18462-0.02377-0.37895-0.07808-0.57812-0.1582zm1.3223 0.05469c-0.03508 0.0179-0.07367 0.02928-0.11133 0.04297 0.03755-0.01385 0.07633-0.02497 0.11133-0.04297zm-0.26953 0.08984c-0.0426 0.0084-0.08603 0.01549-0.13086 0.01953 0.04493-0.0043 0.08818-0.01079 0.13086-0.01953zm-0.45898 0.01563c0.05665 0.0066 0.10964 0.0069 0.16406 0.0078-0.0542-0.0012-0.10765-1e-3 -0.16406-0.0078z" style="fill:url(#linearGradient8352);opacity:.95"/>
  </g>
 </g>
</svg>
