<?xml version="1.0" encoding="UTF-8"?>
<svg id="svg7384" width="24" height="24" version="1.1" viewBox="0 0 24 24" xmlns="http://www.w3.org/2000/svg" xmlns:cc="http://creativecommons.org/ns#" xmlns:dc="http://purl.org/dc/elements/1.1/" xmlns:osb="http://www.openswatchbook.org/uri/2009/osb" xmlns:rdf="http://www.w3.org/1999/02/22-rdf-syntax-ns#" xmlns:xlink="http://www.w3.org/1999/xlink">
 <metadata id="metadata90">
  <rdf:RDF>
   <cc:Work rdf:about="">
    <dc:format>image/svg+xml</dc:format>
    <dc:type rdf:resource="http://purl.org/dc/dcmitype/StillImage"/>
    <dc:title/>
    <dc:contributor>
     <cc:Agent>
      <dc:title>Barbara Muraus, Jakub Steiner, Klaus Staedtler</dc:title>
     </cc:Agent>
    </dc:contributor>
    <dc:description>Images originally created as the "Art Libre" icon set. Extended and adopted for GIMP</dc:description>
   </cc:Work>
  </rdf:RDF>
 </metadata>
 <defs id="defs7386">
  <linearGradient id="linearGradient19282-4" gradientTransform="matrix(.34683 0 0 .30621 -154.35 -275.32)" osb:paint="solid">
   <stop id="stop19284-0" style="stop-color:#414141" offset="0"/>
  </linearGradient>
  <linearGradient id="linearGradient7501" x1="-21" x2="-9" y1="1047.4" y2="1047.4" gradientTransform="translate(-877.05 -902.57)" gradientUnits="userSpaceOnUse" xlink:href="#linearGradient19282-4"/>
  <linearGradient id="linearGradient7501-3" x1="-21" x2="-9" y1="1047.4" y2="1047.4" gradientTransform="translate(-877.05 -916.57)" gradientUnits="userSpaceOnUse" xlink:href="#linearGradient19282-4"/>
  <linearGradient id="linearGradient7501-5" x1="-21" x2="-9" y1="1047.4" y2="1047.4" gradientTransform="translate(-877.05 -909.57)" gradientUnits="userSpaceOnUse" xlink:href="#linearGradient19282-4"/>
  <linearGradient id="linearGradient7528" x1="874.23" x2="894.23" y1="111.88" y2="111.88" gradientTransform="matrix(0 1.1 -1.25 0 26.251 3.8162)" gradientUnits="userSpaceOnUse" xlink:href="#linearGradient19282-4"/>
 </defs>
 <g id="g4310">
  <rect id="rect5996-2-1-0-7-8-0-9" transform="scale(-1,1)" x="-23" y="18" width="12" height="2" style="color:#acacac;fill:url(#linearGradient7501);stroke-width:.90909"/>
  <rect id="rect5996-2-1-0-7-8-0-9-2" transform="scale(-1,1)" x="-23" y="4" width="12" height="2" style="color:#acacac;fill:url(#linearGradient7501-3);stroke-width:.90909"/>
  <rect id="rect5996-2-1-0-7-8-0-9-5" transform="scale(-1,1)" x="-23" y="11" width="12" height="2" style="color:#acacac;fill:url(#linearGradient7501-5);stroke-width:.90909"/>
  <path id="path18497-9-8-1" d="m10 5.5805c0-0.28257-0.12288-0.50369-0.35645-0.68534l-4.6435-3.8951c-1.3322 1.2917-3.2949 2.5933-4.6411 3.8951-0.24712 0.18165-0.35889 0.40278-0.35889 0.68534v0.91953h1.25c0.31588 0 0.65992-0.11204 0.89355-0.28359l1.8565-1.39v14.345l-1.8565-1.39c-0.23362-0.17156-0.57768-0.28145-0.89355-0.28145h-1.25v0.91739c0 0.28257 0.11175 0.5037 0.35889 0.68534 1.3462 1.3018 3.3089 2.6055 4.6411 3.8973l4.6435-3.8973c0.23362-0.18164 0.35645-0.40278 0.35645-0.68534v-0.53496l-0.02688-0.38243h-1.25c-0.316 0-0.66019 0.11998-0.89356 0.28145l-1.8296 1.3686v-14.302l1.8296 1.3686c0.23338 0.16147 0.57756 0.28359 0.89356 0.28359h1.25l0.02688-0.38457z" style="color:#ffffff;fill:url(#linearGradient7528);stroke-width:.90267;text-decoration-line:none;text-indent:0;text-transform:none"/>
 </g>
</svg>
