<?xml version="1.0" encoding="UTF-8"?>
<!-- Created with Inkscape (http://www.inkscape.org/) -->
<svg id="svg9286" width="24" height="24" version="1.1" viewBox="0 0 6.35 6.35" xmlns="http://www.w3.org/2000/svg" xmlns:cc="http://creativecommons.org/ns#" xmlns:dc="http://purl.org/dc/elements/1.1/" xmlns:osb="http://www.openswatchbook.org/uri/2009/osb" xmlns:rdf="http://www.w3.org/1999/02/22-rdf-syntax-ns#" xmlns:xlink="http://www.w3.org/1999/xlink">
 <title id="title13765">GIMP Clip-Warning Display Filter (24px)</title>
 <metadata id="metadata9283">
  <rdf:RDF>
   <cc:Work rdf:about="">
    <dc:format>image/svg+xml</dc:format>
    <dc:type rdf:resource="http://purl.org/dc/dcmitype/StillImage"/>
    <dc:title>GIMP Clip-Warning Display Filter (24px)</dc:title>
    <dc:creator>
     <cc:Agent>
      <dc:title>Ell</dc:title>
     </cc:Agent>
    </dc:creator>
    <cc:license rdf:resource="http://creativecommons.org/licenses/by-sa/4.0/"/>
   </cc:Work>
   <cc:License rdf:about="http://creativecommons.org/licenses/by-sa/4.0/">
    <cc:permits rdf:resource="http://creativecommons.org/ns#Reproduction"/>
    <cc:permits rdf:resource="http://creativecommons.org/ns#Distribution"/>
    <cc:requires rdf:resource="http://creativecommons.org/ns#Notice"/>
    <cc:requires rdf:resource="http://creativecommons.org/ns#Attribution"/>
    <cc:permits rdf:resource="http://creativecommons.org/ns#DerivativeWorks"/>
    <cc:requires rdf:resource="http://creativecommons.org/ns#ShareAlike"/>
   </cc:License>
  </rdf:RDF>
 </metadata>
 <g id="layer1" transform="translate(0 -290.65)">
  <g id="gimp-display-filter-clip-warning-24">
   <g id="g51743">
    <path id="rect28283-2" d="m0.39688 290.65c-0.25973 0-0.39688-0.02566-0.39688 0.39682v5.5557c0 0.42249 0.13714 0.39685 0.39688 0.39685h5.5562c0.25141 0 0.38391 6e-3 0.39688-0.39685v-5.5557c-0.012962-0.40306-0.14546-0.39682-0.39688-0.39682h-2.7781zm0.79375 0.26427h3.9688c0.63391 0 0.92604 0.3025 0.92604 1.0056v3.8096c0 0.71482-0.24536 1.0056-0.92604 1.0056h-3.9688c-0.64019 0-0.92604-0.30528-0.92604-1.1246v-3.5715c0-0.84344 0.28044-1.1247 0.92604-1.1247z" style="fill:#414141"/>
    <g id="g51672" transform="translate(0 290.65)">
     <g id="g51611">
      <path id="path51593" d="m0.26458 0.26458 0.52917 0.52917-0.52917 0.52917z" style="fill-rule:evenodd;fill:#414141"/>
      <path id="path51595" d="m1.3229 1.3229 0.52917 0.52917-1.5875 1.5875v-1.0583z" style="fill-rule:evenodd;fill:#414141"/>
      <path id="path51597" d="m2.3812 2.3812 0.52917 0.52917-2.6458 2.6458v-1.0583z" style="fill-rule:evenodd;fill:#414141"/>
      <path id="path51599" d="m3.4396 3.4396 0.52917 0.52917-2.1167 2.1167h-1.0583z" style="fill-rule:evenodd;fill:#414141"/>
      <path id="path51601" d="m4.4979 4.4979 0.52917 0.52917-1.0583 1.0583h-1.0583z" style="fill-rule:evenodd;fill:#414141"/>
      <path id="path51603" d="m5.5562 5.5562 0.52917 0.52917h-1.0583z" style="fill-rule:evenodd;fill:#414141"/>
     </g>
     <g id="g51643">
      <path id="path51613" d="m0.79375 0.79375 0.52917 0.52917 1.0583-1.0583h-1.0583z" style="fill-rule:evenodd;fill:#414141"/>
      <path id="path51615" d="m1.8521 1.8521 0.52917 0.52917 2.1167-2.1167h-1.0583z" style="fill-rule:evenodd;fill:#414141"/>
      <path id="path51632" d="m2.9104 2.9104 0.52917 0.52917 2.6458-2.6458v-0.52917h-0.52917z" style="fill-rule:evenodd;fill:#414141"/>
      <path id="path51634" d="m3.9688 3.9688 0.52917 0.52917 1.5875-1.5875v-1.0583z" style="fill-rule:evenodd;fill:#414141"/>
      <path id="path51636" d="m5.0271 5.0271 0.52917 0.52917 0.52917-0.52917v-1.0583z" style="fill-rule:evenodd;fill:#414141"/>
     </g>
    </g>
   </g>
  </g>
 </g>
</svg>
