<?xml version="1.0" encoding="UTF-8"?>
<!-- Created with Inkscape (http://www.inkscape.org/) -->
<svg id="svg30571" width="24" height="24" version="1.1" viewBox="0 0 24 24" xmlns="http://www.w3.org/2000/svg" xmlns:cc="http://creativecommons.org/ns#" xmlns:dc="http://purl.org/dc/elements/1.1/" xmlns:osb="http://www.openswatchbook.org/uri/2009/osb" xmlns:rdf="http://www.w3.org/1999/02/22-rdf-syntax-ns#">
 <metadata id="metadata30576">
  <rdf:RDF>
   <cc:Work rdf:about="">
    <dc:format>image/svg+xml</dc:format>
    <dc:type rdf:resource="http://purl.org/dc/dcmitype/StillImage"/>
    <dc:title/>
    <dc:creator>
     <cc:Agent>
      <dc:title>Klaus Staedtler</dc:title>
     </cc:Agent>
    </dc:creator>
   </cc:Work>
  </rdf:RDF>
 </metadata>
 <g id="layer1" transform="translate(0 -1036.4)">
  <g id="g4239">
   <path id="rect5882" d="m1 1037.4v22h22v-22zm1 1h20v15h-20z" style="fill:#414141"/>
   <path id="rect10683" d="m4 1040.4v11h1c0-2 1.5858-3 3-3s3 1 3 3h1v-2.3571c2.24e-4 -1.549-1.1638-2.3163-3.2-3.241 0 0 0.047152 5e-4 0.4 0 0.65285 0.1312 2.2114 0.5501 2.8 0.933-0.1571-0.5587-0.22562-1.4041-0.7-2.1116-0.47442-0.7074-2.5-2.1116-2.5-2.1116l0.1-0.049c0.089088-0.063 1.5125 1.203 2 1.0804-0.21624-0.5107-0.41518-0.9973-0.65-1.2768l0.3-0.049c0.57006 0.9294 0.74694 1.1363 1.35 1.8169 0.19955 0.09-0.04973-0.066 1.7-0.933v0.4418s-1.7 0.487-1.2 1.4241c0.35597 0.4805 0.63717 1.5876 1.2 1.7187 0 0 1.3601-1.9255 2.4-2.5535 0 0-0.35077-0.7995-0.35-1.2277 5.92e-4 -0.3286 0.25-0.933 0.25-0.933 0.0371 0.6217-0.0047 1.3057 0.45 1.9151l1.5-1.9151h0.55s-3.6014 3.7535-3.2 4.3705c0.63128-0.075 3.2-0.5401 3.2-0.5401v0.098c-1.675 0.5483-2.8738 1.0823-3.4 2.3572v3.1428h5v-11z" style="fill:#414141;opacity:.3"/>
  </g>
 </g>
</svg>
