<?xml version="1.0" encoding="UTF-8"?>
<svg id="svg7384" width="24" height="24" version="1.1" viewBox="0 0 24 24" xmlns="http://www.w3.org/2000/svg" xmlns:cc="http://creativecommons.org/ns#" xmlns:dc="http://purl.org/dc/elements/1.1/" xmlns:osb="http://www.openswatchbook.org/uri/2009/osb" xmlns:rdf="http://www.w3.org/1999/02/22-rdf-syntax-ns#" xmlns:xlink="http://www.w3.org/1999/xlink">
 <metadata id="metadata90">
  <rdf:RDF>
   <cc:Work rdf:about="">
    <dc:format>image/svg+xml</dc:format>
    <dc:type rdf:resource="http://purl.org/dc/dcmitype/StillImage"/>
    <dc:title/>
    <dc:contributor>
     <cc:Agent>
      <dc:title>Barbara Muraus, Jakub Steiner, Klaus Staedtler</dc:title>
     </cc:Agent>
    </dc:contributor>
    <dc:description>Images originally created as the "Art Libre" icon set. Extended and adopted for GIMP</dc:description>
   </cc:Work>
  </rdf:RDF>
 </metadata>
 <defs id="defs7386">
  <linearGradient id="linearGradient7027" x1="-157" x2="-144" y1="-14" y2="-14" gradientTransform="translate(1296.9 607.32)" gradientUnits="userSpaceOnUse">
   <stop id="stop19284-0" style="stop-color:#414141" offset="0"/>
  </linearGradient>
 </defs>
 <g id="emblem-videos" transform="matrix(1.5,0,0,1.5,-843,-573)">
  <g id="g1873">
   <rect id="rect24874-7-8" x="562" y="382" width="16" height="16" style="color:#414141;fill:none"/>
   <path id="rect5523" d="m564 382v2 12c0 2-1 2-1 2h1s1 0 1-1h1c0 1-1 1-1 1h1s1 0.33333 1-0.66667h6c0 1-0.67515 0.66667-1 0.66667h1s1 0 1-1h1c0 1-1 1-1 1h1s1 0 1-2v-12-2h-3v2 2h-6v-2-2zm1 1h1v1h-1zm9 0h1v1h-1zm-9 2h1v1h-1zm9 0h1v1h-1zm-9 2h1v1h-1zm2 0.33333h6v3.3333h-6zm7-0.33333h1v1h-1zm-9 2h1v1h-1zm9 0h1v1h-1zm-9 2h1v1h-1zm9 0h1v1h-1zm-7 1h6v4h-6zm-2 1h1v1h-1zm9 0h1v1h-1zm-9 2h1v1h-1zm9 0h1v1h-1z" style="color:#ffffff;enable-background:new;fill:url(#linearGradient7027)"/>
  </g>
 </g>
</svg>
