<?xml version="1.0" encoding="UTF-8"?>
<svg id="svg7384" width="24" height="24" version="1.1" viewBox="0 0 24 24" xmlns="http://www.w3.org/2000/svg" xmlns:cc="http://creativecommons.org/ns#" xmlns:dc="http://purl.org/dc/elements/1.1/" xmlns:osb="http://www.openswatchbook.org/uri/2009/osb" xmlns:rdf="http://www.w3.org/1999/02/22-rdf-syntax-ns#" xmlns:xlink="http://www.w3.org/1999/xlink">
 <metadata id="metadata90">
  <rdf:RDF>
   <cc:Work rdf:about="">
    <dc:format>image/svg+xml</dc:format>
    <dc:type rdf:resource="http://purl.org/dc/dcmitype/StillImage"/>
    <dc:title/>
    <dc:contributor>
     <cc:Agent>
      <dc:title>Barbara Muraus, Jakub Steiner, Klaus Staedtler</dc:title>
     </cc:Agent>
    </dc:contributor>
    <dc:description>Images originally created as the "Art Libre" icon set. Extended and adopted for GIMP</dc:description>
   </cc:Work>
  </rdf:RDF>
 </metadata>
 <defs id="defs7386">
  <linearGradient id="linearGradient19282-4" gradientTransform="matrix(.34683 0 0 .30621 -159.35 801.04)" osb:paint="solid">
   <stop id="stop19284-0" style="stop-color:#414141" offset="0"/>
  </linearGradient>
  <linearGradient id="linearGradient8264" x1="-2" x2="8" y1="-26" y2="-26" gradientTransform="matrix(1.6 0 0 1.5 1339.2 560.69)" gradientUnits="userSpaceOnUse" xlink:href="#linearGradient19282-4"/>
  <linearGradient id="linearGradient8270" x1="-5" x2="11" y1="-33" y2="-33" gradientTransform="matrix(1.5 0 0 1.7 1256.2 633.49)" gradientUnits="userSpaceOnUse" xlink:href="#linearGradient19282-4"/>
  <linearGradient id="linearGradient8276" x1="-2" x2="0" y1="-33" y2="-33" gradientTransform="matrix(2 0 0 1.8333 1673 682.35)" gradientUnits="userSpaceOnUse" xlink:href="#linearGradient19282-4"/>
  <linearGradient id="linearGradient8278" x1="2" x2="4" y1="-33" y2="-33" gradientTransform="matrix(2 0 0 1.8333 1671 682.35)" gradientUnits="userSpaceOnUse" xlink:href="#linearGradient19282-4"/>
  <linearGradient id="linearGradient8280" x1="6" x2="8" y1="-33" y2="-33" gradientTransform="matrix(2 0 0 1.8333 1669 682.35)" gradientUnits="userSpaceOnUse" xlink:href="#linearGradient19282-4"/>
 </defs>
 <g id="g4273">
  <path id="rect28283-2" d="m1.7813 2c-0.98168 0-1.7812 0.88755-1.7812 2.0188v12.962c0 1.1312 0.79958 2.0188 1.7812 2.0188h20.25c0.95021 0 1.9198-0.62082 1.9688-1.7l-0.09375-6.8 0.09375-6.8c-0.04899-1.0792-1.0185-1.7-1.9688-1.7h-8.9062zm1.6172 1h17.203c0.98168 0 2.3984 1.2688 2.3984 2.4v10.2c0 1.1312-1.5373 2.4807-2.5156 2.4h-17.203c-0.98168 0-2.2813-1.5876-2.2813-2.7188v-9.5625c0-1.1312 1.4168-2.7188 2.3984-2.7188z" style="fill:url(#linearGradient8270)"/>
  <rect id="rect28290-7" x="4" y="20" width="16" height="3" rx="1.9139" ry="1.7943" style="fill:url(#linearGradient8264)"/>
  <rect id="rect67589" x="4" y="5" width="4" height="11" rx="2.3924" ry="2.193" style="fill:url(#linearGradient8276);opacity:.3"/>
  <rect id="rect67591" x="10" y="5" width="4" height="11" rx="2.3924" ry="2.193" style="fill:url(#linearGradient8278);opacity:.3"/>
  <rect id="rect67593" x="16" y="5" width="4" height="11" rx="2.3924" ry="2.193" style="fill:url(#linearGradient8280);opacity:.3"/>
 </g>
</svg>
