<?xml version="1.0" encoding="UTF-8"?>
<svg id="svg30571" width="24" height="24" version="1.1" viewBox="0 0 24 24" xmlns="http://www.w3.org/2000/svg" xmlns:cc="http://creativecommons.org/ns#" xmlns:dc="http://purl.org/dc/elements/1.1/" xmlns:rdf="http://www.w3.org/1999/02/22-rdf-syntax-ns#">
 <metadata id="metadata30576">
  <rdf:RDF>
   <cc:Work rdf:about="">
    <dc:format>image/svg+xml</dc:format>
    <dc:type rdf:resource="http://purl.org/dc/dcmitype/StillImage"/>
    <dc:creator>
     <cc:Agent>
      <dc:title>Klaus Staedtler</dc:title>
     </cc:Agent>
    </dc:creator>
    <dc:title/>
   </cc:Work>
  </rdf:RDF>
 </metadata>
 <g id="layer1" transform="translate(0 -1028.4)">
  <g id="g4302">
   <g id="tfqwd" transform="matrix(1.125 0 0 1.1249 -110.62 719.77)">
    <rect id="rect8585" x="101" y="277" width="16" height="16" style="color:#414141;enable-background:new;fill:none"/>
   </g>
   <path id="path8587" d="m12 1030.9c-2.7585 0-5 2.2416-5 5.0001s2.2415 4.9999 5 4.9999c2.7585 0 5-2.2414 5-4.9999s-2.2415-5.0001-5-5.0001zm0 1.3178c2.0366 0 3.6822 1.6456 3.6822 3.6823 0 2.0365-1.6456 3.6821-3.6822 3.6821-2.0366 0-3.6822-1.6456-3.6822-3.6821 0-2.0367 1.6456-3.6823 3.6822-3.6823z" style="color:#ffffff;enable-background:new;fill:#414141;text-decoration-line:none;text-indent:0;text-transform:none"/>
   <ellipse id="path14494" cx="7" cy="1044.4" rx="2.5" ry="2.4998" style="fill:#414141;opacity:.3"/>
   <circle id="path14496" cx="17" cy="1044.4" r="2.5" style="fill:#414141"/>
   <path id="rect28283-2" d="m1.5 1028.4c-0.98168 0-1.5-0.097-1.5 1.4998v20.998c0 1.5968 0.51832 1.4999 1.5 1.4999h21c0.95021 0 1.451 0.024 1.5-1.4999v-20.998c-0.04899-1.5234-0.54979-1.4998-1.5-1.4998h-10.5zm3 0.9988h15c2.3959 0 3.5 1.1433 3.5 3.8007v14.399c0 2.7017-0.92734 3.8007-3.5 3.8007h-15c-2.4196 0-3.5-1.1538-3.5-4.2506v-13.499c0-3.1878 1.0599-4.2507 3.5-4.2507z" style="fill:#414141"/>
   <path id="path8587-6" d="m7 1039.4c-2.7585 0-5 2.2416-5 5.0001s2.2415 4.9999 5 4.9999c2.7585 0 5-2.2414 5-4.9999s-2.2415-5.0001-5-5.0001zm0 1.3178c2.0366 0 3.6822 1.6456 3.6822 3.6823 0 2.0365-1.6456 3.6821-3.6822 3.6821-2.0366 0-3.6822-1.6456-3.6822-3.6821 0-2.0367 1.6456-3.6823 3.6822-3.6823z" style="color:#ffffff;enable-background:new;fill:#414141;text-decoration-line:none;text-indent:0;text-transform:none"/>
   <path id="path8587-5" d="m17 1039.4c-2.7585 0-5 2.2416-5 5.0001s2.2415 4.9999 5 4.9999c2.7585 0 5-2.2414 5-4.9999s-2.2415-5.0001-5-5.0001zm0 1.3178c2.0366 0 3.6822 1.6456 3.6822 3.6823 0 2.0365-1.6456 3.6821-3.6822 3.6821-2.0366 0-3.6822-1.6456-3.6822-3.6821 0-2.0367 1.6456-3.6823 3.6822-3.6823z" style="color:#ffffff;enable-background:new;fill:#414141;text-decoration-line:none;text-indent:0;text-transform:none"/>
  </g>
 </g>
</svg>
