<?xml version="1.0" encoding="UTF-8"?>
<svg id="svg7384" width="24" height="24" version="1.1" viewBox="0 0 24 24" xmlns="http://www.w3.org/2000/svg" xmlns:cc="http://creativecommons.org/ns#" xmlns:dc="http://purl.org/dc/elements/1.1/" xmlns:osb="http://www.openswatchbook.org/uri/2009/osb" xmlns:rdf="http://www.w3.org/1999/02/22-rdf-syntax-ns#" xmlns:xlink="http://www.w3.org/1999/xlink">
 <metadata id="metadata90">
  <rdf:RDF>
   <cc:Work rdf:about="">
    <dc:format>image/svg+xml</dc:format>
    <dc:type rdf:resource="http://purl.org/dc/dcmitype/StillImage"/>
    <dc:title/>
    <dc:contributor>
     <cc:Agent>
      <dc:title>Barbara Muraus, Jakub Steiner, Klaus Staedtler</dc:title>
     </cc:Agent>
    </dc:contributor>
    <dc:description>Images originally created as the "Art Libre" icon set. Extended and adopted for GIMP</dc:description>
   </cc:Work>
  </rdf:RDF>
 </metadata>
 <defs id="defs7386">
  <linearGradient id="linearGradient19282-4" gradientTransform="matrix(.34683 0 0 .30621 -154.35 -275.32)" osb:paint="solid">
   <stop id="stop19284-0" style="stop-color:#bebebe" offset="0"/>
  </linearGradient>
  <linearGradient id="linearGradient10144-7" x1="-118" x2="-106" y1="429.98" y2="429.98" gradientTransform="matrix(1.4995 0 0 1.5033 965.51 -306.88)" gradientUnits="userSpaceOnUse" xlink:href="#linearGradient19282-4"/>
  <linearGradient id="linearGradient10142-0" x1="124" x2="134" y1="642.5" y2="642.5" gradientTransform="matrix(1.5 0 0 1.5 603.51 -631.26)" gradientUnits="userSpaceOnUse" xlink:href="#linearGradient19282-4"/>
 </defs>
 <g id="g4164">
  <rect id="rect5524-7" x="-5.6543e-7" y="-2.6074e-5" width="24" height="24" style="fill:none"/>
  <g id="g4160" transform="matrix(1.0556 0 0 1.0476 -1.1666 -.5716)">
   <path id="path6822-9" d="m5.3429 1.5012c-1.2849 0-2.3429 1.0608-2.3429 2.3488v14.798c0 2.4177 2.2295 3.8007 3.5144 3.8052l14.479 0.0465v-15.249l-14.678-0.0465c-2.9292 0.0465-3.3525-4.7023 0-4.7494h14.678s0.18744-1.0004-1.4995-0.95349z" style="color:#000000;enable-background:new;fill:url(#linearGradient10144-7)"/>
   <path id="path6826-8" d="m3.9473 7.2274h15c-2.0281-0.79695-1.8862-3.9216 0-4.7727h-15z" style="color:#000000;enable-background:new;fill:url(#linearGradient10142-0);opacity:.3"/>
  </g>
 </g>
</svg>
