<?xml version="1.0" encoding="UTF-8"?>
<!-- Created with Inkscape (http://www.inkscape.org/) -->
<svg id="svg30571" width="24" height="24" version="1.1" viewBox="0 0 24 24" xmlns="http://www.w3.org/2000/svg" xmlns:cc="http://creativecommons.org/ns#" xmlns:dc="http://purl.org/dc/elements/1.1/" xmlns:osb="http://www.openswatchbook.org/uri/2009/osb" xmlns:rdf="http://www.w3.org/1999/02/22-rdf-syntax-ns#" xmlns:xlink="http://www.w3.org/1999/xlink">
 <defs id="defs30573">
  <linearGradient id="linearGradient7248" x1="461.04" x2="477.04" y1="117.56" y2="117.56" gradientTransform="matrix(1.5 0 0 1.5 -690.56 863.03)" gradientUnits="userSpaceOnUse">
   <stop id="stop19284-0" style="stop-color:#bebebe" offset="0"/>
  </linearGradient>
 </defs>
 <metadata id="metadata30576">
  <rdf:RDF>
   <cc:Work rdf:about="">
    <dc:format>image/svg+xml</dc:format>
    <dc:type rdf:resource="http://purl.org/dc/dcmitype/StillImage"/>
    <dc:title/>
    <dc:creator>
     <cc:Agent>
      <dc:title>Klaus Staedtler</dc:title>
     </cc:Agent>
    </dc:creator>
   </cc:Work>
  </rdf:RDF>
 </metadata>
 <g id="layer1" transform="translate(0 -1028.4)">
  <g id="g4274">
   <rect id="rect6296" x=".0008044" y="1036.4" width="15.999" height="16" style="fill:none"/>
   <path id="rect6300" d="m1 1029.4v22h22v-22h-20.5zm1 1h6v6h-6zm7 0h6v6h-6zm7 0h6v6h-6zm-14 7h6v6h-6zm7 0h6v6h-6zm7 0h6v6h-6zm-14 7h6v6h-6zm7 0h6v6h-6zm7 0h6v6h-6z" style="fill:url(#linearGradient7248)"/>
  </g>
 </g>
</svg>
