<?xml version="1.0" encoding="UTF-8"?>
<!-- Created with Inkscape (http://www.inkscape.org/) -->
<svg id="svg11300" width="24" height="24" version="1.0" viewBox="0 0 24 24" xmlns="http://www.w3.org/2000/svg" xmlns:cc="http://creativecommons.org/ns#" xmlns:dc="http://purl.org/dc/elements/1.1/" xmlns:rdf="http://www.w3.org/1999/02/22-rdf-syntax-ns#" xmlns:xlink="http://www.w3.org/1999/xlink">
 <defs id="defs3">
  <radialGradient id="radialGradient8095-9" cx="24.226" cy="30.48" r="13.354" gradientTransform="matrix(1.0902 0 0 .46664 -14.376 -6.808)" gradientUnits="userSpaceOnUse">
   <stop id="stop8091" style="stop-opacity:.27835" offset="0"/>
   <stop id="stop8093" style="stop-color:#a8a8a8;stop-opacity:0" offset="1"/>
  </radialGradient>
  <linearGradient id="linearGradient3588-9" x1="23.434" x2="23.434" y1="15.759" y2="8.0477" gradientTransform="matrix(.5922 0 0 .56819 -2.265 -3.2953)" gradientUnits="userSpaceOnUse">
   <stop id="stop3235" style="stop-color:#eeeeec" offset="0"/>
   <stop id="stop3237" style="stop-color:#a3a398" offset="1"/>
  </linearGradient>
 </defs>
 <metadata id="metadata4">
  <rdf:RDF>
   <cc:Work rdf:about="">
    <dc:format>image/svg+xml</dc:format>
    <dc:type rdf:resource="http://purl.org/dc/dcmitype/StillImage"/>
    <dc:creator>
     <cc:Agent>
      <dc:title/>
     </cc:Agent>
    </dc:creator>
    <dc:source>http://jimmac.musichall.cz</dc:source>
    <cc:license rdf:resource="http://creativecommons.org/licenses/by-sa/2.0/"/>
    <dc:title/>
   </cc:Work>
   <cc:License rdf:about="http://creativecommons.org/licenses/by-sa/2.0/">
    <cc:permits rdf:resource="http://web.resource.org/cc/Reproduction"/>
    <cc:permits rdf:resource="http://web.resource.org/cc/Distribution"/>
    <cc:requires rdf:resource="http://web.resource.org/cc/Notice"/>
    <cc:requires rdf:resource="http://web.resource.org/cc/Attribution"/>
    <cc:permits rdf:resource="http://web.resource.org/cc/DerivativeWorks"/>
    <cc:requires rdf:resource="http://web.resource.org/cc/ShareAlike"/>
   </cc:License>
  </rdf:RDF>
 </metadata>
 <g id="g4278">
  <g id="g4006" transform="matrix(.95154 0 0 1.0417 -8.4998 -5.2063)">
   <path id="path3068" d="m21.465 5.5c-4.896 0-8.8769 1.7334-8.8769 3.8658v14.304c0 2.1324 3.981 3.8658 8.8769 3.8658 4.896 0 9.0355-1.7334 9.0355-3.8658v-14.304c0-2.1324-4.1395-3.8658-9.0355-3.8658z" style="color:#000000;display:block;fill:#babdb6;stroke-miterlimit:10;stroke-width:1.0042;stroke:#767973"/>
   <ellipse id="path3241" transform="matrix(.61236 0 0 .50902 6.9302 16.538)" cx="24" cy="14.071" rx="12.857" ry="5.5" style="color:#000000;display:block;fill:#d3d7cf;opacity:.23626;stroke-miterlimit:10;stroke-width:1.7911;stroke:url(#linearGradient3594)"/>
   <path id="path4174" d="m21.471 6.5c-4.3507 0-7.8883 1.5424-7.8883 3.4398v13.061c0 1.8974 3.5376 3.4398 7.8883 3.4398 4.3507 0 8.0291-1.5424 8.0291-3.4398v-13.061c0-1.8974-3.6784-3.4398-8.0291-3.4398z" style="color:#000000;display:block;fill:none;opacity:.5443;stroke-miterlimit:10;stroke:url(#linearGradient3592)"/>
  </g>
  <path id="rect145_1_" d="m10.409 11.473h3.1817c0.77793 0 1.409 0.23017 1.409 0.51429v1.1612c0 0.28389-0.63073 0.51409-1.409 0.51409h-3.1817c-0.77882 0-1.4093-0.23017-1.4093-0.51409v-1.1612c0-0.28389 0.63073-0.51429 1.4093-0.51429z" style="fill:#73d216;stroke-width:.15787"/>
  <path id="rect146_1_" d="m10.409 5.8253h3.1817c0.77793 0 1.409 0.23017 1.409 0.51429v1.1612c0 0.28389-0.63073 0.51409-1.409 0.51409h-3.1817c-0.77882 0-1.4093-0.23017-1.4093-0.51409v-1.1612c0-0.28389 0.63073-0.51429 1.4093-0.51429z" style="fill:#f57900;stroke-width:.15787"/>
  <path id="rect147_3_" d="m10.409 14.296h3.1817c0.77793 0 1.409 0.23017 1.409 0.51409v1.1611c0 0.28389-0.63073 0.51429-1.409 0.51429h-3.1817c-0.77882 0-1.4093-0.23017-1.4093-0.51429v-1.1611c0-0.28389 0.63073-0.51409 1.4093-0.51409z" style="fill:#3465a4;stroke-width:.15787"/>
  <path id="rect302_1_" d="m10.409 3.0017h3.1817c0.77793 0 1.409 0.23017 1.409 0.51409v1.1612c0 0.28389-0.63073 0.51419-1.409 0.51419h-3.1817c-0.77882 0-1.4093-0.23017-1.4093-0.51419v-1.1612c0-0.28389 0.63073-0.51409 1.4093-0.51409z" style="fill:#edd400;stroke-width:.15787"/>
  <path id="rect306_1_" d="m10.409 8.649h3.1817c0.77793 0 1.409 0.23017 1.409 0.51419v1.1611c0 0.28389-0.63073 0.51422-1.409 0.51422h-3.1817c-0.77882 0-1.4093-0.23017-1.4093-0.51422v-1.1611c0-0.28421 0.63073-0.51419 1.4093-0.51419z" style="fill:#c17d11;stroke-width:.15787"/>
  <path id="rect147_2_" d="m10.409 17.049h3.1817c0.77793 0 1.409 0.23017 1.409 0.51409v1.1611c0 0.28421-0.63073 0.51429-1.409 0.51429h-3.1817c-0.77882 0-1.4093-0.23017-1.4093-0.51429v-1.1611c0-0.28389 0.63073-0.51409 1.4093-0.51409z" style="fill:#75507b;stroke-width:.15787"/>
  <path id="rect182_1_" d="m10.409 19.809h3.1817c0.77792 0 1.409 0.23048 1.409 0.51424v1.1611c0 0.28386-0.63073 0.51424-1.409 0.51424h-3.1817c-0.77882 0-1.4093-0.23048-1.4093-0.51424v-1.1611c0-0.28386 0.63073-0.51424 1.4093-0.51424z" style="fill:#c00;stroke-width:.15786"/>
  <rect id="rect4060" x=".51098" y=".5132" width="22.978" height="22.974" style="color-rendering:auto;color:#000000;image-rendering:auto;isolation:auto;mix-blend-mode:normal;opacity:0;shape-rendering:auto;solid-color:#000000;stroke-width:1.022"/>
  <ellipse id="path3364-0" cx="11.948" cy="4.7" rx="7.614" ry="3.1251" style="color:#000000;display:block;fill:url(#radialGradient8095-9);opacity:.7732;stroke-miterlimit:10;stroke-width:.9957;stroke:url(#linearGradient3588-9)"/>
 </g>
</svg>
