<?xml version="1.0" encoding="UTF-8"?>
<!-- Created with Inkscape (http://www.inkscape.org/) -->
<svg id="svg1306" width="24" height="24" version="1.1" viewBox="0 0 24 24" xmlns="http://www.w3.org/2000/svg" xmlns:cc="http://creativecommons.org/ns#" xmlns:dc="http://purl.org/dc/elements/1.1/" xmlns:rdf="http://www.w3.org/1999/02/22-rdf-syntax-ns#" xmlns:xlink="http://www.w3.org/1999/xlink">
 <defs id="defs1308">
  <linearGradient id="linearGradient4207" x1="37.018" x2="27.754" y1="19.24" y2="11.182" gradientTransform="matrix(-.11769 -.5282 .5282 -.11769 46.224 49.691)" gradientUnits="userSpaceOnUse">
   <stop id="stop6953" style="stop-color:#6e3d09" offset="0"/>
   <stop id="stop6959" style="stop-color:#ea8113" offset=".24242"/>
   <stop id="stop6961" style="stop-color:#5c3307" offset=".62121"/>
   <stop id="stop6955" style="stop-color:#e07c12" offset="1"/>
  </linearGradient>
  <linearGradient id="linearGradient4204" x1="19.395" x2="23.109" y1="30.001" y2="33.439" gradientTransform="matrix(-.11769 -.5282 .5282 -.11769 40.564 46.875)" gradientUnits="userSpaceOnUse">
   <stop id="stop6941" style="stop-color:#bdbdbd" offset="0"/>
   <stop id="stop6947" style="stop-color:#e2e2e2" offset=".33333"/>
   <stop id="stop6949" style="stop-color:#a3a3a3" offset=".66667"/>
   <stop id="stop6943" style="stop-color:#ddd" offset="1"/>
  </linearGradient>
  <radialGradient id="radialGradient4201" cx="15.415" cy="35.357" r="7.5792" gradientTransform="matrix(-.093891 -1.4061 1.3703 -.0915 18.284 59.789)" gradientUnits="userSpaceOnUse">
   <stop id="stop6965" style="stop-color:#696969" offset="0"/>
   <stop id="stop6967" offset="1"/>
  </radialGradient>
  <linearGradient id="linearGradient4197" x1="13.236" x2="7.7521" y1="37.752" y2="42.282" gradientTransform="matrix(.11984 -.44538 .44538 .11984 42.084 34.308)" gradientUnits="userSpaceOnUse">
   <stop id="stop2448" style="stop-color:#fff" offset="0"/>
   <stop id="stop2450" style="stop-color:#fff;stop-opacity:0" offset="1"/>
  </linearGradient>
  <linearGradient id="linearGradient4500" x1="14.969" x2="39.525" y1="19.111" y2="46.986" gradientUnits="userSpaceOnUse">
   <stop id="stop8526" style="stop-color:#fff" offset="0"/>
   <stop id="stop8528" style="stop-color:#fff;stop-opacity:0" offset="1"/>
  </linearGradient>
  <linearGradient id="linearGradient4498" x1="6.3052" x2="5.9846" y1="23.362" y2="31.57" gradientUnits="userSpaceOnUse">
   <stop id="stop6454" style="stop-color:#fff" offset="0"/>
   <stop id="stop6456" style="stop-color:#fff;stop-opacity:0" offset="1"/>
  </linearGradient>
  <radialGradient id="radialGradient4496" cx="6.0242" cy="25.271" r="4.831" gradientTransform="matrix(.91616 .093187 -.10876 1.0693 3.2537 -3.0293)" gradientUnits="userSpaceOnUse">
   <stop id="stop8544" style="stop-color:#5b676b" offset="0"/>
   <stop id="stop8546" style="stop-color:#141718" offset="1"/>
  </radialGradient>
  <radialGradient id="radialGradient4494" cx="69.473" cy="19.598" r="3.5153" gradientTransform="matrix(1.3185 0 0 1.3185 -22.126 -6.2417)" gradientUnits="userSpaceOnUse">
   <stop id="stop6470" style="stop-color:#fff" offset="0"/>
   <stop id="stop6472" style="stop-color:#b9b9b0" offset="1"/>
  </radialGradient>
  <radialGradient id="radialGradient4491" cx="18.558" cy="22.3" r="19.229" gradientTransform="matrix(1.7728 0 0 1.2967 -16.34 -6.616)" gradientUnits="userSpaceOnUse">
   <stop id="stop6502" style="stop-color:#857c63" offset="0"/>
   <stop id="stop6504" style="stop-color:#221f19" offset="1"/>
  </radialGradient>
  <linearGradient id="linearGradient4488" x1="32.35" x2="21.213" y1="28.083" y2="30.293" gradientTransform="translate(-3.8366 .34597)" gradientUnits="userSpaceOnUse">
   <stop id="stop6484" offset="0"/>
   <stop id="stop6486" style="stop-opacity:0" offset="1"/>
  </linearGradient>
  <linearGradient id="linearGradient4310" x1="23.215" x2="26.204" y1="32.431" y2="37.287" gradientUnits="userSpaceOnUse">
   <stop id="stop4360" style="stop-color:#3465a4" offset="0"/>
   <stop id="stop4362" style="stop-color:#fff" offset="1"/>
  </linearGradient>
  <linearGradient id="linearGradient4310-2" x1="23.215" x2="26.204" y1="32.431" y2="37.287" gradientTransform="rotate(180 13.988 35.93)" gradientUnits="userSpaceOnUse">
   <stop id="stop4304" style="stop-color:#3465a4" offset="0"/>
   <stop id="stop4306" style="stop-color:#fff" offset="1"/>
  </linearGradient>
 </defs>
 <metadata id="metadata1311">
  <rdf:RDF>
   <cc:Work rdf:about="">
    <dc:format>image/svg+xml</dc:format>
    <dc:type rdf:resource="http://purl.org/dc/dcmitype/StillImage"/>
    <dc:title/>
    <dc:creator>
     <cc:Agent>
      <dc:title>Jakub Steiner, Andreas Nilsson</dc:title>
     </cc:Agent>
    </dc:creator>
    <dc:source>http://www.gnome.org</dc:source>
    <dc:contributor>
     <cc:Agent>
      <dc:title/>
     </cc:Agent>
    </dc:contributor>
    <cc:license rdf:resource="http://creativecommons.org/licenses/GPL/2.0/"/>
   </cc:Work>
   <cc:License rdf:about="http://creativecommons.org/licenses/GPL/2.0/">
    <cc:permits rdf:resource="http://web.resource.org/cc/Reproduction"/>
    <cc:permits rdf:resource="http://web.resource.org/cc/Distribution"/>
    <cc:requires rdf:resource="http://web.resource.org/cc/Notice"/>
    <cc:permits rdf:resource="http://web.resource.org/cc/DerivativeWorks"/>
    <cc:requires rdf:resource="http://web.resource.org/cc/ShareAlike"/>
    <cc:requires rdf:resource="http://web.resource.org/cc/SourceCode"/>
   </cc:License>
  </rdf:RDF>
 </metadata>
 <g id="layer1" transform="translate(-1.9884 -23.93)">
  <g id="g4358">
   <path id="path2043-2" d="m16.681 44.566-3.5804-3.0733v1.5287c-0.0914 0.0047-0.18099 0.01592-0.27295 0.01592-4.1123-1e-6 -7.4499-3.3102-7.4499-7.3888 0-2.9646 1.7604-5.5275 4.303-6.704l-1.3808-2.7071c-3.5457 1.6819-6.0049 5.2552-6.0049 9.4111 0 5.7663 4.7186 10.446 10.533 10.446 0.09133 0 0.18149-0.01285 0.27295-0.01592v1.5446z" style="color:#000000;fill-rule:evenodd;fill:url(#linearGradient4310-2);stroke-linecap:round;stroke-linejoin:round;stroke-width:.61401;stroke:#555753"/>
   <g id="g4412">
    <path id="path2043" d="m11.295 27.294 3.5804 3.0733v-1.5287c0.0914-0.0047 0.18099-0.01592 0.27295-0.01592 4.1123 1e-6 7.4499 3.3102 7.4499 7.3888 0 2.9646-1.7604 5.5275-4.303 6.704l1.3808 2.7071c3.5457-1.6819 6.0049-5.2552 6.0049-9.4111 0-5.7663-4.7186-10.446-10.533-10.446-0.09133 0-0.18149 0.01285-0.27295 0.01592v-1.5446z" style="color:#000000;fill-rule:evenodd;fill:url(#linearGradient4310);stroke-linecap:round;stroke-linejoin:round;stroke-width:.61401;stroke:#555753"/>
    <g id="g4146" transform="matrix(.41839 0 0 .41839 4.2752 25.07)">
     <path id="path4323" d="m10.374 12.468s2.8745 5.9276 9.5992 5.7604c14.093-0.35355 16.564-7.705 16.917-8.7656 0.35355-1.0607 0.89453-0.9 1.0196 0.080267 4.5962 41.719-31.897 23.819-33.193 16.714 7.2478-2.1213 5.4801-6.1872 5.4801-6.1872z" style="color:#000000;fill-rule:evenodd;fill:url(#radialGradient4491);stroke-miterlimit:10;stroke-width:1.2871;stroke:#2e3436"/>
     <path id="path6480" d="m15.738 30.066c6.7389 1.3478 10.171 0.09809 12.179-1.4528-0.53033-0.68501-1.4363-1.4363-1.4363-1.4363s1.3114 0.24788 2.1655 1.149c0.58462 0.61681 0.63826 1.6132 0.51041 2.9779-0.12786-0.57988-0.34142-0.94098-0.50726-1.3509-1.8063 2.1876-6.7042 2.3048-12.912 0.11309z" style="color:#000000;fill-rule:evenodd;fill:url(#linearGradient4488)"/>
     <path id="path8520" d="m36.963 11.805c-0.55973 0.93448-1.4014 2.057-2.6934 3.1309-2.6272 2.1838-7.0384 4.1838-14.27 4.3652-4.2258 0.10509-6.9501-1.9546-8.623-3.7734l-0.10547 4.4805c0.13481 0.41832 0.39306 1.3965-0.08789 2.7246-0.51664 1.4267-2.1627 2.8665-4.9707 3.9746 0.24902 0.52274 0.48172 1.0729 1.2402 1.8145 1.0281 1.0051 2.4782 2.0819 4.1777 3.0566 3.399 1.9495 7.8047 3.4886 11.91 3.5586 4.1054 0.06998 7.8371-1.2254 10.418-4.9902 2.3834-3.4769 3.6951-9.381 3.0039-18.342z" style="color:#000000;fill:none;opacity:.18539;stroke-miterlimit:10;stroke-width:1.2871;stroke:url(#linearGradient4500)" xlink:href="#path4323"/>
     <ellipse id="path5198" transform="rotate(-35.808 3.3629 26.345)" cx="6.0988" cy="27.229" rx="4.331" ry="6.0988" style="color:#000000;fill-rule:evenodd;fill:url(#radialGradient4496);stroke-miterlimit:10;stroke-width:1.2871;stroke:#000"/>
     <path id="path6450" transform="rotate(-36.833 3.7663 26.285)" d="m5.6289 19.877c-0.73936-0.039616-1.5277 0.3517-2.1914 1.2012-0.93389 1.7907-0.91733 4.6709 0.058594 6.4043a1.0445 1.0445 0 0 1 0.10352 0.26172c0.41061 1.6661 1.4339 2.8616 2.3965 3.1895 0.93921 0.31989 1.935-0.02541 2.7676-1.0957 0.93082-1.7916 0.91291-4.6672-0.0625-6.3984a1.0445 1.0445 0 0 1-0.10352-0.26172c-0.24628-0.99875-0.70955-1.8601-1.2539-2.4277s-1.1433-0.84225-1.7148-0.87305z" style="color:#000000;fill:none;opacity:.2809;stroke-miterlimit:10;stroke-width:1.2871;stroke:url(#linearGradient4498)" xlink:href="#path5198"/>
     <ellipse id="path6446" cx="4.0659" cy="23.251" rx="1.7678" ry="2.1213" style="color:#000000;fill-rule:evenodd;fill:#fff"/>
     <circle id="path6460" transform="translate(-55.861)" cx="69.473" cy="21.837" r="3.182" style="color:#000000;fill-rule:evenodd;fill:#eeeeec;stroke-miterlimit:10;stroke-width:1.2871;stroke:#888a85"/>
     <circle id="path6462" transform="matrix(1.5 0 0 1.5 -82.168 -10.919)" cx="69.473" cy="21.837" r="3.182" style="color:#000000;fill-rule:evenodd;fill:url(#radialGradient4494);stroke-miterlimit:10;stroke-width:.85807;stroke:#888a85"/>
     <circle id="path6464" transform="translate(1.4142 .70711)" cx="21.744" cy="21.837" r="2.2981" style="color:#000000;fill-rule:evenodd;fill:#2e3436;stroke-miterlimit:10;stroke-width:1.2871;stroke:#000"/>
     <circle id="path6466" transform="matrix(.9 0 0 .9 3.0229 2.6256)" cx="21.39" cy="20.953" r="1.7678" style="color:#000000;fill-rule:evenodd;fill:#fff"/>
     <circle id="path6476" transform="matrix(.61538 0 0 .61538 1.2589 8.8408)" cx="21.744" cy="21.837" r="2.2981" style="color:#000000;fill-rule:evenodd;fill:#2e3436;stroke-miterlimit:10;stroke-width:2.0916;stroke:#000"/>
     <circle id="path6478" transform="matrix(.55385 0 0 .55385 2.2488 10.021)" cx="21.39" cy="20.953" r="1.7678" style="color:#000000;fill-rule:evenodd;fill:#fff"/>
     <path id="path6937" d="m35.763 35.714 1.529-2.5949c-2.7518-1.7831-6.1073-2.7228-8.6249-3.7237l-1.3926 0.9569c2.4114 1.559 5.3776 3.6737 8.4885 5.3617z" style="color:#000000;fill:url(#linearGradient4207);stroke-linecap:round;stroke-width:1.2871;stroke:#673907"/>
     <path id="path6935" d="m42.123 38.651 0.75708-1.4141-4.8907-3.6188-0.40519-0.06222-0.13821-0.57596c-0.77382 0.41497-1.9692 2.0696-1.7485 3.0599l0.56612-0.17161 0.27958 0.30916z" style="color:#000000;fill:url(#linearGradient4204);stroke-linecap:round;stroke-width:1.2871;stroke:#888a85"/>
     <path id="path6933" d="m47.54 46.274c-0.39434-5.9055 0.0097-10.434-4.3435-10.996-3.5081-0.45256-4.8492 4.4192-1.6007 6.572 3.1294 2.0739 5.9442 4.4239 5.9442 4.4239z" style="color:#000000;fill:url(#radialGradient4201)"/>
     <circle id="path6971" transform="matrix(-.23154 -1.0392 1.0392 -.23154 5.2543 54.099)" cx="7.625" cy="37.75" r="1.25" style="color:#000000;fill:#fff;opacity:.52778"/>
     <path id="path1571" d="m46.541 41.779s-0.47916-2.7903-1.9382-3.2546c-0.51619-0.16425-0.13552-0.85363 0.40214-0.58383 1.1613 0.58276 1.536 3.8384 1.536 3.8384z" style="color:#000000;fill:url(#linearGradient4197);opacity:.42778"/>
     <path id="path4219" d="m35.587 33.173s-2.2539-1.1049-5.3917-2.2539" style="color:#000000;fill:none;opacity:.17526;stroke-linecap:round;stroke-linejoin:round;stroke-width:1.2871;stroke:#fff"/>
    </g>
   </g>
  </g>
 </g>
</svg>
