<?xml version="1.0" encoding="UTF-8"?>
<!-- Created with Inkscape (http://www.inkscape.org/) -->
<svg id="svg97" width="24" height="24" version="1.1" viewBox="0 0 24 24" xmlns="http://www.w3.org/2000/svg" xmlns:cc="http://creativecommons.org/ns#" xmlns:dc="http://purl.org/dc/elements/1.1/" xmlns:rdf="http://www.w3.org/1999/02/22-rdf-syntax-ns#" xmlns:xlink="http://www.w3.org/1999/xlink">
 <defs id="defs3">
  <linearGradient id="linearGradient3104-5" x1="18.113" x2="15.515" y1="31.368" y2="6.1803" gradientTransform="matrix(.60082 0 0 .60099 -1.8364 23.945)" gradientUnits="userSpaceOnUse">
   <stop id="stop3098" style="stop-color:#424242" offset="0"/>
   <stop id="stop3100" style="stop-color:#777" offset="1"/>
  </linearGradient>
  <linearGradient id="linearGradient9772" x1="22.176" x2="22.065" y1="36.988" y2="32.05" gradientTransform="matrix(.58583 0 0 .59874 -1.3064 24.343)" gradientUnits="userSpaceOnUse">
   <stop id="stop9768" style="stop-color:#6194cb" offset="0"/>
   <stop id="stop9770" style="stop-color:#729fcf" offset="1"/>
  </linearGradient>
  <linearGradient id="linearGradient322-1" x1="13.036" x2="12.854" y1="32.567" y2="46.689" gradientTransform="matrix(.77184 0 0 .50169 -1.8879 23.336)" gradientUnits="userSpaceOnUse" xlink:href="#linearGradient8340"/>
  <linearGradient id="linearGradient8340">
   <stop id="stop8342" stop-color="#fff" stop-opacity=".79608" offset="0"/>
   <stop id="stop8344" stop-color="#fff" stop-opacity=".21569" offset="1"/>
  </linearGradient>
  <linearGradient id="linearGradient4109" x1="22.965" x2="12.641" y1="35.311" y2="11.424" gradientTransform="rotate(-15 628.34 -6539.8)" gradientUnits="userSpaceOnUse">
   <stop id="stop2905" stop-color="#888a85" offset="0"/>
   <stop id="stop2907" stop-color="#d3d7cf" offset="1"/>
  </linearGradient>
  <linearGradient id="linearGradient3114" x1="17.413" x2="17.028" y1="7.8708" y2="52.505" gradientTransform="rotate(-15 628.34 -6539.8)" gradientUnits="userSpaceOnUse" xlink:href="#linearGradient8340"/>
  <radialGradient id="radialGradient3116" cx="31" cy="12" r="11.125" gradientTransform="matrix(.97747 -.26191 .26191 .97747 1704.3 -52.578)" gradientUnits="userSpaceOnUse">
   <stop id="stop8439" offset="0"/>
   <stop id="stop8441" style="stop-opacity:0" offset="1"/>
  </radialGradient>
  <linearGradient id="linearGradient4111" x1="21.788" x2="10.211" y1="21.877" y2="3.4233" gradientTransform="matrix(.90911 -.24359 .24359 .90911 1715.4 -59.551)" gradientUnits="userSpaceOnUse">
   <stop id="stop2897-4" stop-color="#d3d7cf" offset="0"/>
   <stop id="stop2899-5" stop-color="#888a85" offset="1"/>
  </linearGradient>
  <linearGradient id="linearGradient3120" x1="16.488" x2="32.567" y1="13.971" y2="30.758" gradientTransform="rotate(-15 728.25 -7361.8)" gradientUnits="userSpaceOnUse" xlink:href="#linearGradient8340"/>
  <linearGradient id="linearGradient3122" x1="28.357" x2="17.732" y1="22.795" y2="5.1875" gradientTransform="rotate(-15 1533.7 -15797)" gradientUnits="userSpaceOnUse" xlink:href="#linearGradient8340"/>
 </defs>
 <metadata id="metadata4">
  <rdf:RDF>
   <cc:Work rdf:about="">
    <dc:format>image/svg+xml</dc:format>
    <dc:type rdf:resource="http://purl.org/dc/dcmitype/StillImage"/>
    <dc:title/>
    <dc:date/>
    <dc:creator>
     <cc:Agent>
      <dc:title>Jakub Steiner</dc:title>
     </cc:Agent>
    </dc:creator>
    <cc:license rdf:resource="http://creativecommons.org/publicdomain/zero/1.0/"/>
    <dc:source>http://jimmac.musichall.cz</dc:source>
    <dc:subject>
     <rdf:Bag>
      <rdf:li>folder</rdf:li>
      <rdf:li>directory</rdf:li>
     </rdf:Bag>
    </dc:subject>
   </cc:Work>
   <cc:License rdf:about="http://creativecommons.org/publicdomain/zero/1.0/">
    <cc:permits rdf:resource="http://creativecommons.org/ns#Reproduction"/>
    <cc:permits rdf:resource="http://creativecommons.org/ns#Distribution"/>
    <cc:permits rdf:resource="http://creativecommons.org/ns#DerivativeWorks"/>
   </cc:License>
  </rdf:RDF>
 </metadata>
 <g id="g4355" transform="matrix(.99984 0 0 1 .0038544 0)">
  <path id="path216-5" transform="translate(0,-24)" d="m0.88039 47.195c0.013095 0.25019 0.27632 0.50039 0.52644 0.50039h18.822c0.25012 0 0.48715-0.25019 0.47406-0.50039l-0.56263-16.363c-0.0131-0.25019-0.27631-0.50039-0.52644-0.50039h-7.9734c-0.29143 0-0.74169-0.18966-0.84213-0.66507l-0.36734-1.7387c-0.09341-0.44213-0.53005-0.62376-0.78017-0.62376h-8.8794c-0.25013 0-0.48716 0.25019-0.47406 0.50039z" style="fill:#fff;stroke-linecap:round;stroke-linejoin:round;stroke-width:.6009;stroke:url(#linearGradient3104-5)"/>
  <rect id="rect3965-5" transform="translate(0,-24)" x="2.4978e-8" y="24" width="24" height="23.996" style="color-rendering:auto;color:#000000;image-rendering:auto;isolation:auto;mix-blend-mode:normal;opacity:0;shape-rendering:auto;solid-color:#000000;stroke-width:.73944"/>
  <g id="g2904" transform="matrix(.72668 .19471 -.19471 .72668 -6.1904 -4.7562)">
   <path id="path2779-4" d="m31 0.5c-0.56194 2e-8 -1.1158 0.047001-1.6562 0.125l-0.21875 3.0938c-0.95964 0.21574-1.8495 0.58353-2.6562 1.0938l-2.3438-2.0312c-1.125 0.71875-1.625 1.2188-2.3438 2.3438l2.0312 2.3438c-0.51022 0.80674-0.878 1.6966-1.0938 2.6562l-3.0938 0.21875c-0.078 0.54045-0.125 1.0943-0.125 1.6562-1e-6 0.56194 0.047 1.1158 0.125 1.6562l3.0938 0.21875c0.21574 0.95964 0.58353 1.8495 1.0938 2.6562l-2.0312 2.3438c0.71875 1.125 1.2188 1.625 2.3438 2.3438l2.3438-2.0312c0.80674 0.51022 1.6966 0.878 2.6562 1.0938l0.21875 3.0938c0.54045 0.078 1.0943 0.125 1.6562 0.125 0.56194 0 1.1158-0.047 1.6562-0.125l0.21875-3.0938c0.95964-0.21574 1.8495-0.58353 2.6562-1.0938l2.3438 2.0312c1.125-0.71875 1.625-1.2188 2.3438-2.3438l-2.0312-2.3438c0.51022-0.80674 0.878-1.6966 1.0938-2.6562l3.0938-0.21875c0.078-0.54045 0.125-1.0943 0.125-1.6562 0-0.56194-0.047-1.1158-0.125-1.6562l-3.0938-0.21875c-0.21574-0.95964-0.58353-1.8495-1.0938-2.6562l2.0312-2.3438c-0.64949-1.1077-1.2188-1.625-2.3438-2.3438l-2.3438 2.0312c-0.80674-0.51022-1.6966-0.87801-2.6562-1.0938l-0.21875-3.0938c-0.54045-0.077999-1.0943-0.125-1.6562-0.125zm0 9c1.38 3e-7 2.5 1.12 2.5 2.5 1e-6 1.38-1.12 2.5-2.5 2.5-1.38 0-2.5-1.12-2.5-2.5 0-1.38 1.12-2.5 2.5-2.5z" style="fill:url(#linearGradient4109);stroke-linecap:square;stroke-width:1.0054;stroke:#2e3436"/>
   <path id="path2819-7" d="m31 1.4375c-0.26007 0-0.52213 0.041957-0.78125 0.0625l-0.21875 3.0625c-1.317 0.1747-2.5217 0.70204-3.5313 1.4688l-2.3125-1.9688c-0.39104 0.33764-0.75612 0.70271-1.0938 1.0938l1.9688 2.3125c-0.76671 1.0095-1.294 2.2142-1.4688 3.5312l-3.0625 0.21875c-0.02054 0.25912-0.0625 0.52118-0.0625 0.78125 0 0.26007 0.04196 0.52213 0.0625 0.78125l3.0625 0.21875c0.1747 1.317 0.70204 2.5217 1.4688 3.5313l-1.9688 2.3125c0.33764 0.39104 0.70271 0.75612 1.0938 1.0938l2.3125-1.9688c1.0095 0.76671 2.2142 1.294 3.5312 1.4688l0.21875 3.0625c0.25912 0.02054 0.52118 0.0625 0.78125 0.0625 0.26007 0 0.52213-0.04196 0.78125-0.0625l0.21875-3.0625c1.317-0.1747 2.5217-0.70204 3.5313-1.4688l2.3125 1.9688c0.39104-0.33764 0.75612-0.70271 1.0938-1.0938l-1.9688-2.3125c0.76671-1.0095 1.294-2.2142 1.4688-3.5313l3.0625-0.21875c0.02054-0.25912 0.0625-0.52118 0.0625-0.78125 1e-6 -0.26007-0.04196-0.52213-0.0625-0.78125l-3.0625-0.21875c-0.1747-1.317-0.70205-2.5217-1.4688-3.5313l1.9688-2.3125c-0.33763-0.39104-0.70271-0.75612-1.0938-1.0938l-2.3125 1.9688c-1.0095-0.76671-2.2142-1.294-3.5312-1.4688l-0.21875-3.0625c-0.25912-0.020543-0.52118-0.062499-0.78125-0.0625z" style="fill:none;stroke-linecap:square;stroke-width:1.1333;stroke:url(#linearGradient3114)"/>
   <path id="path2875" d="m31 0.875c-0.32102 2e-8 -0.58398 0.044382-0.8125 0.0625l-0.5 0.03125-0.03125 0.5-0.1875 2.6562c-1.0601 0.20906-2.0417 0.64053-2.9062 1.2188l-2.4062-2.0312-1.8438 1.8438 2.0312 2.4062c-0.57822 0.86457-1.0097 1.8462-1.2188 2.9062l-2.6562 0.1875-0.5 0.03125-0.03125 0.5c-0.018119 0.22853-0.0625 0.49148-0.0625 0.8125 0 0.32102 0.04438 0.58397 0.0625 0.8125l0.03125 0.5 0.5 0.03125 2.6562 0.1875c0.20906 1.0601 0.64053 2.0417 1.2188 2.9062l-1.7188 2.0312-0.3125 0.375 0.3125 0.375c0.35567 0.41193 0.74432 0.80058 1.1562 1.1562l0.375 0.3125 0.375-0.3125 2.0312-1.7188c0.86457 0.57822 1.8462 1.0097 2.9062 1.2188l0.1875 2.6562 0.03125 0.5 0.5 0.03125c0.22853 0.01812 0.49148 0.0625 0.8125 0.0625 0.32102 1e-6 0.58397-0.04438 0.8125-0.0625l0.5-0.03125 0.03125-0.5 0.1875-2.6562c1.0601-0.20906 2.0417-0.64053 2.9062-1.2188l2.0312 1.7188 0.375 0.3125 0.375-0.3125c0.41193-0.35567 0.80058-0.74432 1.1562-1.1562l0.3125-0.375-0.3125-0.375-1.7188-2.0312c0.57822-0.86457 1.0097-1.8462 1.2188-2.9062l2.6562-0.1875 0.5-0.03125 0.03125-0.5c0.018117-0.22852 0.0625-0.49148 0.0625-0.8125-1e-6 -0.32102-0.04438-0.58397-0.0625-0.8125l-0.03125-0.5-0.5-0.03125-2.6562-0.1875c-0.20906-1.0601-0.64053-2.0417-1.2188-2.9062l1.7188-2.0312 0.3125-0.375-0.3125-0.375c-0.35567-0.41193-0.74432-0.80058-1.1562-1.1562l-0.375-0.3125-0.375 0.3125-2.0312 1.7188c-0.86457-0.57822-1.8462-1.0097-2.9062-1.2188l-0.1875-2.6562-0.03125-0.5-0.5-0.03125c-0.22853-0.018118-0.49148-0.062499-0.8125-0.0625zm0 7.625c1.932-2.4e-6 3.5 1.568 3.5 3.5 2e-6 1.932-1.568 3.5-3.5 3.5-1.932 2e-6 -3.5-1.568-3.5-3.5-1e-6 -1.932 1.568-3.5 3.5-3.5z" style="fill:url(#radialGradient3116);opacity:.8"/>
   <path id="path2867" d="m31 4c-4.416 0-8 3.584-8 8 0 4.416 3.584 8 8 8 4.416 0 8-3.584 8-8-1e-6 -4.416-3.584-8-8-8zm0 5c1.656-1.8e-6 3 1.344 3 3s-1.344 3-3 3c-1.656 2e-6 -3-1.344-3-3-1e-6 -1.656 1.344-3 3-3z" style="fill:url(#linearGradient4111)"/>
   <circle id="path2849" transform="matrix(.88235 -1.0264e-6 1.0264e-6 .88235 10.265 -4.7647)" cx="23.5" cy="19" r="8.5" style="fill:none;stroke-linecap:square;stroke-width:1.1333;stroke:url(#linearGradient3120)"/>
   <circle id="path2835" transform="matrix(.41176 -4.79e-7 4.79e-7 .41176 21.324 4.1765)" cx="23.5" cy="19" r="8.5" style="fill:none;stroke-linecap:square;stroke-width:2.4286;stroke:url(#linearGradient3122)"/>
  </g>
  <g id="g4420" transform="matrix(.99966 0 0 1.0005 -.4658 -24.323)">
   <path id="path233-5" d="m22 48c0.67013-0.02638 1.15-0.6564 1.1992-1.3897 0.46385-6.9147 0.9721-12.712 0.9721-12.712 0.04227-0.14818-0.09837-0.29636-0.28128-0.29636h-20.136l-1.084 13.093c-0.06711 0.588-0.273 1.0806-0.90794 1.3075l20.238-0.0016z" style="color:#000000;display:block;fill:url(#linearGradient9772);stroke-linejoin:round;stroke-width:.59226;stroke:#3465a4"/>
   <path id="path304-3" d="m4.2633 34.265 19.21 0.03984-0.92214 12.294c-0.0494 0.65857-0.26403 0.87781-1.0971 0.87781-1.0964 0-16.801-0.01992-18.392-0.01992 0.13685-0.19718 0.19553-0.60763 0.19631-0.61746z" style="fill:none;opacity:.46591;stroke-linecap:round;stroke-width:.60006px;stroke:url(#linearGradient322-1)"/>
  </g>
 </g>
</svg>
