<?xml version="1.0" encoding="UTF-8"?>
<!-- Created with Inkscape (http://www.inkscape.org/) -->
<svg id="svg6361" width="24" height="24" version="1.1" viewBox="0 0 24 24" xmlns="http://www.w3.org/2000/svg" xmlns:cc="http://creativecommons.org/ns#" xmlns:dc="http://purl.org/dc/elements/1.1/" xmlns:rdf="http://www.w3.org/1999/02/22-rdf-syntax-ns#">
 <metadata id="metadata4">
  <rdf:RDF>
   <cc:Work rdf:about="">
    <dc:format>image/svg+xml</dc:format>
    <dc:type rdf:resource="http://purl.org/dc/dcmitype/StillImage"/>
    <dc:title/>
    <dc:date/>
    <dc:creator>
     <cc:Agent>
      <dc:title/>
     </cc:Agent>
    </dc:creator>
    <dc:subject>
     <rdf:Bag>
      <rdf:li>help</rdf:li>
      <rdf:li>browser</rdf:li>
      <rdf:li>documentation</rdf:li>
      <rdf:li>docs</rdf:li>
      <rdf:li>man</rdf:li>
      <rdf:li>info</rdf:li>
     </rdf:Bag>
    </dc:subject>
    <cc:license rdf:resource="http://creativecommons.org/publicdomain/zero/1.0/"/>
    <dc:contributor>
     <cc:Agent>
      <dc:title/>
     </cc:Agent>
    </dc:contributor>
    <dc:source>http://tigert.com</dc:source>
   </cc:Work>
   <cc:License rdf:about="http://creativecommons.org/publicdomain/zero/1.0/">
    <cc:permits rdf:resource="http://creativecommons.org/ns#Reproduction"/>
    <cc:permits rdf:resource="http://creativecommons.org/ns#Distribution"/>
    <cc:permits rdf:resource="http://creativecommons.org/ns#DerivativeWorks"/>
   </cc:License>
  </rdf:RDF>
 </metadata>
 <g id="layer1" transform="translate(0,-24)">
  <g id="g4251">
   <g id="g4238" transform="matrix(1.5 0 0 1.5 3.7253e-8 -24)">
    <circle id="path2093" cx="8" cy="40" r="7.8212" style="fill:#3465a4;stroke-width:.35752;stroke:#204a87"/>
    <ellipse id="path2209" cx="7.9995" cy="40.001" rx="7.1267" ry="7.1258" style="fill:none;opacity:.96023;stroke-width:.98729;stroke:#fff"/>
   </g>
   <path id="path5121" d="m10.256 39-0.05006-0.66942c-0.05063-1.3137 0.351-2.6525 1.4791-4.0176 0.80241-0.97826 1.4538-1.828 1.4538-2.7036 0-0.87541-0.57628-1.4934-1.8051-1.5194-0.85191 0-1.8298 0.28342-2.5068 0.74684l-0.82716-2.7808c0.90225-0.54113 2.3813-1.056 4.1864-1.056 3.2842 0 4.8136 1.88 4.8136 3.9913 0 1.9825-1.2035 3.2448-2.1563 4.3516-0.90253 1.03-1.3036 2.0345-1.2786 3.1934v0.46342h-3.3089z" style="fill:#fff;filter:url(#filter5125);stroke-width:.28347"/>
   <circle id="circle5123" cx="12" cy="42" r="2" style="fill:#fff;filter:url(#filter5125);stroke-width:.25"/>
  </g>
 </g>
</svg>
