<?xml version="1.0" encoding="UTF-8"?>
<!-- Created with Inkscape (http://www.inkscape.org/) -->
<svg id="svg30571" width="24" height="24" version="1.1" viewBox="0 0 24 24" xmlns="http://www.w3.org/2000/svg" xmlns:cc="http://creativecommons.org/ns#" xmlns:dc="http://purl.org/dc/elements/1.1/" xmlns:rdf="http://www.w3.org/1999/02/22-rdf-syntax-ns#">
 <metadata id="metadata30576">
  <rdf:RDF>
   <cc:Work rdf:about="">
    <dc:format>image/svg+xml</dc:format>
    <dc:type rdf:resource="http://purl.org/dc/dcmitype/StillImage"/>
    <dc:title/>
    <dc:creator>
     <cc:Agent>
      <dc:title>Klaus Staedtler</dc:title>
     </cc:Agent>
    </dc:creator>
   </cc:Work>
  </rdf:RDF>
 </metadata>
 <g id="layer1" transform="translate(0 -1028.4)">
  <g id="g4086">
   <g id="g4605">
    <g id="gimp-tool-rect-select-24" transform="translate(4.5361e-7 1.7383e-5)">
     <rect id="rect74851-0" x="-4.5361e-7" y="1028.4" width="24" height="24" style="fill:none"/>
     <rect id="rect74861-0" x="1" y="1031.4" width="1" height="2" style="fill:#eeeeec"/>
     <rect id="rect74863-3" x="5" y="1031.4" width="2" height=".99999" style="fill:#eeeeec"/>
     <rect id="rect74865-3" x="9" y="1031.4" width="2" height=".99999" style="fill:#eeeeec"/>
     <rect id="rect74867-5" x="13" y="1031.4" width="2" height=".99999" style="fill:#eeeeec"/>
     <rect id="rect74869-0" x="17" y="1031.4" width="2" height=".99999" style="fill:#eeeeec"/>
     <rect id="rect74871-3" x="1" y="1035.4" width="1" height="2" style="fill:#eeeeec"/>
     <rect id="rect74873-5" x="1" y="1039.4" width="1" height="2" style="fill:#eeeeec"/>
     <rect id="rect74875-5" x="5" y="1048.4" width="2" height=".99999" style="fill:#eeeeec"/>
     <rect id="rect74877-9" x="9" y="1048.4" width="2" height=".99999" style="fill:#eeeeec"/>
     <rect id="rect74879-2" x="13" y="1048.4" width="2" height=".99999" style="fill:#eeeeec"/>
     <rect id="rect74881-7" x="17" y="1048.4" width="2" height=".99999" style="fill:#eeeeec"/>
     <rect id="rect74887-3" x="21" y="1048.4" width="2" height=".99999" style="fill:#eeeeec"/>
     <rect id="rect74889-2" x="22" y="1043.4" width="1" height="2" style="fill:#eeeeec"/>
     <rect id="rect74891-0" x="22" y="1039.4" width="1" height="2" style="fill:#eeeeec"/>
     <rect id="rect74893-2" x="22" y="1035.4" width="1" height="2" style="fill:#eeeeec"/>
     <rect id="rect74897-7" x="4" y="1034.4" width="16" height="12" style="fill:#d3d7cf"/>
     <rect id="rect74899-9" x="1" y="1043.4" width="1" height="2" style="fill:#eeeeec"/>
     <rect id="rect74901-4" x="1" y="1047.4" width="1" height="2" style="fill:#eeeeec"/>
     <rect id="rect74861-4" x="21" y="1031.4" width="2" height=".99999" style="fill:#eeeeec"/>
    </g>
    <rect id="rect74861-0-9" x="3" y="1031.4" width="2" height=".99999" style="fill:#2e3436"/>
    <rect id="rect74861-0-9-0" x="7" y="1031.4" width="2" height=".99999" style="fill:#2e3436"/>
    <rect id="rect74861-0-9-05" x="11" y="1031.4" width="2" height=".99999" style="fill:#2e3436"/>
    <rect id="rect74861-0-9-3" x="15" y="1031.4" width="2" height=".99999" style="fill:#2e3436"/>
    <rect id="rect74861-0-9-06" x="19" y="1031.4" width="2" height=".99999" style="fill:#2e3436"/>
    <rect id="rect74861-0-9-6" x="1" y="1033.4" width="1" height="2" style="fill:#2e3436"/>
    <rect id="rect74861-0-9-6-2" x="22" y="1033.4" width="1" height="2" style="fill:#2e3436"/>
    <rect id="rect74861-0-9-6-0" x="1" y="1037.4" width="1" height="2" style="fill:#2e3436"/>
    <rect id="rect74861-0-9-6-5" x="1" y="1041.4" width="1" height="2" style="fill:#2e3436"/>
    <rect id="rect74861-0-9-6-8" x="1" y="1045.4" width="1" height="2" style="fill:#2e3436"/>
    <rect id="rect74861-0-9-6-2-8" x="22" y="1037.4" width="1" height="2" style="fill:#2e3436"/>
    <rect id="rect74861-0-9-6-2-3" x="22" y="1041.4" width="1" height="2" style="fill:#2e3436"/>
    <rect id="rect74861-0-9-6-2-5" x="22" y="1045.4" width="1" height="2" style="fill:#2e3436"/>
    <rect id="rect74861-0-9-6-2-6" x="3" y="1048.4" width="2" height=".99999" style="fill:#2e3436"/>
    <rect id="rect74861-0-9-6-2-6-0" x="7" y="1048.4" width="2" height=".99999" style="fill:#2e3436"/>
    <rect id="rect74861-0-9-6-2-6-4" x="11" y="1048.4" width="2" height=".99999" style="fill:#2e3436"/>
    <rect id="rect74861-0-9-6-2-6-9" x="15" y="1048.4" width="2" height=".99999" style="fill:#2e3436"/>
    <rect id="rect74861-0-9-6-2-6-6" x="19" y="1048.4" width="2" height=".99999" style="fill:#2e3436"/>
   </g>
   <rect id="rect74861-0-0" transform="rotate(90)" x="1031.4" y="-3" width="1" height="2" style="fill:#eeeeec"/>
   <rect id="rect74861-4-7" transform="rotate(90)" x="1031.4" y="-23" width="2" height=".99999" style="fill:#eeeeec"/>
   <rect id="rect74901-4-7" transform="rotate(90)" x="1048.4" y="-3" width="1" height="2" style="fill:#eeeeec"/>
   <rect id="rect74887-3-6" transform="rotate(90)" x="1047.4" y="-23" width="2" height=".99999" style="fill:#eeeeec"/>
  </g>
 </g>
</svg>
