<?xml version="1.0" encoding="UTF-8"?>
<svg id="svg7384" width="16" height="16" version="1.1" viewBox="0 0 16 16" xmlns="http://www.w3.org/2000/svg" xmlns:cc="http://creativecommons.org/ns#" xmlns:dc="http://purl.org/dc/elements/1.1/" xmlns:osb="http://www.openswatchbook.org/uri/2009/osb" xmlns:rdf="http://www.w3.org/1999/02/22-rdf-syntax-ns#" xmlns:xlink="http://www.w3.org/1999/xlink">
 <metadata id="metadata90">
  <rdf:RDF>
   <cc:Work rdf:about="">
    <dc:format>image/svg+xml</dc:format>
    <dc:type rdf:resource="http://purl.org/dc/dcmitype/StillImage"/>
    <dc:title/>
    <dc:contributor>
     <cc:Agent>
      <dc:title>Barbara Muraus, Jakub Steiner, Klaus Staedtler</dc:title>
     </cc:Agent>
    </dc:contributor>
    <dc:description>Images originally created as the "Art Libre" icon set. Extended and adopted for GIMP</dc:description>
   </cc:Work>
  </rdf:RDF>
 </metadata>
 <defs id="defs7386">
  <linearGradient id="linearGradient8286" x1="15" x2="31" y1="-32" y2="-32" gradientTransform="translate(789.94 380.29)" gradientUnits="userSpaceOnUse">
   <stop id="stop19284-0" style="stop-color:#ddd" offset="0"/>
  </linearGradient>
 </defs>
 <g id="preferences" transform="translate(-176.62 -222.29)">
  <g id="gimp-prefs-folders" transform="translate(161.62 262.29)">
   <path id="rect3845" d="m15.531-40c-0.28913 0-0.53125 0.24212-0.53125 0.53125v14.938c0 0.2985 0.23264 0.5312 0.53125 0.5312h14.938c0.2986 0 0.53125-0.2326 0.53125-0.5312v-9.9376c0-0.2891-0.24212-0.5312-0.53125-0.5312h-12.469v8.5c0 0.277-0.223 0.5-0.5 0.5s-0.5-0.223-0.5-0.5v-9c0-0.277 0.223-0.5 0.5-0.5h2.9688 8.5312v-1.4062c0-0.3272-0.26666-0.5938-0.59375-0.5938h-7.4062v-1.4688c0-0.28915-0.24212-0.53125-0.53125-0.53125z" style="fill:url(#linearGradient8286)"/>
  </g>
 </g>
</svg>
