<?xml version="1.0" encoding="UTF-8"?>
<svg id="svg30571" width="16" height="16" version="1.1" viewBox="0 0 16 16" xmlns="http://www.w3.org/2000/svg" xmlns:cc="http://creativecommons.org/ns#" xmlns:dc="http://purl.org/dc/elements/1.1/" xmlns:rdf="http://www.w3.org/1999/02/22-rdf-syntax-ns#">
 <metadata id="metadata30576">
  <rdf:RDF>
   <cc:Work rdf:about="">
    <dc:format>image/svg+xml</dc:format>
    <dc:type rdf:resource="http://purl.org/dc/dcmitype/StillImage"/>
    <dc:creator>
     <cc:Agent>
      <dc:title>Klaus Staedtler</dc:title>
     </cc:Agent>
    </dc:creator>
    <dc:title/>
   </cc:Work>
  </rdf:RDF>
 </metadata>
 <g id="layer1" transform="translate(0 -1036.4)">
  <g id="g3950">
   <path id="path18112" d="m7.9351 1036.4c-0.52858-0.031-1.0443 0.3037-1.4459 1.0396l-6.2866 12.443c-0.5366 1.0339 0.0485 2.5154 1.1002 2.5154h13.233c0.98747 0 1.9143-1.2444 1.2259-2.5154l-6.3495-12.376c-0.40106-0.6935-0.94878-1.0762-1.4774-1.1068zm0.062866 4.2258c0.54767-0.018 1.0546 0.5225 1.0373 1.1069v4.2258c0.00704 0.567-0.47439 1.0733-1.0059 1.0733-0.53146 0-1.0134-0.5063-1.0059-1.0733v-4.2258c-0.00805-0.5009 0.35618-0.9795 0.81726-1.0732 0.051399-0.015 0.10406-0.027 0.15717-0.033zm0.031433 7.4793c0.55552 0 1.0059 0.4804 1.0059 1.0732 0 0.5927-0.45034 1.0733-1.0059 1.0733s-1.0059-0.4806-1.0059-1.0733c0-0.5928 0.45034-1.0732 1.0059-1.0732z" style="color:#dddddd;enable-background:new;fill:#ddd"/>
  </g>
 </g>
</svg>
