<?xml version="1.0" encoding="UTF-8"?>
<!-- Created with Inkscape (http://www.inkscape.org/) -->
<svg id="svg7384" width="16" height="16" version="1.1" viewBox="0 0 16 16" xmlns="http://www.w3.org/2000/svg" xmlns:cc="http://creativecommons.org/ns#" xmlns:dc="http://purl.org/dc/elements/1.1/" xmlns:rdf="http://www.w3.org/1999/02/22-rdf-syntax-ns#">
 <metadata id="metadata90">
  <rdf:RDF>
   <cc:Work rdf:about="">
    <dc:format>image/svg+xml</dc:format>
    <dc:type rdf:resource="http://purl.org/dc/dcmitype/StillImage"/>
    <dc:title>Gnome Symbolic Icon Theme</dc:title>
   </cc:Work>
  </rdf:RDF>
 </metadata>
 <title id="title9167">Gnome Symbolic Icon Theme</title>
 <g id="layer12" transform="matrix(1 0 0 .99995 -160 -645.97)">
  <path id="rect3845-5-8" d="m160.53 651c-0.28913 0-0.53125 0.2421-0.53125 0.5313v9.9375c0 0.2985 0.23264 0.5312 0.53125 0.5312h13.812c0.2986 0 0.53125-0.2326 0.53125-0.5312l1.125-4.9159c0-0.2891-0.24212-0.5312-0.53125-0.5312h-11.594l-0.875 3.4783c0 0.277-0.223 0.5-0.5 0.5s-0.5-0.223-0.5-0.5v-4.9966c0-0.277 0.223-0.5 0.5-0.5h0.46615v-3.0034z" style="fill:#ddd"/>
  <path id="path1234-3" d="m164.81 646c-0.4584 0.0875-0.82072 0.5334-0.8125 1v7h1.0025v-7.0003h4.9975v4.0002h4.0025v3.0001h0.9975v-3.4375c6e-3 -0.2641-0.0976-0.529-0.28125-0.7188l-3.5625-3.5624c-0.18978-0.1837-0.45469-0.28737-0.71875-0.28125h-5.4375c-0.0312-1e-3 -0.0625-1e-3 -0.0937 0-0.0312-1e-3 -0.0625-1e-3 -0.0937 0z" style="color:#000000;fill:#ddd;text-indent:0;text-transform:none"/>
 </g>
</svg>
