<?xml version="1.0" encoding="UTF-8"?>
<svg id="svg7384" width="16" height="16" version="1.1" viewBox="0 0 16 16" xmlns="http://www.w3.org/2000/svg" xmlns:cc="http://creativecommons.org/ns#" xmlns:dc="http://purl.org/dc/elements/1.1/" xmlns:osb="http://www.openswatchbook.org/uri/2009/osb" xmlns:rdf="http://www.w3.org/1999/02/22-rdf-syntax-ns#" xmlns:xlink="http://www.w3.org/1999/xlink">
 <metadata id="metadata90">
  <rdf:RDF>
   <cc:Work rdf:about="">
    <dc:format>image/svg+xml</dc:format>
    <dc:type rdf:resource="http://purl.org/dc/dcmitype/StillImage"/>
    <dc:title/>
    <dc:contributor>
     <cc:Agent>
      <dc:title>Barbara Muraus, Jakub Steiner, Klaus Staedtler</dc:title>
     </cc:Agent>
    </dc:contributor>
    <dc:description>Images originally created as the "Art Libre" icon set. Extended and adopted for GIMP</dc:description>
   </cc:Work>
  </rdf:RDF>
 </metadata>
 <defs id="defs7386">
  <linearGradient id="linearGradient8328" x2="16" y1="8" y2="8" gradientTransform="translate(877.56 399.1)" gradientUnits="userSpaceOnUse">
   <stop id="stop19284-0" style="stop-color:#ddd" offset="0"/>
  </linearGradient>
 </defs>
 <g id="preferences" transform="translate(-264.24 -241.1)">
  <g id="gimp-prefs-folders-icon-themes" transform="translate(249.24 281.1)">
   <path id="rect3845-9" transform="translate(15,-40)" d="m0.53125 0c-0.28913 0-0.53125 0.24212-0.53125 0.53125v14.938c0 0.2985 0.23264 0.53125 0.53125 0.53125h14.938c0.2986 0 0.53125-0.23265 0.53125-0.53125v-9.9375c0-0.2891-0.24212-0.53125-0.53125-0.53125h-12.469v8.5c0 0.277-0.223 0.5-0.5 0.5s-0.5-0.223-0.5-0.5v-9c0-0.277 0.223-0.5 0.5-0.5h2.9688 8.5312v-1.4062c0-0.3272-0.26666-0.59375-0.59375-0.59375h-7.4062v-1.4688c0-0.28915-0.24212-0.53125-0.53125-0.53125zm13.838 5.8164c0.2873 2.9816 0.22146 6.5825-1.4434 6.9883-0.38961-0.25975-0.52343-0.38889-0.94922-0.60742 0.18571-0.18408 0.31445-0.31445 0.31445-0.31445 0 0-0.03182-0.03897 0.29102 0.32813 0.04618-0.76776-0.65818-1.3366-1.1992-1.3496l0.5 0.53906c-0.95273 1.4566-3.3574 0.31445-3.3574 0.31445s1.0789 1.0648 2.3555 1.0586c0.0515-5.32e-4 0.0076 0.0027 0.05664-0.0039 0.18552 0.20366 0.32962 0.43318 0.65234 0.67188-1.7053 0.41831-3.7159-0.70097-4.8789-1.707a1.3205 1.0368 45.007 0 1-1.5645-0.85156 1.3205 1.0368 45.007 0 1 0.4707-1.4531 1.3205 1.0368 45.007 0 1 1.6113 0.83789 1.3205 1.0368 45.007 0 1 0.11328 0.32617c0.00295-0.0085 0.013672-0.02734 0.013672-0.02734s0.90825-1.1875 0.59375-4.1562c0 0 0.06263 1.783 2.9512 1.7988 3.4022 0.018699 3.4688-2.3926 3.4688-2.3926zm-2.4297 2.6719c-0.56989 0-1.0391 0.46746-1.0391 1.0391 0 0.57159 0.46917 1.0391 1.0391 1.0391s1.0391-0.46748 1.0391-1.0391c0-0.5716-0.46917-1.0391-1.0391-1.0391zm-2.4687 0.29688c-0.49043 0-0.89062 0.39876-0.89062 0.89062 0 0.49189 0.4002 0.89062 0.89062 0.89062 0.49041 0 0.87305-0.39874 0.87305-0.89062 0-0.49187-0.38264-0.89062-0.87305-0.89062zm1.8691 0.39453a0.39877 0.39217 0 0 1 0.39844 0.39258 0.39877 0.39217 0 0 1-0.39844 0.39258 0.39877 0.39217 0 0 1-0.39844-0.39258 0.39877 0.39217 0 0 1 0.39844-0.39258zm-2.1934 0.18164c0.1726 0 0.3125 0.1367 0.3125 0.30469 0 0.16798-0.1399 0.30469-0.3125 0.30469-0.17259 0-0.3125-0.13671-0.3125-0.30469 0-0.16799 0.13991-0.30469 0.3125-0.30469zm2.2773 2.8984c0.03734 2e-3 0.08181 0.02056 0.13086 0.0625 0 0 1.0371 0.63917 1.6328 1.3184 0.49341 0.20462 0.75913 0.86301 0.7832 1.6094 0 0 0.05688-0.37607-1.1211-0.56055-0.61351-0.09609-0.68444-0.70465-0.38086-0.98047-0.5923-0.51923-1.1152-1.1758-1.1152-1.1758-0.09023-0.13454-0.04171-0.27949 0.07031-0.27344z" style="fill:url(#linearGradient8328)"/>
  </g>
 </g>
</svg>
