<?xml version="1.0" encoding="UTF-8"?>
<!-- Created with Inkscape (http://www.inkscape.org/) -->
<svg id="svg7384" width="16" height="16" version="1.1" viewBox="0 0 16 16" xmlns="http://www.w3.org/2000/svg" xmlns:cc="http://creativecommons.org/ns#" xmlns:dc="http://purl.org/dc/elements/1.1/" xmlns:rdf="http://www.w3.org/1999/02/22-rdf-syntax-ns#">
 <metadata id="metadata90">
  <rdf:RDF>
   <cc:Work rdf:about="">
    <dc:format>image/svg+xml</dc:format>
    <dc:type rdf:resource="http://purl.org/dc/dcmitype/StillImage"/>
    <dc:title>Gnome Symbolic Icon Theme</dc:title>
   </cc:Work>
  </rdf:RDF>
 </metadata>
 <title id="title9167">Gnome Symbolic Icon Theme</title>
 <g id="g4234">
  <g id="layer12" transform="translate(-161,-667)">
   <path id="rect11749-5-0-1" d="m164.19 669c-0.6627 0-1.1875 0.54899-1.1875 1.2188v9.5625c0 0.66976 0.5248 1.2188 1.1875 1.2188h9.625c0.6627 0 1.1875-0.54899 1.1875-1.2188v-9.5625c0-0.66976-0.5248-1.2188-1.1875-1.2188zm0.8125 2h3v2h-1v1h-2zm5 0h3v3h-2v-1h-1zm-5 5h2v1h1v2h-3zm6 0h2v3h-3v-2h1z" style="color:#dddddd;fill:#ddd"/>
  </g>
 </g>
</svg>
