<?xml version="1.0" encoding="UTF-8"?>
<svg id="svg7384" width="16.001" height="16.001" version="1.1" viewBox="0 0 16.001 16.001" xmlns="http://www.w3.org/2000/svg" xmlns:cc="http://creativecommons.org/ns#" xmlns:dc="http://purl.org/dc/elements/1.1/" xmlns:osb="http://www.openswatchbook.org/uri/2009/osb" xmlns:rdf="http://www.w3.org/1999/02/22-rdf-syntax-ns#" xmlns:xlink="http://www.w3.org/1999/xlink">
 <metadata id="metadata90">
  <rdf:RDF>
   <cc:Work rdf:about="">
    <dc:format>image/svg+xml</dc:format>
    <dc:type rdf:resource="http://purl.org/dc/dcmitype/StillImage"/>
    <dc:title/>
    <dc:contributor>
     <cc:Agent>
      <dc:title>Barbara Muraus, Jakub Steiner, Klaus Staedtler</dc:title>
     </cc:Agent>
    </dc:contributor>
    <dc:description>Images originally created as the "Art Libre" icon set. Extended and adopted for GIMP</dc:description>
   </cc:Work>
  </rdf:RDF>
 </metadata>
 <defs id="defs7386">
  <linearGradient id="linearGradient7060" x1="295.7" x2="311.7" y1="305.37" y2="305.37" gradientTransform="translate(299.26 297.37)" gradientUnits="userSpaceOnUse">
   <stop id="stop19284-0" style="stop-color:#414141" offset="0"/>
  </linearGradient>
 </defs>
 <g id="tools" transform="translate(-8.6305 -361.89)">
  <g id="gimp-tool-move" transform="translate(-92.369 164.89)">
   <path id="path74740" transform="translate(-194.7 -100.37)" d="m303.72 297.37-3.0215 3.0156h2.0313v4.0215c-1.3434-0.0101-2.6875-0.0211-4.0313-0.0293v-1.9941l-3 2.9746 3 3.0176v-2.0059c1.3438-9e-5 2.6875-3e-3 4.0313 0v2 2.0039h-2.0313l3.0215 2.9961 2.9785-2.9961h-2v-2.0039-2c1.3333 9e-4 2.6667 4e-3 4 0v2.0059l3-3.0176-3-2.9746v1.9961c-1.3332 0.0235-2.6662 0.0388-4 0.0351v-4.0293h2z" style="fill:url(#linearGradient7060)"/>
  </g>
 </g>
</svg>
