<?xml version="1.0" encoding="UTF-8"?>
<svg id="svg7384" width="16" height="16" version="1.1" viewBox="0 0 16 16" xmlns="http://www.w3.org/2000/svg" xmlns:cc="http://creativecommons.org/ns#" xmlns:dc="http://purl.org/dc/elements/1.1/" xmlns:osb="http://www.openswatchbook.org/uri/2009/osb" xmlns:rdf="http://www.w3.org/1999/02/22-rdf-syntax-ns#" xmlns:xlink="http://www.w3.org/1999/xlink">
 <metadata id="metadata90">
  <rdf:RDF>
   <cc:Work rdf:about="">
    <dc:format>image/svg+xml</dc:format>
    <dc:type rdf:resource="http://purl.org/dc/dcmitype/StillImage"/>
    <dc:title/>
    <dc:contributor>
     <cc:Agent>
      <dc:title>Barbara Muraus, Jakub Steiner, Klaus Staedtler</dc:title>
     </cc:Agent>
    </dc:contributor>
    <dc:description>Images originally created as the "Art Libre" icon set. Extended and adopted for GIMP</dc:description>
   </cc:Work>
  </rdf:RDF>
 </metadata>
 <defs id="defs7386">
  <linearGradient id="linearGradient8310" x1="75" x2="91" y1="28" y2="28" gradientTransform="translate(811.49 399.52)" gradientUnits="userSpaceOnUse">
   <stop id="stop19284-0" style="stop-color:#414141" offset="0"/>
  </linearGradient>
 </defs>
 <g id="preferences" transform="translate(-198.17 -241.52)">
  <g id="gimp-prefs-folders-environ" transform="translate(123.17 221.52)">
   <g id="g749" transform="translate(20)">
    <g id="g751" transform="translate(40,60)">
     <path id="path7541" transform="translate(-60,-60)" d="m75.531 20c-0.28913 0-0.53125 0.24212-0.53125 0.53125v14.938c0 0.2985 0.23264 0.53125 0.53125 0.53125h14.938c0.2986 0 0.53125-0.23265 0.53125-0.53125v-9.9375c0-0.2891-0.24212-0.53125-0.53125-0.53125h-12.469v8.5c0 0.277-0.223 0.5-0.5 0.5s-0.5-0.223-0.5-0.5v-9c0-0.277 0.223-0.5 0.5-0.5h2.9688 8.5312v-1.4062c0-0.3272-0.26666-0.59375-0.59375-0.59375h-7.4062v-1.4688c0-0.28915-0.24212-0.53125-0.53125-0.53125zm7.4688 6h1v2h-1zm2 0h1v2h-1zm-5 3h2v1h-2zm4 0h1c0.554 0 1 0.446 1 1v1c0 0.554-0.446 1-1 1h-1c-0.554 0-1-0.446-1-1v-1c0-0.554 0.446-1 1-1zm3 0h2v1h-2zm-7 2h2v1h-2zm7 0h2v1h-2zm-4 2h1v2h-1zm2 0h1v2h-1z" style="fill:url(#linearGradient8310)"/>
    </g>
   </g>
  </g>
 </g>
</svg>
