<?xml version="1.0" encoding="UTF-8"?>
<svg id="svg7384" width="16" height="16" version="1.1" viewBox="0 0 16 16" xmlns="http://www.w3.org/2000/svg" xmlns:cc="http://creativecommons.org/ns#" xmlns:dc="http://purl.org/dc/elements/1.1/" xmlns:osb="http://www.openswatchbook.org/uri/2009/osb" xmlns:rdf="http://www.w3.org/1999/02/22-rdf-syntax-ns#" xmlns:xlink="http://www.w3.org/1999/xlink">
 <metadata id="metadata90">
  <rdf:RDF>
   <cc:Work rdf:about="">
    <dc:format>image/svg+xml</dc:format>
    <dc:type rdf:resource="http://purl.org/dc/dcmitype/StillImage"/>
    <dc:title/>
    <dc:contributor>
     <cc:Agent>
      <dc:title>Barbara Muraus, Jakub Steiner, Klaus Staedtler</dc:title>
     </cc:Agent>
    </dc:contributor>
    <dc:description>Images originally created as the "Art Libre" icon set. Extended and adopted for GIMP</dc:description>
   </cc:Work>
  </rdf:RDF>
 </metadata>
 <defs id="defs7386">
  <linearGradient id="linearGradient19282-4" gradientTransform="matrix(.34683 0 0 .30621 -93.352 564.04)" osb:paint="solid">
   <stop id="stop19284-0" style="stop-color:#414141" offset="0"/>
  </linearGradient>
  <linearGradient id="linearGradient7499" x1="39.067" x2="47.052" y1="-15" y2="-15" gradientUnits="userSpaceOnUse" xlink:href="#linearGradient19282-4"/>
  <linearGradient id="linearGradient7506" x1="35.052" x2="43.038" y1="-7.9307" y2="-7.9307" gradientUnits="userSpaceOnUse" xlink:href="#linearGradient19282-4"/>
  <linearGradient id="linearGradient7511" x1="43.052" x2="51.037" y1="-7.9307" y2="-7.9307" gradientUnits="userSpaceOnUse" xlink:href="#linearGradient19282-4"/>
  <linearGradient id="linearGradient7504" x1="36.858" x2="41.454" y1="-7.5555" y2="-7.5555" gradientUnits="userSpaceOnUse" xlink:href="#linearGradient19282-4"/>
  <linearGradient id="linearGradient7509" x1="44" x2="49.542" y1="-7.5" y2="-7.5" gradientUnits="userSpaceOnUse" xlink:href="#linearGradient19282-4"/>
 </defs>
 <g id="gimp-prefs-color-management" transform="translate(-35.045 19.931)">
  <g id="g14498">
   <path id="path8587" d="m43.06-18.993c-2.2028 0-3.9929 1.79-3.9929 3.9929 0 2.2028 1.79 3.9929 3.9929 3.9929 2.2028 0 3.9929-1.79 3.9929-3.9929 0-2.2028-1.79-3.9929-3.9929-3.9929zm0 1.0524c1.6264 0 2.9405 1.3141 2.9405 2.9405 0 1.6264-1.3141 2.9405-2.9405 2.9405-1.6264 0-2.9405-1.3141-2.9405-2.9405 0-1.6264 1.3141-2.9405 2.9405-2.9405z" style="color:#ffffff;enable-background:new;fill:url(#linearGradient7499);text-decoration-line:none;text-indent:0;text-transform:none"/>
   <path id="path8591" d="m39.045-11.924c-2.2028 0-3.9929 1.79-3.9929 3.9929 0 2.2028 1.79 3.9929 3.9929 3.9929 2.2028 0 3.9929-1.79 3.9929-3.9929 0-2.2028-1.79-3.9929-3.9929-3.9929zm0 1.0524c1.6264 0 2.9405 1.3141 2.9405 2.9405 0 1.6264-1.3141 2.9405-2.9405 2.9405-1.6264 0-2.9405-1.3141-2.9405-2.9405 0-1.6264 1.3141-2.9405 2.9405-2.9405z" style="color:#ffffff;enable-background:new;fill:url(#linearGradient7506);text-decoration-line:none;text-indent:0;text-transform:none"/>
   <path id="path8593" d="m47.044-11.924c-2.2028 0-3.9929 1.79-3.9929 3.9929 0 2.2028 1.79 3.9929 3.9929 3.9929 2.2028 0 3.9929-1.79 3.9929-3.9929 0-2.2028-1.79-3.9929-3.9929-3.9929zm0 1.0524c1.6264 0 2.9405 1.3141 2.9405 2.9405 0 1.6264-1.3141 2.9405-2.9405 2.9405-1.6264 0-2.9405-1.3141-2.9405-2.9405 0-1.6264 1.3141-2.9405 2.9405-2.9405z" style="color:#ffffff;enable-background:new;fill:url(#linearGradient7511);text-decoration-line:none;text-indent:0;text-transform:none"/>
   <ellipse id="path14494" transform="matrix(.87029 0 0 .80812 4.9231 -1.8942)" cx="39.156" cy="-7.5555" rx="2.2981" ry="2.4749" style="fill:url(#linearGradient7504);opacity:.3"/>
   <ellipse id="path14496" transform="matrix(.7218 0 0 .8 13.241 -2)" cx="46.771" cy="-7.5" rx="2.7708" ry="2.5" style="fill:url(#linearGradient7509)"/>
  </g>
 </g>
</svg>
