<?xml version="1.0" encoding="UTF-8"?>
<!-- Created with Inkscape (http://www.inkscape.org/) -->
<svg id="svg1" width="16" height="16" version="1.0" viewBox="0 0 16 16" xmlns="http://www.w3.org/2000/svg" xmlns:cc="http://creativecommons.org/ns#" xmlns:dc="http://purl.org/dc/elements/1.1/" xmlns:rdf="http://www.w3.org/1999/02/22-rdf-syntax-ns#">
 <metadata id="metadata162">
  <rdf:RDF>
   <cc:Work rdf:about="">
    <dc:format>image/svg+xml</dc:format>
    <dc:type rdf:resource="http://purl.org/dc/dcmitype/StillImage"/>
    <dc:title/>
    <dc:creator>
     <cc:Agent>
      <dc:title/>
     </cc:Agent>
    </dc:creator>
    <dc:date>2005-02-01</dc:date>
    <cc:license rdf:resource="http://creativecommons.org/licenses/GPL/2.0/"/>
    <dc:identifier/>
    <dc:subject>
     <rdf:Bag>
      <rdf:li>folder</rdf:li>
      <rdf:li>directory</rdf:li>
      <rdf:li>storage</rdf:li>
     </rdf:Bag>
    </dc:subject>
   </cc:Work>
   <cc:License rdf:about="http://creativecommons.org/licenses/GPL/2.0/">
    <cc:permits rdf:resource="http://web.resource.org/cc/Reproduction"/>
    <cc:permits rdf:resource="http://web.resource.org/cc/Distribution"/>
    <cc:requires rdf:resource="http://web.resource.org/cc/Notice"/>
    <cc:permits rdf:resource="http://web.resource.org/cc/DerivativeWorks"/>
    <cc:requires rdf:resource="http://web.resource.org/cc/ShareAlike"/>
    <cc:requires rdf:resource="http://web.resource.org/cc/SourceCode"/>
   </cc:License>
  </rdf:RDF>
 </metadata>
 <g id="layer2" transform="translate(0,-6)">
  <g id="g4250">
   <path id="text2841" d="m4.7542 10.483c-0.70719 3e-6 -1.1971 0.07228-1.4699 0.21684-0.27273 0.14456-0.40909 0.39116-0.40909 0.7398-1.5e-6 0.27778 0.10148 0.49887 0.30444 0.66326 0.20613 0.16157 0.4852 0.24235 0.83721 0.24235 0.4852 1e-6 0.87368-0.15306 1.1654-0.45918 0.29492-0.30896 0.44238-0.71854 0.44239-1.2287v-0.17432h-0.87051m1.7458-0.32313v2.7168h-0.87526v-0.72279c-0.19979 0.28912-0.44874 0.50312-0.74683 0.64201-0.2981 0.13605-0.66279 0.20408-1.0941 0.20408-0.54546 0-0.97992-0.13605-1.3034-0.40816-0.3203-0.27494-0.48044-0.64201-0.48044-1.1012-8e-7 -0.53571 0.19979-0.93962 0.59937-1.2117 0.40275-0.2721 1.0021-0.40816 1.7981-0.40816h1.2273v-0.07654c-5e-6 -0.35996-0.1332-0.63774-0.39958-0.83332-0.26322-0.19841-0.63425-0.29761-1.1131-0.29762-0.30444 4.2e-6 -0.60095 0.0326-0.88954 0.097789-0.28858 0.065196-0.56607 0.16299-0.83245 0.29337v-0.72279c0.32029-0.11054 0.63108-0.19274 0.93235-0.2466 0.30127-0.056685 0.59461-0.085029 0.88002-0.085034 0.77061 5e-6 1.3462 0.17858 1.7267 0.53571 0.38055 0.35715 0.57082 0.89853 0.57083 1.6241" style="fill:#414141"/>
   <path id="text2849" d="m12.975 14.852c0.38269 1e-6 0.67387-0.12366 0.87354-0.37098 0.20299-0.24732 0.30449-0.60652 0.30449-1.0776-4e-6 -0.47108-0.10151-0.83028-0.30449-1.0776-0.19967-0.24731-0.49085-0.37097-0.87354-0.37098-0.3827 5e-6 -0.67721 0.12514-0.88353 0.37539-0.203 0.24732-0.30449 0.60505-0.30449 1.0732-4e-6 0.46814 0.10149 0.82734 0.30449 1.0776 0.20632 0.24732 0.50083 0.37098 0.88353 0.37098m-1.188-3.2019c0.24625-0.28853 0.51913-0.50052 0.81863-0.63596 0.2995-0.13838 0.64392-0.20757 1.0333-0.20757 0.68885 4e-6 1.2546 0.24291 1.6972 0.72871 0.44259 0.48286 0.66389 1.1056 0.66389 1.8681-7e-6 0.76257-0.2213 1.3868-0.66389 1.8726-0.4426 0.48286-1.0083 0.72429-1.6972 0.72429-0.38936 0-0.73378-0.06772-1.0333-0.20315-0.2995-0.13838-0.57238-0.35184-0.81863-0.64038v0.71546h-1.787v-6.8719h1.787v2.6498" style="fill:#414141"/>
   <path id="text2853" d="m8.4144 19.137c-0.28499 0.6066-0.67928 1.0687-1.1829 1.3863-0.5036 0.31757-1.0989 0.47636-1.786 0.47636-0.9057 0-1.5733-0.27297-2.0027-0.81891-0.42943-0.54951-0.54654-1.2774-0.35135-2.1838 0.19909-0.9099 0.63242-1.636 1.3-2.1784 0.67146-0.54593 1.46-0.8189 2.3657-0.81891 0.39428 5e-6 0.77686 0.04283 1.1477 0.12846 0.37476 0.082068 0.73978 0.20875 1.095 0.38002l-0.31621 1.4558h-0.62657c0.027321-0.49955-0.072227-0.86351-0.29865-1.0919-0.22253-0.22836-0.58949-0.34254-1.1009-0.34255-0.58168 5e-6 -1.0677 0.20696-1.4581 0.62087-0.38649 0.41035-0.66952 1.0259-0.84909 1.8466-0.17958 0.8207-0.16787 1.438 0.035135 1.8519 0.2069 0.41392 0.60314 0.62088 1.1887 0.62088 0.46456 1e-6 0.85885-0.11062 1.1829-0.33185 0.32792-0.22123 0.59143-0.55486 0.79053-1.0009h0.86666" style="fill:#414141"/>
  </g>
 </g>
</svg>
