<?xml version="1.0" encoding="UTF-8"?>
<!-- Created with Inkscape (http://www.inkscape.org/) -->
<svg id="svg7384" width="24" height="24" version="1.1" viewBox="0 0 24 24" xmlns="http://www.w3.org/2000/svg" xmlns:cc="http://creativecommons.org/ns#" xmlns:dc="http://purl.org/dc/elements/1.1/" xmlns:rdf="http://www.w3.org/1999/02/22-rdf-syntax-ns#">
 <metadata id="metadata90">
  <rdf:RDF>
   <cc:Work rdf:about="">
    <dc:format>image/svg+xml</dc:format>
    <dc:type rdf:resource="http://purl.org/dc/dcmitype/StillImage"/>
    <dc:title>Gnome Symbolic Icon Theme</dc:title>
   </cc:Work>
  </rdf:RDF>
 </metadata>
 <title id="title9167">Gnome Symbolic Icon Theme</title>
 <g id="g4239" transform="scale(1.5)">
  <g id="layer10" transform="translate(199,-447)">
   <path id="path5068" transform="matrix(.66667 0 0 .66667 -199 447)" d="m7.5508 1c-1.4256 0-2.5508 1.0184-2.5508 2.3086v17.383c0 1.2902 1.1251 2.3086 2.5508 2.3086h8.8984c1.4256 0 2.5508-1.0184 2.5508-2.3086v-17.383c0-1.2902-1.1251-2.3086-2.5508-2.3086h-8.8984zm-0.55078 2h10v17h-10v-17zm5 18a0.5 0.5 0 0 1 0.5 0.5 0.5 0.5 0 0 1-0.5 0.5 0.5 0.5 0 0 1-0.5-0.5 0.5 0.5 0 0 1 0.5-0.5z" style="fill:#222;stroke-width:1.6519"/>
  </g>
 </g>
</svg>
