<?xml version="1.0" encoding="UTF-8"?>
<svg id="svg30571" width="24" height="24" version="1.1" viewBox="0 0 24 24" xmlns="http://www.w3.org/2000/svg" xmlns:cc="http://creativecommons.org/ns#" xmlns:dc="http://purl.org/dc/elements/1.1/" xmlns:rdf="http://www.w3.org/1999/02/22-rdf-syntax-ns#">
 <metadata id="metadata30576">
  <rdf:RDF>
   <cc:Work rdf:about="">
    <dc:format>image/svg+xml</dc:format>
    <dc:type rdf:resource="http://purl.org/dc/dcmitype/StillImage"/>
    <dc:creator>
     <cc:Agent>
      <dc:title>Klaus Staedtler</dc:title>
     </cc:Agent>
    </dc:creator>
    <dc:title/>
   </cc:Work>
  </rdf:RDF>
 </metadata>
 <g id="layer1" transform="translate(0 -1028.4)">
  <g id="g4254">
   <rect id="rect6884" y="1028.4" width="24" height="24" style="fill:none;opacity:.3"/>
   <g id="gimp-layers" transform="matrix(1.5 0 0 1.5 -61.5 369.86)">
    <rect id="rect11958" x="41" y="439" width="16" height="16" style="fill:none"/>
   </g>
   <path id="path8" d="m24 1029.4-17.94 0.0949-6.0603 9.9051h17.999zm-17.649 0.529 1.4724 0.04-0.83174 1.4859h-1.5048l0.86407-1.5252zm2.8685 0 1.4695 0.04-0.8288 1.4859h-1.5048l0.86407-1.5252zm2.8655 0 1.4724 0.04-0.83174 1.4859h-1.5048l0.86407-1.5252zm2.8655 0 1.4724 0.04-0.83174 1.4859h-1.5048l0.86407-1.5252zm2.8655 0 1.4724 0.04-0.83174 1.4859h-1.5048l0.86407-1.5252zm2.8685 0 1.4695 0.04-0.8288 1.4859h-1.5048l0.86407-1.5252zm-15.641 2.3057 1.4724 0.037-0.83174 1.4894h-1.5048l0.86407-1.5254zm14.392 0.1133 1.4724 0.038-0.83174 1.486h-1.5048l0.86407-1.5251zm-15.656 2.2143 1.4724 0.037-0.83174 1.486h-1.5048l0.86407-1.5218zm14.395 0.1134 1.4695 0.037-0.83174 1.4893h-1.5048l0.86701-1.5253zm-15.724 2.4722 1.4695 0.037-0.83174 1.486h-1.5048l0.86701-1.522zm2.8655 0 1.4724 0.037-0.83174 1.486h-1.5048l0.86407-1.522zm2.8655 0 1.4724 0.037-0.83174 1.486h-1.5048l0.86407-1.522zm2.8655 0 1.4724 0.037-0.83174 1.486h-1.5048l0.86407-1.522zm2.8685 0 1.4695 0.037-0.83174 1.486h-1.5048l0.86701-1.522zm2.8655 0 1.4695 0.037-0.8288 1.486h-1.5048l0.86407-1.522z" style="fill:#222;stroke-width:1.5862"/>
   <path id="path8-8" d="m24 1041.4-17.94 0.0953-6.0603 9.9047h17.999l6.0015-9.9994zm-17.649 0.529 1.4724 0.04-0.83174 1.4857h-1.5048l0.86407-1.525zm2.8685 0 1.4695 0.04-0.8288 1.4857h-1.5048l0.86407-1.525zm2.8655 0 1.4724 0.04-0.83174 1.4857h-1.5048l0.86407-1.525zm2.8655 0 1.4724 0.04-0.83174 1.4857h-1.5048l0.86407-1.525zm2.8655 0 1.4724 0.04-0.83174 1.4857h-1.5048l0.86407-1.525zm2.8685 0 1.4695 0.04-0.8288 1.4857h-1.5048l0.86407-1.525zm-15.641 2.3056 1.4724 0.037-0.83174 1.4894h-1.5048l0.86407-1.5254zm14.392 0.1133 1.4724 0.038-0.83174 1.486h-1.5048l0.86407-1.525zm-15.656 2.214 1.4724 0.037-0.83174 1.4857h-1.5048l0.86407-1.5217zm14.395 0.1133 1.4695 0.037-0.83174 1.4891h-1.5048l0.86701-1.5251zm-15.724 2.4721 1.4695 0.037-0.83174 1.486h-1.5048l0.86701-1.5218zm2.8655 0 1.4724 0.037-0.83174 1.486h-1.5048l0.86407-1.5218zm2.8655 0 1.4724 0.037-0.83174 1.486h-1.5048l0.86407-1.5218zm2.8655 0 1.4724 0.037-0.83174 1.486h-1.5048l0.86407-1.5218zm2.8685 0 1.4695 0.037-0.83174 1.486h-1.5048l0.86701-1.5218zm2.8655 0 1.4695 0.037-0.8288 1.486h-1.5048l0.86407-1.5218z" style="fill:#222;opacity:.3;stroke-width:1.5862"/>
  </g>
 </g>
</svg>
