<?xml version="1.0" encoding="UTF-8"?>
<!-- Created with Inkscape (http://www.inkscape.org/) -->
<svg id="svg11300" width="24" height="24" version="1.0" viewBox="0 0 24 24" xmlns="http://www.w3.org/2000/svg" xmlns:cc="http://creativecommons.org/ns#" xmlns:dc="http://purl.org/dc/elements/1.1/" xmlns:rdf="http://www.w3.org/1999/02/22-rdf-syntax-ns#">
 <metadata id="metadata4">
  <rdf:RDF>
   <cc:Work rdf:about="">
    <dc:format>image/svg+xml</dc:format>
    <dc:type rdf:resource="http://purl.org/dc/dcmitype/StillImage"/>
    <dc:creator>
     <cc:Agent>
      <dc:title/>
     </cc:Agent>
    </dc:creator>
    <dc:source>http://jimmac.musichall.cz</dc:source>
    <cc:license rdf:resource="http://creativecommons.org/licenses/by-sa/2.0/"/>
    <dc:title/>
   </cc:Work>
   <cc:License rdf:about="http://creativecommons.org/licenses/by-sa/2.0/">
    <cc:permits rdf:resource="http://web.resource.org/cc/Reproduction"/>
    <cc:permits rdf:resource="http://web.resource.org/cc/Distribution"/>
    <cc:requires rdf:resource="http://web.resource.org/cc/Notice"/>
    <cc:requires rdf:resource="http://web.resource.org/cc/Attribution"/>
    <cc:permits rdf:resource="http://web.resource.org/cc/DerivativeWorks"/>
    <cc:requires rdf:resource="http://web.resource.org/cc/ShareAlike"/>
   </cc:License>
  </rdf:RDF>
 </metadata>
 <g id="layer1" transform="translate(0,8)">
  <g id="g4296">
   <path id="rect8481" d="m1-7v10h6.6354l5.5994-5.9993 1.7652 1.8913v-5.8919z" style="fill-rule:evenodd;fill:#222"/>
   <rect id="rect4027" y="-8" width="23.975" height="24" style="color-rendering:auto;color:#ffffff;image-rendering:auto;isolation:auto;mix-blend-mode:normal;opacity:0;shape-rendering:auto;solid-color:#ffffff;stroke-width:.29985"/>
   <path id="path8487-9" d="m21-2.0376c-0.020254-3.948-0.035914-3.9348-4.9946-3.9624l-0.00544 2c2.9965 0.00956 2.9817 0.058528 3 2l-2.9843 0.037599-0.015659 0.9624 3.7503 3 4.2497-3v-1z" style="fill-rule:evenodd;fill:#222"/>
   <rect id="rect8467-2" transform="rotate(45)" x="9.0292" y="-10.443" width="13.054" height="9.5732" style="fill-rule:evenodd;fill:#222"/>
   <path id="path8487-9-8" d="m3 11.038c0.02025 3.948 0.03591 3.9348 4.9946 3.9624l0.0054-2c-2.9965-0.0096-2.9817-0.05853-3-2l2.9843-0.0376 0.01566-0.9624-3.7503-3-4.2497 3v1z" style="fill-rule:evenodd;fill:#222"/>
  </g>
 </g>
</svg>
