<?xml version="1.0" encoding="UTF-8"?>
<!-- Created with Inkscape (http://www.inkscape.org/) -->
<svg id="svg30571" width="24" height="24" version="1.1" viewBox="0 0 24 24" xmlns="http://www.w3.org/2000/svg" xmlns:cc="http://creativecommons.org/ns#" xmlns:dc="http://purl.org/dc/elements/1.1/" xmlns:osb="http://www.openswatchbook.org/uri/2009/osb" xmlns:rdf="http://www.w3.org/1999/02/22-rdf-syntax-ns#" xmlns:xlink="http://www.w3.org/1999/xlink">
 <defs id="defs30573">
  <linearGradient id="linearGradient19282-4" gradientTransform="matrix(.34683 0 0 .30621 -482.62 330.96)" osb:paint="solid">
   <stop id="stop19284-0" style="stop-color:#222" offset="0"/>
  </linearGradient>
  <linearGradient id="linearGradient10076" x1="202" x2="216" y1="287.5" y2="287.5" gradientTransform="matrix(1.5714 0 0 2 -316.43 468.36)" gradientUnits="userSpaceOnUse" xlink:href="#linearGradient19282-4"/>
  <linearGradient id="linearGradient10080" x1="202" x2="206" y1="290.5" y2="290.5" gradientTransform="matrix(1.5 0 0 1.6667 -302 564.7)" gradientUnits="userSpaceOnUse" xlink:href="#linearGradient19282-4"/>
  <linearGradient id="linearGradient10078" x1="212" x2="216" y1="290.5" y2="290.5" gradientTransform="matrix(1.5 0 0 1.6667 -301 564.7)" gradientUnits="userSpaceOnUse" xlink:href="#linearGradient19282-4"/>
  <linearGradient id="linearGradient10064" x1="202" x2="216" y1="281" y2="281" gradientTransform="matrix(1.5714 0 0 1.5 -316.43 612.86)" gradientUnits="userSpaceOnUse" xlink:href="#linearGradient19282-4"/>
  <linearGradient id="linearGradient10070" x1="203" x2="215" y1="282.5" y2="282.5" gradientTransform="matrix(1.6667 0 0 1.6667 -336.33 566.03)" gradientUnits="userSpaceOnUse" xlink:href="#linearGradient19282-4"/>
 </defs>
 <metadata id="metadata30576">
  <rdf:RDF>
   <cc:Work rdf:about="">
    <dc:format>image/svg+xml</dc:format>
    <dc:type rdf:resource="http://purl.org/dc/dcmitype/StillImage"/>
    <dc:title/>
    <dc:creator>
     <cc:Agent>
      <dc:title>Klaus Staedtler</dc:title>
     </cc:Agent>
    </dc:creator>
   </cc:Work>
  </rdf:RDF>
 </metadata>
 <g id="layer1" transform="translate(0 -1028.4)">
  <g id="g9783">
   <rect id="rect5420" x="-2.4536e-6" y="1028.4" width="24" height="24" style="fill:none"/>
   <rect id="rect5422" x="1" y="1042.4" width="22" height="2" style="fill:url(#linearGradient10076)"/>
   <path id="path5424" d="m4 1046.4-3 5h6z" style="fill:url(#linearGradient10080)"/>
   <path id="path5424-6" d="m20 1046.4-3 5h6z" style="fill:url(#linearGradient10078)"/>
   <path id="rect5444" d="m1 1028.4v12h22v-12zm1 1h20v10h-20z" style="fill:url(#linearGradient10064)"/>
   <path id="path5449" d="m2 1039.4 1.0417-0.8854 0.625-0.7813h1.6667l1.6667-1.6666h1.6667l1.6667 1.6666h1.6667l0.78125 1.6667h1.5104l1.0417-1.6667 1.6667-1.6666v-1.6667l1.6667 1.6667 1.6667 1.6666 1.6667 0.6771v0.9896z" style="fill:url(#linearGradient10070)"/>
  </g>
 </g>
</svg>
