<?xml version="1.0" encoding="UTF-8"?>
<svg id="svg7384" width="24" height="24" version="1.1" viewBox="0 0 24 24" xmlns="http://www.w3.org/2000/svg" xmlns:cc="http://creativecommons.org/ns#" xmlns:dc="http://purl.org/dc/elements/1.1/" xmlns:osb="http://www.openswatchbook.org/uri/2009/osb" xmlns:rdf="http://www.w3.org/1999/02/22-rdf-syntax-ns#" xmlns:xlink="http://www.w3.org/1999/xlink">
 <metadata id="metadata90">
  <rdf:RDF>
   <cc:Work rdf:about="">
    <dc:format>image/svg+xml</dc:format>
    <dc:type rdf:resource="http://purl.org/dc/dcmitype/StillImage"/>
    <dc:title/>
    <dc:contributor>
     <cc:Agent>
      <dc:title>Barbara Muraus, Jakub Steiner, Klaus Staedtler</dc:title>
     </cc:Agent>
    </dc:contributor>
    <dc:description>Images originally created as the "Art Libre" icon set. Extended and adopted for GIMP</dc:description>
   </cc:Work>
  </rdf:RDF>
 </metadata>
 <defs id="defs7386">
  <linearGradient id="linearGradient19282-4" gradientTransform="matrix(.34683 0 0 .30621 -39.352 761.04)" osb:paint="solid">
   <stop id="stop19284-0" style="stop-color:#bebebe" offset="0"/>
  </linearGradient>
  <linearGradient id="linearGradient7458" x1="117" x2="127" y1="7.5" y2="7.5" gradientTransform="matrix(1.6 0 0 1.5714 1113.1 559.09)" gradientUnits="userSpaceOnUse" xlink:href="#linearGradient19282-4"/>
  <linearGradient id="linearGradient7460" x1="124" x2="130.99" y1="3.5442" y2="3.5442" gradientTransform="matrix(1.5742 0 0 1.5722 1094.2 559.6)" gradientUnits="userSpaceOnUse" xlink:href="#linearGradient19282-4"/>
  <linearGradient id="linearGradient7462" x1="115" x2="129" y1="8.9936" y2="8.9936" gradientTransform="matrix(1.4986 0 0 1.4986 1042.8 533.49)" gradientUnits="userSpaceOnUse" xlink:href="#linearGradient19282-4"/>
 </defs>
 <g id="g4263">
  <path id="rect5882-6" d="m0 2v22h22v-12c-0.53748-0.33978-1.5792-0.80006-2-1v7.0055h-18l-4.924e-4 -14.005h9.9002l-0.9-2z" style="fill:url(#linearGradient7462)"/>
  <path id="rect10683-6" d="m3 5v12h1c0-1.1867 1.1745-2.5 2.5-2.5 1.3255 0 2.5 1.3133 2.5 2.5h2v-2.3571c2.24e-4 -1.549-1.1638-2.3163-3.2-3.2411 0 0 0.047201 5.81e-4 0.4 0 0.65285 0.13121 2.2114 0.55016 2.8 0.93304-0.1571-0.5587-0.22562-1.4041-0.7-2.1116-0.47442-0.70743-2.5-2.1116-2.5-2.1116l0.1-0.049107c0.08912-0.063171 1.5125 1.2029 2 1.0804-0.21624-0.51067-0.41518-0.99735-0.65-1.2768l0.3-0.049107c0.57006 0.92945 0.74694 1.1363 1.35 1.817 0.19955 0.089729-0.04976-0.066471 1.7-0.93304v0.44196s-1.7 0.48703-1.2 1.4241c0.35597 0.48043 0.63717 1.5875 1.2 1.7187 0 0 0.07877-0.76492 0.9-1.5714l0.5-3.1429-1.5-2.5714zm16 5.8616c-1.2772 0.60601-3.2275 2.0944-4.45 2.4554-0.11362 0.17355-0.26309 0.32961-0.35 0.54018v3.1429h4.8z" style="fill:url(#linearGradient7458);opacity:.3"/>
  <path id="path12190" d="m22.448 10.933c-0.6347 0.47268-3.1326-1.7666-3.9149-1.7699-0.78266-0.00315-3.3274 2.2479-3.9588 1.7699-0.63114-0.47776 1.1718-3.2155 0.93304-3.9854-0.23877-0.77026-2.7351-2.0858-2.4904-2.8541 0.24464-0.76798 3.0776-0.50164 3.7124-0.97417 0.63506-0.47271 1.0049-3.1229 1.7876-3.1197 0.78233 0.003144 1.198 2.6418 1.829 3.1197 0.63127 0.47811 3.3991 0.25077 3.6381 1.0209 0.23887 0.76988-2.2678 2.0633-2.5126 2.8312-0.24493 0.76819 1.6115 3.4887 0.97654 3.9615z" style="color:#000000;fill:url(#linearGradient7460)"/>
 </g>
</svg>
