<?xml version="1.0" encoding="UTF-8"?>
<!-- Created with Inkscape (http://www.inkscape.org/) -->
<svg id="svg30571" width="24" height="24" version="1.1" viewBox="0 0 24 24" xmlns="http://www.w3.org/2000/svg" xmlns:cc="http://creativecommons.org/ns#" xmlns:dc="http://purl.org/dc/elements/1.1/" xmlns:osb="http://www.openswatchbook.org/uri/2009/osb" xmlns:rdf="http://www.w3.org/1999/02/22-rdf-syntax-ns#" xmlns:xlink="http://www.w3.org/1999/xlink">
 <defs id="defs30573">
  <linearGradient id="linearGradient19282-4" gradientTransform="matrix(.34683 0 0 .30621 -482.62 330.96)" osb:paint="solid">
   <stop id="stop19284-0" style="stop-color:#bebebe" offset="0"/>
  </linearGradient>
  <linearGradient id="linearGradient7315" x2="16" y1="1038.9" y2="1038.9" gradientTransform="matrix(1.5 0 0 1.4 0 -422.54)" gradientUnits="userSpaceOnUse" xlink:href="#linearGradient19282-4"/>
  <linearGradient id="linearGradient7321" x1="6.5" x2="10.5" y1="1045.4" y2="1045.4" gradientTransform="matrix(1.5 0 0 1.5 .25 -526.18)" gradientUnits="userSpaceOnUse" xlink:href="#linearGradient19282-4"/>
  <linearGradient id="linearGradient7327" x2="7" y1="1047.7" y2="1047.7" gradientTransform="matrix(1.5 0 0 1.5 0 -526.18)" gradientUnits="userSpaceOnUse" xlink:href="#linearGradient19282-4"/>
 </defs>
 <metadata id="metadata30576">
  <rdf:RDF>
   <cc:Work rdf:about="">
    <dc:format>image/svg+xml</dc:format>
    <dc:type rdf:resource="http://purl.org/dc/dcmitype/StillImage"/>
    <dc:title/>
    <dc:creator>
     <cc:Agent>
      <dc:title>Klaus Staedtler</dc:title>
     </cc:Agent>
    </dc:creator>
   </cc:Work>
  </rdf:RDF>
 </metadata>
 <g id="layer1" transform="translate(0 -1028.4)">
  <g id="g10334">
   <path id="rect3154" d="m0 1028.4v7h12l5-7zm17 0v7h7v-7z" style="color-rendering:auto;color:#000000;fill:url(#linearGradient7315);image-rendering:auto;isolation:auto;mix-blend-mode:normal;shape-rendering:auto;solid-color:#000000"/>
   <path id="rect3154-4" d="m16 1031.4-6 8.9997v2.0004l3 3-3 3.5v3.4995l6 5e-4v-21z" style="color-rendering:auto;color:#000000;fill:url(#linearGradient7321);image-rendering:auto;isolation:auto;mix-blend-mode:normal;shape-rendering:auto;solid-color:#000000"/>
   <path id="path15820-9" d="m7.5 1041.9 1e-6 3-4.6337 0.036c-0.6882 0.0051-1.3663-0.9389-1.3663-1.7261v-0.8099h-1.5v0.8099c0 1.8004 1.2929 3.2136 2.866 3.1901h4.634l-8e-7 3 3-4z" style="color:#000000;fill:url(#linearGradient7327);stroke-width:1.5673"/>
  </g>
 </g>
</svg>
