<?xml version="1.0" encoding="UTF-8"?>
<!-- Created with Inkscape (http://www.inkscape.org/) -->
<svg id="svg7384" width="16" height="16" version="1.1" viewBox="0 0 16 16" xmlns="http://www.w3.org/2000/svg" xmlns:cc="http://creativecommons.org/ns#" xmlns:dc="http://purl.org/dc/elements/1.1/" xmlns:rdf="http://www.w3.org/1999/02/22-rdf-syntax-ns#">
 <metadata id="metadata90">
  <rdf:RDF>
   <cc:Work rdf:about="">
    <dc:format>image/svg+xml</dc:format>
    <dc:type rdf:resource="http://purl.org/dc/dcmitype/StillImage"/>
    <dc:title>Gnome Symbolic Icon Theme</dc:title>
   </cc:Work>
  </rdf:RDF>
 </metadata>
 <title id="title9167">Gnome Symbolic Icon Theme</title>
 <g id="g4237">
  <g id="layer11" transform="matrix(1 0 0 .99995 -202 -489.98)">
   <path id="rect11668-7" d="m205.19 490c-1.21 0-2.19 1.02-2.19 2.22v11.562c0 1.2008 0.98238 2.2188 2.1875 2.2188h9.625c1.2051 0 2.1875-1.018 2.1875-2.2188v-11.562c-0.01-1.2-0.99-2.22-2.2-2.22h-9.625zm-0.1875 3h10v11h-10zm1 1v4h8.0312v-4h-8.03zm2.3438 1.4375a0.50005 0.50005 0 0 1 0.0625 0 0.50005 0.50005 0 0 1 0.59375 0.5v0.0625h2v-0.0625a0.50005 0.50005 0 1 1 1 0v0.06c0 0.54535-0.45465 1-1 1h-2c-0.54535 0-1-0.45465-1-1v-0.0625a0.50005 0.50005 0 0 1 0.34375-0.5zm-2.3125 3.5625v4h8.0312v-4zm2.3125 1.4375a0.50005 0.50005 0 0 1 0.0625 0 0.50005 0.50005 0 0 1 0.59375 0.5v0.0625h2v-0.0625a0.50005 0.50005 0 1 1 1 0v0.06c0 0.54535-0.45465 1-1 1h-2c-0.54535 0-1-0.45465-1-1v-0.0625a0.50005 0.50005 0 0 1 0.34375-0.5z" style="color:#ffffff;fill-rule:evenodd;fill:#414141"/>
  </g>
 </g>
</svg>
