<?xml version="1.0" encoding="UTF-8"?>
<svg id="svg7384" width="16" height="16" version="1.1" viewBox="0 0 16 16" xmlns="http://www.w3.org/2000/svg" xmlns:cc="http://creativecommons.org/ns#" xmlns:dc="http://purl.org/dc/elements/1.1/" xmlns:osb="http://www.openswatchbook.org/uri/2009/osb" xmlns:rdf="http://www.w3.org/1999/02/22-rdf-syntax-ns#" xmlns:xlink="http://www.w3.org/1999/xlink">
 <metadata id="metadata90">
  <rdf:RDF>
   <cc:Work rdf:about="">
    <dc:format>image/svg+xml</dc:format>
    <dc:type rdf:resource="http://purl.org/dc/dcmitype/StillImage"/>
    <dc:title/>
    <dc:contributor>
     <cc:Agent>
      <dc:title>Barbara Muraus, Jakub Steiner, Klaus Staedtler</dc:title>
     </cc:Agent>
    </dc:contributor>
    <dc:description>Images originally created as the "Art Libre" icon set. Extended and adopted for GIMP</dc:description>
   </cc:Work>
  </rdf:RDF>
 </metadata>
 <defs id="defs7386">
  <linearGradient id="linearGradient8340" x2="16" y1="8" y2="8" gradientTransform="translate(898.16 422.07)" gradientUnits="userSpaceOnUse">
   <stop id="stop19284-0" style="stop-color:#414141" offset="0"/>
  </linearGradient>
 </defs>
 <g id="preferences" transform="translate(-284.83 -264.07)">
  <g id="gimp-prefs-folders-tool-plug-ins" transform="translate(269.83 304.07)">
   <path id="rect3845-5" transform="translate(15,-40)" d="m0.53125 0c-0.28913 0-0.53125 0.24212-0.53125 0.53125v14.938c0 0.2985 0.23264 0.53125 0.53125 0.53125h14.938c0.2986 0 0.53125-0.23265 0.53125-0.53125v-9.9375c0-0.2891-0.24212-0.53125-0.53125-0.53125h-12.469v8.5c0 0.277-0.223 0.5-0.5 0.5s-0.5-0.223-0.5-0.5v-9c0-0.277 0.223-0.5 0.5-0.5h2.9688 8.5312v-1.4062c0-0.3272-0.26666-0.59375-0.59375-0.59375h-7.4062v-1.4688c0-0.28915-0.24212-0.53125-0.53125-0.53125zm8.5938 5.9434h3.5312c1.1015 0 1.582 0.85463 1.582 1.6602v7.3398h-5.1133zm0.85742 0.85742v0.41211c0.00885-0.0011 0.014286-0.00977 0.023437-0.00977h1.3926c0.11874 0 0.21484 0.094153 0.21484 0.21289 0 0.11874-0.09611 0.21484-0.21484 0.21484h-1.3926c-0.00915 0-0.014591-0.00866-0.023437-0.00977v0.46094c0.018241-0.00502 0.030902-0.021484 0.050781-0.021484h0.50781c0.11874 0 0.21484 0.094153 0.21484 0.21289 0 0.11874-0.09611 0.21484-0.21484 0.21484h-0.50781c-0.01988 0-0.03254-0.016466-0.050781-0.021484v0.47266c0.018241-0.00502 0.030902-0.021484 0.050781-0.021484h0.50781c0.11874 0 0.21484 0.094153 0.21484 0.21289 0 0.11874-0.09611 0.21484-0.21484 0.21484h-0.50781c-0.01988 0-0.03254-0.016466-0.050781-0.021484v0.47266c0.018241-0.00502 0.030902-0.021484 0.050781-0.021484h0.50781c0.11874 0 0.21484 0.094153 0.21484 0.21289 0 0.11874-0.09611 0.21484-0.21484 0.21484h-0.50781c-0.01988 0-0.03254-0.01647-0.050781-0.02148v0.45898c0.00881-0.0011 0.014326-0.0098 0.023437-0.0098h1.3926c0.11874 0 0.21484 0.09611 0.21484 0.21484 0 0.11874-0.09611 0.21484-0.21484 0.21484h-1.3926c-0.00915 0-0.014591-0.0087-0.023437-0.0098v0.45898c0.018241-5e-3 0.030902-0.02149 0.050781-0.02149h0.50781c0.11874 0 0.21484 0.09611 0.21484 0.21484 0 0.11874-0.09611 0.21484-0.21484 0.21484h-0.50781c-0.01988 0-0.03254-0.01647-0.050781-0.02149v0.4707c0.018241-5e-3 0.030902-0.02149 0.050781-0.02149h0.50781c0.11874 0 0.21484 0.09611 0.21484 0.21484 0 0.11874-0.09611 0.21484-0.21484 0.21484h-0.50781c-0.01988 0-0.03254-0.01647-0.050781-0.02149v0.4707c0.018241-5e-3 0.030902-0.02148 0.050781-0.02148h0.50781c0.11874 0 0.21484 0.09611 0.21484 0.21484 0 0.11874-0.09611 0.21484-0.21484 0.21484h-0.50781c-0.01988 0-0.03254-0.01647-0.050781-0.02148v0.46289h3.4023v-6.4433c0-0.48301-0.21473-0.83008-0.77734-0.83008z" style="fill:url(#linearGradient8340)"/>
  </g>
 </g>
</svg>
