<?xml version="1.0" encoding="UTF-8"?>
<svg id="svg7384" width="16" height="16" version="1.1" viewBox="0 0 16 16" xmlns="http://www.w3.org/2000/svg" xmlns:cc="http://creativecommons.org/ns#" xmlns:dc="http://purl.org/dc/elements/1.1/" xmlns:osb="http://www.openswatchbook.org/uri/2009/osb" xmlns:rdf="http://www.w3.org/1999/02/22-rdf-syntax-ns#" xmlns:xlink="http://www.w3.org/1999/xlink">
 <metadata id="metadata90">
  <rdf:RDF>
   <cc:Work rdf:about="">
    <dc:format>image/svg+xml</dc:format>
    <dc:type rdf:resource="http://purl.org/dc/dcmitype/StillImage"/>
    <dc:title/>
    <dc:contributor>
     <cc:Agent>
      <dc:title>Barbara Muraus, Jakub Steiner, Klaus Staedtler</dc:title>
     </cc:Agent>
    </dc:contributor>
    <dc:description>Images originally created as the "Art Libre" icon set. Extended and adopted for GIMP</dc:description>
   </cc:Work>
  </rdf:RDF>
 </metadata>
 <defs id="defs7386">
  <linearGradient id="linearGradient19282-4" gradientTransform="matrix(.34683 0 0 .30621 46.648 484.04)" osb:paint="solid">
   <stop id="stop19284-0" style="stop-color:#414141" offset="0"/>
  </linearGradient>
  <linearGradient id="linearGradient10064" x1="202" x2="216" y1="281" y2="281" gradientTransform="translate(278.11 207.88)" gradientUnits="userSpaceOnUse" xlink:href="#linearGradient19282-4"/>
  <linearGradient id="linearGradient10070" x1="203" x2="215" y1="282.5" y2="282.5" gradientTransform="translate(278.11 207.88)" gradientUnits="userSpaceOnUse" xlink:href="#linearGradient19282-4"/>
  <linearGradient id="linearGradient10076" x1="202" x2="216" y1="287.5" y2="287.5" gradientTransform="translate(278.11 207.88)" gradientUnits="userSpaceOnUse" xlink:href="#linearGradient19282-4"/>
  <linearGradient id="linearGradient10078" x1="212" x2="216" y1="290.5" y2="290.5" gradientTransform="translate(278.11 207.88)" gradientUnits="userSpaceOnUse" xlink:href="#linearGradient19282-4"/>
  <linearGradient id="linearGradient10080" x1="202" x2="206" y1="290.5" y2="290.5" gradientTransform="translate(278.11 207.88)" gradientUnits="userSpaceOnUse" xlink:href="#linearGradient19282-4"/>
 </defs>
 <g id="tools" transform="translate(12.521 -272.4)">
  <g id="gimp-tool-threshold" transform="translate(-213.52 -4.5981)">
   <rect id="rect5422" x="202" y="287" width="14" height="1" style="fill:url(#linearGradient10076)"/>
   <path id="path5424" d="m204 289-2 3h4z" style="fill:url(#linearGradient10080)"/>
   <path id="path5424-6" d="m214 289-2 3h4z" style="fill:url(#linearGradient10078)"/>
   <path id="rect5444" d="m202 277v8h14v-8zm1 1h12v6h-12z" style="fill:url(#linearGradient10064)"/>
   <path id="path5449" d="m203 284 0.625-0.53125 0.375-0.46875h1l1-1h1l1 1h1l0.46875 1h0.90625l0.625-1 1-1v-1l2 2 1 0.40625v0.59375z" style="fill:url(#linearGradient10070)"/>
  </g>
 </g>
</svg>
