<?xml version="1.0" encoding="UTF-8"?>
<svg id="svg7384" width="16" height="16" version="1.1" viewBox="0 0 16 16" xmlns="http://www.w3.org/2000/svg" xmlns:cc="http://creativecommons.org/ns#" xmlns:dc="http://purl.org/dc/elements/1.1/" xmlns:osb="http://www.openswatchbook.org/uri/2009/osb" xmlns:rdf="http://www.w3.org/1999/02/22-rdf-syntax-ns#" xmlns:xlink="http://www.w3.org/1999/xlink">
 <metadata id="metadata90">
  <rdf:RDF>
   <cc:Work rdf:about="">
    <dc:format>image/svg+xml</dc:format>
    <dc:type rdf:resource="http://purl.org/dc/dcmitype/StillImage"/>
    <dc:title/>
    <dc:contributor>
     <cc:Agent>
      <dc:title>Barbara Muraus, Jakub Steiner, Klaus Staedtler</dc:title>
     </cc:Agent>
    </dc:contributor>
    <dc:description>Images originally created as the "Art Libre" icon set. Extended and adopted for GIMP</dc:description>
   </cc:Work>
  </rdf:RDF>
 </metadata>
 <defs id="defs7386">
  <linearGradient id="linearGradient8304" x1="55" x2="71" y1="28" y2="28" gradientTransform="translate(789.82 399.52)" gradientUnits="userSpaceOnUse">
   <stop id="stop19284-0" style="stop-color:#414141" offset="0"/>
  </linearGradient>
 </defs>
 <g id="preferences" transform="translate(-176.5 -241.52)">
  <g id="gimp-prefs-folders-dynamics" transform="translate(121.5 221.52)">
   <g id="g744" transform="translate(40,60)">
    <path id="path7460" transform="translate(-40,-60)" d="m55.531 20c-0.28913 0-0.53125 0.24212-0.53125 0.53125v14.938c0 0.2985 0.23264 0.53125 0.53125 0.53125h14.938c0.2986 0 0.53125-0.23265 0.53125-0.53125v-9.9375c0-0.2891-0.24212-0.53125-0.53125-0.53125h-12.469v8.5c0 0.277-0.223 0.5-0.5 0.5s-0.5-0.223-0.5-0.5v-9c0-0.277 0.223-0.5 0.5-0.5h2.9688 8.5312v-1.4062c0-0.3272-0.26666-0.59375-0.59375-0.59375h-7.4062v-1.4688c0-0.28915-0.24212-0.53125-0.53125-0.53125zm5.3438 6c0.2637-0.02075 0.53242 0.07118 0.75 0.25 0.43496 0.35745 0.49474 0.98525 0.125 1.4062-0.36957 0.42038-1.0025 0.45135-1.4375 0.09375-0.43508-0.35758-0.49471-0.9854-0.125-1.4062 0.18476-0.2102 0.4238-0.323 0.6875-0.34375zm3.0938 0.0625c0.26338-0.02428 0.52996 0.07409 0.75 0.25 0.43987 0.35166 0.52023 0.98063 0.15625 1.4062-0.36368 0.42564-1.0287 0.47671-1.4688 0.125-0.43993-0.35177-0.48889-0.98078-0.125-1.4062 0.18186-0.21286 0.42412-0.35072 0.6875-0.375zm-3.0938 2.9375c0.26546-0.02424 0.52826 0.04312 0.75 0.21875 0.44334 0.35119 0.49184 0.98122 0.125 1.4062-0.3666 0.42499-1.0253 0.50748-1.4688 0.15625-0.44345-0.35123-0.49175-0.98132-0.125-1.4062 0.18328-0.21252 0.45329-0.35076 0.71875-0.375zm4.3438 0c1.4303-0.11628 2.4062 1.375 2.4062 1.375l0.15625-0.125 1.2188-1.25v6h-6.1875l1.4062-1.3125s-2.801-1.8692-0.5625-3.9062c0.55962-0.50925 1.0857-0.74249 1.5625-0.78125z" style="fill:url(#linearGradient8304)"/>
   </g>
  </g>
 </g>
</svg>
