<?xml version="1.0" encoding="UTF-8"?>
<!-- Created with Inkscape (http://www.inkscape.org/) -->
<svg id="svg7384" width="16" height="16" version="1.1" viewBox="0 0 16 16" xmlns="http://www.w3.org/2000/svg" xmlns:cc="http://creativecommons.org/ns#" xmlns:dc="http://purl.org/dc/elements/1.1/" xmlns:rdf="http://www.w3.org/1999/02/22-rdf-syntax-ns#">
 <metadata id="metadata90">
  <rdf:RDF>
   <cc:Work rdf:about="">
    <dc:format>image/svg+xml</dc:format>
    <dc:type rdf:resource="http://purl.org/dc/dcmitype/StillImage"/>
    <dc:title>Gnome Symbolic Icon Theme</dc:title>
   </cc:Work>
  </rdf:RDF>
 </metadata>
 <g id="g4245">
  <g id="layer10" transform="translate(-121 -467)">
   <path id="rect2860" d="m123.97 468c-1.0753 0-1.9688 0.89336-1.9688 1.9687v9.4682l0.3125 0.28123 1.6875 1.6874v-11.405h10v9.9994h-2v1.9999h2.0312c1.0753 0 1.9688-0.89336 1.9688-1.9687v-10.061c0-1.0799-0.89-1.9699-1.97-1.9699z" style="color:#414141;fill:#414141;stroke-width:.99997;text-indent:0;text-transform:none"/>
   <path id="rect2880" d="m126 476c-0.554 0-1 0.446-1 1v4c0 0.554 0.446 1 1 1h4c0.554 0 1-0.446 1-1v-4c0-0.554-0.446-1-1-1zm0 1h2v4h-2z" style="color:#414141;fill:#414141"/>
  </g>
 </g>
</svg>
